<svg width="76" height="32" viewBox="0 0 76 32" fill="none" xmlns="http://www.w3.org/2000/svg">
<path d="M10.8345 16.295C10.9922 16.695 11.1016 17.0968 11.1628 17.5005C11.228 17.8988 11.2444 18.2942 11.2119 18.6867C11.1793 19.0792 11.0939 19.4573 10.9555 19.8209C10.8225 20.1887 10.6352 20.5324 10.3937 20.8523C9.98848 21.3889 9.4804 21.7969 8.8695 22.0761C8.26401 22.3594 7.60935 22.5162 6.90551 22.5466C6.21119 22.5755 5.49828 22.4713 4.76679 22.2339C4.0312 22.0019 3.33274 21.6362 2.67139 21.1368C2.01004 20.6374 1.46712 20.0657 1.04264 19.4217C0.614061 18.7831 0.315972 18.1239 0.148373 17.4441C-0.0151324 16.7589 -0.043502 16.0863 0.0632643 15.4264C0.170031 14.7664 0.426038 14.1682 0.831286 13.6315C1.0728 13.3117 1.34949 13.0354 1.66136 12.8028C1.97865 12.5742 2.3189 12.3885 2.68211 12.2457C3.05073 12.107 3.43551 12.0145 3.83644 11.9682C4.24688 11.9207 4.66329 11.9159 5.08568 11.954C4.99232 11.4238 4.99946 10.9015 5.10711 10.3869C5.22018 9.87649 5.4384 9.40714 5.76178 8.97889C6.10563 8.52354 6.5293 8.17101 7.03278 7.92133C7.54578 7.67031 8.08832 7.52671 8.6604 7.49054C9.23789 7.45847 9.82794 7.53376 10.4305 7.71642C11.0332 7.89908 11.6028 8.19303 12.1395 8.59828C12.6761 9.00353 13.1121 9.4689 13.4473 9.9944C13.7879 10.524 14.0218 11.0709 14.149 11.6351C14.2763 12.1993 14.2867 12.7605 14.1802 13.3185C14.0833 13.8752 13.8629 14.3812 13.5191 14.8366C13.1957 15.2648 12.8013 15.6011 12.3359 15.8455C11.8704 16.0899 11.37 16.2397 10.8345 16.295ZM8.79943 9.84268C8.72741 9.84788 8.64178 9.85982 8.54255 9.87852C8.44331 9.89721 8.34064 9.92609 8.23455 9.96514C8.12845 10.0042 8.0223 10.0602 7.91609 10.1332C7.81398 10.2008 7.72199 10.2888 7.64012 10.3973C7.55825 10.5057 7.49674 10.621 7.45559 10.7431C7.41852 10.8598 7.39573 10.9745 7.38721 11.0873C7.37869 11.2 7.37902 11.3066 7.3882 11.4072C7.39739 11.5078 7.40933 11.5934 7.42405 11.6641C7.4964 11.9741 7.63059 12.2754 7.82662 12.5682C8.02675 12.8555 8.27318 13.1097 8.56591 13.3307C8.85864 13.5518 9.16785 13.7172 9.49355 13.8269C9.82876 13.9353 10.1553 13.9819 10.4733 13.9666C10.5453 13.9614 10.6309 13.9495 10.7302 13.9308C10.8348 13.9162 10.9402 13.8894 11.0463 13.8503C11.1524 13.8113 11.2565 13.7579 11.3586 13.6903C11.4648 13.6173 11.5589 13.5266 11.6407 13.4182C11.7226 13.3098 11.7821 13.1972 11.8191 13.0805C11.8603 12.9584 11.8851 12.8409 11.8936 12.7282C11.9022 12.6155 11.8991 12.5068 11.8845 12.4021C11.8753 12.3015 11.8634 12.2159 11.8487 12.1452C11.7804 11.8298 11.6462 11.5285 11.4461 11.2411C11.2555 10.9525 11.0138 10.6977 10.7211 10.4766C10.4284 10.2556 10.1144 10.0908 9.77918 9.98242C9.44806 9.86857 9.12148 9.82199 8.79943 9.84268ZM6.82356 20.1865C6.92954 20.1814 7.05389 20.1689 7.19661 20.149C7.34474 20.1331 7.49498 20.0976 7.64732 20.0424C7.80375 19.9818 7.95548 19.9049 8.10251 19.8116C8.25364 19.7129 8.38855 19.585 8.50726 19.4278C8.62597 19.2706 8.7121 19.1058 8.76565 18.9334C8.81919 18.7611 8.85167 18.5941 8.86306 18.4324C8.87446 18.2708 8.86749 18.1166 8.84216 17.9698C8.82634 17.8216 8.80637 17.6959 8.78226 17.5926C8.67229 17.152 8.47466 16.7262 8.18934 16.3149C7.90403 15.9037 7.55267 15.5405 7.13526 15.2253C6.71243 14.906 6.26421 14.6655 5.7906 14.5036C5.31699 14.3417 4.85328 14.2682 4.39947 14.283C4.29348 14.2881 4.16438 14.3013 4.01215 14.3225C3.86943 14.3424 3.72191 14.38 3.56957 14.4352C3.41723 14.4904 3.2655 14.5673 3.11437 14.666C2.96325 14.7647 2.82833 14.8927 2.70962 15.0499C2.59091 15.2071 2.50479 15.3718 2.45124 15.5442C2.40178 15.7112 2.36931 15.8782 2.35382 16.0452C2.34243 16.2068 2.34668 16.359 2.3666 16.5017C2.39193 16.6485 2.41665 16.7736 2.44077 16.8769C2.54664 17.3229 2.74223 17.7515 3.02754 18.1627C3.31286 18.5739 3.66693 18.9392 4.08976 19.2585C4.50717 19.5736 4.95268 19.8122 5.42629 19.974C5.8999 20.1359 6.36565 20.2067 6.82356 20.1865Z" fill="#FB6107"/>
<path d="M20.0475 19.5685C20.8325 19.7881 21.5318 20.1248 22.1455 20.5786C22.7676 21.0277 23.2739 21.5502 23.6644 22.1461C24.0568 22.7355 24.316 23.3723 24.442 24.0564C24.5765 24.7359 24.5485 25.4158 24.3582 26.0961C24.1679 26.7765 23.8381 27.3755 23.3689 27.8932C22.908 28.4061 22.356 28.816 21.713 29.1228C21.0718 29.4231 20.3678 29.6071 19.6012 29.6748C18.843 29.7378 18.0714 29.6595 17.2864 29.44C16.7565 29.2918 16.2571 29.0851 15.7881 28.8199C15.3257 28.5565 14.9074 28.2491 14.5331 27.8975C14.1654 27.5478 13.8474 27.1591 13.5791 26.7313C13.3174 26.3054 13.1222 25.8558 12.9936 25.3826L15.2631 24.7583C15.3346 25.0322 15.4517 25.2942 15.6146 25.5443C15.7774 25.7944 15.9737 26.0257 16.2034 26.2381C16.4398 26.4523 16.7016 26.6384 16.9889 26.7963C17.2828 26.9561 17.5933 27.0818 17.9204 27.1733C18.3914 27.305 18.8522 27.3598 19.3027 27.3377C19.7616 27.3109 20.1787 27.2195 20.5538 27.0634C20.929 26.9074 21.2497 26.6938 21.516 26.4227C21.7907 26.1468 21.9792 25.8257 22.0817 25.4594C22.1842 25.093 22.1886 24.724 22.0951 24.3522C22.01 23.9757 21.8476 23.6235 21.6078 23.2954C21.368 22.9674 21.058 22.6761 20.6778 22.4216C20.3041 22.169 19.8817 21.9768 19.4107 21.845C18.8023 21.6749 18.1994 21.6367 17.6018 21.7305C17.0126 21.8196 16.5024 22.0296 16.0713 22.3605L14.6222 20.5056L17.5246 13.6468L22.2837 14.9779C22.508 15.0336 22.7677 15.0886 23.0628 15.143C23.3664 15.1926 23.6777 15.2268 23.997 15.2455C24.318 15.2577 24.6282 15.2458 24.9275 15.2096C25.2334 15.1752 25.4984 15.0977 25.7226 14.977L26.8217 17.0619C26.417 17.2732 25.982 17.416 25.5168 17.4905C25.0582 17.5667 24.604 17.6019 24.1542 17.596C23.711 17.5919 23.2867 17.5579 22.8814 17.4939C22.4826 17.4318 22.1407 17.3679 21.8558 17.3023L19.0199 16.5091L17.839 19.3317C18.2037 19.3138 18.5677 19.3239 18.9308 19.362C19.3024 19.3954 19.6746 19.4642 20.0475 19.5685Z" fill="#FB6107"/>
<path d="M33.0068 16.1442C33.6384 16.0503 34.2595 16.0474 34.87 16.1352C35.4872 16.2221 36.0756 16.3922 36.6352 16.6456C37.1937 16.8922 37.7152 17.2131 38.1997 17.6081C38.6841 18.0031 39.1161 18.4609 39.4956 18.9813C39.8808 19.4941 40.2024 20.0644 40.4605 20.6922C40.7253 21.319 40.9106 21.9885 41.0164 22.7007C41.1222 23.4129 41.1395 24.1074 41.0683 24.7841C41.0039 25.4598 40.8619 26.099 40.6424 26.7016C40.4296 27.3032 40.1483 27.86 39.7986 28.372C39.4489 28.8841 39.0427 29.3393 38.58 29.7377C38.1162 30.1293 37.6017 30.4564 37.0364 30.719C36.4777 30.9805 35.8826 31.1582 35.251 31.252C34.6195 31.3458 33.9955 31.3526 33.3793 31.2725C32.7688 31.1846 32.1843 31.0174 31.6257 30.7707C31.0672 30.524 30.5462 30.2066 30.0627 29.8183C29.5792 29.43 29.1449 28.9794 28.7597 28.4667C28.3812 27.9529 28.0596 27.3826 27.7948 26.7558C27.5367 26.128 27.3548 25.458 27.249 24.7458C27.1432 24.0336 27.1225 23.3396 27.187 22.6639C27.2581 21.9872 27.4001 21.3481 27.6129 20.7465C27.8314 20.1372 28.115 19.5731 28.4638 19.0543C28.8125 18.5356 29.2182 18.077 29.6809 17.6786C30.1427 17.2735 30.6529 16.9402 31.2115 16.6787C31.7768 16.4161 32.3752 16.238 33.0068 16.1442ZM33.3691 18.5832C32.7846 18.67 32.2904 18.8567 31.8866 19.1433C31.4828 19.4299 31.1047 19.8432 30.7522 20.3831C30.3665 20.9761 30.0952 21.6001 29.9384 22.2552C29.7874 22.9026 29.7677 23.6025 29.8795 24.3551C29.9923 25.1143 30.2136 25.7716 30.5433 26.327C30.8797 26.8813 31.3187 27.3861 31.8601 27.8413C32.1111 28.0513 32.3532 28.2247 32.5864 28.3618C32.8187 28.4921 33.0565 28.5907 33.2999 28.6575C33.5433 28.7244 33.7928 28.7629 34.0484 28.773C34.3097 28.7754 34.5849 28.7551 34.8738 28.7122C35.1627 28.6693 35.4285 28.6092 35.6711 28.5319C35.9194 28.447 36.147 28.3376 36.3537 28.2039C36.5672 28.0692 36.7661 27.9057 36.9504 27.7135C37.1405 27.5136 37.3251 27.2767 37.5041 27.0029C37.8899 26.41 38.1598 25.7999 38.3139 25.1727C38.4746 24.5445 38.4986 23.8507 38.3859 23.0915C38.2741 22.3389 38.0485 21.6754 37.709 21.1009C37.3753 20.5187 36.9377 20 36.3963 19.5447C36.1453 19.3348 35.8999 19.1618 35.6599 19.0258C35.4257 18.882 35.1858 18.77 34.9404 18.6897C34.7017 18.6084 34.4507 18.5599 34.1874 18.544C33.9308 18.5272 33.6581 18.5403 33.3691 18.5832Z" fill="#FB6107"/>
<path d="M45.5071 12.6541C46.0502 12.3182 46.6194 12.07 47.2149 11.9093C47.8162 11.7451 48.4239 11.6687 49.0381 11.6802C49.6486 11.6859 50.2545 11.7745 50.8557 11.9457C51.4568 12.117 52.0346 12.3667 52.5889 12.6948C53.1455 13.0135 53.6664 13.4101 54.1516 13.8847C54.6426 14.3558 55.0775 14.8975 55.4563 15.5098C55.8351 16.1222 56.1255 16.7532 56.3277 17.4029C56.5357 18.0491 56.6579 18.6923 56.6946 19.3326C56.7369 19.9693 56.6988 20.5919 56.58 21.2006C56.4612 21.8092 56.2681 22.3879 56.0005 22.9367C55.7294 23.4798 55.3861 23.9837 54.9706 24.4483C54.5609 24.9094 54.0846 25.3079 53.5415 25.6438C52.9985 25.9797 52.4281 26.2326 51.8304 26.4026C51.2349 26.5633 50.6319 26.6408 50.0213 26.635C49.4107 26.6293 48.8067 26.5437 48.2091 26.3782C47.6115 26.2126 47.0344 25.9705 46.4779 25.6518C45.9271 25.3296 45.4062 24.9329 44.9152 24.4619C44.4299 23.9873 43.9979 23.4438 43.6192 22.8314C43.2404 22.219 42.947 21.5898 42.7391 20.9437C42.5369 20.294 42.4146 19.6507 42.3722 19.014C42.332 18.368 42.3695 17.7377 42.4847 17.1234C42.5999 16.509 42.7913 15.9274 43.0588 15.3785C43.3228 14.8239 43.6596 14.316 44.0693 13.8549C44.4848 13.3903 44.9641 12.99 45.5071 12.6541ZM46.8042 14.7512C46.3016 15.0621 45.9215 15.429 45.6639 15.8519C45.4063 16.2748 45.2224 16.8039 45.1121 17.4391C44.9922 18.1363 44.9898 18.8167 45.1048 19.4804C45.222 20.1348 45.4807 20.7854 45.8809 21.4325C46.2846 22.0853 46.7477 22.6016 47.2702 22.9813C47.7983 23.3575 48.4011 23.6476 49.0784 23.8516C49.3919 23.9453 49.6829 24.0089 49.9513 24.0426C50.2162 24.0704 50.4736 24.067 50.7236 24.0321C50.9736 23.9973 51.218 23.934 51.4568 23.8422C51.6978 23.7411 51.9424 23.6137 52.1908 23.4601C52.4393 23.3064 52.6596 23.1462 52.8519 22.9793C53.0465 22.8031 53.2122 22.6127 53.3493 22.4081C53.4921 22.1999 53.6102 21.9712 53.7035 21.7217C53.799 21.463 53.8749 21.1724 53.9311 20.8501C54.051 20.153 54.0578 19.4859 53.9513 18.8489C53.8506 18.2083 53.5984 17.5616 53.1946 16.9088C52.7944 16.2617 52.3248 15.7415 51.7859 15.348C51.2492 14.9451 50.6422 14.6417 49.9649 14.4376C49.6514 14.344 49.3575 14.2821 49.0833 14.252C48.8113 14.2126 48.5467 14.2045 48.2896 14.2278C48.0382 14.2475 47.7884 14.3022 47.5403 14.3917C47.298 14.4777 47.0526 14.5975 46.8042 14.7512Z" fill="#FB6107"/>
<path d="M70.6587 17.0065L69.1534 17.7779L68.6283 16.7532C67.7681 17.0109 66.9206 17.1742 66.0858 17.2433C65.2511 17.3123 64.4762 17.2972 63.7613 17.198L63.6467 14.8295C64.2772 15.0025 64.9251 15.075 65.5901 15.0472C66.2612 15.0162 66.9269 14.9078 67.5874 14.722L65.5752 10.7957C64.9446 10.9204 64.3227 11.0101 63.7095 11.0648C63.0993 11.1104 62.5279 11.0826 61.9953 10.9816C61.4595 10.8745 60.9746 10.6803 60.5404 10.3991C60.1091 10.1087 59.7541 9.69145 59.4753 9.14739C59.2429 8.694 59.0985 8.22606 59.0421 7.74358C58.9886 7.25196 59.0429 6.75471 59.205 6.25184C59.3732 5.74586 59.6598 5.24023 60.0649 4.73494C60.4669 4.2236 61.0103 3.71998 61.6949 3.22406L61.1977 2.25381L62.703 1.4824L63.1351 2.32571C63.1714 2.30712 63.2047 2.29008 63.2349 2.27459L63.4479 2.15399C63.4841 2.13541 63.5174 2.11837 63.5476 2.10288C63.7108 2.01923 63.8741 1.94318 64.0375 1.87472C64.2038 1.79712 64.3717 1.72254 64.5411 1.65098L64.0903 0.771407L65.5956 0L66.1718 1.12441C66.8718 0.941251 67.5557 0.823572 68.2235 0.77137C68.8974 0.716069 69.5158 0.738787 70.0789 0.839525L70.1986 3.26264C69.6779 3.14022 69.1684 3.07693 68.6702 3.07276C68.1748 3.05945 67.6921 3.09311 67.2221 3.17373L69.4387 7.49906C70.045 7.37152 70.635 7.27908 71.2086 7.22173C71.7791 7.15835 72.3108 7.16066 72.8036 7.22868C73.2964 7.29669 73.7369 7.44878 74.1251 7.68492C74.5133 7.92107 74.8251 8.26886 75.0605 8.72829C75.2774 9.15145 75.4003 9.59985 75.4293 10.0735C75.4583 10.5471 75.3887 11.0293 75.2204 11.5201C75.0521 12.0109 74.7821 12.5042 74.4103 13.0001C74.0446 13.4928 73.5739 13.9745 72.9983 14.445L73.5513 15.5241L72.0461 16.2955L71.5999 15.425C71.313 15.5949 71.0063 15.7635 70.6799 15.9308C70.6013 15.9711 70.5257 16.0098 70.4532 16.047C70.3807 16.0842 70.3036 16.1199 70.2219 16.1541L70.6587 17.0065ZM66.2068 8.31951C66.7098 8.18389 67.2234 8.04663 67.7476 7.90776L65.5542 3.62776C65.3725 3.69032 65.1985 3.76041 65.0322 3.83801C64.8628 3.90956 64.6995 3.98562 64.5423 4.06616C64.4698 4.10334 64.4018 4.14199 64.3384 4.18211C64.2719 4.21619 64.2054 4.25027 64.1389 4.28435L66.2068 8.31951ZM61.5972 8.05998C61.7025 8.26552 61.8469 8.42813 62.0304 8.54783C62.2168 8.65838 62.4333 8.73826 62.6798 8.78746C62.9293 8.82751 63.2059 8.83843 63.5095 8.82023C63.8192 8.79893 64.1484 8.75616 64.4971 8.69194L62.7359 5.25525C62.4165 5.52576 62.161 5.79412 61.9692 6.06033C61.7835 6.32344 61.6492 6.57541 61.5666 6.81623C61.4808 7.05101 61.4435 7.27619 61.4548 7.49177C61.463 7.70131 61.5104 7.89072 61.5972 8.05998ZM69.1949 14.1501C69.2978 14.1126 69.3976 14.0691 69.4943 14.0195C69.5911 13.97 69.6878 13.9204 69.7845 13.8708C70.0626 13.7283 70.3269 13.5814 70.5776 13.43L68.8164 9.99335C68.5679 10.0596 68.3134 10.129 68.0529 10.2014C67.7953 10.2648 67.5362 10.3326 67.2756 10.4051L69.1949 14.1501ZM71.9713 12.441C72.2032 12.2382 72.4062 12.0311 72.5803 11.8198C72.7544 11.6084 72.8891 11.402 72.9843 11.2006C73.0795 10.9991 73.1307 10.8011 73.1379 10.6066C73.1511 10.409 73.1113 10.2196 73.0183 10.0382C72.9347 9.87498 72.8135 9.7501 72.6546 9.66358C72.5018 9.57396 72.319 9.51501 72.106 9.48675C71.89 9.45244 71.6469 9.44726 71.3768 9.47121C71.1127 9.49206 70.8245 9.5329 70.5121 9.59372L71.9713 12.441Z" fill="#FB6107"/>
</svg>
