<svg width="99" height="23" viewBox="0 0 99 23" fill="none" xmlns="http://www.w3.org/2000/svg">
<path d="M14.9464 14.6984C14.4425 14.9127 13.8825 15.0656 13.2663 15.1572C12.657 15.2466 12.0208 15.2692 11.3575 15.225C10.6988 15.1833 10.0307 15.0691 9.35308 14.8827C8.67308 14.7008 8.01391 14.4448 7.37557 14.1144C6.72798 13.7793 6.12779 13.3866 5.57498 12.9363C5.02679 12.4884 4.54083 12.0053 4.11709 11.4869C3.69335 10.9685 3.33749 10.4266 3.04951 9.86121C2.76153 9.29581 2.55507 8.73154 2.43012 8.1684C2.30757 7.60063 2.26988 7.04453 2.31705 6.5001C2.36662 5.95103 2.51588 5.43597 2.76483 4.9549C3.01379 4.47384 3.34687 4.05683 3.7641 3.7039C4.18372 3.34634 4.65947 3.05595 5.19136 2.83273C5.72565 2.60489 6.30674 2.44525 6.93464 2.35381C7.56253 2.26238 8.21044 2.23994 8.87835 2.2865C9.54625 2.33306 10.2213 2.45077 10.9036 2.63963C11.5904 2.83088 12.2576 3.09407 12.9052 3.4292C13.5436 3.75954 14.1333 4.14978 14.6745 4.5999C15.218 5.0454 15.6971 5.52494 16.1116 6.03853C16.5331 6.54988 16.8821 7.08236 17.1586 7.63596C17.4421 8.18733 17.6418 8.73054 17.7579 9.2656L15.6768 9.41137C15.6615 9.33894 15.6317 9.22089 15.5874 9.05721C15.5501 8.8913 15.4818 8.69468 15.3824 8.46734C15.2855 8.23537 15.1527 7.98194 14.9842 7.70705C14.8227 7.42993 14.6088 7.14625 14.3426 6.85603C14.0834 6.56357 13.7661 6.2703 13.3904 5.97623C13.0219 5.67992 12.5831 5.4001 12.0743 5.13679C11.1955 4.68197 10.3679 4.38859 9.59171 4.25666C8.8179 4.12011 8.11577 4.10569 7.48532 4.21339C6.85949 4.32349 6.31723 4.53841 5.85854 4.85816C5.40224 5.17328 5.11074 5.4476 4.98403 5.68111C4.85732 5.91462 4.79037 6.03832 4.78319 6.05219C4.55339 6.49626 4.43356 6.98844 4.42372 7.52873C4.4185 8.07143 4.54935 8.62882 4.81627 9.20092C5.08319 9.77302 5.49927 10.3402 6.0645 10.9025C6.63674 11.4625 7.37849 11.9783 8.28974 12.4499C8.80319 12.7156 9.28961 12.9146 9.749 13.0467C10.2084 13.1789 10.6346 13.2676 11.0277 13.3126C11.4207 13.3577 11.777 13.3661 12.0965 13.338C12.4231 13.3076 12.7055 13.2661 12.9439 13.2135C13.1868 13.1633 13.3856 13.1078 13.5402 13.0471C13.6948 12.9863 13.8014 12.9447 13.8599 12.9222L14.9464 14.6984ZM18.4282 9.04299L19.1071 7.00465L21.0713 7.65887L20.3924 9.69722L18.4282 9.04299ZM20.1356 10.4681L17.4521 18.5251L15.4879 17.8709L18.1714 9.81386L20.1356 10.4681ZM31.9686 16.8098C31.9434 16.911 31.9203 17.0153 31.8993 17.1226C31.8602 17.3219 31.8253 17.5539 31.7946 17.8186C31.769 18.0843 31.7619 18.3642 31.7731 18.6583C31.7854 18.9473 31.8201 19.2036 31.8771 19.4271C31.9351 19.6454 32.0189 19.7999 32.1285 19.8904L30.7771 21.544C30.5958 21.4129 30.44 21.2602 30.3097 21.086C30.1854 20.9077 30.08 20.7146 29.9934 20.5065C29.9069 20.2984 29.8381 20.0806 29.7873 19.853C29.7415 19.6264 29.7069 19.3967 29.6836 19.1639C29.3311 19.4185 28.9504 19.6411 28.5415 19.8316C28.1326 20.022 27.6996 20.1733 27.2424 20.2853C26.7913 20.3931 26.3201 20.4546 25.8289 20.4697C25.3417 20.4909 24.8411 20.4591 24.327 20.3741C24.2606 20.3611 24.1967 20.3485 24.1353 20.3365C23.706 20.2523 23.2913 20.1205 22.8913 19.9412C22.4902 19.767 22.1187 19.5508 21.7766 19.2926C21.4406 19.0303 21.1463 18.7443 20.8939 18.4348C20.6476 18.1211 20.4483 17.798 20.2959 17.4656C20.1435 17.1331 20.0417 16.8 19.9904 16.4662C19.9452 16.1282 19.9522 15.8085 20.0114 15.507C20.1096 15.0061 20.2746 14.5979 20.5064 14.2825C20.7442 13.9629 21.0165 13.7111 21.3233 13.5272C21.6362 13.3391 21.9702 13.2056 22.3254 13.1267C22.6857 13.0487 23.0369 13.0035 23.379 12.991C23.7263 12.9795 24.0486 12.987 24.3459 13.0135C24.6483 13.041 24.8982 13.0661 25.0954 13.0889L25.2042 13.1023C25.521 13.1379 25.8828 13.1876 26.2896 13.2515C26.7024 13.3113 27.1343 13.3827 27.585 13.4659C28.0368 13.5439 28.4952 13.6285 28.9603 13.7197C29.4305 13.812 29.8823 13.9033 30.3158 13.9936C30.3729 13.7023 30.3324 13.3812 30.1942 13.0303C30.0571 12.6743 29.8403 12.3319 29.5439 12.0031C29.2485 11.6691 28.8771 11.3707 28.4298 11.1078C27.9885 10.8408 27.4919 10.6531 26.94 10.5448C26.6333 10.4847 26.3104 10.4532 25.9713 10.4504C25.6373 10.4485 25.2881 10.4835 24.9237 10.5553C24.5644 10.6281 24.192 10.7409 23.8064 10.8934C23.4219 11.0409 23.0304 11.2375 22.6319 11.4831L21.5218 9.9994C21.971 9.65761 22.4444 9.38161 22.9421 9.1714C23.4449 8.9622 23.9474 8.80867 24.4496 8.71081C24.9569 8.61395 25.4516 8.5677 25.9337 8.57205C26.422 8.5723 26.8782 8.61403 27.3024 8.69725C28.0588 8.84565 28.7179 9.05721 29.2797 9.33196C29.8415 9.60671 30.3192 9.91802 30.7127 10.2659C31.1123 10.6097 31.4334 10.9752 31.6758 11.3625C31.9234 11.7507 32.1113 12.1326 32.2393 12.508C32.3673 12.8834 32.4437 13.2381 32.4684 13.572C32.4932 13.9059 32.482 14.193 32.4348 14.4332C32.4338 14.4383 32.4282 14.4399 32.418 14.4379C32.4129 14.4369 32.4098 14.4389 32.4088 14.444L32.4318 14.4485L31.9686 16.8098ZM22.3506 17.0566C22.6575 17.4671 23.0203 17.7957 23.439 18.0424C23.8576 18.289 24.3072 18.4595 24.7876 18.5537C25.3089 18.656 25.8422 18.6704 26.3874 18.5969C26.9325 18.5234 27.4483 18.3698 27.9347 18.1361C28.4272 17.8984 28.8678 17.5868 29.2566 17.2013C29.6463 16.8107 29.9439 16.3489 30.1493 15.816C29.7159 15.7256 29.2615 15.6338 28.7862 15.5406C28.316 15.4483 27.8525 15.3627 27.3956 15.2837C26.9397 15.1996 26.5058 15.1251 26.094 15.0602C25.6821 14.9953 25.3203 14.9456 25.0086 14.911L24.8921 14.8961C24.3669 14.8408 23.9312 14.8164 23.5849 14.8227C23.2387 14.8291 22.9569 14.872 22.7396 14.9515C22.5224 15.0309 22.3584 15.15 22.2476 15.3088C22.1379 15.4624 22.0594 15.6593 22.0123 15.8995C21.9742 16.0937 21.9866 16.2872 22.0497 16.4801C22.1188 16.6688 22.2191 16.8609 22.3506 17.0566ZM38.7788 10.5217C39.2002 10.5424 39.6188 10.6203 40.0345 10.7554C40.4503 10.8906 40.8451 11.0794 41.2191 11.322C41.5983 11.5649 41.9462 11.8609 42.2627 12.2102C42.5796 12.5543 42.8498 12.9456 43.0733 13.3842C43.2969 13.8227 43.4659 14.3108 43.5803 14.8483C43.6949 15.3806 43.7372 15.9537 43.7071 16.5675C43.6764 17.1918 43.5778 17.7657 43.4113 18.2895C43.2448 18.8132 43.0289 19.2823 42.7634 19.6969C42.498 20.1114 42.1907 20.4744 41.8417 20.7858C41.4927 21.0972 41.1178 21.3525 40.7169 21.5519C40.3212 21.7515 39.9099 21.8981 39.4829 21.9919C39.0561 22.0805 38.6321 22.1144 38.2107 22.0937C37.7894 22.073 37.3681 21.9976 36.9469 21.8674C36.5311 21.7323 36.1335 21.5459 35.7541 21.3082C35.3799 21.0708 35.0343 20.7801 34.7175 20.436C34.4007 20.092 34.1305 19.7006 33.9069 19.2621C33.6833 18.8235 33.5144 18.3355 33.4 17.7979C33.2856 17.2604 33.2437 16.6796 33.2743 16.0553C33.3047 15.4363 33.403 14.8675 33.5693 14.349C33.7355 13.8305 33.9514 13.3639 34.2168 12.9494C34.4823 12.5348 34.7895 12.1718 35.1385 11.8604C35.4878 11.5438 35.8604 11.2832 36.2563 11.0784C36.6575 10.8738 37.0715 10.7247 37.4985 10.6309C37.9307 10.5374 38.3575 10.501 38.7788 10.5217ZM38.2896 20.4863C38.7009 20.5012 39.0955 20.4294 39.4735 20.2706C39.8518 20.1067 40.1874 19.8572 40.4802 19.5222C40.7785 19.1823 41.0209 18.7587 41.2074 18.2516C41.3994 17.7396 41.5122 17.1429 41.5456 16.4614C41.5793 15.7747 41.5256 15.1698 41.3844 14.6466C41.2487 14.1185 41.0489 13.6733 40.7851 13.3109C40.5265 12.9489 40.2169 12.6703 39.8562 12.4753C39.4958 12.2751 39.1103 12.1623 38.6995 12.1369C38.2883 12.122 37.891 12.1963 37.5075 12.36C37.1295 12.5187 36.7914 12.7655 36.4934 13.1002C36.1954 13.435 35.9504 13.8584 35.7584 14.3704C35.5666 14.8772 35.4539 15.474 35.4202 16.1607C35.3867 16.8421 35.4405 17.4471 35.5814 17.9754C35.7226 18.4986 35.9249 18.944 36.1885 19.3115C36.4523 19.6738 36.7644 19.9551 37.1248 20.1553C37.4906 20.3506 37.8789 20.4609 38.2896 20.4863ZM65.7336 8.81907L67.0419 20.1972L64.9619 20.4364L64.3702 15.2906C64.2917 15.3835 64.2034 15.4592 64.1053 15.5177C64.0117 15.5704 63.8885 15.616 63.7357 15.6545C63.5829 15.6931 63.3903 15.7283 63.1581 15.7603C62.931 15.7916 62.6415 15.8275 62.2897 15.868L58.898 16.258C57.843 16.3845 56.6351 16.5261 55.2743 16.6825L55.3814 17.6139C55.4296 18.033 55.4598 18.4096 55.472 18.7438C55.4836 19.0727 55.4635 19.3765 55.4116 19.6551C55.365 19.933 55.28 20.1971 55.1567 20.4472C55.038 20.6915 54.8699 20.9389 54.6522 21.1893C54.4163 21.4629 54.1393 21.6756 53.8213 21.8275C53.509 21.984 53.1795 22.0822 52.8328 22.122C52.4861 22.1619 52.1404 22.1414 51.7956 22.0604C51.4513 21.9847 51.1368 21.8479 50.8519 21.6499C50.567 21.452 50.325 21.1941 50.1259 20.8762C49.9314 20.5526 49.8083 20.1657 49.7565 19.7155C49.7214 19.4102 49.7336 19.0602 49.7931 18.6654C49.8519 18.2654 49.9942 17.8611 50.2198 17.4525C50.45 17.038 50.7821 16.6434 51.2161 16.2684C51.6494 15.8883 52.2231 15.5654 52.937 15.2999L52.3685 10.3559L54.5184 10.1087L55.0699 14.9052C55.1929 14.8806 55.3036 14.8626 55.4019 14.8513C55.4996 14.8348 55.6183 14.8185 55.758 14.8025L62.5967 14.024C62.8088 13.9996 62.9945 13.973 63.1537 13.9442C63.3123 13.9102 63.4476 13.8554 63.5594 13.7796C63.6707 13.6986 63.7577 13.589 63.8204 13.4507C63.8878 13.3067 63.931 13.113 63.9502 12.8696C63.974 12.6205 63.9754 12.3136 63.9545 11.949C63.9335 11.5845 63.893 11.1409 63.8329 10.6183L63.6535 9.05825L65.7336 8.81907ZM53.0104 19.8368C53.0739 19.7509 53.1247 19.6454 53.1628 19.5204C53.2008 19.3955 53.2303 19.2637 53.251 19.125C53.2712 18.9811 53.2804 18.8332 53.2786 18.6814C53.2821 18.529 53.2806 18.3797 53.2743 18.2337C53.2651 18.0617 53.25 17.8852 53.2292 17.7041C53.2084 17.523 53.1821 17.3399 53.1503 17.1548C52.9264 17.2592 52.7155 17.3857 52.5176 17.5343C52.3243 17.6771 52.1599 17.8428 52.0243 18.0314C51.8887 18.22 51.7874 18.4335 51.7205 18.6718C51.6587 18.9096 51.6442 19.1708 51.6769 19.4554C51.7084 19.7296 51.8012 19.9208 51.9552 20.0289C52.1085 20.1319 52.2706 20.1735 52.4414 20.1539C52.5552 20.1408 52.6615 20.1076 52.7602 20.0543C52.8635 19.9952 52.9469 19.9227 53.0104 19.8368ZM71.2912 7.60647C71.7026 7.5132 72.1267 7.47581 72.5635 7.49429C73.0002 7.51277 73.4313 7.58862 73.8567 7.72183C74.2872 7.85389 74.7018 8.04562 75.1006 8.29701C75.4982 8.54332 75.8636 8.84768 76.1967 9.21008C76.5299 9.57247 76.8238 9.99718 77.0784 10.4842C77.3318 10.9661 77.5265 11.5068 77.6623 12.1062C77.8005 12.7157 77.8597 13.2951 77.84 13.8443C77.8203 14.3935 77.7383 14.9034 77.594 15.374C77.4497 15.8446 77.2513 16.2768 76.9987 16.6705C76.7462 17.0642 76.4536 17.4109 76.121 17.7106C75.7935 18.0091 75.4367 18.2609 75.0506 18.4659C74.6633 18.6659 74.264 18.8125 73.8525 18.9057C73.4411 18.999 73.015 19.0395 72.5743 19.0273C72.1376 19.0088 71.7045 18.936 71.2752 18.8091C70.851 18.6809 70.44 18.4937 70.0424 18.2474C69.6448 18.0011 69.2794 17.6967 68.9462 17.3343C68.6131 16.9719 68.3192 16.5472 68.0646 16.0602C67.81 15.5732 67.6136 15.0249 67.4755 14.4154C67.3385 13.8109 67.2804 13.2366 67.3012 12.6925C67.3221 12.1484 67.4046 11.641 67.549 11.1704C67.6933 10.6998 67.8917 10.2676 68.1443 9.8739C68.3957 9.47513 68.6845 9.12393 69.0109 8.8203C69.3423 8.51553 69.7011 8.26063 70.0872 8.05562C70.4784 7.84945 70.8797 7.69974 71.2912 7.60647ZM73.4967 17.3362C73.8969 17.2401 74.2577 17.0649 74.5792 16.8104C74.8995 16.5509 75.1557 16.2205 75.3478 15.8191C75.5438 15.4115 75.6635 14.9385 75.707 14.3999C75.7544 13.8551 75.7027 13.25 75.5518 12.5846C75.3998 11.9141 75.1856 11.3458 74.909 10.8798C74.6364 10.4076 74.3244 10.0324 73.973 9.75423C73.6266 9.47493 73.2535 9.28981 72.8537 9.19886C72.4528 9.10283 72.0511 9.09776 71.6487 9.18364C71.2486 9.27969 70.8858 9.45805 70.5604 9.71873C70.2389 9.97319 69.9795 10.3017 69.7824 10.7042C69.5853 11.1067 69.463 11.5803 69.4156 12.1251C69.367 12.6648 69.4188 13.2699 69.5707 13.9404C69.7216 14.6058 69.9359 15.1741 70.2135 15.6452C70.4901 16.1112 70.8046 16.4858 71.1572 16.769C71.5087 17.0472 71.8849 17.2343 72.2858 17.3303C72.6907 17.4201 73.0943 17.4221 73.4967 17.3362ZM84.6627 16.1982L80.7095 17.2617L77.734 6.20184L79.7559 5.65789L82.2422 14.8996L84.1735 14.38L84.6627 16.1982ZM96.3393 8.43457C96.3595 8.5369 96.3828 8.64112 96.4093 8.74723C96.4585 8.94431 96.5254 9.16917 96.61 9.42184C96.6996 9.67324 96.812 9.9297 96.9471 10.1912C97.0809 10.4477 97.2211 10.665 97.3676 10.8431C97.5128 11.0162 97.6542 11.1205 97.7919 11.1559L97.2703 13.2268C97.0505 13.185 96.8446 13.113 96.6527 13.0106C96.4645 12.9019 96.287 12.7718 96.1203 12.6201C95.9536 12.4685 95.7989 12.3005 95.6562 12.116C95.5186 11.9303 95.3898 11.737 95.2698 11.5361C95.0588 11.9163 94.8086 12.2794 94.5192 12.6254C94.2298 12.9715 93.902 13.2922 93.5356 13.5877C93.1729 13.8769 92.7724 14.1326 92.334 14.3548C91.902 14.5808 91.4352 14.7645 90.9336 14.9059C90.868 14.9223 90.8048 14.938 90.7442 14.9532C90.3197 15.0592 89.8883 15.1159 89.45 15.1234C89.0129 15.1359 88.5847 15.0979 88.1653 15.0094C87.7497 14.9145 87.362 14.7805 87.002 14.6074C86.6458 14.4279 86.3282 14.22 86.0491 13.9837C85.77 13.7474 85.5363 13.4891 85.3482 13.2086C85.1638 12.9218 85.0344 12.6293 84.96 12.3312C84.8363 11.836 84.8124 11.3964 84.8883 11.0124C84.968 10.6221 85.1077 10.2785 85.3073 9.98171C85.5108 9.67859 85.7565 9.41591 86.0446 9.19366C86.3377 8.97014 86.6365 8.78011 86.941 8.62355C87.2505 8.46573 87.5455 8.33569 87.826 8.23344C88.1115 8.12993 88.3483 8.04662 88.5366 7.98351L88.6408 7.94943C88.9427 7.84719 89.2914 7.73864 89.6868 7.62379C90.086 7.50262 90.5073 7.38399 90.9508 7.26789C91.3929 7.14673 91.8439 7.02874 92.3037 6.9139C92.7686 6.79781 93.2165 6.68865 93.6472 6.58644C93.5753 6.29842 93.4023 6.02489 93.1283 5.76586C92.853 5.50178 92.5113 5.28379 92.1033 5.11189C91.6941 4.93494 91.2312 4.82239 90.7145 4.77426C90.2017 4.71981 89.6724 4.76073 89.1267 4.89702C88.8235 4.97273 88.5177 5.08129 88.2095 5.22269C87.9063 5.36283 87.605 5.54276 87.3055 5.76248C87.0111 5.98094 86.7218 6.24108 86.4375 6.54292C86.1519 6.8397 85.8809 7.18385 85.6244 7.57538L83.9894 6.70335C84.251 6.20319 84.5625 5.7523 84.9239 5.3507C85.2903 4.94783 85.6801 4.59549 86.0932 4.29369C86.5114 3.99063 86.9397 3.73873 87.3781 3.53799C87.8203 3.33094 88.2511 3.17504 88.6705 3.0703C89.4183 2.88354 90.1049 2.79529 90.7302 2.80555C91.3555 2.81582 91.9201 2.89491 92.4241 3.04284C92.9319 3.18445 93.3777 3.37909 93.7617 3.62678C94.1507 3.87321 94.4828 4.1392 94.7582 4.42475C95.0335 4.71031 95.2532 4.999 95.4173 5.29085C95.5815 5.58269 95.6932 5.84736 95.7525 6.08486C95.7538 6.08991 95.7493 6.0937 95.7392 6.09622C95.7342 6.09748 95.7323 6.10064 95.7335 6.1057L95.7563 6.10002L96.3393 8.43457ZM87.7358 12.7412C88.1879 12.9826 88.6559 13.1261 89.1397 13.1717C89.6235 13.2173 90.1029 13.1807 90.5779 13.0621C91.0933 12.9334 91.5822 12.72 92.0446 12.422C92.507 12.1241 92.9088 11.766 93.25 11.348C93.595 10.9237 93.8616 10.4544 94.05 9.94036C94.2371 9.42123 94.3105 8.87681 94.2702 8.30709C93.8394 8.4093 93.3891 8.51908 92.9191 8.63644C92.4542 8.75254 91.9982 8.8718 91.551 8.99421C91.1025 9.11158 90.678 9.22831 90.2776 9.34443C89.8771 9.46054 89.5284 9.56909 89.2315 9.67007L89.1197 9.70604C88.6207 9.87897 88.2158 10.0418 87.905 10.1946C87.5943 10.3474 87.3574 10.5058 87.1944 10.67C87.0314 10.8342 86.9334 11.0116 86.9005 11.2024C86.8664 11.3881 86.879 11.5996 86.9383 11.8371C86.9862 12.0292 87.0797 12.1991 87.2186 12.3469C87.3613 12.4884 87.5337 12.6199 87.7358 12.7412Z" fill="#1F1F1F"/>
</svg>
