<svg width="31" height="31" viewBox="0 0 31 31" fill="none" xmlns="http://www.w3.org/2000/svg">
<circle cx="15.2517" cy="15.2517" r="14.0366" transform="rotate(-5.20283 15.2517 15.2517)" fill="#FF70A6"/>
<path d="M29.2305 13.9788L29.7298 14.0042L29.7328 13.9448L29.7218 13.8863L29.2305 13.9788ZM29.2254 14.0787L28.7259 14.0533L28.7255 14.0663L29.2254 14.0787ZM29.208 14.7801L28.7082 14.7677L28.7072 14.8086L28.7128 14.8492L29.208 14.7801ZM29.3194 15.5785L29.8143 15.6499L29.8245 15.5796L29.8147 15.5094L29.3194 15.5785ZM29.2047 16.3735L28.7098 16.3021L28.6975 16.3876L28.7146 16.4723L29.2047 16.3735ZM29.3715 17.2012L29.785 17.4823L29.9032 17.3085L29.8617 17.1024L29.3715 17.2012ZM28.8752 17.9311L28.4618 17.6499L28.3094 17.874L28.4139 18.1239L28.8752 17.9311ZM29.2575 18.8452L29.5421 19.2563L29.8749 19.0259L29.7188 18.6524L29.2575 18.8452ZM28.4028 19.4371L28.1181 19.026L27.941 19.1487L27.9085 19.3617L28.4028 19.4371ZM28.2815 20.2324L28.6324 20.5886L28.7508 20.472L28.7758 20.3077L28.2815 20.2324ZM27.6744 20.8304L27.3236 20.4742L27.1782 20.6174L27.1745 20.8214L27.6744 20.8304ZM27.6589 21.6968L27.1588 21.6878L27.1589 21.7019L27.6589 21.6968ZM27.6685 22.6292L27.8007 23.1114L28.1724 23.0095L28.1685 22.6241L27.6685 22.6292ZM26.6228 22.9159L26.4906 22.4337L26.2535 22.4987L26.1602 22.7261L26.6228 22.9159ZM26.3159 23.664L25.8533 23.4743L25.8325 23.525L25.8232 23.579L26.3159 23.664ZM26.1593 24.5717L26.477 24.9578L26.6204 24.8398L26.652 24.6567L26.1593 24.5717ZM25.5238 25.0946L25.612 25.5868L25.7406 25.5637L25.8415 25.4807L25.5238 25.0946ZM24.5744 25.2647L24.4862 24.7725L24.1719 24.8288L24.0908 25.1377L24.5744 25.2647ZM24.3311 26.1912L24.7067 26.5211L24.7847 26.4324L24.8147 26.3182L24.3311 26.1912ZM23.7842 26.8138L23.7085 27.308L23.9791 27.3494L24.1598 27.1437L23.7842 26.8138ZM22.6971 26.6473L22.7728 26.153L22.5207 26.1144L22.3415 26.2958L22.6971 26.6473ZM22.1319 27.219L21.7763 26.8675L21.7265 26.9178L21.6927 26.98L22.1319 27.219ZM21.6744 28.0599L21.9089 28.5014L22.0417 28.4309L22.1136 28.2988L21.6744 28.0599ZM20.9512 28.444L20.8874 28.9399L21.0452 28.9602L21.1858 28.8855L20.9512 28.444ZM20.0366 28.3262L20.1004 27.8303L19.8277 27.7952L19.652 28.0066L20.0366 28.3262ZM19.4287 29.0578L19.252 29.5255L19.5855 29.6514L19.8132 29.3773L19.4287 29.0578ZM18.4999 28.707L18.6765 28.2393L18.5522 28.1923L18.421 28.2133L18.4999 28.707ZM17.7214 28.8315L17.7539 29.3304L17.7773 29.3289L17.8003 29.3252L17.7214 28.8315ZM16.9357 28.8827L16.9031 28.3837L16.714 28.396L16.5805 28.5307L16.9357 28.8827ZM16.1986 29.6263L16.0407 30.1007L16.3352 30.1987L16.5537 29.9783L16.1986 29.6263ZM15.3755 29.3525L15.1451 29.7962L15.1802 29.8145L15.2177 29.8269L15.3755 29.3525ZM14.5907 28.945L14.8212 28.5012L14.7366 28.4573L14.6418 28.4476L14.5907 28.945ZM13.8143 28.8653L13.6766 29.346L13.7192 29.3582L13.7632 29.3627L13.8143 28.8653ZM13.0599 28.6492L13.1976 28.1686L13.1611 28.1581L13.1234 28.1533L13.0599 28.6492ZM12.2897 28.5506L12.1965 29.0418L12.2113 29.0446L12.2262 29.0465L12.2897 28.5506ZM11.5245 28.4053L11.6178 27.9141L11.4927 27.8903L11.3716 27.9292L11.5245 28.4053ZM10.5973 28.703L10.3379 29.1305L10.533 29.2489L10.7502 29.1791L10.5973 28.703ZM9.89601 28.2773L10.1555 27.8499L10.0824 27.8055L9.99865 27.788L9.89601 28.2773ZM9.08763 28.1078L8.66849 28.3804L8.78173 28.5545L8.98499 28.5971L9.08763 28.1078ZM8.58609 27.3366L9.00523 27.064L8.82887 26.7929L8.50926 26.8426L8.58609 27.3366ZM7.55626 27.4968L7.06366 27.5825L7.14784 28.0663L7.63308 27.9908L7.55626 27.4968ZM7.35762 26.3552L7.85021 26.2695L7.78104 25.872L7.37789 25.8556L7.35762 26.3552ZM6.39454 26.3161L5.96494 26.572L6.10356 26.8047L6.37426 26.8157L6.39454 26.3161ZM5.96189 25.5896L6.39148 25.3338L6.38585 25.3244L6.37982 25.3152L5.96189 25.5896ZM5.51826 24.9141L5.93619 24.6397L5.84113 24.4949L5.6769 24.44L5.51826 24.9141ZM4.66327 24.6281L4.41837 25.064L4.45969 25.0872L4.50464 25.1023L4.66327 24.6281ZM3.90387 24.2015L3.52043 24.5224L3.57917 24.5925L3.65896 24.6374L3.90387 24.2015ZM3.37365 23.5679L2.88236 23.6608L2.90658 23.7889L2.99021 23.8888L3.37365 23.5679ZM3.20913 22.6982L3.70042 22.6053L3.67713 22.4822L3.59853 22.3846L3.20913 22.6982ZM2.69484 22.0597L2.20867 21.9429L2.15124 22.1819L2.30543 22.3733L2.69484 22.0597ZM2.9385 21.0457L3.42466 21.1625L3.53194 20.7161L3.09625 20.5712L2.9385 21.0457ZM1.80221 20.6679L1.34764 20.4597L1.11544 20.9665L1.64446 21.1424L1.80221 20.6679ZM2.27432 19.6374L2.72889 19.8457L2.90335 19.4649L2.55901 19.2264L2.27432 19.6374ZM1.43791 19.0581L0.951061 18.9442L0.873559 19.2755L1.15322 19.4692L1.43791 19.0581ZM1.64346 18.1796L2.13031 18.2935L2.18995 18.0386L2.01446 17.8444L1.64346 18.1796ZM1.00754 17.4758L0.538239 17.3033L0.43401 17.5868L0.636543 17.811L1.00754 17.4758ZM1.32218 16.6198L1.79148 16.7923L1.82082 16.7125L1.82212 16.6274L1.32218 16.6198ZM1.33436 15.8206L1.8343 15.8282L1.8358 15.7296L1.79976 15.6378L1.33436 15.8206ZM1.0208 15.0221L0.560476 14.8269L0.480783 15.0149L0.555402 15.2049L1.0208 15.0221ZM1.35535 14.2331L0.906871 14.0121L0.900581 14.0248L0.895026 14.0379L1.35535 14.2331ZM1.72611 13.4809L2.17459 13.702L2.25509 13.5387L2.21171 13.3618L1.72611 13.4809ZM1.52281 12.6521L1.06308 12.4555L0.997419 12.609L1.0372 12.7712L1.52281 12.6521ZM1.83971 11.9111L2.29944 12.1077L2.35783 11.9711L2.33222 11.8249L1.83971 11.9111ZM1.68713 11.0396L1.32317 10.6967L1.15143 10.8791L1.19462 11.1258L1.68713 11.0396ZM2.28838 10.4012L2.65234 10.7441L2.79617 10.5914L2.788 10.3817L2.28838 10.4012ZM2.25416 9.52423L1.77017 9.39875L1.75167 9.47009L1.75454 9.54372L2.25416 9.52423ZM2.46219 8.72187L2.21427 8.28766L2.03112 8.39224L1.97819 8.59639L2.46219 8.72187ZM3.28164 8.25399L3.52956 8.6882L3.70516 8.58794L3.7617 8.39381L3.28164 8.25399ZM3.51305 7.45944L3.99311 7.59925L3.99776 7.58326L4.00135 7.56699L3.51305 7.45944ZM3.70268 6.59853L3.37646 6.21961L3.25021 6.32829L3.21438 6.49098L3.70268 6.59853ZM4.33366 6.05533L4.198 5.57408L4.09139 5.60414L4.00745 5.6764L4.33366 6.05533ZM5.24577 5.79821L5.38143 6.27946L5.62893 6.20969L5.71614 5.96778L5.24577 5.79821ZM5.54368 4.97187L5.23715 4.57685L5.12252 4.6658L5.07331 4.80229L5.54368 4.97187ZM6.18051 4.47768L6.48704 4.8727L6.57536 4.80416L6.62609 4.70453L6.18051 4.47768ZM6.58597 3.68128L6.55271 3.18239L6.26927 3.20128L6.14039 3.45443L6.58597 3.68128ZM7.53285 3.61816L7.56611 4.11705L7.73019 4.10611L7.85575 3.99991L7.53285 3.61816ZM8.14899 3.09699L8.47189 3.47874L8.50201 3.45327L8.52775 3.4234L8.14899 3.09699ZM8.71419 2.44113L8.51575 1.98219L8.41038 2.02776L8.33543 2.11473L8.71419 2.44113ZM9.4661 2.11601L9.465 1.61601L9.36211 1.61624L9.26767 1.65708L9.4661 2.11601ZM10.3381 2.11408L10.3908 1.61686L10.364 1.61402L10.337 1.61408L10.3381 2.11408ZM11.2028 2.20569L11.1501 2.70291L11.4373 2.73333L11.6071 2.49977L11.2028 2.20569ZM11.8009 1.38325L11.9544 0.907393L11.6096 0.796177L11.3965 1.08917L11.8009 1.38325ZM12.6822 1.66753L12.5287 2.14339L12.7313 2.20873L12.9188 2.10803L12.6822 1.66753ZM13.4243 1.26898L13.3974 0.769703L13.286 0.775707L13.1878 0.828482L13.4243 1.26898ZM14.2283 1.22564L14.2552 1.72492L14.3417 1.72025L14.4217 1.68671L14.2283 1.22564ZM15.0239 0.891874L15.1977 0.423067L15.0126 0.354408L14.8304 0.430803L15.0239 0.891874ZM15.8305 1.19099L15.6567 1.65979L15.7911 1.70963L15.9314 1.68069L15.8305 1.19099ZM16.6522 1.02164L16.9304 0.606169L16.7564 0.489666L16.5513 0.531936L16.6522 1.02164ZM17.3985 1.52132L17.1203 1.93679L17.2301 2.0103L17.3619 2.01997L17.3985 1.52132ZM18.1952 1.57981L18.3572 1.10678L18.2961 1.08588L18.2318 1.08116L18.1952 1.57981ZM18.9503 1.8384L18.7883 2.31143L18.8009 2.31576L18.8138 2.31941L18.9503 1.8384ZM19.7136 2.055L20.0327 1.6701L19.9515 1.60278L19.8501 1.57399L19.7136 2.055ZM20.3545 2.58646L20.0354 2.97136L20.1469 3.06382L20.2906 3.08235L20.3545 2.58646ZM21.165 2.69104L21.242 2.19684L21.229 2.19515L21.165 2.69104ZM21.9946 2.82037L22.2728 2.40486L22.1809 2.34337L22.0716 2.32634L21.9946 2.82037ZM22.6644 3.26871L23.0744 2.9825L23.0206 2.90547L22.9426 2.85321L22.6644 3.26871ZM23.1535 3.96931L22.7436 4.25552L22.7519 4.26745L22.7609 4.27886L23.1535 3.96931ZM23.6531 4.60301L23.2605 4.91256L23.4094 5.10148L23.65 5.103L23.6531 4.60301ZM24.6797 4.60946L25.0709 4.29806L24.922 4.11098L24.6829 4.10947L24.6797 4.60946ZM25.1876 5.24747L24.7963 5.55896L24.8042 5.56843L25.1876 5.24747ZM25.7036 5.86376L26.1877 5.73865L26.1594 5.62935L26.0869 5.5428L25.7036 5.86376ZM25.9231 6.71333L25.439 6.83844L25.4925 7.04523L25.6788 7.14958L25.9231 6.71333ZM26.6744 7.13399L27.0034 6.75751L26.9641 6.72321L26.9186 6.69774L26.6744 7.13399ZM27.3017 7.68223L27.7184 7.40595L27.6813 7.34996L27.6307 7.30575L27.3017 7.68223ZM27.751 8.36003L28.2508 8.34397L28.2462 8.20208L28.1678 8.08375L27.751 8.36003ZM27.7796 9.24808L27.2798 9.26414L27.2848 9.42023L27.3778 9.54571L27.7796 9.24808ZM28.2654 9.90388L28.7089 9.67312L28.6907 9.63803L28.6671 9.60625L28.2654 9.90388ZM28.6391 10.6223L29.1364 10.6749L29.1522 10.5251L29.0827 10.3915L28.6391 10.6223ZM28.5477 11.4861L28.0505 11.4335L28.0252 11.6727L28.1963 11.8417L28.5477 11.4861ZM29.2141 12.1447L29.6791 11.9609L29.6404 11.863L29.5655 11.789L29.2141 12.1447ZM29.5205 12.9202L29.988 13.0975L30.0567 12.9165L29.9855 12.7365L29.5205 12.9202ZM29.1935 13.7825L28.726 13.6052L28.6761 13.7368L28.7021 13.875L29.1935 13.7825ZM29.2305 13.9788L28.7311 13.9534L28.726 14.0533L29.2254 14.0787L29.7247 14.1041L29.7298 14.0042L29.2305 13.9788ZM29.2254 14.0787L28.7255 14.0663L28.7082 14.7677L29.208 14.7801L29.7079 14.7924L29.7252 14.091L29.2254 14.0787ZM29.208 14.7801L28.7128 14.8492L28.8242 15.6476L29.3194 15.5785L29.8147 15.5094L29.7032 14.711L29.208 14.7801ZM29.3194 15.5785L28.8246 15.5071L28.7098 16.3021L29.2047 16.3735L29.6996 16.445L29.8143 15.6499L29.3194 15.5785ZM29.2047 16.3735L28.7146 16.4723L28.8814 17.3L29.3715 17.2012L29.8617 17.1024L29.6949 16.2748L29.2047 16.3735ZM29.3715 17.2012L28.9581 16.92L28.4618 17.6499L28.8752 17.9311L29.2887 18.2122L29.785 17.4823L29.3715 17.2012ZM28.8752 17.9311L28.4139 18.1239L28.7962 19.0381L29.2575 18.8452L29.7188 18.6524L29.3365 17.7382L28.8752 17.9311ZM29.2575 18.8452L28.9728 18.4342L28.1181 19.026L28.4028 19.4371L28.6874 19.8481L29.5421 19.2563L29.2575 18.8452ZM28.4028 19.4371L27.9085 19.3617L27.7872 20.157L28.2815 20.2324L28.7758 20.3077L28.8971 19.5124L28.4028 19.4371ZM28.2815 20.2324L27.9306 19.8762L27.3236 20.4742L27.6744 20.8304L28.0253 21.1866L28.6324 20.5886L28.2815 20.2324ZM27.6744 20.8304L27.1745 20.8214L27.159 21.6878L27.6589 21.6968L28.1588 21.7057L28.1744 20.8394L27.6744 20.8304ZM27.6589 21.6968L27.1589 21.7019L27.1685 22.6344L27.6685 22.6292L28.1685 22.6241L28.1589 21.6916L27.6589 21.6968ZM27.6685 22.6292L27.5363 22.147L26.4906 22.4337L26.6228 22.9159L26.755 23.3981L27.8007 23.1114L27.6685 22.6292ZM26.6228 22.9159L26.1602 22.7261L25.8533 23.4743L26.3159 23.664L26.7785 23.8538L27.0854 23.1056L26.6228 22.9159ZM26.3159 23.664L25.8232 23.579L25.6666 24.4867L26.1593 24.5717L26.652 24.6567L26.8086 23.7491L26.3159 23.664ZM26.1593 24.5717L25.8416 24.1856L25.2061 24.7085L25.5238 25.0946L25.8415 25.4807L26.477 24.9578L26.1593 24.5717ZM25.5238 25.0946L25.4356 24.6024L24.4862 24.7725L24.5744 25.2647L24.6626 25.7569L25.612 25.5868L25.5238 25.0946ZM24.5744 25.2647L24.0908 25.1377L23.8475 26.0642L24.3311 26.1912L24.8147 26.3182L25.058 25.3917L24.5744 25.2647ZM24.3311 26.1912L23.9554 25.8612L23.4085 26.4838L23.7842 26.8138L24.1598 27.1437L24.7067 26.5211L24.3311 26.1912ZM23.7842 26.8138L23.8599 26.3195L22.7728 26.153L22.6971 26.6473L22.6214 27.1415L23.7085 27.308L23.7842 26.8138ZM22.6971 26.6473L22.3415 26.2958L21.7763 26.8675L22.1319 27.219L22.4875 27.5705L23.0526 26.9988L22.6971 26.6473ZM22.1319 27.219L21.6927 26.98L21.2352 27.8209L21.6744 28.0599L22.1136 28.2988L22.5711 27.458L22.1319 27.219ZM21.6744 28.0599L21.4398 27.6183L20.7167 28.0024L20.9512 28.444L21.1858 28.8855L21.9089 28.5014L21.6744 28.0599ZM20.9512 28.444L21.0151 27.9481L20.1004 27.8303L20.0366 28.3262L19.9727 28.8221L20.8874 28.9399L20.9512 28.444ZM20.0366 28.3262L19.652 28.0066L19.0441 28.7382L19.4287 29.0578L19.8132 29.3773L20.4211 28.6457L20.0366 28.3262ZM19.4287 29.0578L19.6053 28.59L18.6765 28.2393L18.4999 28.707L18.3232 29.1748L19.252 29.5255L19.4287 29.0578ZM18.4999 28.707L18.421 28.2133L17.6425 28.3377L17.7214 28.8315L17.8003 29.3252L18.5788 29.2008L18.4999 28.707ZM17.7214 28.8315L17.6889 28.3325L16.9031 28.3837L16.9357 28.8827L16.9682 29.3816L17.7539 29.3304L17.7214 28.8315ZM16.9357 28.8827L16.5805 28.5307L15.8434 29.2743L16.1986 29.6263L16.5537 29.9783L17.2908 29.2346L16.9357 28.8827ZM16.1986 29.6263L16.3564 29.1519L15.5334 28.8781L15.3755 29.3525L15.2177 29.8269L16.0407 30.1007L16.1986 29.6263ZM15.3755 29.3525L15.606 28.9088L14.8212 28.5012L14.5907 28.945L14.3603 29.3887L15.1451 29.7962L15.3755 29.3525ZM14.5907 28.945L14.6418 28.4476L13.8653 28.3679L13.8143 28.8653L13.7632 29.3627L14.5397 29.4424L14.5907 28.945ZM13.8143 28.8653L13.9519 28.3846L13.1976 28.1686L13.0599 28.6492L12.9222 29.1299L13.6766 29.346L13.8143 28.8653ZM13.0599 28.6492L13.1234 28.1533L12.3533 28.0546L12.2897 28.5506L12.2262 29.0465L12.9964 29.1452L13.0599 28.6492ZM12.2897 28.5506L12.383 28.0594L11.6178 27.9141L11.5245 28.4053L11.4312 28.8965L12.1965 29.0418L12.2897 28.5506ZM11.5245 28.4053L11.3716 27.9292L10.4444 28.227L10.5973 28.703L10.7502 29.1791L11.6774 28.8813L11.5245 28.4053ZM10.5973 28.703L10.8568 28.2756L10.1555 27.8499L9.89601 28.2773L9.63655 28.7047L10.3379 29.1305L10.5973 28.703ZM9.89601 28.2773L9.99865 27.788L9.19027 27.6184L9.08763 28.1078L8.98499 28.5971L9.79337 28.7667L9.89601 28.2773ZM9.08763 28.1078L9.50678 27.8351L9.00523 27.064L8.58609 27.3366L8.16694 27.6093L8.66849 28.3804L9.08763 28.1078ZM8.58609 27.3366L8.50926 26.8426L7.47943 27.0027L7.55626 27.4968L7.63308 27.9908L8.66291 27.8307L8.58609 27.3366ZM7.55626 27.4968L8.04885 27.411L7.85021 26.2695L7.35762 26.3552L6.86502 26.4409L7.06366 27.5825L7.55626 27.4968ZM7.35762 26.3552L7.37789 25.8556L6.41481 25.8165L6.39454 26.3161L6.37426 26.8157L7.33734 26.8548L7.35762 26.3552ZM6.39454 26.3161L6.82413 26.0603L6.39148 25.3338L5.96189 25.5896L5.53229 25.8455L5.96494 26.572L6.39454 26.3161ZM5.96189 25.5896L6.37982 25.3152L5.93619 24.6397L5.51826 24.9141L5.10033 25.1886L5.54396 25.8641L5.96189 25.5896ZM5.51826 24.9141L5.6769 24.44L4.82191 24.1539L4.66327 24.6281L4.50464 25.1023L5.35963 25.3883L5.51826 24.9141ZM4.66327 24.6281L4.90818 24.1922L4.14877 23.7655L3.90387 24.2015L3.65896 24.6374L4.41837 25.064L4.66327 24.6281ZM3.90387 24.2015L4.28731 23.8806L3.75709 23.247L3.37365 23.5679L2.99021 23.8888L3.52043 24.5224L3.90387 24.2015ZM3.37365 23.5679L3.86494 23.475L3.70042 22.6053L3.20913 22.6982L2.71784 22.7912L2.88236 23.6608L3.37365 23.5679ZM3.20913 22.6982L3.59853 22.3846L3.08424 21.7461L2.69484 22.0597L2.30543 22.3733L2.81973 23.0119L3.20913 22.6982ZM2.69484 22.0597L3.181 22.1765L3.42466 21.1625L2.9385 21.0457L2.45234 20.9289L2.20867 21.9429L2.69484 22.0597ZM2.9385 21.0457L3.09625 20.5712L1.95996 20.1934L1.80221 20.6679L1.64446 21.1424L2.78075 21.5202L2.9385 21.0457ZM1.80221 20.6679L2.25677 20.8762L2.72889 19.8457L2.27432 19.6374L1.81976 19.4292L1.34764 20.4597L1.80221 20.6679ZM2.27432 19.6374L2.55901 19.2264L1.7226 18.6471L1.43791 19.0581L1.15322 19.4692L1.98963 20.0485L2.27432 19.6374ZM1.43791 19.0581L1.92477 19.172L2.13031 18.2935L1.64346 18.1796L1.15661 18.0657L0.951061 18.9442L1.43791 19.0581ZM1.64346 18.1796L2.01446 17.8444L1.37853 17.1406L1.00754 17.4758L0.636543 17.811L1.27247 18.5148L1.64346 18.1796ZM1.00754 17.4758L1.47684 17.6483L1.79148 16.7923L1.32218 16.6198L0.852877 16.4473L0.538239 17.3033L1.00754 17.4758ZM1.32218 16.6198L1.82212 16.6274L1.8343 15.8282L1.33436 15.8206L0.834418 15.813L0.822234 16.6122L1.32218 16.6198ZM1.33436 15.8206L1.79976 15.6378L1.4862 14.8394L1.0208 15.0221L0.555402 15.2049L0.868959 16.0033L1.33436 15.8206ZM1.0208 15.0221L1.48113 15.2173L1.81568 14.4283L1.35535 14.2331L0.895026 14.0379L0.560476 14.8269L1.0208 15.0221ZM1.35535 14.2331L1.80383 14.4542L2.17459 13.702L1.72611 13.4809L1.27763 13.2599L0.906871 14.0121L1.35535 14.2331ZM1.72611 13.4809L2.21171 13.3618L2.00841 12.533L1.52281 12.6521L1.0372 12.7712L1.2405 13.6001L1.72611 13.4809ZM1.52281 12.6521L1.98253 12.8487L2.29944 12.1077L1.83971 11.9111L1.37999 11.7145L1.06308 12.4555L1.52281 12.6521ZM1.83971 11.9111L2.33222 11.8249L2.17964 10.9533L1.68713 11.0396L1.19462 11.1258L1.3472 11.9973L1.83971 11.9111ZM1.68713 11.0396L2.0511 11.3824L2.65234 10.7441L2.28838 10.4012L1.92441 10.0584L1.32317 10.6967L1.68713 11.0396ZM2.28838 10.4012L2.788 10.3817L2.75378 9.50474L2.25416 9.52423L1.75454 9.54372L1.78876 10.4207L2.28838 10.4012ZM2.25416 9.52423L2.73816 9.64972L2.94618 8.84736L2.46219 8.72187L1.97819 8.59639L1.77017 9.39875L2.25416 9.52423ZM2.46219 8.72187L2.7101 9.15608L3.52956 8.6882L3.28164 8.25399L3.03373 7.81978L2.21427 8.28766L2.46219 8.72187ZM3.28164 8.25399L3.7617 8.39381L3.99311 7.59925L3.51305 7.45944L3.033 7.31963L2.80159 8.11418L3.28164 8.25399ZM3.51305 7.45944L4.00135 7.56699L4.19097 6.70609L3.70268 6.59853L3.21438 6.49098L3.02476 7.35189L3.51305 7.45944ZM3.70268 6.59853L4.02889 6.97746L4.65987 6.43425L4.33366 6.05533L4.00745 5.6764L3.37646 6.21961L3.70268 6.59853ZM4.33366 6.05533L4.46932 6.53657L5.38143 6.27946L5.24577 5.79821L5.11012 5.31697L4.198 5.57408L4.33366 6.05533ZM5.24577 5.79821L5.71614 5.96778L6.01405 5.14144L5.54368 4.97187L5.07331 4.80229L4.77541 5.62864L5.24577 5.79821ZM5.54368 4.97187L5.85022 5.36688L6.48704 4.8727L6.18051 4.47768L5.87397 4.08267L5.23715 4.57685L5.54368 4.97187ZM6.18051 4.47768L6.62609 4.70453L7.03155 3.90813L6.58597 3.68128L6.14039 3.45443L5.73493 4.25083L6.18051 4.47768ZM6.58597 3.68128L6.61923 4.18017L7.56611 4.11705L7.53285 3.61816L7.49959 3.11926L6.55271 3.18239L6.58597 3.68128ZM7.53285 3.61816L7.85575 3.99991L8.47189 3.47874L8.14899 3.09699L7.82609 2.71524L7.20995 3.23641L7.53285 3.61816ZM8.14899 3.09699L8.52775 3.4234L9.09295 2.76753L8.71419 2.44113L8.33543 2.11473L7.77023 2.77059L8.14899 3.09699ZM8.71419 2.44113L8.91263 2.90007L9.66454 2.57495L9.4661 2.11601L9.26767 1.65708L8.51575 1.98219L8.71419 2.44113ZM9.4661 2.11601L9.46721 2.61601L10.3392 2.61408L10.3381 2.11408L10.337 1.61408L9.465 1.61601L9.4661 2.11601ZM10.3381 2.11408L10.2854 2.6113L11.1501 2.70291L11.2028 2.20569L11.2554 1.70847L10.3908 1.61686L10.3381 2.11408ZM11.2028 2.20569L11.6071 2.49977L12.2053 1.67733L11.8009 1.38325L11.3965 1.08917L10.7984 1.91161L11.2028 2.20569ZM11.8009 1.38325L11.6474 1.85911L12.5287 2.14339L12.6822 1.66753L12.8357 1.19168L11.9544 0.907393L11.8009 1.38325ZM12.6822 1.66753L12.9188 2.10803L13.6609 1.70947L13.4243 1.26898L13.1878 0.828482L12.4456 1.22704L12.6822 1.66753ZM13.4243 1.26898L13.4512 1.76825L14.2552 1.72492L14.2283 1.22564L14.2014 0.726367L13.3974 0.769703L13.4243 1.26898ZM14.2283 1.22564L14.4217 1.68671L15.2173 1.35294L15.0239 0.891874L14.8304 0.430803L14.0348 0.764571L14.2283 1.22564ZM15.0239 0.891874L14.85 1.36068L15.6567 1.65979L15.8305 1.19099L16.0044 0.722179L15.1977 0.423067L15.0239 0.891874ZM15.8305 1.19099L15.9314 1.68069L16.7531 1.51135L16.6522 1.02164L16.5513 0.531936L15.7296 0.701279L15.8305 1.19099ZM16.6522 1.02164L16.374 1.43712L17.1203 1.93679L17.3985 1.52132L17.6767 1.10584L16.9304 0.606169L16.6522 1.02164ZM17.3985 1.52132L17.3619 2.01997L18.1586 2.07847L18.1952 1.57981L18.2318 1.08116L17.4351 1.02266L17.3985 1.52132ZM18.1952 1.57981L18.0332 2.05285L18.7883 2.31143L18.9503 1.8384L19.1123 1.36537L18.3572 1.10678L18.1952 1.57981ZM18.9503 1.8384L18.8138 2.31941L19.5771 2.53601L19.7136 2.055L19.8501 1.57399L19.0868 1.35739L18.9503 1.8384ZM19.7136 2.055L19.3944 2.4399L20.0354 2.97136L20.3545 2.58646L20.6737 2.20157L20.0327 1.6701L19.7136 2.055ZM20.3545 2.58646L20.2906 3.08235L21.101 3.18693L21.165 2.69104L21.229 2.19515L20.4185 2.09057L20.3545 2.58646ZM21.165 2.69104L21.088 3.18507L21.9176 3.3144L21.9946 2.82037L22.0716 2.32634L21.242 2.19701L21.165 2.69104ZM21.9946 2.82037L21.7165 3.23588L22.3863 3.68422L22.6644 3.26871L22.9426 2.85321L22.2728 2.40486L21.9946 2.82037ZM22.6644 3.26871L22.2545 3.55493L22.7436 4.25552L23.1535 3.96931L23.5635 3.6831L23.0744 2.9825L22.6644 3.26871ZM23.1535 3.96931L22.7609 4.27886L23.2605 4.91256L23.6531 4.60301L24.0458 4.29345L23.5462 3.65976L23.1535 3.96931ZM23.6531 4.60301L23.65 5.103L24.6766 5.10945L24.6797 4.60946L24.6829 4.10947L23.6563 4.10302L23.6531 4.60301ZM24.6797 4.60946L24.2886 4.92086L24.7964 5.55887L25.1876 5.24747L25.5788 4.93607L25.0709 4.29806L24.6797 4.60946ZM25.1876 5.24747L24.8042 5.56843L25.3202 6.18472L25.7036 5.86376L26.0869 5.5428L25.571 4.92651L25.1876 5.24747ZM25.7036 5.86376L25.2195 5.98888L25.439 6.83844L25.9231 6.71333L26.4072 6.58821L26.1877 5.73865L25.7036 5.86376ZM25.9231 6.71333L25.6788 7.14958L26.4301 7.57025L26.6744 7.13399L26.9186 6.69774L26.1674 6.27707L25.9231 6.71333ZM26.6744 7.13399L26.3453 7.51048L26.9726 8.05872L27.3017 7.68223L27.6307 7.30575L27.0034 6.75751L26.6744 7.13399ZM27.3017 7.68223L26.8849 7.95851L27.3343 8.63631L27.751 8.36003L28.1678 8.08375L27.7184 7.40595L27.3017 7.68223ZM27.751 8.36003L27.2513 8.37609L27.2798 9.26414L27.7796 9.24808L28.2793 9.23202L28.2508 8.34397L27.751 8.36003ZM27.7796 9.24808L27.3778 9.54571L27.8636 10.2015L28.2654 9.90388L28.6671 9.60625L28.1813 8.95045L27.7796 9.24808ZM28.2654 9.90388L27.8218 10.1346L28.1956 10.8531L28.6391 10.6223L29.0827 10.3915L28.7089 9.67312L28.2654 9.90388ZM28.6391 10.6223L28.1419 10.5697L28.0505 11.4335L28.5477 11.4861L29.045 11.5387L29.1364 10.6749L28.6391 10.6223ZM28.5477 11.4861L28.1963 11.8417L28.8626 12.5003L29.2141 12.1447L29.5655 11.789L28.8992 11.1305L28.5477 11.4861ZM29.2141 12.1447L28.749 12.3284L29.0555 13.104L29.5205 12.9202L29.9855 12.7365L29.6791 11.9609L29.2141 12.1447ZM29.5205 12.9202L29.053 12.7429L28.726 13.6052L29.1935 13.7825L29.661 13.9598L29.988 13.0975L29.5205 12.9202ZM29.1935 13.7825L28.7021 13.875L28.7391 14.0713L29.2305 13.9788L29.7218 13.8863L29.6849 13.69L29.1935 13.7825Z" fill="#FF70A6"/>
<path d="M27.5056 14.1955L28.0043 14.2314L28.0383 13.7588L27.5682 13.6994L27.5056 14.1955ZM27.4984 14.2952L26.9997 14.2594L26.9989 14.2707L26.9986 14.282L27.4984 14.2952ZM27.4798 14.9966L26.98 14.9834L26.979 15.0216L26.9838 15.0595L27.4798 14.9966ZM27.5812 15.796L28.0745 15.8778L28.0864 15.8056L28.0772 15.7331L27.5812 15.796ZM27.4499 16.5879L26.9566 16.5061L26.9429 16.5892L26.957 16.6721L27.4499 16.5879ZM27.5922 17.4208L27.9947 17.7173L28.1208 17.5462L28.085 17.3367L27.5922 17.4208ZM27.0685 18.1318L26.6659 17.8353L26.507 18.051L26.5986 18.3028L27.0685 18.1318ZM27.4076 19.0638L27.6696 19.4896L28.0168 19.276L27.8774 18.8928L27.4076 19.0638ZM26.5216 19.6088L26.2596 19.183L26.0782 19.2946L26.033 19.5027L26.5216 19.6088ZM26.351 20.3936L26.6753 20.7742L26.8038 20.6647L26.8396 20.4998L26.351 20.3936ZM25.704 20.9449L25.3797 20.5643L25.2258 20.6954L25.2063 20.8967L25.704 20.9449ZM25.6208 21.8056L25.123 21.7574L25.1223 21.7666L25.6208 21.8056ZM25.548 22.7364L25.6336 23.2291L26.0161 23.1626L26.0464 22.7754L25.548 22.7364ZM24.4795 22.9221L24.3939 22.4295L24.1541 22.4712L24.039 22.6856L24.4795 22.9221ZM24.0979 23.6329L23.6574 23.3964L23.6326 23.4427L23.6179 23.493L24.0979 23.6329ZM23.84 24.5178L24.1091 24.9392L24.2675 24.8381L24.3201 24.6577L23.84 24.5178ZM23.1446 24.9618L23.1683 25.4612L23.3013 25.4549L23.4136 25.3832L23.1446 24.9618ZM22.1819 25.0075L22.1581 24.5081L21.8419 24.5231L21.7203 24.8154L22.1819 25.0075ZM21.8141 25.8912L22.1372 26.2727L22.2293 26.1948L22.2757 26.0834L21.8141 25.8912ZM21.1801 26.4282L21.0287 26.9047L21.2923 26.9885L21.5033 26.8097L21.1801 26.4282ZM20.1325 26.0952L20.2839 25.6187L20.0433 25.5422L19.8388 25.6905L20.1325 26.0952ZM19.4839 26.5658L19.1903 26.1611L19.135 26.2013L19.0924 26.2548L19.4839 26.5658ZM18.8882 27.3155L19.0394 27.7922L19.1848 27.746L19.2797 27.6266L18.8882 27.3155ZM18.1058 27.5636L17.9501 28.0387L18.1033 28.0889L18.2569 28.0402L18.1058 27.5636ZM17.2289 27.2763L17.3846 26.8011L17.1259 26.7164L16.9143 26.8876L17.2289 27.2763ZM16.4888 27.8753L16.2218 28.298L16.5248 28.4894L16.8034 28.264L16.4888 27.8753ZM15.6483 27.3444L15.9153 26.9217L15.805 26.852L15.6746 26.8451L15.6483 27.3444ZM14.8624 27.303L14.7853 27.797L14.8106 27.8009L14.8361 27.8023L14.8624 27.303ZM14.087 27.1819L14.1641 26.6879L13.9791 26.659L13.8206 26.7587L14.087 27.1819ZM13.202 27.7388L12.9368 28.1627L13.2028 28.329L13.4683 28.162L13.202 27.7388ZM12.4648 27.2776L12.1322 27.651L12.1638 27.6791L12.1996 27.7015L12.4648 27.2776ZM11.8052 26.6902L12.1378 26.3168L12.0682 26.2548L11.981 26.2221L11.8052 26.6902ZM11.0771 26.4167L10.818 26.8443L10.8577 26.8684L10.9013 26.8848L11.0771 26.4167ZM10.4085 26.0116L10.6676 25.584L10.6367 25.5653L10.6034 25.5512L10.4085 26.0116ZM9.69699 25.7104L9.47121 26.1566L9.4864 26.1642L9.50208 26.1709L9.69699 25.7104ZM9.00483 25.3601L9.23061 24.914L9.11887 24.8575L8.99367 24.8603L9.00483 25.3601ZM8.03189 25.3819L7.65895 25.7149L7.81253 25.8869L8.04305 25.8817L8.03189 25.3819ZM7.48481 24.7692L7.85775 24.4362L7.80221 24.374L7.72949 24.3332L7.48481 24.7692ZM6.76358 24.3645L6.28096 24.4952L6.33582 24.6978L6.5189 24.8006L6.76358 24.3645ZM6.52321 23.4767L7.00584 23.346L6.92212 23.0368L6.60622 22.9836L6.52321 23.4767ZM5.49492 23.3036L5.00105 23.2255L4.9238 23.7145L5.41192 23.7966L5.49492 23.3036ZM5.67574 22.1593L6.16961 22.2373L6.23207 21.842L5.86008 21.6945L5.67574 22.1593ZM4.78074 21.8043L4.28979 21.899L4.34169 22.168L4.5964 22.2691L4.78074 21.8043ZM4.62059 20.9739L5.11154 20.8792L5.10992 20.8709L5.10802 20.8625L4.62059 20.9739ZM4.44108 20.1884L4.92851 20.077L4.89044 19.9104L4.75832 19.802L4.44108 20.1884ZM3.74489 19.617L3.35731 19.9328L3.38894 19.9716L3.42765 20.0034L3.74489 19.617ZM3.19305 18.9398L2.71747 19.0942L2.74636 19.1832L2.80547 19.2557L3.19305 18.9398ZM2.93701 18.151L2.44729 18.0501L2.42063 18.1796L2.46143 18.3053L2.93701 18.151ZM3.11592 17.2821L3.60564 17.3829L3.63043 17.2625L3.59657 17.1443L3.11592 17.2821ZM2.88961 16.4923L2.48898 16.1932L2.34067 16.3918L2.40896 16.6301L2.88961 16.4923ZM3.51353 15.6568L3.91415 15.956L4.18673 15.5909L3.84857 15.2857L3.51353 15.6568ZM2.62445 14.8542L2.29451 14.4785L1.8726 14.8491L2.28941 15.2253L2.62445 14.8542ZM3.47625 14.1061L3.8062 14.4818L4.11824 14.2077L3.9061 13.8507L3.47625 14.1061ZM2.9567 13.2317L2.56386 12.9224L2.35153 13.192L2.52685 13.4871L2.9567 13.2317ZM3.51538 12.5221L3.90823 12.8314L4.06818 12.6283L3.99486 12.3804L3.51538 12.5221ZM3.2462 11.6118L2.90058 11.2505L2.68028 11.4612L2.76673 11.7535L3.2462 11.6118ZM3.90596 10.9806L4.25158 11.3419L4.31112 11.285L4.34924 11.212L3.90596 10.9806ZM4.27517 10.2731L4.71845 10.5044L4.76298 10.4191L4.77264 10.3233L4.27517 10.2731ZM4.3613 9.41956L4.04431 9.03288L3.88457 9.16384L3.86383 9.36936L4.3613 9.41956ZM5.02408 8.87623L4.73318 8.46956L4.71981 8.47913L4.7071 8.48955L5.02408 8.87623ZM5.70457 8.38946L5.99547 8.79612L6.14217 8.69118L6.18809 8.51675L5.70457 8.38946ZM5.9214 7.56579L5.61477 7.17085L5.48099 7.27471L5.43788 7.4385L5.9214 7.56579ZM6.5572 7.07214L6.86383 7.46708L6.97956 7.37723L7.02849 7.23912L6.5572 7.07214ZM6.85264 6.23827L6.70783 5.7597L6.4658 5.83294L6.38135 6.07129L6.85264 6.23827ZM7.692 5.9843L7.83681 6.46287L8.03537 6.40279L8.13308 6.21979L7.692 5.9843ZM8.10517 5.21043L7.75396 4.85455L7.69989 4.90792L7.6641 4.97494L8.10517 5.21043ZM8.69651 4.62685L8.7101 4.12704L8.49702 4.12124L8.3453 4.27097L8.69651 4.62685ZM9.64045 4.65253L9.62686 5.15234L9.82631 5.15777L9.9747 5.02438L9.64045 4.65253ZM10.2553 4.09985L10.5896 4.47171L10.6 4.46229L10.61 4.45231L10.2553 4.09985ZM10.878 3.47327L10.8094 2.978L10.6423 3.00117L10.5234 3.12081L10.878 3.47327ZM11.7059 3.35849L11.8577 2.88208L11.7496 2.84765L11.6373 2.86323L11.7059 3.35849ZM12.6083 3.64596L12.4565 4.12237L12.6991 4.19966L12.9043 4.04889L12.6083 3.64596ZM13.3155 3.12634L13.2853 2.62725L13.1382 2.63615L13.0195 2.72341L13.3155 3.12634ZM14.1211 3.0776L14.1513 3.57669L14.2606 3.57008L14.3571 3.51838L14.1211 3.0776ZM14.9109 2.65467L15.1711 2.22771L14.9269 2.0789L14.6748 2.21388L14.9109 2.65467ZM15.7223 3.14919L15.4621 3.57615L15.6004 3.66043L15.7619 3.64763L15.7223 3.14919ZM16.5266 3.0854L16.5661 3.58383L16.6032 3.58089L16.6394 3.5725L16.5266 3.0854ZM17.3712 2.88975L17.486 2.4031L17.3722 2.37628L17.2584 2.40265L17.3712 2.88975ZM18.1716 3.07845L18.4724 2.67905L18.3885 2.61589L18.2863 2.5918L18.1716 3.07845ZM18.869 3.60366L19.2146 3.2423L19.1933 3.22197L19.1698 3.20426L18.869 3.60366ZM19.496 4.20332L19.1505 4.56468L19.3575 4.76267L19.633 4.68419L19.496 4.20332ZM20.4735 3.92488L20.8901 3.64845L20.688 3.34387L20.3365 3.44401L20.4735 3.92488ZM20.9856 4.69679L20.569 4.97322L20.6852 5.14843L20.8918 5.1879L20.9856 4.69679ZM21.8126 4.85486L22.11 4.45288L22.0184 4.38513L21.9065 4.36375L21.8126 4.85486ZM22.4589 5.33288L22.1615 5.73486L22.2293 5.78497L22.3097 5.81011L22.4589 5.33288ZM23.2837 5.59068L23.7204 5.3473L23.6233 5.17299L23.4328 5.11346L23.2837 5.59068ZM23.7031 6.34345L23.2664 6.58683L23.3349 6.70988L23.4576 6.77904L23.7031 6.34345ZM24.4351 6.75592L24.9186 6.62864L24.8648 6.42414L24.6805 6.32032L24.4351 6.75592ZM24.6638 7.62508L24.1803 7.75236L24.2134 7.87802L24.3035 7.97167L24.6638 7.62508ZM25.2171 8.20036L25.6556 7.96016L25.6237 7.90176L25.5775 7.85377L25.2171 8.20036ZM25.6001 8.89946L25.1615 9.13966L25.167 9.14961L25.1729 9.15931L25.6001 8.89946ZM26.0119 9.57658L26.5083 9.51606L26.4952 9.40893L26.4391 9.31673L26.0119 9.57658ZM26.1124 10.4008L25.6161 10.4613L25.6334 10.6032L25.7231 10.7145L26.1124 10.4008ZM26.6238 11.0353L27.0241 10.7358L27.0187 10.7286L27.0131 10.7215L26.6238 11.0353ZM27.1268 11.7078L27.617 11.6092L27.5948 11.4986L27.5272 11.4082L27.1268 11.7078ZM27.2857 12.4982L27.7774 12.5888L27.7949 12.4941L27.7759 12.3997L27.2857 12.4982ZM27.1311 13.3374L26.6394 13.2469L26.6372 13.2591L26.6355 13.2714L27.1311 13.3374ZM27.0248 14.1348L26.5292 14.0687L26.4627 14.5678L26.9622 14.6309L27.0248 14.1348ZM27.5056 14.1955L27.0068 14.1596L26.9997 14.2594L27.4984 14.2952L27.9971 14.3311L28.0043 14.2314L27.5056 14.1955ZM27.4984 14.2952L26.9986 14.282L26.98 14.9834L27.4798 14.9966L27.9796 15.0099L27.9982 14.3085L27.4984 14.2952ZM27.4798 14.9966L26.9838 15.0595L27.0852 15.8589L27.5812 15.796L28.0772 15.7331L27.9758 14.9337L27.4798 14.9966ZM27.5812 15.796L27.088 15.7142L26.9566 16.5061L27.4499 16.5879L27.9432 16.6697L28.0745 15.8778L27.5812 15.796ZM27.4499 16.5879L26.957 16.6721L27.0993 17.505L27.5922 17.4208L28.085 17.3367L27.9428 16.5038L27.4499 16.5879ZM27.5922 17.4208L27.1896 17.1243L26.6659 17.8353L27.0685 18.1318L27.4711 18.4284L27.9947 17.7173L27.5922 17.4208ZM27.0685 18.1318L26.5986 18.3028L26.9377 19.2347L27.4076 19.0638L27.8774 18.8928L27.5383 17.9609L27.0685 18.1318ZM27.4076 19.0638L27.1456 18.6379L26.2596 19.183L26.5216 19.6088L26.7835 20.0347L27.6696 19.4896L27.4076 19.0638ZM26.5216 19.6088L26.033 19.5027L25.8624 20.2874L26.351 20.3936L26.8396 20.4998L27.0101 19.715L26.5216 19.6088ZM26.351 20.3936L26.0267 20.013L25.3797 20.5643L25.704 20.9449L26.0283 21.3255L26.6753 20.7742L26.351 20.3936ZM25.704 20.9449L25.2063 20.8967L25.1231 21.7574L25.6208 21.8056L26.1185 21.8537L26.2017 20.993L25.704 20.9449ZM25.6208 21.8056L25.1223 21.7666L25.0495 22.6974L25.548 22.7364L26.0464 22.7754L26.1193 21.8446L25.6208 21.8056ZM25.548 22.7364L25.4623 22.2438L24.3939 22.4295L24.4795 22.9221L24.5651 23.4148L25.6336 23.2291L25.548 22.7364ZM24.4795 22.9221L24.039 22.6856L23.6574 23.3964L24.0979 23.6329L24.5384 23.8694L24.92 23.1587L24.4795 22.9221ZM24.0979 23.6329L23.6179 23.493L23.36 24.3779L23.84 24.5178L24.3201 24.6577L24.5779 23.7728L24.0979 23.6329ZM23.84 24.5178L23.571 24.0963L22.8755 24.5403L23.1446 24.9618L23.4136 25.3832L24.1091 24.9392L23.84 24.5178ZM23.1446 24.9618L23.1208 24.4623L22.1581 24.5081L22.1819 25.0075L22.2056 25.507L23.1683 25.4612L23.1446 24.9618ZM22.1819 25.0075L21.7203 24.8154L21.3525 25.6991L21.8141 25.8912L22.2757 26.0834L22.6435 25.1997L22.1819 25.0075ZM21.8141 25.8912L21.4909 25.5097L20.857 26.0467L21.1801 26.4282L21.5033 26.8097L22.1372 26.2727L21.8141 25.8912ZM21.1801 26.4282L21.3316 25.9517L20.2839 25.6187L20.1325 26.0952L19.981 26.5717L21.0287 26.9047L21.1801 26.4282ZM20.1325 26.0952L19.8388 25.6905L19.1903 26.1611L19.4839 26.5658L19.7776 26.9705L20.4261 26.4999L20.1325 26.0952ZM19.4839 26.5658L19.0924 26.2548L18.4968 27.0045L18.8882 27.3155L19.2797 27.6266L19.8754 26.8768L19.4839 26.5658ZM18.8882 27.3155L18.7371 26.8389L17.9547 27.087L18.1058 27.5636L18.2569 28.0402L19.0394 27.7922L18.8882 27.3155ZM18.1058 27.5636L18.2615 27.0885L17.3846 26.8011L17.2289 27.2763L17.0732 27.7514L17.9501 28.0387L18.1058 27.5636ZM17.2289 27.2763L16.9143 26.8876L16.1743 27.4867L16.4888 27.8753L16.8034 28.264L17.5435 27.6649L17.2289 27.2763ZM16.4888 27.8753L16.7558 27.4526L15.9153 26.9217L15.6483 27.3444L15.3813 27.7671L16.2218 28.298L16.4888 27.8753ZM15.6483 27.3444L15.6746 26.8451L14.8888 26.8037L14.8624 27.303L14.8361 27.8023L15.622 27.8437L15.6483 27.3444ZM14.8624 27.303L14.9396 26.809L14.1641 26.6879L14.087 27.1819L14.0098 27.6759L14.7853 27.797L14.8624 27.303ZM14.087 27.1819L13.8206 26.7587L12.9357 27.3156L13.202 27.7388L13.4683 28.162L14.3533 27.6051L14.087 27.1819ZM13.202 27.7388L13.4672 27.3149L12.73 26.8537L12.4648 27.2776L12.1996 27.7015L12.9368 28.1627L13.202 27.7388ZM12.4648 27.2776L12.7973 26.9042L12.1378 26.3168L11.8052 26.6902L11.4727 27.0635L12.1322 27.651L12.4648 27.2776ZM11.8052 26.6902L11.981 26.2221L11.2529 25.9486L11.0771 26.4167L10.9013 26.8848L11.6294 27.1582L11.8052 26.6902ZM11.0771 26.4167L11.3362 25.9891L10.6676 25.584L10.4085 26.0116L10.1494 26.4392L10.818 26.8443L11.0771 26.4167ZM10.4085 26.0116L10.6034 25.5512L9.8919 25.25L9.69699 25.7104L9.50208 26.1709L10.2136 26.4721L10.4085 26.0116ZM9.69699 25.7104L9.92277 25.2643L9.23061 24.914L9.00483 25.3601L8.77905 25.8063L9.47121 26.1566L9.69699 25.7104ZM9.00483 25.3601L8.99367 24.8603L8.02073 24.882L8.03189 25.3819L8.04305 25.8817L9.01599 25.86L9.00483 25.3601ZM8.03189 25.3819L8.40483 25.0488L7.85775 24.4362L7.48481 24.7692L7.11187 25.1023L7.65895 25.7149L8.03189 25.3819ZM7.48481 24.7692L7.72949 24.3332L7.00826 23.9285L6.76358 24.3645L6.5189 24.8006L7.24013 25.2053L7.48481 24.7692ZM6.76358 24.3645L7.24621 24.2338L7.00584 23.346L6.52321 23.4767L6.04059 23.6073L6.28096 24.4952L6.76358 24.3645ZM6.52321 23.4767L6.60622 22.9836L5.57793 22.8105L5.49492 23.3036L5.41192 23.7966L6.44021 23.9697L6.52321 23.4767ZM5.49492 23.3036L5.9888 23.3816L6.16961 22.2373L5.67574 22.1593L5.18186 22.0812L5.00105 23.2255L5.49492 23.3036ZM5.67574 22.1593L5.86008 21.6945L4.96509 21.3395L4.78074 21.8043L4.5964 22.2691L5.49139 22.624L5.67574 22.1593ZM4.78074 21.8043L5.27169 21.7096L5.11154 20.8792L4.62059 20.9739L4.12964 21.0686L4.28979 21.899L4.78074 21.8043ZM4.62059 20.9739L5.10802 20.8625L4.92851 20.077L4.44108 20.1884L3.95365 20.2998L4.13315 21.0853L4.62059 20.9739ZM4.44108 20.1884L4.75832 19.802L4.06213 19.2305L3.74489 19.617L3.42765 20.0034L4.12384 20.5749L4.44108 20.1884ZM3.74489 19.617L4.13247 19.3011L3.58064 18.624L3.19305 18.9398L2.80547 19.2557L3.35731 19.9328L3.74489 19.617ZM3.19305 18.9398L3.66863 18.7855L3.41259 17.9966L2.93701 18.151L2.46143 18.3053L2.71747 19.0942L3.19305 18.9398ZM2.93701 18.151L3.42674 18.2518L3.60564 17.3829L3.11592 17.2821L2.62619 17.1812L2.44729 18.0501L2.93701 18.151ZM3.11592 17.2821L3.59657 17.1443L3.37026 16.3546L2.88961 16.4923L2.40896 16.6301L2.63526 17.4198L3.11592 17.2821ZM2.88961 16.4923L3.29024 16.7915L3.91415 15.956L3.51353 15.6568L3.1129 15.3576L2.48898 16.1932L2.88961 16.4923ZM3.51353 15.6568L3.84857 15.2857L2.9595 14.4831L2.62445 14.8542L2.28941 15.2253L3.17848 16.0279L3.51353 15.6568ZM2.62445 14.8542L2.9544 15.2299L3.8062 14.4818L3.47625 14.1061L3.1463 13.7304L2.29451 14.4785L2.62445 14.8542ZM3.47625 14.1061L3.9061 13.8507L3.38654 12.9763L2.9567 13.2317L2.52685 13.4871L3.0464 14.3615L3.47625 14.1061ZM2.9567 13.2317L3.34954 13.541L3.90823 12.8314L3.51538 12.5221L3.12254 12.2128L2.56386 12.9224L2.9567 13.2317ZM3.51538 12.5221L3.99486 12.3804L3.72568 11.47L3.2462 11.6118L2.76673 11.7535L3.03591 12.6639L3.51538 12.5221ZM3.2462 11.6118L3.59183 11.9731L4.25158 11.3419L3.90596 10.9806L3.56033 10.6193L2.90058 11.2505L3.2462 11.6118ZM3.90596 10.9806L4.34924 11.212L4.71845 10.5044L4.27517 10.2731L3.83189 10.0418L3.46268 10.7493L3.90596 10.9806ZM4.27517 10.2731L4.77264 10.3233L4.85878 9.46976L4.3613 9.41956L3.86383 9.36936L3.7777 10.2229L4.27517 10.2731ZM4.3613 9.41956L4.67829 9.80624L5.34107 9.2629L5.02408 8.87623L4.7071 8.48955L4.04431 9.03288L4.3613 9.41956ZM5.02408 8.87623L5.31498 9.28289L5.99547 8.79612L5.70457 8.38946L5.41367 7.98279L4.73318 8.46956L5.02408 8.87623ZM5.70457 8.38946L6.18809 8.51675L6.40493 7.69308L5.9214 7.56579L5.43788 7.4385L5.22104 8.26217L5.70457 8.38946ZM5.9214 7.56579L6.22804 7.96072L6.86383 7.46708L6.5572 7.07214L6.25056 6.67721L5.61477 7.17085L5.9214 7.56579ZM6.5572 7.07214L7.02849 7.23912L7.32393 6.40525L6.85264 6.23827L6.38135 6.07129L6.0859 6.90516L6.5572 7.07214ZM6.85264 6.23827L6.99745 6.71684L7.83681 6.46287L7.692 5.9843L7.5472 5.50572L6.70783 5.7597L6.85264 6.23827ZM7.692 5.9843L8.13308 6.21979L8.54625 5.44592L8.10517 5.21043L7.6641 4.97494L7.25093 5.74881L7.692 5.9843ZM8.10517 5.21043L8.45638 5.56631L9.04772 4.98274L8.69651 4.62685L8.3453 4.27097L7.75396 4.85455L8.10517 5.21043ZM8.69651 4.62685L8.68292 5.12667L9.62686 5.15234L9.64045 4.65253L9.65405 4.15271L8.7101 4.12704L8.69651 4.62685ZM9.64045 4.65253L9.9747 5.02438L10.5896 4.47171L10.2553 4.09985L9.92106 3.72799L9.3062 4.28067L9.64045 4.65253ZM10.2553 4.09985L10.61 4.45231L11.2327 3.82573L10.878 3.47327L10.5234 3.12081L9.90067 3.74739L10.2553 4.09985ZM10.878 3.47327L10.9467 3.96853L11.7746 3.85375L11.7059 3.35849L11.6373 2.86323L10.8094 2.978L10.878 3.47327ZM11.7059 3.35849L11.5542 3.8349L12.4565 4.12237L12.6083 3.64596L12.7601 3.16955L11.8577 2.88208L11.7059 3.35849ZM12.6083 3.64596L12.9043 4.04889L13.6116 3.52928L13.3155 3.12634L13.0195 2.72341L12.3122 3.24302L12.6083 3.64596ZM13.3155 3.12634L13.3457 3.62543L14.1513 3.57669L14.1211 3.0776L14.0909 2.57852L13.2853 2.62725L13.3155 3.12634ZM14.1211 3.0776L14.3571 3.51838L15.1469 3.09545L14.9109 2.65467L14.6748 2.21388L13.885 2.63682L14.1211 3.0776ZM14.9109 2.65467L14.6507 3.08163L15.4621 3.57615L15.7223 3.14919L15.9825 2.72223L15.1711 2.22771L14.9109 2.65467ZM15.7223 3.14919L15.7619 3.64763L16.5661 3.58383L16.5266 3.0854L16.487 2.58697L15.6828 2.65076L15.7223 3.14919ZM16.5266 3.0854L16.6394 3.5725L17.4841 3.37686L17.3712 2.88975L17.2584 2.40265L16.4137 2.5983L16.5266 3.0854ZM17.3712 2.88975L17.2565 3.37641L18.0569 3.56511L18.1716 3.07845L18.2863 2.5918L17.486 2.4031L17.3712 2.88975ZM18.1716 3.07845L17.8708 3.47786L18.5682 4.00307L18.869 3.60366L19.1698 3.20426L18.4724 2.67905L18.1716 3.07845ZM18.869 3.60366L18.5234 3.96502L19.1505 4.56468L19.496 4.20332L19.8416 3.84196L19.2146 3.2423L18.869 3.60366ZM19.496 4.20332L19.633 4.68419L20.6105 4.40575L20.4735 3.92488L20.3365 3.44401L19.3591 3.72245L19.496 4.20332ZM20.4735 3.92488L20.0568 4.20132L20.569 4.97322L20.9856 4.69679L21.4023 4.42035L20.8901 3.64845L20.4735 3.92488ZM20.9856 4.69679L20.8918 5.1879L21.7188 5.34597L21.8126 4.85486L21.9065 4.36375L21.0795 4.20568L20.9856 4.69679ZM21.8126 4.85486L21.5153 5.25683L22.1615 5.73486L22.4589 5.33288L22.7562 4.9309L22.11 4.45288L21.8126 4.85486ZM22.4589 5.33288L22.3097 5.81011L23.1345 6.06791L23.2837 5.59068L23.4328 5.11346L22.6081 4.85565L22.4589 5.33288ZM23.2837 5.59068L22.8469 5.83406L23.2664 6.58683L23.7031 6.34345L24.1399 6.10007L23.7204 5.3473L23.2837 5.59068ZM23.7031 6.34345L23.4576 6.77904L24.1896 7.19151L24.4351 6.75592L24.6805 6.32032L23.9486 5.90785L23.7031 6.34345ZM24.4351 6.75592L23.9515 6.8832L24.1803 7.75236L24.6638 7.62508L25.1474 7.4978L24.9186 6.62864L24.4351 6.75592ZM24.6638 7.62508L24.3035 7.97167L24.8567 8.54696L25.2171 8.20036L25.5775 7.85377L25.0242 7.27849L24.6638 7.62508ZM25.2171 8.20036L24.7786 8.44056L25.1615 9.13966L25.6001 8.89946L26.0386 8.65926L25.6556 7.96016L25.2171 8.20036ZM25.6001 8.89946L25.1729 9.15931L25.5848 9.83643L26.0119 9.57658L26.4391 9.31673L26.0272 8.63961L25.6001 8.89946ZM26.0119 9.57658L25.5156 9.63709L25.6161 10.4613L26.1124 10.4008L26.6088 10.3403L26.5083 9.51606L26.0119 9.57658ZM26.1124 10.4008L25.7231 10.7145L26.2345 11.349L26.6238 11.0353L27.0131 10.7215L26.5017 10.0871L26.1124 10.4008ZM26.6238 11.0353L26.2234 11.3348L26.7265 12.0073L27.1268 11.7078L27.5272 11.4082L27.0241 10.7358L26.6238 11.0353ZM27.1268 11.7078L26.6366 11.8063L26.7955 12.5967L27.2857 12.4982L27.7759 12.3997L27.617 11.6092L27.1268 11.7078ZM27.2857 12.4982L26.794 12.4076L26.6394 13.2469L27.1311 13.3374L27.6229 13.428L27.7774 12.5888L27.2857 12.4982ZM27.1311 13.3374L26.6355 13.2714L26.5292 14.0687L27.0248 14.1348L27.5204 14.2009L27.6267 13.4035L27.1311 13.3374ZM27.0248 14.1348L26.9622 14.6309L27.4429 14.6916L27.5056 14.1955L27.5682 13.6994L27.0875 13.6387L27.0248 14.1348Z" fill="#1F1F1F"/>
<path d="M22.4966 21.0209L22.0086 21.1298L22.0065 21.1203L22.0047 21.1106L22.4966 21.0209ZM22.3058 19.6903L22.8034 19.6421L22.3058 19.6903ZM22.1907 19.1119L21.7061 19.2348L22.1907 19.1119ZM22.143 18.9237L22.6276 18.8007L22.143 18.9237ZM22.0403 18.5405L21.559 18.6762L22.0403 18.5405ZM21.9853 18.3456L22.4665 18.2099L21.9853 18.3456ZM21.9303 18.1507L22.4116 18.015L21.9303 18.1507ZM21.7847 17.3497L22.2792 17.2757L21.7847 17.3497ZM21.64 16.9749L22.0567 16.6987L21.64 16.9749ZM21.2488 16.2602L20.7629 16.378L21.2488 16.2602ZM21.1534 15.8668L21.6393 15.749L21.1534 15.8668ZM21.1028 15.463L21.6028 15.4562L21.1028 15.463ZM21.0588 14.2572L21.5579 14.2269L21.0588 14.2572ZM20.8885 13.8885L21.2582 13.5518L20.8885 13.8885ZM20.5715 13.5404L20.2019 13.8771L20.5715 13.5404ZM20.4311 13.1616L20.9292 13.2055L20.4311 13.1616ZM20.4492 12.9568L20.9472 13.0007L20.4492 12.9568ZM20.4672 12.752L19.9691 12.7081L20.4672 12.752ZM20.4329 12.3477L19.9493 12.4745L20.4329 12.3477ZM20.3283 11.9488L20.812 11.8219L20.3283 11.9488ZM20.2854 11.5459L20.7849 11.5691L20.2854 11.5459ZM20.3043 11.1392L19.8049 11.116L20.3043 11.1392ZM20.1854 10.7585L20.5906 10.4654L20.1854 10.7585ZM19.7683 9.59753L20.2676 9.57194L19.7683 9.59753ZM19.4734 9.07087L19.8458 8.73719L19.4734 9.07087ZM19.3314 8.91235L18.959 9.24603L19.3314 8.91235ZM18.9621 8.19455L19.4254 8.00638L18.9621 8.19455ZM18.726 7.88263L19.0342 7.48887L18.726 7.88263ZM18.5657 7.75713L18.2575 8.1509L18.5657 7.75713ZM18.0542 7.86369L18.4953 8.09902L18.0542 7.86369ZM17.9588 8.04246L17.5177 7.80713L17.9588 8.04246ZM17.786 8.4092L17.3237 8.21863V8.21863L17.786 8.4092ZM17.7085 8.59716L18.1708 8.78772L17.7085 8.59716ZM17.4624 10.1747L17.9276 10.358L17.4624 10.1747ZM17.3868 10.3667L17.852 10.5499L17.3868 10.3667ZM17.248 10.7544L16.7722 10.6009L17.248 10.7544ZM17.1849 10.9501L17.6608 11.1036L17.1849 10.9501ZM17.1218 11.1459L17.5977 11.2993L17.1218 11.1459ZM17.0521 11.543L17.5519 11.5593L17.0521 11.543ZM17.039 11.9458L16.5393 11.9295L17.039 11.9458ZM17.0547 12.3503L17.5517 12.2958L17.0547 12.3503ZM17.0992 12.7565L16.6022 12.811L17.0992 12.7565ZM17.0708 13.157L17.5551 13.2813L17.0708 13.157ZM17.0202 13.3544L17.5045 13.4787L17.0202 13.3544ZM16.9695 13.5518L16.4852 13.4275L16.9695 13.5518ZM16.9755 13.9537L16.4936 14.0871L16.9755 13.9537ZM17.0888 14.3627L16.6069 14.4961L17.0888 14.3627ZM17.0988 14.7643L17.5854 14.8793L17.0988 14.7643ZM17.0057 15.1585L16.5191 15.0435L17.0057 15.1585ZM16.9512 15.5558L17.4508 15.5755L16.9512 15.5558ZM16.9354 15.9562L17.435 15.976L16.9354 15.9562ZM16.896 16.3546L16.4022 16.2764L16.896 16.3546ZM16.8333 16.751L17.3271 16.8292L16.8333 16.751ZM16.737 17.1428L17.2112 17.3015L16.737 17.1428ZM16.6722 17.3364L16.1981 17.1776L16.6722 17.3364ZM16.6074 17.53L16.1332 17.3712L16.6074 17.53ZM16.6008 17.9337L16.1189 18.0672L16.6008 17.9337ZM16.659 18.1437L17.1408 18.0101L16.659 18.1437ZM16.7173 18.3538L17.1991 18.2202L16.7173 18.3538ZM16.7087 18.7545L17.1805 18.9199L16.7087 18.7545ZM16.575 19.1358L16.1032 18.9704L16.575 19.1358ZM16.4419 19.4237L16.0287 19.1422L16.4419 19.4237ZM16.3093 19.6183L16.7226 19.8998L16.3093 19.6183ZM16.1045 19.5976L15.7802 19.9782L16.1045 19.5976ZM15.9659 19.4795L16.2901 19.0989L15.9659 19.4795ZM15.8273 19.3615L15.5031 19.7421L15.8273 19.3615ZM15.6171 19.0566L15.1502 19.2354L15.6171 19.0566ZM15.5456 18.8698L15.0787 19.0486L15.5456 18.8698ZM15.4741 18.6829L15.941 18.5041L15.4741 18.6829ZM15.2881 18.3295L14.876 18.6126L15.2881 18.3295ZM15.0592 17.9963L15.4713 17.7131L15.0592 17.9963ZM14.843 17.6549L14.4109 17.9064L14.843 17.6549ZM14.7413 17.4802L15.1734 17.2286L14.7413 17.4802ZM14.6396 17.3054L15.0717 17.0539L14.6396 17.3054ZM14.4599 16.9461L14.9205 16.7515L14.4599 16.9461ZM14.3039 16.5769L13.8433 16.7716L14.3039 16.5769ZM14.224 16.1776L13.724 16.1822L14.224 16.1776ZM14.222 15.9629L13.722 15.9675L14.222 15.9629ZM14.22 15.7482L14.72 15.7436L14.22 15.7482ZM14.1286 15.3538L13.681 15.5766L14.1286 15.3538ZM14.0392 15.1741L14.4868 14.9512L14.0392 15.1741ZM13.7317 14.6503L13.3378 14.9583L13.7317 14.6503ZM13.4745 14.3215L13.8684 14.0135L13.4745 14.3215ZM13.3228 13.9507L12.8259 14.0064L13.3228 13.9507ZM13.2765 13.5379L13.7734 13.4822L13.2765 13.5379ZM13.1514 13.1569L12.7197 13.4092L13.1514 13.1569ZM13.0494 12.9824L12.6177 13.2347L13.0494 12.9824ZM12.9473 12.8079L13.379 12.5555L12.9473 12.8079ZM12.808 12.4312L13.2997 12.3404L12.808 12.4312ZM12.6345 11.6323L12.1581 11.7842L12.6345 11.6323ZM12.5117 11.2471L12.988 11.0952L12.5117 11.2471ZM12.2601 10.9237L12.5435 10.5117L12.2601 10.9237ZM11.6532 10.3228L12.1457 10.2369L11.6532 10.3228ZM11.6168 10.1145L11.1243 10.2004L11.6168 10.1145ZM11.5805 9.9062L12.0731 9.82027L11.5805 9.9062ZM10.9954 9.47337L11.1847 9.0106L10.9954 9.47337ZM10.6356 9.42568L10.7115 9.91989L10.6356 9.42568ZM10.4588 9.45283L10.3829 8.95862L10.4588 9.45283ZM10.282 9.47998L10.2061 8.98577L10.282 9.47998ZM10.0993 9.72246L10.5992 9.73584L10.0993 9.72246ZM10.0878 10.1531L9.58799 10.1397L10.0878 10.1531ZM10.1366 10.5768L10.6203 10.4503L10.1366 10.5768ZM10.1911 10.7852L9.70735 10.9117L10.1911 10.7852ZM10.2456 10.9936L9.76186 11.1201L10.2456 10.9936ZM10.2 11.3934L9.75689 11.1618L10.2 11.3934ZM9.99989 11.7763L9.55676 11.5447L9.99989 11.7763ZM9.85736 12.1682L10.3465 12.2718L9.85736 12.1682ZM9.77244 12.5689L10.2616 12.6725L9.77244 12.5689ZM9.81921 12.9687L10.2756 12.7646L9.81921 12.9687ZM9.99768 13.3677L9.54125 13.5719L9.99768 13.3677ZM10.0206 13.7697L9.54544 13.614L10.0206 13.7697ZM9.9543 13.9721L10.4295 14.1277L9.9543 13.9721ZM9.888 14.1745L10.3632 14.3301L9.888 14.1745ZM9.93813 14.5715L9.50911 14.8283L9.93813 14.5715ZM10.171 14.9605L10.6 14.7037L10.171 14.9605ZM10.2421 15.3579L9.75416 15.249L10.2421 15.3579ZM10.1969 15.5608L10.6849 15.6697L10.1969 15.5608ZM10.0467 16.1708L10.5267 16.3109L10.0467 16.1708ZM9.98707 16.3751L9.5071 16.235L9.98707 16.3751ZM9.92746 16.5793L9.44749 16.4392L9.92746 16.5793ZM9.91967 16.9806L9.43612 17.1078L9.91967 16.9806ZM9.97149 17.1776L9.48794 17.3048L9.97149 17.1776ZM10.0233 17.3746L10.5069 17.2474L10.0233 17.3746ZM10.0402 17.7744L10.533 17.8592L10.0402 17.7744ZM10.0053 17.9773L10.4981 18.0621L10.0053 17.9773ZM9.97042 18.1801L9.47766 18.0954L9.97042 18.1801ZM10.0889 18.5735L9.6994 18.887L10.0889 18.5735ZM10.3956 18.9544L10.785 18.6409L10.3956 18.9544ZM10.4997 19.3484L10.0137 19.2309L10.4997 19.3484ZM10.4505 19.5519L10.9365 19.6694L10.4505 19.5519ZM10.4013 19.7554L9.91527 19.6379L10.4013 19.7554ZM10.3251 20.1605L10.8207 20.2266L10.3251 20.1605ZM10.2982 20.362L9.80263 20.2959L10.2982 20.362ZM10.2713 20.5636L10.7669 20.6298L10.2713 20.5636ZM10.2838 20.9635L10.7742 20.8662L10.2838 20.9635ZM10.3625 21.3602L9.87205 21.4575L10.3625 21.3602ZM10.4361 21.7578L10.9289 21.6731L10.4361 21.7578ZM10.5121 22.3603L10.4257 21.8679L10.5121 22.3603ZM10.4853 22.365L10.5717 22.8575L10.2454 22.9148L10.0655 22.6366L10.4853 22.365ZM10.4268 22.2746L9.9274 22.2991L9.83608 20.4408L10.8466 22.003L10.4268 22.2746ZM22.5184 21.1185L22.0304 21.2274L22.0086 21.1298L22.4966 21.0209L22.9846 20.9119L23.0064 21.0095L22.5184 21.1185ZM22.4966 21.0209L22.0047 21.1106L21.9386 20.7484L22.4305 20.6586L22.9224 20.5689L22.9885 20.9311L22.4966 21.0209ZM22.4305 20.6586L21.9386 20.7484C21.8937 20.5022 21.8623 20.2981 21.8472 20.1426L22.3449 20.0944L22.8426 20.0462C22.8536 20.16 22.8792 20.332 22.9224 20.5689L22.4305 20.6586ZM22.3449 20.0944L21.8472 20.1426L21.8276 19.9406L22.3253 19.8924L22.823 19.8442L22.8426 20.0462L22.3449 20.0944ZM22.3253 19.8924L21.8276 19.9406L21.8081 19.7385L22.3058 19.6903L22.8034 19.6421L22.823 19.8442L22.3253 19.8924ZM22.3058 19.6903L21.8081 19.7385C21.7974 19.6279 21.7791 19.5229 21.7538 19.423L22.2384 19.3001L22.7231 19.1772C22.7614 19.3283 22.7881 19.4834 22.8034 19.6421L22.3058 19.6903ZM22.2384 19.3001L21.7538 19.423L21.7061 19.2348L22.1907 19.1119L22.6754 18.989L22.7231 19.1772L22.2384 19.3001ZM22.1907 19.1119L21.7061 19.2348L21.6583 19.0466L22.143 18.9237L22.6276 18.8007L22.6754 18.989L22.1907 19.1119ZM22.143 18.9237L21.6583 19.0466C21.6276 18.9256 21.5945 18.8021 21.559 18.6762L22.0403 18.5405L22.5215 18.4048C22.5593 18.5388 22.5947 18.6708 22.6276 18.8007L22.143 18.9237ZM22.0403 18.5405L21.559 18.6762L21.5041 18.4813L21.9853 18.3456L22.4665 18.2099L22.5215 18.4048L22.0403 18.5405ZM21.9853 18.3456L21.5041 18.4813L21.4491 18.2864L21.9303 18.1507L22.4116 18.015L22.4665 18.2099L21.9853 18.3456ZM21.9303 18.1507L21.4491 18.2864C21.4067 18.136 21.3739 17.9831 21.3506 17.8277L21.8451 17.7538L22.3396 17.6798C22.3567 17.7938 22.3807 17.9055 22.4116 18.015L21.9303 18.1507ZM21.8451 17.7538L21.3506 17.8277L21.3204 17.6257L21.8149 17.5517L22.3094 17.4777L22.3396 17.6798L21.8451 17.7538ZM21.8149 17.5517L21.3204 17.6257L21.2902 17.4237L21.7847 17.3497L22.2792 17.2757L22.3094 17.4777L21.8149 17.5517ZM21.7847 17.3497L21.2902 17.4237C21.281 17.3623 21.2597 17.3063 21.2232 17.2512L21.64 16.9749L22.0567 16.6987C22.1728 16.8738 22.248 17.0676 22.2792 17.2757L21.7847 17.3497ZM21.64 16.9749L21.2232 17.2512L21.1087 17.0785L21.5255 16.8022L21.9422 16.526L22.0567 16.6987L21.64 16.9749ZM21.5255 16.8022L21.1087 17.0785L20.9942 16.9058L21.411 16.6295L21.8277 16.3533L21.9422 16.526L21.5255 16.8022ZM21.411 16.6295L20.9942 16.9058C20.8866 16.7435 20.8087 16.5669 20.7629 16.378L21.2488 16.2602L21.7347 16.1423C21.7525 16.2157 21.7827 16.2853 21.8277 16.3533L21.411 16.6295ZM21.2488 16.2602L20.7629 16.378L20.7152 16.1813L21.2011 16.0635L21.687 15.9456L21.7347 16.1423L21.2488 16.2602ZM21.2011 16.0635L20.7152 16.1813L20.6675 15.9847L21.1534 15.8668L21.6393 15.749L21.687 15.9456L21.2011 16.0635ZM21.1534 15.8668L20.6675 15.9847C20.6266 15.8163 20.6053 15.6445 20.6029 15.4698L21.1028 15.463L21.6028 15.4562C21.6042 15.5577 21.6165 15.6551 21.6393 15.749L21.1534 15.8668ZM21.1028 15.463L20.6029 15.4698L20.6 15.2627L21.1 15.2559L21.6 15.249L21.6028 15.4562L21.1028 15.463ZM21.1 15.2559L20.6 15.2627L20.5972 15.0556L21.0972 15.0487L21.5971 15.0419L21.6 15.249L21.1 15.2559ZM21.0972 15.0487L20.5972 15.0556C20.5954 14.9248 20.5908 14.7987 20.5834 14.6771L21.0825 14.6468L21.5816 14.6165C21.59 14.7546 21.5951 14.8964 21.5971 15.0419L21.0972 15.0487ZM21.0825 14.6468L20.5834 14.6771L20.5716 14.4823L21.0707 14.452L21.5697 14.4217L21.5816 14.6165L21.0825 14.6468ZM21.0707 14.452L20.5716 14.4823L20.5597 14.2876L21.0588 14.2572L21.5579 14.2269L21.5697 14.4217L21.0707 14.452ZM21.0588 14.2572L20.5597 14.2876C20.5597 14.2872 20.5598 14.2847 20.5564 14.2773C20.5525 14.2689 20.5426 14.2512 20.5188 14.2251L20.8885 13.8885L21.2582 13.5518C21.4242 13.7341 21.5417 13.961 21.5579 14.2269L21.0588 14.2572ZM20.8885 13.8885L20.5188 14.2251L20.3603 14.0511L20.73 13.7144L21.0997 13.3778L21.2582 13.5518L20.8885 13.8885ZM20.73 13.7144L20.3603 14.0511L20.2019 13.8771L20.5715 13.5404L20.9412 13.2038L21.0997 13.3778L20.73 13.7144ZM20.5715 13.5404L20.2019 13.8771C20.0171 13.6742 19.9069 13.4142 19.933 13.1177L20.4311 13.1616L20.9292 13.2055C20.9293 13.2044 20.9294 13.2011 20.9288 13.1965C20.9282 13.1918 20.9271 13.1877 20.926 13.1849C20.9238 13.1788 20.9245 13.1855 20.9412 13.2038L20.5715 13.5404ZM20.4311 13.1616L19.933 13.1177L19.9511 12.9129L20.4492 12.9568L20.9472 13.0007L20.9292 13.2055L20.4311 13.1616ZM20.4492 12.9568L19.9511 12.9129L19.9691 12.7081L20.4672 12.752L20.9653 12.7959L20.9472 13.0007L20.4492 12.9568ZM20.4672 12.752L19.9691 12.7081C19.9761 12.629 19.9696 12.552 19.9493 12.4745L20.4329 12.3477L20.9166 12.2208C20.966 12.4093 20.9824 12.6018 20.9653 12.7959L20.4672 12.752ZM20.4329 12.3477L19.9493 12.4745L19.897 12.2751L20.3806 12.1482L20.8643 12.0214L20.9166 12.2208L20.4329 12.3477ZM20.3806 12.1482L19.897 12.2751L19.8447 12.0756L20.3283 11.9488L20.812 11.8219L20.8643 12.0214L20.3806 12.1482ZM20.3283 11.9488L19.8447 12.0756C19.7971 11.8944 19.7773 11.7095 19.786 11.5228L20.2854 11.5459L20.7849 11.5691C20.781 11.6535 20.7897 11.7372 20.812 11.8219L20.3283 11.9488ZM20.2854 11.5459L19.786 11.5228L19.7954 11.3194L20.2949 11.3426L20.7943 11.3658L20.7849 11.5691L20.2854 11.5459ZM20.2949 11.3426L19.7954 11.3194L19.8049 11.116L20.3043 11.1392L20.8038 11.1624L20.7943 11.3658L20.2949 11.3426ZM20.3043 11.1392L19.8049 11.116C19.8055 11.1023 19.8049 11.0855 19.7803 11.0516L20.1854 10.7585L20.5906 10.4654C20.7371 10.668 20.8157 10.905 20.8038 11.1624L20.3043 11.1392ZM20.1854 10.7585L19.7803 11.0516L19.652 10.8742L20.0571 10.5811L20.4623 10.2881L20.5906 10.4654L20.1854 10.7585ZM20.0571 10.5811L19.652 10.8742L19.5237 10.6968L19.9288 10.4037L20.3339 10.1107L20.4623 10.2881L20.0571 10.5811ZM19.9288 10.4037L19.5237 10.6968C19.3842 10.5039 19.3027 10.2827 19.2904 10.0423L19.7898 10.0167L20.2891 9.99116C20.2911 10.0302 20.3024 10.0671 20.3339 10.1107L19.9288 10.4037ZM19.7898 10.0167L19.2904 10.0423L19.2797 9.83273L19.779 9.80714L20.2784 9.78155L20.2891 9.99116L19.7898 10.0167ZM19.779 9.80714L19.2797 9.83273L19.2689 9.62312L19.7683 9.59753L20.2676 9.57194L20.2784 9.78155L19.779 9.80714ZM19.7683 9.59753L19.2689 9.62312C19.2677 9.59933 19.2627 9.58492 19.2431 9.56308L19.6155 9.2294L19.9878 8.89571C20.1577 9.08523 20.2545 9.31625 20.2676 9.57194L19.7683 9.59753ZM19.6155 9.2294L19.2431 9.56308L19.1011 9.40456L19.4734 9.07087L19.8458 8.73719L19.9878 8.89571L19.6155 9.2294ZM19.4734 9.07087L19.1011 9.40456L18.959 9.24603L19.3314 8.91235L19.7037 8.57866L19.8458 8.73719L19.4734 9.07087ZM19.3314 8.91235L18.959 9.24603C18.8281 9.09995 18.7237 8.93626 18.6503 8.75557L19.1136 8.5674L19.5768 8.37923C19.6044 8.44711 19.6452 8.51338 19.7037 8.57866L19.3314 8.91235ZM19.1136 8.5674L18.6503 8.75557L18.5746 8.56914L19.0379 8.38098L19.5011 8.19281L19.5768 8.37923L19.1136 8.5674ZM19.0379 8.38098L18.5746 8.56914L18.4989 8.38272L18.9621 8.19455L19.4254 8.00638L19.5011 8.19281L19.0379 8.38098ZM18.9621 8.19455L18.4989 8.38272C18.4817 8.34035 18.4569 8.30693 18.4179 8.27639L18.726 7.88263L19.0342 7.48887C19.209 7.62566 19.3416 7.80018 19.4254 8.00638L18.9621 8.19455ZM18.726 7.88263L18.4179 8.27639L18.2575 8.1509L18.5657 7.75713L18.8738 7.36337L19.0342 7.48887L18.726 7.88263ZM18.5657 7.75713L18.2575 8.1509L18.0972 8.0254L18.4053 7.63163L18.7134 7.23787L18.8738 7.36337L18.5657 7.75713ZM18.4053 7.63163L18.0972 8.0254C18.1005 8.028 18.1239 8.04608 18.167 8.06086C18.2136 8.07685 18.2828 8.08844 18.3631 8.0717C18.4436 8.05493 18.5029 8.01649 18.5399 7.98247C18.574 7.95109 18.5885 7.92447 18.5907 7.92024L18.1496 7.68491L17.7084 7.44958C17.7714 7.33154 17.9067 7.14531 18.1592 7.09271C18.4107 7.04033 18.6088 7.156 18.7134 7.23787L18.4053 7.63163ZM18.1496 7.68491L18.5907 7.92024L18.4953 8.09902L18.0542 7.86369L17.613 7.62836L17.7084 7.44958L18.1496 7.68491ZM18.0542 7.86369L18.4953 8.09902L18.4 8.27779L17.9588 8.04246L17.5177 7.80713L17.613 7.62836L18.0542 7.86369ZM17.9588 8.04246L18.4 8.27779C18.3442 8.38236 18.2936 8.48966 18.2482 8.59976L17.786 8.4092L17.3237 8.21863C17.3816 8.07812 17.4463 7.94093 17.5177 7.80713L17.9588 8.04246ZM17.786 8.4092L18.2482 8.59976L18.1708 8.78772L17.7085 8.59716L17.2462 8.40659L17.3237 8.21863L17.786 8.4092ZM17.7085 8.59716L18.1708 8.78772L18.0933 8.97568L17.631 8.78512L17.1687 8.59455L17.2462 8.40659L17.7085 8.59716ZM17.631 8.78512L18.0933 8.97568C18.0715 9.02849 18.0628 9.08142 18.0672 9.14081L17.5686 9.17749L17.0699 9.21417C17.0542 9.00101 17.0872 8.79236 17.1687 8.59455L17.631 8.78512ZM17.5686 9.17749L18.0672 9.14081L18.0822 9.34522L17.5836 9.3819L17.0849 9.41858L17.0699 9.21417L17.5686 9.17749ZM17.5836 9.3819L18.0822 9.34522L18.0973 9.54964L17.5986 9.58632L17.1 9.623L17.0849 9.41858L17.5836 9.3819ZM17.5986 9.58632L18.0973 9.54964C18.1129 9.76132 18.081 9.96859 18.0033 10.166L17.538 9.98272L17.0728 9.79947C17.0959 9.74086 17.1045 9.68386 17.1 9.623L17.5986 9.58632ZM17.538 9.98272L18.0033 10.166L17.9276 10.358L17.4624 10.1747L16.9972 9.99146L17.0728 9.79947L17.538 9.98272ZM17.4624 10.1747L17.9276 10.358L17.852 10.5499L17.3868 10.3667L16.9216 10.1835L16.9972 9.99146L17.4624 10.1747ZM17.3868 10.3667L17.852 10.5499C17.8054 10.6682 17.7627 10.7875 17.7239 10.9079L17.248 10.7544L16.7722 10.6009C16.8175 10.4604 16.8673 10.3212 16.9216 10.1835L17.3868 10.3667ZM17.248 10.7544L17.7239 10.9079L17.6608 11.1036L17.1849 10.9501L16.7091 10.7967L16.7722 10.6009L17.248 10.7544ZM17.1849 10.9501L17.6608 11.1036L17.5977 11.2993L17.1218 11.1459L16.6459 10.9924L16.7091 10.7967L17.1849 10.9501ZM17.1218 11.1459L17.5977 11.2993C17.5696 11.3864 17.5547 11.4726 17.5519 11.5593L17.0521 11.543L16.5524 11.5267C16.5583 11.3449 16.5898 11.1664 16.6459 10.9924L17.1218 11.1459ZM17.0521 11.543L17.5519 11.5593L17.5453 11.7607L17.0456 11.7444L16.5458 11.7281L16.5524 11.5267L17.0521 11.543ZM17.0456 11.7444L17.5453 11.7607L17.5387 11.9621L17.039 11.9458L16.5393 11.9295L16.5458 11.7281L17.0456 11.7444ZM17.039 11.9458L17.5387 11.9621C17.5352 12.0724 17.5394 12.1836 17.5517 12.2958L17.0547 12.3503L16.5577 12.4048C16.5403 12.2462 16.5341 12.0877 16.5393 11.9295L17.039 11.9458ZM17.0547 12.3503L17.5517 12.2958L17.574 12.4989L17.077 12.5534L16.58 12.6079L16.5577 12.4048L17.0547 12.3503ZM17.077 12.5534L17.574 12.4989L17.5963 12.702L17.0992 12.7565L16.6022 12.811L16.58 12.6079L17.077 12.5534ZM17.0992 12.7565L17.5963 12.702C17.6177 12.8971 17.6039 13.0912 17.5551 13.2813L17.0708 13.157L16.5865 13.0327C16.6053 12.9596 16.6105 12.8867 16.6022 12.811L17.0992 12.7565ZM17.0708 13.157L17.5551 13.2813L17.5045 13.4787L17.0202 13.3544L16.5359 13.2301L16.5865 13.0327L17.0708 13.157ZM17.0202 13.3544L17.5045 13.4787L17.4538 13.6761L16.9695 13.5518L16.4852 13.4275L16.5359 13.2301L17.0202 13.3544ZM16.9695 13.5518L17.4538 13.6761C17.4427 13.7194 17.4419 13.7645 17.4574 13.8202L16.9755 13.9537L16.4936 14.0871C16.4336 13.8702 16.4288 13.6473 16.4852 13.4275L16.9695 13.5518ZM16.9755 13.9537L17.4574 13.8202L17.514 14.0247L17.0321 14.1582L16.5503 14.2916L16.4936 14.0871L16.9755 13.9537ZM17.0321 14.1582L17.514 14.0247L17.5706 14.2292L17.0888 14.3627L16.6069 14.4961L16.5503 14.2916L17.0321 14.1582ZM17.0888 14.3627L17.5706 14.2292C17.6297 14.4426 17.6368 14.662 17.5854 14.8793L17.0988 14.7643L16.6122 14.6493C16.623 14.6037 16.6233 14.5554 16.6069 14.4961L17.0888 14.3627ZM17.0988 14.7643L17.5854 14.8793L17.5388 15.0764L17.0522 14.9614L16.5656 14.8464L16.6122 14.6493L17.0988 14.7643ZM17.0522 14.9614L17.5388 15.0764L17.4923 15.2735L17.0057 15.1585L16.5191 15.0435L16.5656 14.8464L17.0522 14.9614ZM17.0057 15.1585L17.4923 15.2735C17.4685 15.3739 17.4548 15.4745 17.4508 15.5755L16.9512 15.5558L16.4516 15.536C16.4581 15.3701 16.4807 15.2058 16.5191 15.0435L17.0057 15.1585ZM16.9512 15.5558L17.4508 15.5755L17.4429 15.7757L16.9433 15.756L16.4437 15.7362L16.4516 15.536L16.9512 15.5558ZM16.9433 15.756L17.4429 15.7757L17.435 15.976L16.9354 15.9562L16.4357 15.9364L16.4437 15.7362L16.9433 15.756ZM16.9354 15.9562L17.435 15.976C17.4289 16.129 17.4139 16.2814 17.3899 16.4328L16.896 16.3546L16.4022 16.2764C16.4201 16.1636 16.4312 16.0503 16.4357 15.9364L16.9354 15.9562ZM16.896 16.3546L17.3899 16.4328L17.3585 16.631L16.8647 16.5528L16.3708 16.4746L16.4022 16.2764L16.896 16.3546ZM16.8647 16.5528L17.3585 16.631L17.3271 16.8292L16.8333 16.751L16.3394 16.6728L16.3708 16.4746L16.8647 16.5528ZM16.8333 16.751L17.3271 16.8292C17.3018 16.9891 17.263 17.1467 17.2112 17.3015L16.737 17.1428L16.2629 16.984C16.2975 16.8807 16.3229 16.7771 16.3394 16.6728L16.8333 16.751ZM16.737 17.1428L17.2112 17.3015L17.1463 17.4951L16.6722 17.3364L16.1981 17.1776L16.2629 16.984L16.737 17.1428ZM16.6722 17.3364L17.1463 17.4951L17.0815 17.6887L16.6074 17.53L16.1332 17.3712L16.1981 17.1776L16.6722 17.3364ZM16.6074 17.53L17.0815 17.6887C17.0721 17.7168 17.0685 17.7492 17.0826 17.8001L16.6008 17.9337L16.1189 18.0672C16.0554 17.838 16.0562 17.6013 16.1332 17.3712L16.6074 17.53ZM16.6008 17.9337L17.0826 17.8001L17.1408 18.0101L16.659 18.1437L16.1772 18.2773L16.1189 18.0672L16.6008 17.9337ZM16.659 18.1437L17.1408 18.0101L17.1991 18.2202L16.7173 18.3538L16.2354 18.4874L16.1772 18.2773L16.659 18.1437ZM16.7173 18.3538L17.1991 18.2202C17.2629 18.4504 17.2615 18.6888 17.1805 18.9199L16.7087 18.7545L16.2368 18.5891C16.2449 18.566 16.2493 18.5373 16.2354 18.4874L16.7173 18.3538ZM16.7087 18.7545L17.1805 18.9199L17.1137 19.1105L16.6418 18.9451L16.17 18.7797L16.2368 18.5891L16.7087 18.7545ZM16.6418 18.9451L17.1137 19.1105L17.0469 19.3012L16.575 19.1358L16.1032 18.9704L16.17 18.7797L16.6418 18.9451ZM16.575 19.1358L17.0469 19.3012C16.9966 19.4445 16.9352 19.5877 16.8551 19.7052L16.4419 19.4237L16.0287 19.1422C16.037 19.13 16.0643 19.0812 16.1032 18.9704L16.575 19.1358ZM16.4419 19.4237L16.8551 19.7052L16.7888 19.8025L16.3756 19.521L15.9624 19.2395L16.0287 19.1422L16.4419 19.4237ZM16.3756 19.521L16.7888 19.8025L16.7226 19.8998L16.3093 19.6183L15.8961 19.3368L15.9624 19.2395L16.3756 19.521ZM16.3093 19.6183L16.7226 19.8998C16.6152 20.0574 16.4209 20.1842 16.1746 20.1592C15.9878 20.1403 15.8516 20.039 15.7802 19.9782L16.1045 19.5976L16.4287 19.2169C16.4497 19.2349 16.3938 19.1763 16.2753 19.1643C16.2046 19.1572 16.122 19.1682 16.0427 19.209C15.967 19.2481 15.9208 19.3005 15.8961 19.3368L16.3093 19.6183ZM16.1045 19.5976L15.7802 19.9782L15.6417 19.8602L15.9659 19.4795L16.2901 19.0989L16.4287 19.2169L16.1045 19.5976ZM15.9659 19.4795L15.6417 19.8602L15.5031 19.7421L15.8273 19.3615L16.1515 18.9809L16.2901 19.0989L15.9659 19.4795ZM15.8273 19.3615L15.5031 19.7421C15.3408 19.6039 15.2248 19.4302 15.1502 19.2354L15.6171 19.0566L16.0841 18.8778C16.1049 18.9321 16.129 18.9617 16.1515 18.9809L15.8273 19.3615ZM15.6171 19.0566L15.1502 19.2354L15.0787 19.0486L15.5456 18.8698L16.0126 18.691L16.0841 18.8778L15.6171 19.0566ZM15.5456 18.8698L15.0787 19.0486L15.0071 18.8617L15.4741 18.6829L15.941 18.5041L16.0126 18.691L15.5456 18.8698ZM15.4741 18.6829L15.0071 18.8617C14.9737 18.7744 14.9302 18.6915 14.876 18.6126L15.2881 18.3295L15.7002 18.0464C15.7986 18.1896 15.8791 18.3424 15.941 18.5041L15.4741 18.6829ZM15.2881 18.3295L14.876 18.6126L14.7615 18.446L15.1736 18.1629L15.5857 17.8798L15.7002 18.0464L15.2881 18.3295ZM15.1736 18.1629L14.7615 18.446L14.647 18.2794L15.0592 17.9963L15.4713 17.7131L15.5857 17.8798L15.1736 18.1629ZM15.0592 17.9963L14.647 18.2794C14.5637 18.158 14.4849 18.0337 14.4109 17.9064L14.843 17.6549L15.2751 17.4034C15.3367 17.5091 15.402 17.6123 15.4713 17.7131L15.0592 17.9963ZM14.843 17.6549L14.4109 17.9064L14.3092 17.7317L14.7413 17.4802L15.1734 17.2286L15.2751 17.4034L14.843 17.6549ZM14.7413 17.4802L14.3092 17.7317L14.2074 17.5569L14.6396 17.3054L15.0717 17.0539L15.1734 17.2286L14.7413 17.4802ZM14.6396 17.3054L14.2074 17.5569C14.1291 17.4223 14.0596 17.2835 13.9993 17.1407L14.4599 16.9461L14.9205 16.7515C14.9641 16.8548 15.0145 16.9556 15.0717 17.0539L14.6396 17.3054ZM14.4599 16.9461L13.9993 17.1407L13.9213 16.9561L14.3819 16.7615L14.8425 16.5669L14.9205 16.7515L14.4599 16.9461ZM14.3819 16.7615L13.9213 16.9561L13.8433 16.7716L14.3039 16.5769L14.7645 16.3823L14.8425 16.5669L14.3819 16.7615ZM14.3039 16.5769L13.8433 16.7716C13.7641 16.5841 13.7258 16.3859 13.724 16.1822L14.224 16.1776L14.7239 16.1731C14.7247 16.2557 14.7397 16.3237 14.7645 16.3823L14.3039 16.5769ZM14.224 16.1776L13.724 16.1822L13.722 15.9675L14.222 15.9629L14.722 15.9584L14.7239 16.1731L14.224 16.1776ZM14.222 15.9629L13.722 15.9675L13.7201 15.7527L14.22 15.7482L14.72 15.7436L14.722 15.9584L14.222 15.9629ZM14.22 15.7482L13.7201 15.7527C13.7194 15.68 13.7046 15.6239 13.681 15.5766L14.1286 15.3538L14.5762 15.1309C14.672 15.3233 14.7181 15.5301 14.72 15.7436L14.22 15.7482ZM14.1286 15.3538L13.681 15.5766L13.5916 15.3969L14.0392 15.1741L14.4868 14.9512L14.5762 15.1309L14.1286 15.3538ZM14.0392 15.1741L13.5916 15.3969L13.5021 15.2172L13.9497 14.9944L14.3973 14.7715L14.4868 14.9512L14.0392 15.1741ZM13.9497 14.9944L13.5021 15.2172C13.4581 15.1287 13.4036 15.0425 13.3378 14.9583L13.7317 14.6503L14.1255 14.3423C14.2312 14.4773 14.3221 14.6204 14.3973 14.7715L13.9497 14.9944ZM13.7317 14.6503L13.3378 14.9583L13.2093 14.7939L13.6031 14.4859L13.9969 14.1779L14.1255 14.3423L13.7317 14.6503ZM13.6031 14.4859L13.2093 14.7939L13.0807 14.6295L13.4745 14.3215L13.8684 14.0135L13.9969 14.1779L13.6031 14.4859ZM13.4745 14.3215L13.0807 14.6295C12.9382 14.4474 12.8517 14.2365 12.8259 14.0064L13.3228 13.9507L13.8197 13.895C13.8248 13.9401 13.8394 13.9764 13.8684 14.0135L13.4745 14.3215ZM13.3228 13.9507L12.8259 14.0064L12.8028 13.8L13.2997 13.7443L13.7966 13.6886L13.8197 13.895L13.3228 13.9507ZM13.2997 13.7443L12.8028 13.8L12.7796 13.5936L13.2765 13.5379L13.7734 13.4822L13.7966 13.6886L13.2997 13.7443ZM13.2765 13.5379L12.7796 13.5936C12.7718 13.5234 12.7515 13.4637 12.7197 13.4092L13.1514 13.1569L13.583 12.9046C13.6873 13.0829 13.7504 13.2771 13.7734 13.4822L13.2765 13.5379ZM13.1514 13.1569L12.7197 13.4092L12.6177 13.2347L13.0494 12.9824L13.481 12.7301L13.583 12.9046L13.1514 13.1569ZM13.0494 12.9824L12.6177 13.2347L12.5157 13.0602L12.9473 12.8079L13.379 12.5555L13.481 12.7301L13.0494 12.9824ZM12.9473 12.8079L12.5157 13.0602C12.418 12.893 12.3515 12.7127 12.3163 12.5221L12.808 12.4312L13.2997 12.3404C13.3142 12.4192 13.3407 12.49 13.379 12.5555L12.9473 12.8079ZM12.808 12.4312L12.3163 12.5221L12.279 12.32L12.7706 12.2291L13.2623 12.1382L13.2997 12.3404L12.808 12.4312ZM12.7706 12.2291L12.279 12.32L12.2416 12.1178L12.7333 12.027L13.225 11.9361L13.2623 12.1382L12.7706 12.2291ZM12.7333 12.027L12.2416 12.1178C12.2205 12.0034 12.1926 11.8923 12.1581 11.7842L12.6345 11.6323L13.1109 11.4804C13.1583 11.6291 13.1963 11.7811 13.225 11.9361L12.7333 12.027ZM12.6345 11.6323L12.1581 11.7842L12.0967 11.5916L12.5731 11.4397L13.0495 11.2878L13.1109 11.4804L12.6345 11.6323ZM12.5731 11.4397L12.0967 11.5916L12.0353 11.399L12.5117 11.2471L12.988 11.0952L13.0495 11.2878L12.5731 11.4397ZM12.5117 11.2471L12.0353 11.399C12.0328 11.391 12.0257 11.3693 11.9767 11.3356L12.2601 10.9237L12.5435 10.5117C12.748 10.6525 12.9087 10.8464 12.988 11.0952L12.5117 11.2471ZM12.2601 10.9237L11.9767 11.3356L11.7865 11.2047L12.0699 10.7928L12.3533 10.3809L12.5435 10.5117L12.2601 10.9237ZM12.0699 10.7928L11.7865 11.2047L11.5963 11.0739L11.8797 10.662L12.1631 10.25L12.3533 10.3809L12.0699 10.7928ZM11.8797 10.662L11.5963 11.0739C11.37 10.9182 11.2102 10.6928 11.1606 10.4088L11.6532 10.3228L12.1457 10.2369C12.1462 10.2394 12.1464 10.2395 12.1459 10.2381C12.1453 10.2366 12.1445 10.2351 12.1438 10.2341C12.1431 10.2331 12.1435 10.2339 12.146 10.2364C12.1486 10.239 12.1539 10.2437 12.1631 10.25L11.8797 10.662ZM11.6532 10.3228L11.1606 10.4088L11.1243 10.2004L11.6168 10.1145L12.1094 10.0286L12.1457 10.2369L11.6532 10.3228ZM11.6168 10.1145L11.1243 10.2004L11.0879 9.99212L11.5805 9.9062L12.0731 9.82027L12.1094 10.0286L11.6168 10.1145ZM11.5805 9.9062L11.0879 9.99212C11.0873 9.98841 11.0906 10.0095 11.1122 10.0374C11.1348 10.0666 11.1603 10.0811 11.1719 10.0858L11.3612 9.62305L11.5506 9.16028C11.8446 9.28058 12.0218 9.52624 12.0731 9.82027L11.5805 9.9062ZM11.3612 9.62305L11.1719 10.0858L10.989 10.011L11.1783 9.54821L11.3676 9.08544L11.5506 9.16028L11.3612 9.62305ZM11.1783 9.54821L10.989 10.011L10.8061 9.93614L10.9954 9.47337L11.1847 9.0106L11.3676 9.08544L11.1783 9.54821ZM10.9954 9.47337L10.8061 9.93614C10.759 9.91688 10.7306 9.91696 10.7115 9.91989L10.6356 9.42568L10.5598 8.93147C10.7765 8.8982 10.9879 8.93008 11.1847 9.0106L10.9954 9.47337ZM10.6356 9.42568L10.7115 9.91989L10.5347 9.94704L10.4588 9.45283L10.3829 8.95862L10.5598 8.93147L10.6356 9.42568ZM10.4588 9.45283L10.5347 9.94704L10.3578 9.97419L10.282 9.47998L10.2061 8.98577L10.3829 8.95862L10.4588 9.45283ZM10.282 9.47998L10.3578 9.97419C10.4031 9.96723 10.4854 9.93716 10.5473 9.85496C10.6007 9.78409 10.5994 9.72593 10.5992 9.73584L10.0993 9.72246L9.59953 9.70907C9.6031 9.57543 9.63424 9.40508 9.74847 9.25339C9.87125 9.09035 10.0429 9.01082 10.2061 8.98577L10.282 9.47998ZM10.0993 9.72246L10.5992 9.73584L10.5934 9.95118L10.0936 9.93779L9.59376 9.9244L9.59953 9.70907L10.0993 9.72246ZM10.0936 9.93779L10.5934 9.95118L10.5876 10.1665L10.0878 10.1531L9.58799 10.1397L9.59376 9.9244L10.0936 9.93779ZM10.0878 10.1531L10.5876 10.1665C10.5851 10.2629 10.5959 10.357 10.6203 10.4503L10.1366 10.5768L9.65283 10.7034C9.60455 10.5188 9.58288 10.3305 9.58799 10.1397L10.0878 10.1531ZM10.1366 10.5768L10.6203 10.4503L10.6748 10.6586L10.1911 10.7852L9.70735 10.9117L9.65283 10.7034L10.1366 10.5768ZM10.1911 10.7852L10.6748 10.6586L10.7293 10.867L10.2456 10.9936L9.76186 11.1201L9.70735 10.9117L10.1911 10.7852ZM10.2456 10.9936L10.7293 10.867C10.7972 11.1266 10.7673 11.3875 10.6432 11.625L10.2 11.3934L9.75689 11.1618C9.76386 11.1485 9.76453 11.1422 9.76466 11.1411C9.76478 11.14 9.76551 11.1341 9.76186 11.1201L10.2456 10.9936ZM10.2 11.3934L10.6432 11.625L10.5431 11.8165L10.1 11.5849L9.65683 11.3533L9.75689 11.1618L10.2 11.3934ZM10.1 11.5849L10.5431 11.8165L10.443 12.0079L9.99989 11.7763L9.55676 11.5447L9.65683 11.3533L10.1 11.5849ZM9.99989 11.7763L10.443 12.0079C10.3962 12.0974 10.3649 12.1852 10.3465 12.2718L9.85736 12.1682L9.36822 12.0645C9.40647 11.884 9.47011 11.7105 9.55676 11.5447L9.99989 11.7763ZM9.85736 12.1682L10.3465 12.2718L10.304 12.4722L9.8149 12.3685L9.32576 12.2649L9.36822 12.0645L9.85736 12.1682ZM9.8149 12.3685L10.304 12.4722L10.2616 12.6725L9.77244 12.5689L9.2833 12.4652L9.32576 12.2649L9.8149 12.3685ZM9.77244 12.5689L10.2616 12.6725C10.2567 12.6955 10.2563 12.7213 10.2756 12.7646L9.81921 12.9687L9.36279 13.1729C9.26318 12.9502 9.23156 12.7094 9.2833 12.4652L9.77244 12.5689ZM9.81921 12.9687L10.2756 12.7646L10.3649 12.9641L9.90844 13.1682L9.45202 13.3724L9.36279 13.1729L9.81921 12.9687ZM9.90844 13.1682L10.3649 12.9641L10.4541 13.1636L9.99768 13.3677L9.54125 13.5719L9.45202 13.3724L9.90844 13.1682ZM9.99768 13.3677L10.4541 13.1636C10.5629 13.4068 10.5797 13.6689 10.4958 13.9253L10.0206 13.7697L9.54544 13.614C9.54926 13.6024 9.5489 13.5975 9.54884 13.5964C9.54876 13.5951 9.54832 13.5877 9.54125 13.5719L9.99768 13.3677ZM10.0206 13.7697L10.4958 13.9253L10.4295 14.1277L9.9543 13.9721L9.47914 13.8165L9.54544 13.614L10.0206 13.7697ZM9.9543 13.9721L10.4295 14.1277L10.3632 14.3301L9.888 14.1745L9.41284 14.0189L9.47914 13.8165L9.9543 13.9721ZM9.888 14.1745L10.3632 14.3301C10.3626 14.3319 10.3632 14.3305 10.3636 14.3264C10.3641 14.3222 10.3641 14.3173 10.3634 14.3123C10.3628 14.3074 10.3619 14.3046 10.3618 14.3043C10.3617 14.3042 10.3629 14.3077 10.3671 14.3147L9.93813 14.5715L9.50911 14.8283C9.36251 14.5834 9.32035 14.3012 9.41284 14.0189L9.888 14.1745ZM9.93813 14.5715L10.3671 14.3147L10.4836 14.5092L10.0546 14.766L9.62555 15.0228L9.50911 14.8283L9.93813 14.5715ZM10.0546 14.766L10.4836 14.5092L10.6 14.7037L10.171 14.9605L9.74198 15.2173L9.62555 15.0228L10.0546 14.766ZM10.171 14.9605L10.6 14.7037C10.7369 14.9324 10.7909 15.1948 10.7301 15.4668L10.2421 15.3579L9.75416 15.249C9.75485 15.2459 9.75484 15.2447 9.75483 15.2449C9.75482 15.2452 9.75487 15.2455 9.75483 15.2452C9.75478 15.245 9.75439 15.2428 9.75274 15.2386C9.75106 15.2342 9.74787 15.2272 9.74198 15.2173L10.171 14.9605ZM10.2421 15.3579L10.7301 15.4668L10.6849 15.6697L10.1969 15.5608L9.70887 15.4519L9.75416 15.249L10.2421 15.3579ZM10.1969 15.5608L10.6849 15.6697L10.6396 15.8726L10.1516 15.7637L9.66358 15.6548L9.70887 15.4519L10.1969 15.5608ZM10.1516 15.7637L10.6396 15.8726C10.607 16.0186 10.5693 16.1647 10.5267 16.3109L10.0467 16.1708L9.56671 16.0308C9.60351 15.9047 9.63579 15.7793 9.66358 15.6548L10.1516 15.7637ZM10.0467 16.1708L10.5267 16.3109L10.467 16.5152L9.98707 16.3751L9.5071 16.235L9.56671 16.0308L10.0467 16.1708ZM9.98707 16.3751L10.467 16.5152L10.4074 16.7194L9.92746 16.5793L9.44749 16.4392L9.5071 16.235L9.98707 16.3751ZM9.92746 16.5793L10.4074 16.7194C10.3919 16.7725 10.3928 16.8138 10.4032 16.8534L9.91967 16.9806L9.43612 17.1078C9.37744 16.8847 9.3835 16.6585 9.44749 16.4392L9.92746 16.5793ZM9.91967 16.9806L10.4032 16.8534L10.455 17.0504L9.97149 17.1776L9.48794 17.3048L9.43612 17.1078L9.91967 16.9806ZM9.97149 17.1776L10.455 17.0504L10.5069 17.2474L10.0233 17.3746L9.53976 17.5018L9.48794 17.3048L9.97149 17.1776ZM10.0233 17.3746L10.5069 17.2474C10.5598 17.4486 10.5683 17.6542 10.533 17.8592L10.0402 17.7744L9.54747 17.6896C9.55874 17.6241 9.55591 17.5632 9.53976 17.5018L10.0233 17.3746ZM10.0402 17.7744L10.533 17.8592L10.4981 18.0621L10.0053 17.9773L9.51257 17.8925L9.54747 17.6896L10.0402 17.7744ZM10.0053 17.9773L10.4981 18.0621L10.4632 18.2649L9.97042 18.1801L9.47766 18.0954L9.51257 17.8925L10.0053 17.9773ZM9.97042 18.1801L10.4632 18.2649C10.4637 18.2618 10.4642 18.2567 10.4638 18.2504C10.4634 18.2441 10.4623 18.239 10.4613 18.2357C10.4593 18.229 10.4601 18.2372 10.4783 18.2599L10.0889 18.5735L9.6994 18.887C9.52571 18.6713 9.42546 18.3988 9.47766 18.0954L9.97042 18.1801ZM10.0889 18.5735L10.4783 18.2599L10.6317 18.4504L10.2422 18.7639L9.85275 19.0775L9.6994 18.887L10.0889 18.5735ZM10.2422 18.7639L10.6317 18.4504L10.785 18.6409L10.3956 18.9544L10.0061 19.268L9.85275 19.0775L10.2422 18.7639ZM10.3956 18.9544L10.785 18.6409C10.9662 18.8658 11.0614 19.1529 10.9857 19.4659L10.4997 19.3484L10.0137 19.2309C10.0128 19.2348 10.0116 19.2418 10.0117 19.251C10.0117 19.2603 10.013 19.2689 10.0149 19.2759C10.0187 19.2903 10.0219 19.2875 10.0061 19.268L10.3956 18.9544ZM10.4997 19.3484L10.9857 19.4659L10.9365 19.6694L10.4505 19.5519L9.96449 19.4344L10.0137 19.2309L10.4997 19.3484ZM10.4505 19.5519L10.9365 19.6694L10.8873 19.8729L10.4013 19.7554L9.91527 19.6379L9.96449 19.4344L10.4505 19.5519ZM10.4013 19.7554L10.8873 19.8729C10.8584 19.9922 10.8363 20.11 10.8207 20.2266L10.3251 20.1605L9.82954 20.0943C9.84985 19.9421 9.87849 19.79 9.91527 19.6379L10.4013 19.7554ZM10.3251 20.1605L10.8207 20.2266L10.7938 20.4282L10.2982 20.362L9.80263 20.2959L9.82954 20.0943L10.3251 20.1605ZM10.2982 20.362L10.7938 20.4282L10.7669 20.6298L10.2713 20.5636L9.77572 20.4974L9.80263 20.2959L10.2982 20.362ZM10.2713 20.5636L10.7669 20.6298C10.7562 20.71 10.7587 20.7881 10.7742 20.8662L10.2838 20.9635L9.79333 21.0608C9.75634 20.8744 9.75055 20.6859 9.77572 20.4974L10.2713 20.5636ZM10.2838 20.9635L10.7742 20.8662L10.8136 21.0645L10.3231 21.1618L9.83269 21.2592L9.79333 21.0608L10.2838 20.9635ZM10.3231 21.1618L10.8136 21.0645L10.8529 21.2629L10.3625 21.3602L9.87205 21.4575L9.83269 21.2592L10.3231 21.1618ZM10.3625 21.3602L10.8529 21.2629C10.88 21.3993 10.9053 21.536 10.9289 21.6731L10.4361 21.7578L9.94335 21.8426C9.92123 21.7139 9.89746 21.5856 9.87205 21.4575L10.3625 21.3602ZM10.4361 21.7578L10.9289 21.6731L10.9632 21.8723L10.4704 21.9571L9.97763 22.0418L9.94335 21.8426L10.4361 21.7578ZM10.4704 21.9571L10.9632 21.8723L10.9974 22.0716L10.5047 22.1564L10.0119 22.2411L9.97763 22.0418L10.4704 21.9571ZM10.5047 22.1564L10.9974 22.0716C11.0097 22.1431 11.0208 22.2201 11.0233 22.2887C11.0244 22.3179 11.0257 22.3807 11.0104 22.4515C11.003 22.486 10.9846 22.5567 10.9351 22.6317C10.88 22.7151 10.7714 22.8225 10.5985 22.8528L10.5121 22.3603L10.4257 21.8679C10.2573 21.8974 10.1526 22.002 10.1007 22.0805C10.0543 22.1507 10.0385 22.2146 10.033 22.2401C10.0264 22.2707 10.0248 22.2941 10.0243 22.3044C10.0237 22.316 10.0239 22.3235 10.024 22.3253C10.024 22.3259 10.0225 22.3025 10.0119 22.2411L10.5047 22.1564ZM10.5121 22.3603L10.5985 22.8528L10.5717 22.8575L10.4853 22.365L10.3989 21.8726L10.4257 21.8679L10.5121 22.3603ZM10.4853 22.365L10.0655 22.6366L10.007 22.5461L10.4268 22.2746L10.8466 22.003L10.9051 22.0935L10.4853 22.365ZM10.4268 22.2746L10.9262 22.25L10.9311 22.3499L10.4317 22.3744L9.93231 22.399L9.9274 22.2991L10.4268 22.2746Z" fill="#1F1F1F"/>
</svg>
