<svg width="98" height="71" viewBox="0 0 98 71" fill="none" xmlns="http://www.w3.org/2000/svg">
<path d="M87.6582 48.0766C87.9883 48.0762 88.3125 48.1004 88.6289 48.1508L89.4189 48.2778C89.8981 48.3542 90.2928 48.5756 90.6016 48.892L91.1934 49.4995C91.2897 49.5982 91.3705 49.632 91.4316 49.645L91.8164 49.727L92.2021 49.808C92.418 49.8539 92.6394 49.8859 92.8662 49.9047L93.2695 49.9389L93.6729 49.9721C93.8089 49.9834 93.9263 49.9953 94.0117 50.0063C94.0436 50.0104 94.1165 50.0191 94.1895 50.0375C94.2108 50.043 94.2489 50.0533 94.293 50.0698C94.321 50.0802 94.4296 50.1214 94.5391 50.2104C94.6036 50.2629 95.0365 50.6454 94.7539 51.2778C94.7458 51.2958 94.7353 51.3125 94.7266 51.3295L94.7197 51.5776L94.7109 51.8979C94.7087 51.9747 94.7219 52.0878 94.7783 52.2407L95.0381 52.9448C95.0539 52.9874 95.0963 53.0617 95.2295 53.1508L95.6055 53.4018L95.9795 53.6518C96.2216 53.8137 96.4321 54.0433 96.5449 54.3559C96.6582 54.67 96.6486 54.9992 96.5684 55.3051L96.4482 55.7621L96.3516 56.1264L96.5918 56.3334L96.9111 56.6069C97.3839 57.0126 97.528 57.6 97.3623 58.226L97.1201 59.1391C97.0504 59.4022 97.028 59.5696 97.0264 59.6616L97.0166 60.2582C97.0114 60.549 96.9614 60.8563 96.8828 61.1694L96.6865 61.9516C96.5936 62.3216 96.4408 62.678 96.2314 63.0161L96.0059 63.3813L95.7793 63.7455C95.7019 63.8706 95.6537 63.9957 95.6309 64.1274L95.5625 64.5248L95.4932 64.9233C95.4339 65.2649 95.3322 65.6037 95.166 65.9194L95.0146 66.2055L94.8643 66.4936C94.6437 66.9123 94.297 67.2279 93.9307 67.4633L93.5605 67.7016L93.1904 67.9389C92.912 68.1177 92.6281 68.2814 92.3389 68.4301L91.958 68.6274L91.5762 68.8227C91.1993 69.0165 90.8035 69.1403 90.3965 69.1938L89.9756 69.2485L89.5547 69.3041C89.467 69.3157 89.3902 69.3449 89.3057 69.4057L88.9424 69.6684L88.5791 69.9291C88.2811 70.1436 87.89 70.3022 87.46 70.2631C87.0572 70.2264 86.7687 70.0278 86.5762 69.8364L86.25 69.5141L85.9238 69.1899C85.7211 68.9883 85.5351 68.8167 85.3643 68.6762L85.0713 68.437L84.7803 68.1967C84.7593 68.1794 84.7176 68.1524 84.6006 68.1508L83.6855 68.1391C83.1682 68.1322 82.708 67.9735 82.333 67.6743L81.666 67.142C81.4522 66.9713 81.252 66.7248 81.1748 66.3852C81.0956 66.0359 81.1695 65.6897 81.3135 65.392L81.499 65.0092L81.6846 64.6254C81.7861 64.4156 81.8694 64.206 81.9355 63.9975L82.0586 63.6088L82.1816 63.2221C82.1985 63.169 82.2087 63.0929 82.1738 62.9741L81.9355 62.1616C81.8002 61.701 81.8216 61.1991 82.0537 60.7006L82.2305 60.3217L82.4062 59.9438C82.4275 59.8982 82.4326 59.866 82.4209 59.8149L82.335 59.437L82.248 59.059C82.1681 58.711 82.1462 58.3504 82.1875 57.9819L82.2764 57.1938C82.3068 56.9228 82.3415 56.6502 82.3789 56.3784L82.4326 55.9828L82.4873 55.5873C82.5034 55.4705 82.4956 55.3368 82.4473 55.1791L82.3252 54.7768L82.2021 54.3754C82.0299 53.8137 82.1564 53.2201 82.5537 52.7006L82.8418 52.3246L83.1299 51.9496C83.257 51.7835 83.337 51.6312 83.3857 51.4936L83.5234 51.1069L83.6602 50.7202C83.7121 50.5737 83.6997 50.5267 83.7021 50.5405L83.6514 50.2573L83.5996 49.9741C83.5388 49.6367 83.6128 49.1845 83.998 48.81C84.3091 48.5078 84.6826 48.4017 84.9072 48.3569L85.3379 48.2709L85.7695 48.186C86.1246 48.1151 86.4774 48.0781 86.8262 48.0776H87.2422L87.6582 48.0766ZM66.9775 47.7651L67.3789 47.8041L67.7812 47.8432C68.0961 47.8738 68.4045 47.9262 68.7051 48.0004L69.0889 48.0961L69.4707 48.1909C69.6861 48.244 69.9071 48.2831 70.1328 48.309L70.5342 48.3549L70.9346 48.4008C71.2715 48.4396 71.5959 48.5134 71.9062 48.6215L72.2734 48.7485L72.6406 48.8774C72.9206 48.9749 73.193 49.0889 73.457 49.2192L74.1523 49.562C74.3254 49.6473 74.5043 49.7119 74.6895 49.7563L75.0703 49.8471L75.4502 49.9379C75.519 49.9544 75.5765 49.9667 75.6221 49.977C75.7443 49.9725 75.8423 49.9899 75.9043 50.0053C76.028 50.0362 76.1151 50.0841 76.1572 50.1098C76.2429 50.162 76.3003 50.2179 76.3213 50.2387C76.3715 50.2884 76.4102 50.3395 76.4316 50.3676C76.4808 50.432 76.537 50.5131 76.5938 50.6L76.7568 50.8491L76.9189 51.0981C77.1452 51.4446 77.2159 51.8507 77.2061 52.2475L77.1855 53.0688C77.1825 53.1895 77.208 53.2827 77.2539 53.3647L77.4375 53.6948L77.623 54.0239C77.7669 54.2805 77.8894 54.5476 77.9912 54.8237L78.251 55.5278C78.3187 55.7114 78.4042 55.8893 78.5088 56.061L78.7061 56.3852L78.9053 56.7094C79.1443 57.1021 79.2226 57.5543 79.1621 58.0278L79.1064 58.4575L79.0508 58.8862C79.0134 59.1782 78.977 59.4453 78.9404 59.685L78.835 60.3754C78.7827 60.718 78.6706 61.0571 78.5127 61.3881L78.1553 62.1381C78.0829 62.2901 78.0342 62.4473 78.0098 62.6137L77.8926 63.4135C77.8399 63.773 77.7363 64.1266 77.5811 64.4692L77.4102 64.8452L77.2393 65.2221C77.1345 65.4534 77.0357 65.6892 76.9434 65.9291L76.7939 66.3178L76.6445 66.7075C76.5257 67.0159 76.2968 67.3566 75.9023 67.5834C75.5249 67.8003 75.145 67.8262 74.8584 67.7973L74.4111 67.7514L74.0166 67.7114L73.7188 67.9907L73.373 68.3149C72.9675 68.6945 72.4727 68.9429 71.9229 69.0014L71.5 69.0453L71.0762 69.0903C70.9852 69.1001 70.9096 69.1286 70.8291 69.184L70.4629 69.437L70.0977 69.6899C69.8319 69.8733 69.501 70.0159 69.1309 70.0317C68.7632 70.0471 68.4598 69.9321 68.2275 69.7768L67.5615 69.3315C67.4349 69.2468 67.2983 69.1919 67.1484 69.1625L66.7432 69.0834L66.3379 69.0034C65.9836 68.9339 65.6517 68.8192 65.3467 68.6586L64.6729 68.3041C64.3723 68.1458 64.0961 67.9441 63.8438 67.7055L63.2295 67.1235C62.822 66.7381 62.6294 66.178 62.8389 65.5287L63.0889 64.7534C63.1845 64.457 63.298 64.1622 63.4287 63.8705L63.6006 63.4868L63.7734 63.102C63.8188 63.0006 63.8381 62.9009 63.8311 62.7895L63.8047 62.3901L63.7803 61.9907C63.7616 61.6974 63.7563 61.409 63.7656 61.1264L63.7773 60.7514L63.79 60.3745C63.7988 60.107 63.8152 59.8346 63.8389 59.5571L63.873 59.1635L63.9062 58.77C63.9279 58.5166 63.9462 58.2636 63.9609 58.0112L64.0059 57.228C64.0206 56.9757 64.0323 56.7234 64.04 56.4721L64.0635 55.6918C64.0747 55.3257 64.1479 54.9604 64.2803 54.601L64.4219 54.2162L64.5635 53.8305C64.621 53.6742 64.6539 53.5162 64.6611 53.353L64.6787 52.9575L64.6953 52.561C64.7066 52.304 64.7161 52.046 64.7217 51.7885L64.7295 51.393L64.7383 50.9955C64.7464 50.6253 64.8175 50.2479 64.9395 49.8696L65.084 49.4233L65.2275 48.976L65.3125 48.7582C65.416 48.5305 65.582 48.281 65.8516 48.0795C66.2342 47.7937 66.6496 47.7333 66.9775 47.7651ZM47.5518 48.0727C48.0298 47.7851 48.4743 47.8644 48.7305 47.9565L48.8281 47.9955L49.5527 48.3168C49.596 48.336 49.6468 48.3474 49.7432 48.3266L50.1904 48.2299L50.6367 48.1332C51.0814 48.0371 51.5228 48.0327 51.9414 48.1401L52.3232 48.2387L52.7051 48.3364C52.9429 48.3974 53.1832 48.4523 53.4248 48.5004L54.2002 48.6547C54.6386 48.7421 55.0123 48.9426 55.3184 49.226L55.6221 49.5082L55.9258 49.7885C56.0046 49.8615 56.064 49.8793 56.1113 49.8842L56.5117 49.9252L56.9111 49.9662C57.0415 49.9797 57.2073 49.999 57.3418 50.0356C57.3794 50.0458 57.4437 50.0652 57.5146 50.0981C57.5545 50.1166 57.747 50.2044 57.8809 50.4145C57.93 50.4917 57.9739 50.5974 57.9961 50.726L58.2246 50.8676C58.6958 51.1584 58.8854 51.626 58.8721 52.1215L58.8545 52.3364L58.7949 52.767L58.7344 53.1987C58.718 53.3161 58.7344 53.3852 58.7607 53.436L59.1084 54.1039C59.2036 54.2877 59.3143 54.4671 59.4424 54.6411L59.6709 54.9516L59.9014 55.2631C60.0845 55.5118 60.2407 55.7754 60.3701 56.0522L60.6885 56.7319C60.8232 57.0201 60.9219 57.325 60.9844 57.643L61.0576 58.018L61.1318 58.394C61.212 58.8027 61.1795 59.2252 61.0547 59.6459L60.9277 60.0717L60.8018 60.4975C60.7256 60.754 60.6647 60.9986 60.6182 61.2299L60.5381 61.6254L60.459 62.02C60.378 62.4223 60.2136 62.8073 59.9746 63.1655L59.4922 63.8881C59.3248 64.139 59.1525 64.3896 58.9756 64.6381L58.7197 64.9955L58.4658 65.3539C58.3498 65.5169 58.3048 65.6245 58.2891 65.6811L58.2021 65.9936L58.1152 66.3051C57.9817 66.7846 57.6688 67.1747 57.3242 67.476L56.9727 67.7827L56.623 68.0893C56.2859 68.384 55.9058 68.6159 55.4883 68.7661L55.0928 68.9086L54.6963 69.0512C54.1939 69.2318 53.6956 69.234 53.2363 69.1284L52.7715 69.0219L52.3125 68.9164L52.0137 69.1323L51.6504 69.395C51.1647 69.7463 50.5794 69.9083 50.001 69.7543L49.6436 69.6596L49.2871 69.5649C48.8891 69.4588 48.5507 69.2581 48.2734 68.9858L48 68.7172L47.7285 68.4496C47.6172 68.3403 47.4926 68.2568 47.3545 68.1957L47.002 68.0405L46.6514 67.8852C46.3772 67.764 46.1244 67.6282 45.9033 67.4741L45.4033 67.1245C45.0437 66.8738 44.8327 66.5052 44.707 66.1313L44.4336 65.3168C44.2359 64.7284 44.3811 64.1025 44.8271 63.5727L45.458 62.8246C45.4943 62.7815 45.5059 62.7563 45.5088 62.7495C45.5104 62.7454 45.5117 62.7428 45.5117 62.7368L45.5107 62.3393L45.5117 61.9418C45.5117 61.7207 45.4953 61.508 45.4648 61.3032L45.4092 60.9272L45.3535 60.5532C45.2925 60.1431 45.3427 59.724 45.4873 59.311L45.6299 58.9028L45.7715 58.4965C45.8262 58.3404 45.8459 58.202 45.8398 58.0746L45.8223 57.6889L45.8037 57.3022C45.7925 57.0658 45.7728 56.8298 45.7451 56.5952L45.7002 56.2114L45.6553 55.8295C45.6106 55.4505 45.6445 55.0635 45.7559 54.6772L45.8691 54.2866L45.9805 53.895C46.019 53.7613 46.0335 53.6219 46.0176 53.4702L45.9336 52.6694C45.8899 52.2537 45.9485 51.8309 46.1152 51.4155L46.2695 51.0287L46.4248 50.644C46.5062 50.4413 46.5778 50.2157 46.6367 49.9662L46.7402 49.5248L46.8457 49.0825C46.8991 48.8566 47.0517 48.3737 47.5518 48.0727ZM86.5605 50.0385C86.3557 50.0388 86.144 50.0593 85.9248 50.103L85.7334 50.1411C85.7589 50.4755 85.6928 50.8117 85.582 51.1245L85.3086 51.8979C85.1746 52.2762 84.972 52.6343 84.7158 52.9692L84.4277 53.3452L84.1826 53.6645L84.2871 54.0014L84.4102 54.4028C84.5259 54.78 84.5643 55.1778 84.5078 55.5883L84.4541 55.9838L84.3994 56.3793C84.3642 56.6351 84.3323 56.8911 84.3037 57.1459L84.2148 57.934C84.1972 58.091 84.2056 58.2457 84.2412 58.4008L84.3271 58.7787L84.4141 59.1557C84.5179 59.6076 84.4636 60.0808 84.25 60.5395L84.0732 60.9174L83.8984 61.2963C83.8931 61.3078 83.8912 61.3147 83.8906 61.3227C83.8899 61.3323 83.8898 61.3586 83.9033 61.4047L84.1416 62.2172C84.2658 62.6398 84.2732 63.0947 84.126 63.559L84.0039 63.9477L83.8809 64.3344C83.7829 64.6432 83.6595 64.9491 83.5137 65.2504L83.3281 65.6342L83.2842 65.725L83.4189 65.8334L83.752 66.0991C83.8211 66.1542 83.889 66.1769 83.9814 66.1782L84.8975 66.1909C85.3906 66.1974 85.8497 66.3345 86.2178 66.6371L86.8018 67.1176C87.0201 67.2972 87.246 67.5026 87.4775 67.7328L87.8037 68.0571L87.8848 68.1381L88.2285 67.892C88.6278 67.6047 89.0737 67.4238 89.5459 67.3618L89.9668 67.3071L90.3867 67.2504C90.5396 67.2303 90.6785 67.1869 90.8096 67.1196L91.1904 66.9233L91.5723 66.727C91.7908 66.6146 92.0076 66.4905 92.2217 66.353L92.5918 66.1147L92.9609 65.8774C93.0352 65.8297 93.0654 65.7975 93.0742 65.7875L93.2197 65.5131L93.3701 65.227C93.4051 65.1606 93.4507 65.0426 93.4834 64.8539L93.5527 64.4565L93.6211 64.058C93.6903 63.6595 93.8388 63.2756 94.0625 62.9145L94.2891 62.5502L94.5146 62.185C94.6063 62.037 94.6689 61.8886 94.707 61.7368L94.8066 61.3452L94.9053 60.9526C94.9575 60.7442 94.9766 60.5908 94.9785 60.4838L94.9834 60.186L94.9893 59.8862C94.9947 59.5803 95.056 59.2432 95.1475 58.8979L95.2686 58.4418L95.3662 58.0756L95.1279 57.8715L94.8086 57.5971C94.3369 57.1922 94.1903 56.6066 94.3545 55.9809L94.4746 55.5239L94.5518 55.2289L94.2988 55.06L93.9248 54.809C93.5591 54.5645 93.2641 54.2366 93.1064 53.81L92.8467 53.1059C92.7298 52.7896 92.6628 52.4531 92.6729 52.103L92.6787 51.8793L92.4287 51.8588C92.1192 51.8331 91.8156 51.7891 91.5186 51.726L91.1328 51.644L90.748 51.5629C90.2958 51.4668 89.9213 51.2436 89.623 50.9379L89.0312 50.3305C88.9456 50.2427 88.8792 50.2198 88.832 50.2123L88.4375 50.1498L88.042 50.0864C87.8319 50.0529 87.6151 50.0372 87.3916 50.0375H86.9766L86.5605 50.0385ZM67.0254 49.77L66.8809 50.2162C66.8108 50.4335 66.7808 50.6195 66.7773 50.7778L66.7676 51.1743L66.7598 51.5717C66.7539 51.8429 66.7443 52.1144 66.7324 52.3852L66.7158 52.7807L66.6973 53.1772C66.6812 53.5415 66.6079 53.9037 66.4766 54.2602L66.334 54.6459L66.1934 55.0307C66.1368 55.1843 66.1053 55.3366 66.1006 55.4907L66.0771 56.2709C66.0689 56.5396 66.0577 56.809 66.042 57.0786L66.0186 57.4702L65.9961 57.8618C65.9803 58.1313 65.9606 58.4019 65.9375 58.6723L65.9033 59.0649L65.8701 59.4584C65.8492 59.7043 65.8348 59.944 65.8271 60.1772L65.8154 60.5541L65.8027 60.9291C65.7955 61.1477 65.7992 61.3769 65.8145 61.6157L65.8652 62.4145C65.892 62.8348 65.8139 63.2576 65.6299 63.6684L65.457 64.0532L65.2852 64.4379C65.1862 64.6588 65.1005 64.8801 65.0293 65.101L64.9043 65.4877L64.8311 65.7133L65.0596 65.9291L65.3672 66.2202C65.524 66.3685 65.6776 66.4773 65.8252 66.5551L66.1621 66.7328L66.498 66.9096C66.6416 66.9852 66.8057 67.043 66.9922 67.0795L67.8027 67.2387C68.1936 67.3154 68.55 67.4622 68.8672 67.6743L69.2002 67.8969L69.3135 67.9721L69.4268 67.895L69.791 67.643C70.1974 67.3624 70.6477 67.1924 71.1201 67.142L71.9668 67.0522C71.9836 67.0504 71.991 67.0473 71.9951 67.0453C72.0007 67.0427 72.021 67.032 72.0547 67.0004L72.4004 66.6772L72.7461 66.352L72.9316 66.1948C73.378 65.8532 73.9036 65.7015 74.4365 65.7553L74.8848 65.8012L74.9131 65.8032L75.042 65.4702C75.1492 65.1918 75.2642 64.9172 75.3867 64.6469L75.5566 64.2709L75.7275 63.894C75.7996 63.7349 75.8495 63.5695 75.875 63.3959L75.9922 62.5961C76.0459 62.2298 76.1548 61.871 76.3203 61.5239L76.6777 60.7739C76.758 60.6055 76.8013 60.464 76.8193 60.3461L76.9248 59.6547C76.9585 59.4339 76.9925 59.1835 77.0283 58.9037L77.084 58.475L77.1387 58.0463C77.1512 57.9484 77.1341 57.8978 77.1104 57.8588L76.9131 57.5356L76.7158 57.2114C76.5572 56.951 76.4237 56.677 76.3184 56.3911L76.1885 56.0395L76.0596 55.687C75.9883 55.4936 75.9011 55.3059 75.7988 55.1235L75.6143 54.7934L75.4297 54.4643C75.2295 54.1072 75.1378 53.707 75.1484 53.2807L75.1689 52.4594C75.1716 52.3511 75.1564 52.3037 75.1514 52.2914L74.9893 52.0424L74.8848 51.8823C74.8346 51.8708 74.7783 51.8594 74.7188 51.8452L73.959 51.6635C73.6378 51.5866 73.3315 51.4758 73.041 51.3325L72.3457 50.9887C72.1462 50.8903 71.9411 50.8049 71.7314 50.7319L70.9971 50.476C70.8177 50.4135 70.6295 50.3717 70.4326 50.3491L70.0332 50.3022L69.6328 50.2563C69.3249 50.2209 69.0226 50.167 68.7275 50.0942L68.3438 49.9995L67.9619 49.9057C67.752 49.8539 67.5361 49.8168 67.3154 49.7953L67.0254 49.7661V49.77ZM51.1807 50.0405C51.0905 50.0174 50.979 50.0109 50.8281 50.0434L49.9336 50.2368C49.4766 50.3356 49.0289 50.316 48.6191 50.1625C48.5394 50.4986 48.4394 50.8225 48.3154 51.1313L48.1602 51.5161L48.0059 51.9028C47.9664 52.0014 47.9495 52.1032 47.9619 52.2211L48.0039 52.6205L48.0459 53.0219C48.086 53.4039 48.0522 53.7924 47.9404 54.1801L47.8291 54.5707L47.7158 54.9623C47.677 55.0973 47.6652 55.2275 47.6807 55.3588L47.7715 56.1235C47.804 56.3994 47.8276 56.6778 47.8408 56.9565L47.8584 57.3422L47.877 57.7289C47.8953 58.1163 47.8324 58.5069 47.6973 58.893L47.5537 59.3002L47.4111 59.7084C47.3662 59.837 47.3589 59.9387 47.3721 60.0278L47.4277 60.4037L47.4834 60.7787C47.5273 61.0734 47.5488 61.3758 47.5488 61.684L47.5498 62.0805L47.5488 62.478C47.5488 63.0141 47.3281 63.511 46.9736 63.9321L46.6582 64.3061L46.4141 64.5942L46.5195 64.9057L46.6562 65.3139C46.7127 65.4817 46.7606 65.5019 46.7363 65.4848L47.2363 65.8344C47.3494 65.9132 47.5003 65.9972 47.6953 66.0834L48.0469 66.2387L48.3994 66.394C48.73 66.5402 49.0217 66.7396 49.2734 66.9868L49.5469 67.2553L49.8184 67.5229C49.9039 67.6069 49.9858 67.6476 50.0635 67.6684L50.4209 67.7641L50.6494 67.8246L50.9316 67.6215L51.2939 67.3588C51.85 66.9565 52.4673 66.8761 53.0205 67.0034L53.4854 67.1108L53.9512 67.2172C54.1111 67.254 54.187 67.2333 54.2129 67.2241L55.0059 66.9389C55.116 66.8992 55.2345 66.8325 55.3643 66.7192L56.0664 66.1059C56.1201 66.0589 56.1454 66.0257 56.1562 66.0112L56.2363 65.726L56.3232 65.4145C56.4233 65.0549 56.6068 64.7138 56.8311 64.3989L57.0869 64.0405L57.3418 63.6821C57.5052 63.4526 57.6642 63.2217 57.8184 62.9907L58.3008 62.268C58.3832 62.1444 58.4328 62.0236 58.458 61.8989L58.5391 61.5034L58.6182 61.1078C58.6777 60.8119 58.7535 60.5073 58.8457 60.1967L58.9727 59.7709L59.0986 59.3461C59.1421 59.1999 59.144 59.0881 59.126 58.9965L59.0527 58.6215L58.9795 58.2455C58.9436 58.0631 58.8867 57.8901 58.8096 57.725L58.6504 57.3842L58.4912 57.0444C58.4087 56.868 58.3075 56.6964 58.1855 56.5307L57.7275 55.9086C57.5506 55.6683 57.3943 55.4172 57.2588 55.1557L57.085 54.8217L56.9121 54.4868C56.7079 54.0922 56.65 53.6508 56.7139 53.1938L56.7734 52.7631L56.8154 52.4633L56.6641 52.3705L56.3584 52.1811C56.2526 52.1158 56.0933 52.0125 55.9736 51.8803C55.9709 51.8773 55.9675 51.8728 55.9629 51.8676L55.6338 51.8344C55.1489 51.7844 54.7403 51.5866 54.415 51.2856L54.1113 51.0034L53.8076 50.7231C53.709 50.6318 53.6201 50.5933 53.541 50.5776L52.7646 50.4233C52.4888 50.3683 52.2154 50.3054 51.9443 50.2358L51.1807 50.0405ZM45.8164 23.9848C46.215 23.7578 46.5992 23.7651 46.874 23.8266L46.9844 23.8549L47.3604 23.9692L47.7354 24.0834C48.0535 24.18 48.3549 24.3111 48.6387 24.475L48.9805 24.6723L49.3203 24.8696C49.3491 24.8862 49.3767 24.8947 49.4482 24.8823L49.8916 24.8061L50.333 24.728C50.7697 24.652 51.1998 24.6643 51.6045 24.7787L51.9795 24.8842L52.3535 24.9907C52.7273 25.0963 53.0617 25.2723 53.3545 25.5073L53.6699 25.7612L53.9863 26.0151C53.9952 26.0222 54.0021 26.0253 54.0049 26.0268C54.0071 26.0269 54.0138 26.0274 54.0264 26.0258L54.9043 25.9135C55.0495 25.8947 55.184 25.8778 55.2822 25.8715C55.3086 25.8699 55.3462 25.8686 55.3867 25.8686C55.405 25.8686 55.5132 25.8677 55.6357 25.8969C55.6662 25.9042 55.8981 25.9534 56.0811 26.1557C56.1952 26.2822 56.3053 26.4875 56.2939 26.7631C56.2888 26.8858 56.2594 26.9961 56.2217 27.0912L56.3105 27.3012C56.343 27.3773 56.4135 27.4939 56.5498 27.6489L56.8115 27.9457L57.0723 28.2436C57.3297 28.5362 57.513 28.8782 57.6045 29.2661L57.6904 29.6352L57.7783 30.0053C57.8506 30.312 57.8914 30.6298 57.9004 30.9565L57.9102 31.3578L57.9219 31.7592C57.9233 31.813 57.9365 31.8568 57.9863 31.9116L58.2549 32.2065L58.5234 32.5004C58.8351 32.8429 59.0049 33.2716 59.0098 33.7602L59.0176 34.5698C59.02 34.8211 59.0298 35.0651 59.0469 35.3012L59.0752 35.684L59.1025 36.0688C59.1376 36.5548 58.9932 37.0319 58.7012 37.4633L58.457 37.8246L58.2139 38.185C58.1569 38.2691 58.1275 38.3489 58.1201 38.4418L58.0889 38.8471L58.0566 39.2524C58.0282 39.613 57.9477 39.9697 57.8154 40.3188L57.5264 41.0834C57.3682 41.5005 57.106 41.8906 56.7158 42.1957L56.4258 42.4223L56.1357 42.6498C55.934 42.8076 55.7099 42.9786 55.4639 43.1625L54.7422 43.7026C54.4663 43.9087 54.1822 44.096 53.8916 44.2661L53.1426 44.7055C52.6189 45.0119 52.0649 45.0785 51.5527 44.9848L51.0938 44.9008L50.7588 44.8393L50.5264 45.0854L50.1885 45.4409C49.9694 45.6712 49.5593 45.9966 49.0078 45.9887C48.4826 45.9811 48.1701 45.6715 48.0146 45.4662L47.7402 45.1039L47.4639 44.7397C47.333 44.567 47.2119 44.4663 47.1113 44.4096L46.7812 44.2231L46.4521 44.0375C46.3793 43.9964 46.2731 43.9628 46.1084 43.9594L45.6523 43.9496L45.1973 43.9409C44.6972 43.9307 44.2362 43.7825 43.873 43.4653L43.5859 43.2143L43.2998 42.9633C42.9292 42.6392 42.7322 42.1986 42.7285 41.6879L42.7266 41.2905L42.7227 40.893C42.7193 40.4322 42.8581 39.9817 43.1152 39.5649L43.3486 39.186L43.583 38.8061C43.7025 38.6124 43.7962 38.4219 43.8652 38.2358L44.0078 37.85L44.1475 37.4711C44.1457 37.4632 44.1427 37.4464 44.1309 37.4223L43.9443 37.0424L43.7578 36.6616C43.5556 36.2493 43.4875 35.7819 43.6016 35.2836L43.6924 34.8823L43.7852 34.4819C43.8152 34.3506 43.8161 34.2276 43.79 34.1059L43.709 33.7289L43.6279 33.35C43.5162 32.8281 43.6497 32.3047 43.9297 31.8354L44.1816 31.4135L44.4082 31.0346L44.2549 30.7114L44.0752 30.3315C43.9562 30.0793 43.895 29.7817 43.9404 29.4526C43.986 29.123 44.1309 28.8252 44.3213 28.5727L44.6035 28.1977L44.8721 27.8412L44.7852 27.4702L44.6924 27.0649C44.5911 26.6264 44.6199 26.1682 44.7842 25.7114L44.9326 25.2983L45.082 24.8852C45.1766 24.6225 45.38 24.2336 45.8164 23.9848ZM64.2139 23.8002C64.6261 23.5459 65.0507 23.5249 65.3848 23.603L65.7715 23.6928L66.1582 23.7836C66.4666 23.8557 66.7647 23.9524 67.0518 24.0727L67.7744 24.3754C67.8389 24.4023 67.9172 24.4159 68.0361 24.3969L68.4805 24.3246L68.9248 24.2543L69.0566 24.2368C69.7035 24.1756 70.2126 24.4473 70.5342 24.8891L71.0713 25.6274C71.1063 25.6754 71.1319 25.6947 71.1406 25.7006L71.5312 25.7465L71.9316 25.7924C72.1622 25.819 72.3981 25.8333 72.6387 25.8354L73.4678 25.8432C73.5267 25.8437 73.5767 25.8433 73.6182 25.8422C73.6391 25.8417 73.6578 25.8401 73.6729 25.8393L73.7871 25.7914C74.3821 25.5442 74.8094 25.8263 74.9736 25.9907C75.1284 26.1457 75.2149 26.3326 75.2637 26.4545L75.3721 26.725L75.4814 26.9975C75.6622 27.4491 75.5872 27.9449 75.4561 28.3588L75.3076 28.8266L75.1592 29.2934C75.1558 29.304 75.1532 29.3134 75.1514 29.3207L75.3496 29.601L75.5713 29.9155C75.7749 30.2043 75.9223 30.524 76.0098 30.8715L76.1025 31.2387L76.1953 31.6069C76.2243 31.7221 76.2797 31.8342 76.373 31.9448L76.627 32.2465L76.8809 32.5463C77.1687 32.8872 77.3279 33.3021 77.3408 33.77L77.3506 34.1723L77.3623 34.5737C77.3707 34.8799 77.3584 35.1792 77.3252 35.4702L77.2852 35.8325L77.2432 36.1967C77.2127 36.4633 77.1704 36.7398 77.1172 37.0248L77.0439 37.4213L76.9688 37.8178C76.8766 38.3111 76.6234 38.7526 76.2646 39.1245L75.9346 39.4662L75.6689 39.7416L75.7373 40.1L75.8193 40.5297C75.9206 41.06 75.8038 41.6129 75.4414 42.1127L74.9033 42.853C74.5841 43.2928 74.144 43.629 73.6035 43.7905L73.2012 43.9096L72.7988 44.0307C72.4034 44.1488 72.0021 44.1952 71.6025 44.1801L71.1621 44.1635L70.8496 44.1518L70.5781 44.4877L70.2539 44.8881C69.8793 45.3505 69.3571 45.7019 68.7188 45.7739L68.2969 45.8217L67.875 45.8686C67.4049 45.9215 66.9597 45.852 66.5635 45.6586L66.2119 45.4868L65.8613 45.3149C65.695 45.2337 65.5151 45.1725 65.3203 45.1313L64.918 45.0473L64.5156 44.9614C63.9933 44.8509 63.5963 44.5574 63.3428 44.1362L63.1309 43.7836L62.9189 43.4301C62.8645 43.3397 62.8104 43.3058 62.7598 43.2866L62.3926 43.1469L62.0244 43.0073C61.7613 42.9074 61.4976 42.7303 61.332 42.435C61.1656 42.1379 61.1484 41.81 61.2002 41.518L61.2695 41.1264L61.3398 40.7338C61.3829 40.4908 61.4189 40.2466 61.4482 40.0024L61.4961 39.6088L61.543 39.2153C61.5763 38.9378 61.6157 38.6599 61.6621 38.3832L61.7285 37.9907L61.7949 37.5991C61.8389 37.3365 61.882 37.0795 61.9248 36.8295L62.0518 36.0825C62.0953 35.828 62.1435 35.5657 62.1943 35.2953L62.2686 34.8969L62.3438 34.4985C62.3619 34.4018 62.3571 34.3072 62.3193 34.2016L62.0537 33.4584C61.8933 33.01 61.9046 32.5255 62.0811 32.0424L62.3789 31.226C62.4606 31.0023 62.5186 30.7912 62.5566 30.5932L62.6309 30.2104L62.7051 29.8256C62.7586 29.5473 62.8219 29.2668 62.8955 28.9858L62.998 28.5971L63.0996 28.2075C63.1221 28.1216 63.1286 28.0162 63.0938 27.8793L62.8857 27.0688C62.7577 26.5667 62.8395 26.0477 63.0693 25.5551L63.2852 25.0922L63.501 24.6303L63.6104 24.4223C63.7401 24.2062 63.9317 23.9744 64.2139 23.8002ZM84.0684 23.8256C84.6188 23.6943 85.1474 23.7605 85.5918 24.0317L86.2754 24.4487C86.3503 24.4944 86.4194 24.5102 86.502 24.5063L86.9258 24.4858L87.3486 24.4662C87.9193 24.4392 88.4001 24.6354 88.7588 24.9868L89.0586 25.2797L89.3574 25.5727C89.4528 25.666 89.5347 25.6991 89.6016 25.7123L89.9883 25.7905L90.377 25.8666C90.554 25.9017 90.7434 25.915 90.9463 25.9057L91.3691 25.8871L91.793 25.8676C91.935 25.8611 92.0648 25.8564 92.1602 25.8578C92.1781 25.8581 92.302 25.8586 92.4268 25.8871C92.461 25.895 92.5585 25.9186 92.665 25.977C92.7236 26.0091 93.0907 26.2128 93.0967 26.7065C93.0989 26.892 93.0485 27.0502 92.9814 27.1801L92.9932 27.2475L93.041 27.5444C93.0369 27.5191 93.0364 27.5689 93.1484 27.684L93.4307 27.9741L93.7109 28.2631C94.0181 28.5786 94.2124 28.9716 94.2627 29.4311L94.3057 29.8198L94.3477 30.2084C94.3753 30.4614 94.4059 30.7135 94.4385 30.9643L94.4893 31.35L94.5381 31.7348C94.5473 31.8057 94.5756 31.8754 94.6475 31.9526L94.9209 32.2455L95.1934 32.5385C95.5135 32.8818 95.6882 33.3146 95.6895 33.811V34.2172L95.6914 34.6235C95.692 34.8858 95.6959 35.1332 95.7031 35.3647L95.7139 35.727L95.7256 36.0893C95.7412 36.5954 95.5483 37.0717 95.2324 37.4799L94.958 37.8334L94.6836 38.1889C94.6835 38.1937 94.6833 38.2015 94.6846 38.2123L94.7354 38.6352L94.7871 39.059C94.8412 39.507 94.7711 39.9704 94.5479 40.4184L94.3623 40.7914L94.1758 41.1645C94.0018 41.5135 93.7697 41.8441 93.4609 42.1196L92.9453 42.5805C92.7783 42.7295 92.5796 42.9082 92.3506 43.1176L91.6562 43.7524C91.3139 44.0654 90.9216 44.3107 90.4834 44.4594L89.6875 44.7299C89.4185 44.8212 89.1486 44.9109 88.8789 44.9995L88.0801 45.2621C87.7511 45.3701 87.416 45.4486 87.0762 45.4995L86.2402 45.6245C85.6959 45.7059 85.1688 45.5902 84.7812 45.2153L84.5332 44.975L84.3047 44.7534C84.2916 44.7508 84.2655 44.7468 84.2217 44.7475L83.7539 44.7553L83.2871 44.7621C82.7851 44.77 82.3107 44.6427 81.9307 44.3364L81.3428 43.8627C81.1357 43.6957 80.9446 43.5327 80.7715 43.3745L80.2949 42.9389C79.8642 42.5451 79.7849 41.9924 79.9219 41.4643L80.0234 41.0746L80.124 40.685L80.4268 39.517L80.5264 39.1274C80.5824 38.9101 80.6234 38.6909 80.6504 38.4711L80.748 37.684C80.7638 37.5556 80.7542 37.4243 80.7119 37.2846L80.5967 36.9047L80.4824 36.5268C80.3352 36.0423 80.3946 35.5321 80.626 35.0444L80.8232 34.6303L81.0195 34.2162C81.0928 34.0619 81.1189 33.9389 81.1201 33.8373L81.124 33.4477L81.1279 33.059C81.1299 32.884 81.1085 32.7085 81.0615 32.5327L80.8604 31.7807C80.7703 31.4438 80.7332 31.0939 80.751 30.7348L80.7705 30.3403L80.79 29.9467C80.8078 29.5867 80.8809 29.2276 81.0078 28.8745L81.1465 28.4877L81.2852 28.1C81.3922 27.8023 81.5192 27.5073 81.6641 27.2153L81.8535 26.8325L82.0439 26.4487C82.0672 26.4017 82.0731 26.3768 82.0742 26.3705L82.0068 26.0541L81.9375 25.7299C81.8726 25.4242 81.9005 24.984 82.248 24.5815C82.5504 24.2315 82.942 24.0947 83.1895 24.0356L84.0684 23.8256ZM65.1279 25.6899L64.9121 26.1518C64.8548 26.2746 64.8615 26.3339 64.8711 26.3715L64.9736 26.7768L65.0771 27.1821C65.1799 27.5847 65.1876 28.0095 65.0742 28.4428L64.9717 28.8325L64.8691 29.2231C64.8068 29.4611 64.7539 29.6968 64.709 29.9301L64.5605 30.6996C64.5002 31.0133 64.4106 31.3304 64.2939 31.6498L63.9951 32.4662C63.9731 32.5266 63.9744 32.5628 63.9912 32.6098L64.125 32.9809L64.2568 33.353C64.3962 33.7426 64.4302 34.1611 64.3486 34.5952L64.1982 35.392C64.1493 35.6524 64.1041 35.9048 64.0625 36.1479L63.9355 36.895C63.8932 37.1425 63.8493 37.3964 63.8057 37.6567L63.7402 38.0502L63.6738 38.4418C63.6326 38.688 63.5981 38.9349 63.5684 39.1821L63.4736 39.9711C63.44 40.2513 63.3972 40.5308 63.3477 40.81L63.2793 41.2026L63.2656 41.2768L63.3486 41.309L63.7158 41.4477C64.1552 41.6144 64.4892 41.9078 64.7178 42.2875L64.9297 42.6411L65.1416 42.9936C65.1601 43.0243 65.1736 43.034 65.1758 43.0356C65.177 43.0364 65.1788 43.0377 65.1807 43.0385C65.183 43.0395 65.1884 43.0415 65.1973 43.0434L65.5996 43.1284L66.001 43.2133C66.3415 43.2853 66.6642 43.3942 66.9658 43.5414L67.3174 43.7133L67.668 43.8852C67.74 43.9204 67.8125 43.9328 67.9053 43.9223L68.3271 43.8745L68.6953 43.8315C68.6993 43.8269 68.7051 43.8219 68.71 43.8159L69.0332 43.4155L69.3584 43.0151C69.7766 42.499 70.3774 42.1608 71.0693 42.187L71.5088 42.2036L71.9492 42.2211C72.1358 42.2281 72.2961 42.2054 72.4365 42.1635L72.8398 42.0424L73.2412 41.9233C73.2429 41.9228 73.2451 41.9227 73.2461 41.9223L73.2539 41.9145C73.2596 41.9086 73.2698 41.8983 73.2822 41.8813L73.5498 41.5112L73.8145 41.1469C73.814 41.1419 73.8142 41.1344 73.8125 41.1254L73.7305 40.6948L73.6484 40.2661C73.5357 39.6763 73.7223 39.0749 74.1973 38.5825L74.5273 38.2397L74.8584 37.8959C74.9398 37.8115 74.9571 37.7596 74.9639 37.7241L75.0371 37.3266L75.1123 36.9301C75.1578 36.6868 75.1931 36.4562 75.2178 36.2397L75.2588 35.8764L75.2998 35.5141C75.3217 35.3217 75.3315 35.1112 75.3252 34.8823L75.3018 34.0795C75.2999 34.0122 75.2828 33.9586 75.2324 33.8989L74.9775 33.5981L74.7246 33.2973C74.4797 33.0073 74.3032 32.6731 74.209 32.2983L74.1172 31.9311L74.0244 31.5629C73.9886 31.4207 73.9272 31.2862 73.8359 31.1567L73.3936 30.5278C73.0633 30.0595 73.0449 29.496 73.2158 28.9565L73.3623 28.4897L73.5107 28.0209C73.5368 27.9385 73.5452 27.887 73.5479 27.8608L73.5215 27.7963C73.4141 27.8021 73.2979 27.8052 73.1797 27.8041L72.7656 27.8012L72.3516 27.7973C72.0397 27.7945 71.7322 27.7746 71.4297 27.7397L71.0283 27.6948L70.6289 27.6479C70.0584 27.5819 69.6376 27.2824 69.3506 26.8881L69.082 26.519L68.8564 26.2094L68.5518 26.2582L68.1074 26.3295C67.6356 26.405 67.1771 26.3643 66.7607 26.1899L66.4004 26.0385L66.0391 25.8881C65.8449 25.8068 65.6436 25.7422 65.4365 25.6938L65.1562 25.6274L65.1279 25.6899ZM84.3066 25.726L84.0801 25.7797C84.1669 26.229 84.0689 26.6815 83.8643 27.0942L83.6738 27.476L83.4834 27.8598C83.3751 28.0782 83.2824 28.2964 83.2041 28.5141L83.0654 28.9018L82.9268 29.2875C82.8683 29.4502 82.8344 29.6137 82.8262 29.7797L82.8066 30.1743L82.7871 30.5698C82.7789 30.7363 82.7961 30.9001 82.8398 31.0639L82.9404 31.4409L83.041 31.8168C83.1278 32.1415 83.1707 32.4764 83.167 32.8198L83.1621 33.2094L83.1582 33.5991C83.1535 34.0164 83.0451 34.4303 82.8564 34.8276L82.6602 35.2407L82.4629 35.6547C82.4446 35.6933 82.4412 35.7139 82.4404 35.7211C82.4398 35.7269 82.4396 35.7376 82.4453 35.7563L82.5596 36.1342L82.6748 36.5121C82.7856 36.8766 82.8201 37.2606 82.7715 37.6567L82.7236 38.0502L82.6748 38.4448C82.6374 38.7494 82.5807 39.0529 82.5029 39.3549L81.998 41.3061L81.9316 41.558L82.0361 41.6528L82.2744 41.8715C82.4188 42.0034 82.5837 42.1434 82.7686 42.2924L83.3564 42.767C83.3687 42.7769 83.4026 42.803 83.5225 42.8012L83.9902 42.7934L84.458 42.7866C84.8941 42.7798 85.3289 42.8759 85.6787 43.1401L85.8232 43.2631L86.0703 43.5034L86.251 43.6782L86.6094 43.6254L87.0273 43.5629C87.245 43.5304 87.455 43.4792 87.6582 43.4125L88.0576 43.2827L88.457 43.1508C88.7194 43.0647 88.9825 42.9779 89.2441 42.8891L90.04 42.6186C90.1325 42.5871 90.2376 42.5298 90.3584 42.4194L90.7061 42.102L91.0537 41.7836C91.2875 41.5699 91.4924 41.3835 91.6689 41.226L91.9277 40.9955L92.1846 40.7661C92.2193 40.735 92.2846 40.6641 92.3584 40.5161L92.5439 40.143L92.7305 39.768C92.7549 39.7186 92.7756 39.6498 92.7617 39.5346L92.6592 38.6889C92.5958 38.1638 92.7399 37.6303 93.1055 37.1577L93.3799 36.8032L93.6543 36.4496C93.669 36.4307 93.6786 36.4155 93.6836 36.4067C93.6855 36.4033 93.6856 36.3999 93.6865 36.3979L93.6768 36.0424L93.665 35.6811C93.6572 35.4298 93.653 35.1636 93.6523 34.8852V34.4799L93.6504 34.0746C93.6503 34.0301 93.6413 33.9974 93.5977 33.9506L93.3262 33.6577L93.0518 33.3657C92.7599 33.0527 92.5731 32.6688 92.5156 32.226L92.4648 31.8412L92.416 31.4565C92.3819 31.1937 92.3493 30.9294 92.3203 30.6645L92.2783 30.2758L92.2354 29.8871C92.229 29.8288 92.2075 29.7704 92.1396 29.7006L91.8584 29.4106L91.5771 29.1225C91.3144 28.8526 91.0935 28.5112 91.0254 28.0903L90.9873 27.8549L90.7734 27.8657C90.4115 27.8822 90.0586 27.8568 89.7188 27.7895L89.3311 27.7133L88.9434 27.6362C88.4933 27.547 88.116 27.3349 87.8125 27.0375L87.5137 26.7446L87.2148 26.4506C87.2015 26.4375 87.1911 26.4308 87.1855 26.4272C87.1839 26.4261 87.1817 26.4248 87.1807 26.4243H87.1797L86.7559 26.4448L86.333 26.4653C85.8512 26.4881 85.409 26.3774 85.0283 26.145L84.3447 25.727C84.3393 25.7237 84.3351 25.722 84.333 25.7211C84.3291 25.7214 84.3206 25.7227 84.3066 25.726ZM46.7031 26.1254C46.6697 26.2186 46.6624 26.3056 46.6855 26.4057L46.7793 26.81L46.8721 27.2143C46.9997 27.7664 46.8572 28.3315 46.4834 28.8276L46.0098 29.4555L46.1318 29.7133L46.3105 30.0932C46.5659 30.6341 46.4995 31.2372 46.168 31.7924L45.666 32.6342C45.6361 32.6843 45.6292 32.7105 45.6279 32.7162V32.7172L45.7891 33.4741C45.871 33.8567 45.8657 34.2541 45.7734 34.6567L45.5889 35.4575C45.5808 35.4929 45.5766 35.5462 45.623 35.6411L45.9971 36.4028C46.2139 36.8448 46.262 37.36 46.0625 37.8979L45.9189 38.2836L45.7754 38.6703C45.6533 38.9995 45.4946 39.3207 45.3018 39.6332L44.833 40.394C44.7779 40.4834 44.7612 40.5525 44.7617 40.6215L44.7646 41.018L44.7676 41.4164C44.7676 41.4213 44.7673 41.4255 44.7676 41.4282C44.7692 41.4299 44.7724 41.4325 44.7764 41.436L45.3486 41.937C45.3673 41.9532 45.4012 41.9787 45.5078 41.9809L45.9639 41.9897L46.4189 41.9995C46.8612 42.0084 47.2793 42.105 47.6465 42.312L47.9775 42.4975L48.3076 42.684C48.6472 42.8755 48.9306 43.1424 49.167 43.4545L49.3145 43.6508L49.4434 43.5161C49.6698 43.2778 49.9561 43.0741 50.2988 42.9575C50.5545 42.8706 50.8041 42.8456 51.0371 42.8608L51.2646 42.8881L51.7236 42.9731L52.1826 43.0561C52.2301 43.0648 52.2563 43.0638 52.2646 43.0629L52.6348 42.8461L53.0088 42.6274C53.2177 42.5052 53.4249 42.3666 53.6299 42.2133L54.3516 41.6743C54.5864 41.4987 54.7964 41.3385 54.9814 41.1938L55.2715 40.9672L55.5625 40.7397C55.5651 40.7376 55.5693 40.7335 55.5762 40.7241C55.5849 40.7118 55.6026 40.6839 55.6211 40.6352L55.7656 40.2524L55.9102 39.8715C55.9708 39.7116 56.0102 39.5427 56.0244 39.3627L56.0566 38.9575L56.0879 38.5522C56.1233 38.1044 56.2791 37.6719 56.5479 37.2748L56.792 36.9135L57.0361 36.5541C57.0695 36.5048 57.0711 36.4846 57.0693 36.4594L57.041 36.0746L57.0127 35.6918C56.9927 35.4164 56.9823 35.134 56.9795 34.8461L56.9756 34.4418L56.9707 34.0366C56.9701 33.9864 56.9594 33.9488 56.9141 33.8989L56.6455 33.6039L56.3779 33.309C56.0702 32.971 55.897 32.5494 55.8838 32.0678L55.8623 31.2651C55.8566 31.0564 55.8311 30.8588 55.7871 30.6723L55.6992 30.3022L55.6123 29.933C55.5875 29.8279 55.5365 29.7243 55.4453 29.6205L55.1846 29.3227L54.9219 29.0258C54.7095 28.7845 54.5284 28.5231 54.4082 28.2407L54.2939 27.9711L54.2793 27.9379L54.0322 27.9692C53.4714 28.0418 52.9638 27.9085 52.5635 27.5873L52.248 27.3334L51.9316 27.0805C51.8034 26.9776 51.6758 26.9141 51.5498 26.8784L51.1748 26.7719L50.7998 26.6664C50.7045 26.6395 50.5881 26.631 50.4346 26.6577L49.9912 26.7338L49.5488 26.812C49.0306 26.902 48.5349 26.8311 48.1094 26.5854L47.7676 26.3891L47.4277 26.1918C47.257 26.0932 47.0801 26.0168 46.8975 25.9614L46.7744 25.9233L46.7031 26.1254ZM67.4053 0.355896C67.8642 0.221241 68.3294 0.193329 68.7734 0.299255L69.1562 0.391052L69.5391 0.481873C69.7816 0.539717 70.0259 0.593147 70.2715 0.641052L70.6592 0.716248L71.0479 0.791443C71.3403 0.848491 71.627 0.920986 71.9072 1.00824L72.2783 1.12445L72.6504 1.23969C72.9872 1.34458 73.2993 1.49715 73.585 1.69281L73.9111 1.91742L74.2393 2.14105C74.311 2.19021 74.3758 2.20769 74.4531 2.20746L74.8701 2.20648L75.2861 2.20453C75.4232 2.20411 75.5738 2.20687 75.6924 2.22015C75.7249 2.22379 75.7784 2.23072 75.8379 2.24457C75.864 2.25057 76.0361 2.28694 76.1963 2.41156C76.2748 2.47272 76.4264 2.61586 76.4883 2.86371L76.7715 3.02679C77.0437 3.18315 77.2593 3.42574 77.3584 3.75433C77.4529 4.0679 77.4196 4.38655 77.3447 4.65863L77.2188 5.11761L77.1191 5.47504L77.3545 5.6723L77.6797 5.94476C77.9738 6.19158 78.2133 6.48424 78.377 6.82758L78.5381 7.16644L78.6992 7.50629C78.8578 7.83928 78.9431 8.20081 78.957 8.58344L78.9717 8.9848L78.9863 9.38422C78.9933 9.57619 79.0235 9.75383 79.0742 9.91937L79.2949 10.6401C79.3947 10.9656 79.4429 11.3089 79.4443 11.6645L79.4463 12.0727L79.4482 12.4819C79.4503 13.0265 79.2266 13.5369 78.835 13.9623L78.5176 14.308L78.1992 14.6528C78.1703 14.6842 78.1625 14.7015 78.1611 14.7045C78.1601 14.7068 78.1571 14.7134 78.1562 14.7299L78.1172 15.5463C78.0997 15.9032 78.0337 16.2577 77.918 16.6059L77.7891 16.9907L77.6621 17.3764C77.5454 17.7276 77.3786 18.0638 77.165 18.3813L76.9307 18.7299L76.6953 19.0805C76.4237 19.4841 76.0574 19.8044 75.6182 20.0258L75.2354 20.2192L74.8535 20.4116C74.5516 20.5637 74.2429 20.6942 73.9277 20.8032L73.5293 20.9399L73.1318 21.0786C72.7763 21.2014 72.4124 21.2784 72.0439 21.312L71.6191 21.351L71.1943 21.3891C71.12 21.3959 71.0606 21.4181 70.9922 21.4682L70.6309 21.7338L70.2686 21.9985C69.7122 22.4064 69.0897 22.4921 68.5293 22.3432L67.6445 22.1088C67.2359 22.0001 66.867 21.819 66.5645 21.5493L66.2812 21.2973L65.9971 21.0444C65.758 20.831 65.5458 20.5882 65.3594 20.3198L64.9014 19.6606C64.8904 19.6449 64.854 19.5973 64.7002 19.5629L64.207 19.4526L63.7158 19.3432C63.4909 19.293 63.0076 19.1492 62.8135 18.6616C62.5931 18.1073 62.9173 17.5973 63.0967 17.3725L63.3945 16.9975L63.6943 16.6215C63.7019 16.612 63.7066 16.6043 63.71 16.5991L63.665 16.2094L63.6172 15.809C63.5593 15.3152 63.6854 14.8206 63.9736 14.3666L64.2148 13.9877L64.4541 13.6088C64.5157 13.5117 64.5435 13.4249 64.5479 13.3315L64.5664 12.9203L64.585 12.5102C64.589 12.4212 64.5708 12.3265 64.5059 12.2162L64.0801 11.4936C63.813 11.0404 63.7593 10.5022 63.9668 9.94281L64.1182 9.53363L64.2695 9.12543C64.3076 9.02287 64.3113 8.94662 64.2959 8.87543L64.2129 8.49652L64.1309 8.11957C64.0416 7.70896 64.067 7.28117 64.2051 6.85394L64.46 6.06586C64.5163 5.89146 64.548 5.71835 64.5547 5.54437L64.585 4.7514C64.6002 4.35672 64.6952 3.96603 64.8682 3.58734L65.0439 3.20355L65.2197 2.81879C65.2564 2.73845 65.2738 2.68497 65.2812 2.65472C65.2829 2.64812 65.2836 2.64252 65.2842 2.6391L65.2676 2.39594L65.25 2.13519C65.2229 1.73989 65.3922 1.3455 65.7139 1.05023C65.9818 0.804434 66.2931 0.682515 66.5176 0.616638L66.9609 0.486755L67.4053 0.355896ZM48.5527 0.175232L48.6572 0.184998L49.0527 0.233826L49.4482 0.281677C49.6569 0.307181 49.8753 0.316537 50.1025 0.308044L50.5234 0.292419L50.9434 0.275818L51.1562 0.279724C51.6414 0.310897 52.0464 0.512866 52.3535 0.827576L52.9512 1.44086C53.0656 1.5581 53.1676 1.6122 53.251 1.63715L53.623 1.7475L53.9941 1.85883C54.1692 1.91097 54.3555 1.9421 54.5537 1.95355L54.9619 1.97797L55.3711 2.0014C55.6618 2.01819 55.9495 2.04343 56.2334 2.07562L57.0293 2.16547C57.1161 2.17531 57.186 2.18164 57.2393 2.18695C57.4539 2.15913 57.6421 2.19978 57.7783 2.26215C57.9456 2.3389 58.0411 2.44646 58.0811 2.49554C58.1631 2.59629 58.2031 2.69397 58.2139 2.72113C58.2433 2.79518 58.259 2.8663 58.2666 2.89984C58.2849 2.98094 58.302 3.08132 58.3174 3.185L58.3613 3.48285L58.4053 3.78168C58.4405 4.01951 58.4638 4.28563 58.4756 4.57465L58.4912 4.97308L58.5078 5.37347C58.5119 5.47116 58.5387 5.5509 58.5938 5.62836L59.04 6.25531C59.2798 6.5921 59.4138 6.98303 59.4365 7.41254L59.4795 8.20746C59.4844 8.29865 59.5104 8.37493 59.5674 8.45062L60.0342 9.06879C60.2395 9.34123 60.3989 9.64048 60.5088 9.96429L60.6289 10.3198L60.75 10.6762C60.8867 11.0792 60.8991 11.5172 60.7627 11.9653L60.54 12.6938C60.5021 12.8185 60.4794 12.9712 60.4854 13.1577L60.5127 13.9877C60.5313 14.5762 60.2704 15.1182 59.8242 15.5463L59.4727 15.8842L59.1211 16.2202L59.127 16.5991L59.1328 17.0131C59.1385 17.4502 59.0318 17.8835 58.8301 18.3002L58.4238 19.1391C58.2865 19.4225 58.0651 19.7203 57.7217 19.936C57.3746 20.1538 57.0108 20.2197 56.6953 20.2084L56.2559 20.1938L55.8154 20.1772C55.7002 20.1731 55.6283 20.1964 55.5713 20.227L54.8135 20.6352C54.4304 20.8411 54.0253 20.9697 53.6084 21.0219L53.1875 21.0746L52.7656 21.1274C52.7509 21.1292 52.7279 21.13 52.668 21.187L51.9785 21.8412C51.7352 22.0723 51.4101 22.2787 51.0137 22.35C50.6199 22.4208 50.2794 22.3361 50.0166 22.2036L49.6299 22.0082L49.2412 21.812C48.9538 21.6669 48.6875 21.5123 48.4453 21.3471L47.8223 20.9223C47.6019 20.7719 47.3856 20.6157 47.1738 20.4536L46.874 20.2241L46.5752 19.9946C46.4056 19.8647 46.243 19.7593 46.0889 19.6752L45.793 19.5131L45.4971 19.352C45.2387 19.2111 45.0096 18.9797 44.9111 18.6401C44.8168 18.3145 44.8721 17.992 44.9639 17.7328L45.1006 17.3452L45.2373 16.9584C45.3267 16.7062 45.4144 16.4532 45.499 16.2006L45.6289 15.8129L45.7588 15.4262C45.7699 15.3931 45.7823 15.3335 45.7451 15.2211L45.6104 14.8129L45.4746 14.4067C45.3055 13.896 45.3624 13.3402 45.668 12.812L45.8965 12.4174L46.125 12.0219C46.1306 12.0122 46.1336 12.0043 46.1357 11.9995L46.0322 11.6303L45.9277 11.2553C45.7982 10.7927 45.8474 10.307 46.0479 9.83636L46.2227 9.42523L46.3809 9.05511L46.1768 8.71429L45.9609 8.35394C45.6701 7.86801 45.6429 7.27612 45.9541 6.68695L46.3643 5.90961C46.3686 5.90135 46.3706 5.89631 46.3711 5.89496V5.88129C46.3703 5.87373 46.3676 5.86127 46.3623 5.8432L46.2432 5.43597L46.123 5.02972C45.9634 4.4887 46.0666 3.91165 46.4355 3.39105L46.7031 3.0141L46.9697 2.63715C47.0182 2.56879 47.0257 2.52959 47.0244 2.48773L47.0117 2.08148L46.998 1.67426C46.9908 1.44592 47.0225 0.964266 47.4473 0.566833C47.8362 0.203026 48.2813 0.159658 48.5527 0.175232ZM34.3848 0.648865C34.6491 0.553518 34.9546 0.554547 35.2373 0.686951C35.4871 0.803956 35.6385 0.985998 35.7217 1.10883L35.875 1.33441L36.0283 1.56097C36.3946 2.10228 36.2913 2.69466 36.1318 3.09515L35.8311 3.84906C35.6986 4.18152 35.5232 4.49751 35.3096 4.79535L34.7998 5.50629C34.7136 5.62652 34.6752 5.73024 34.6611 5.82367L34.6016 6.21918L34.542 6.61566C34.5127 6.81039 34.5033 7.01225 34.5146 7.22211L34.5361 7.63617L34.5586 8.04926C34.5794 8.43546 34.5368 8.81637 34.4268 9.18597L34.3115 9.57074L34.1973 9.95551C34.148 10.1209 34.1219 10.2923 34.1201 10.4721L34.1162 10.8803L34.1123 11.2875C34.108 11.7285 33.9954 12.1486 33.7842 12.5336L33.583 12.9008L33.3818 13.267C33.3782 13.2737 33.3766 13.278 33.376 13.2797C33.3757 13.2807 33.3751 13.2819 33.375 13.2827C33.3749 13.2839 33.3744 13.2879 33.375 13.2953C33.3756 13.3035 33.3777 13.3174 33.3828 13.3373L33.4922 13.769L33.6025 14.2006C33.7063 14.6079 33.7329 15.0248 33.6631 15.4399L33.5303 16.2289C33.4564 16.6679 33.2725 17.0655 33.0068 17.4155L32.7383 17.768L32.4707 18.1205C32.4195 18.1879 32.4181 18.2215 32.4189 18.2485L32.4443 19.0707C32.4559 19.436 32.4178 19.7968 32.3281 20.1489L32.2295 20.5366L32.1309 20.9252C32.0969 21.0586 32.066 21.1729 32.04 21.2631C32.023 21.3224 31.9858 21.4548 31.9326 21.5659L31.8994 21.6332L31.8066 21.8286L31.6406 21.9672L31.5967 22.0043L31.0576 21.3618L30.9336 21.3364L29.9541 21.1323L29.9746 21.0346L30.0459 20.6948L30.1436 20.6118C30.157 20.5618 30.1743 20.502 30.1924 20.4311L30.292 20.0434L30.3906 19.6547C30.4326 19.4897 30.4511 19.3171 30.4453 19.1342L30.4199 18.312C30.4035 17.7906 30.5721 17.3143 30.8779 16.9116L31.1455 16.558L31.4141 16.2055C31.5052 16.0854 31.5439 15.984 31.5586 15.8969L31.6914 15.1078C31.7101 14.9967 31.7069 14.8618 31.6641 14.6938L31.5547 14.2621L31.4443 13.8315C31.313 13.3158 31.3636 12.787 31.6279 12.3051L31.8291 11.9379L32.0303 11.5717C32.0871 11.4682 32.1112 11.3714 32.1123 11.269L32.1201 10.4526C32.1237 10.0892 32.177 9.73231 32.2803 9.38519L32.3945 9.00043L32.5098 8.61566C32.5524 8.47257 32.5704 8.32119 32.5615 8.15668L32.5166 7.33051C32.4982 6.98952 32.5143 6.65116 32.5645 6.31781L32.624 5.9223L32.6836 5.52582C32.7094 5.35422 32.7521 5.18829 32.8096 5.02875C32.7759 5.04433 32.7433 5.06303 32.709 5.07758L31.9375 5.40375C31.7939 5.46454 31.6794 5.54287 31.585 5.63715L31.3008 5.92035L31.0176 6.20453C30.7914 6.43045 30.5485 6.63777 30.29 6.82562L29.9658 7.06097L29.6416 7.2973C29.4646 7.42597 29.2972 7.5662 29.1406 7.71918L28.8535 7.99945L28.5674 8.27972C28.3001 8.5408 27.9952 8.75684 27.6592 8.92816L27.2822 9.11957L26.9062 9.31195C26.4104 9.56472 25.8757 9.59477 25.3623 9.45258L24.916 9.32953L24.5869 9.23773L24.3467 9.4809L24.0195 9.81097C23.5283 10.3058 22.8388 10.4386 22.2266 10.4487L21.4541 10.4614L21.4414 9.74554L21.3447 9.4975L20.9795 8.56683L21.0723 8.52972L21.2402 8.46429L21.4209 8.46136L22.1943 8.44867C22.3864 8.44546 22.5069 8.42271 22.5742 8.40179C22.5961 8.39498 22.6092 8.38757 22.6162 8.38422L22.9268 8.07269L23.2539 7.74261C23.4675 7.52749 23.7376 7.35181 24.0635 7.26508C24.3081 7.20004 24.5501 7.19448 24.7793 7.22992L25.0039 7.27777L25.4502 7.40179L25.8965 7.52484C25.945 7.53826 25.9695 7.53804 25.9756 7.53754C25.98 7.53714 25.986 7.53588 25.998 7.52972L26.374 7.33832L26.751 7.14594C26.9166 7.06144 27.0538 6.96154 27.1689 6.84906L27.7432 6.28851C27.969 6.06789 28.2105 5.86474 28.4658 5.67914L28.79 5.44281L29.1143 5.20746C29.2882 5.08105 29.4511 4.9417 29.6035 4.78949L29.8877 4.50531L30.1719 4.22211C30.456 3.93833 30.7881 3.7186 31.1582 3.56195L31.9297 3.23578C32.0801 3.17212 32.2021 3.09075 32.3037 2.99359L32.5938 2.71625L32.8828 2.43988C33.0095 2.31876 33.1254 2.17499 33.2285 2.00531L33.4473 1.64496L33.667 1.28461L33.7695 1.13031C33.8083 1.07761 33.8524 1.02384 33.9014 0.972107C33.9943 0.874104 34.1532 0.732495 34.3848 0.648865ZM84.5225 0.154724C84.9631 -0.0652726 85.3657 -0.0155713 85.6455 0.0883179L85.7578 0.136169L86.1182 0.306091L86.4795 0.47699C86.615 0.540986 86.7504 0.573241 86.8896 0.580505L87.293 0.60199L87.6982 0.623474C87.976 0.637969 88.2543 0.654976 88.5322 0.676208L89.3428 0.738708C89.8321 0.77619 90.2494 0.962332 90.584 1.25824L90.8926 1.53168L91.1377 1.74847L91.5459 1.63519L92.0166 1.50531C92.5112 1.36788 93.0093 1.3818 93.4424 1.59613L93.624 1.69965L93.9531 1.91742L94.2832 2.13422C94.3008 2.14585 94.3187 2.15555 94.334 2.16547C94.408 2.17409 94.4672 2.18698 94.5059 2.19867C94.6292 2.23606 94.7162 2.29085 94.7578 2.31879C94.8441 2.37682 94.9076 2.44082 94.9395 2.47406C95.0113 2.54923 95.0835 2.64133 95.1484 2.72894L95.3281 2.97015L95.5068 3.21234C95.7454 3.53416 95.849 3.91738 95.8711 4.30511L95.8926 4.70258L95.915 5.09906C95.9205 5.19489 95.9488 5.27599 96.0068 5.35492L96.2354 5.66547L96.4658 5.97699C96.7337 6.34122 96.8566 6.77419 96.8359 7.24652L96.7998 8.07465C96.7908 8.27975 96.8063 8.46912 96.8418 8.64398L96.9932 9.39203C97.0441 9.64287 97.0955 9.89469 97.1455 10.1459L97.2949 10.8959C97.3353 11.0987 97.3925 11.3019 97.4688 11.5053L97.7441 12.2397C97.9107 12.684 97.9074 13.1731 97.7119 13.6645L97.5605 14.0453L97.4102 14.4252C97.3214 14.6484 97.243 14.8742 97.1758 15.102L97.0605 15.4897L96.9463 15.8784C96.7951 16.3904 96.4674 16.8162 96.0615 17.1528L95.665 17.4819L95.2686 17.81C95.2505 17.825 95.2407 17.8363 95.2363 17.8412C95.2361 17.8425 95.2355 17.8444 95.2354 17.8461L95.1895 18.2914L95.1436 18.7358C95.1145 19.0182 95.0175 19.3596 94.7617 19.6713C94.495 19.9961 94.1471 20.1787 93.8184 20.2641L93.0059 20.475C92.7677 20.5369 92.5315 20.6092 92.2998 20.6918L91.9043 20.8334L91.5078 20.9741C91.2375 21.0704 90.966 21.1655 90.6943 21.2573L89.8984 21.5258C89.5211 21.6532 89.1353 21.7205 88.7471 21.7328L87.8838 21.7602C87.6189 21.7686 87.3759 21.7854 87.1553 21.809L86.7793 21.8491L86.4023 21.8891C85.7738 21.9565 85.2818 21.7073 84.9629 21.308L84.7168 21.0014L84.4727 20.6948C84.3481 20.5388 84.213 20.4062 84.0684 20.2944L83.4707 19.8325C83.3208 19.7167 83.1908 19.6429 83.082 19.5991L82.7861 19.4799L82.4912 19.3618C82.204 19.2461 81.942 19.0262 81.8223 18.6772C81.711 18.3521 81.761 18.0252 81.8389 17.7768L81.96 17.3881L82.083 16.9995C82.1329 16.8402 82.1573 16.6775 82.1572 16.5092L82.1582 16.1127L82.1572 15.7153C82.1571 15.4271 82.1678 15.1384 82.1895 14.851L82.2188 14.4565L82.249 14.061C82.2698 13.7848 82.2966 13.5126 82.3281 13.2446L82.3721 12.8627L82.418 12.4819C82.4509 12.2024 82.4944 11.918 82.5508 11.6293L82.6299 11.2289L82.707 10.8305C82.7376 10.6737 82.7411 10.5238 82.7178 10.3764L82.5977 9.61469C82.5367 9.22867 82.5629 8.83197 82.6709 8.43402L82.7793 8.03168L82.8887 7.62836C82.9183 7.51894 82.9207 7.41758 82.8945 7.31097L82.7998 6.92816L82.707 6.54535C82.5937 6.0839 82.6477 5.5989 82.8721 5.12933L83.0557 4.74652L83.2393 4.36273C83.2623 4.31452 83.2735 4.26567 83.2578 4.185L83.1797 3.7807L83.1006 3.37836C83.0061 2.89435 83.0926 2.40007 83.3076 1.92914L83.5146 1.47504L83.7217 1.01996L83.8311 0.811951C83.9656 0.586366 84.1818 0.324985 84.5225 0.154724ZM39.0908 18.018C39.1364 18.018 39.2475 18.0205 39.3799 18.058C39.4831 18.0873 39.8418 18.2065 40.0254 18.6127C40.2204 19.0446 40.0481 19.4116 39.9805 19.5297C39.9043 19.6625 39.815 19.7478 39.7803 19.7797C39.6905 19.8624 39.5855 19.9254 39.5156 19.9653C39.5345 20.0263 39.5675 20.121 39.623 20.2553L39.7744 20.6225L39.8506 20.8061V21.1049H38.6074L37.9268 21.3871L37.7744 21.02C37.6652 20.7558 37.5695 20.4842 37.5254 20.2377L37.4873 20.0287L37.4502 19.8198C37.4082 19.5845 37.4197 19.2975 37.5605 19.0151C37.6998 18.736 37.9172 18.5579 38.1162 18.4506L38.3096 18.3461L38.3545 18.3227L38.3213 18.269L38.4824 18.1694L38.7246 18.018H39.0908ZM68.0439 2.20648C67.9773 2.19058 67.8889 2.18698 67.7559 2.22601L67.3213 2.35394C67.3282 2.72203 67.2135 3.08428 67.0693 3.39984L66.8955 3.78363L66.7188 4.1684C66.6578 4.30176 66.6272 4.43158 66.6221 4.56488L66.6064 4.96136L66.5918 5.35687C66.5782 5.71089 66.5137 6.06506 66.4004 6.41547L66.2734 6.80902L66.1455 7.20258C66.1139 7.30024 66.1086 7.38835 66.1289 7.48187L66.2119 7.8598L66.2939 8.23773C66.388 8.67056 66.3445 9.11875 66.1807 9.56L66.0293 9.9682L65.8828 10.3578C65.8838 10.3597 65.8855 10.3616 65.8867 10.3637L66.0996 10.725L66.3125 11.0873C66.5314 11.4588 66.6432 11.8791 66.6221 12.3373L66.584 13.1586C66.563 13.6126 66.4165 14.0539 66.1572 14.4623L65.917 14.8403L65.6758 15.2202C65.6431 15.2718 65.6388 15.2988 65.6436 15.3393L65.6914 15.7397L65.7373 16.1411C65.7992 16.6694 65.6268 17.1796 65.291 17.6235L65.4023 17.6489C65.9037 17.7608 66.3484 18.0057 66.6426 18.4291L67.1006 19.0883C67.2189 19.2586 67.3473 19.4046 67.4854 19.5278L67.7695 19.7807L68.0527 20.0327C68.1275 20.0992 68.2409 20.1654 68.4209 20.2133L68.8643 20.3305L69.2578 20.435L69.5361 20.2319L69.8994 19.9662C70.3132 19.663 70.7791 19.4818 71.2705 19.437L71.6953 19.3989L72.1211 19.3598C72.3184 19.3418 72.5029 19.3017 72.6768 19.2416L73.0742 19.1039L73.4707 18.9672C73.6852 18.8931 73.8971 18.8032 74.1045 18.6987L74.8682 18.3139C74.938 18.2787 74.9837 18.238 75.0254 18.1762L75.2617 17.8256L75.4961 17.477C75.596 17.3285 75.6735 17.1737 75.7275 17.0112L75.8545 16.6254L75.9834 16.2407C76.0383 16.0753 76.0709 15.9003 76.0801 15.7133L76.1006 15.3051L76.1201 14.8969C76.1461 14.3676 76.3745 13.8774 76.7529 13.4662L77.0713 13.1205L77.3887 12.7758C77.3999 12.7636 77.4062 12.7548 77.4092 12.7504V12.7485L77.4082 12.3383L77.4053 11.9301C77.4045 11.7409 77.3794 11.5701 77.332 11.4155L77.2207 11.0561L77.1104 10.6957C77.0138 10.381 76.9616 10.0509 76.9492 9.70941L76.9346 9.31L76.9199 8.90961C76.9145 8.75928 76.8826 8.62779 76.8262 8.50922L76.502 7.83148C76.4503 7.72313 76.3657 7.60867 76.2285 7.49359L75.5811 6.95062C75.0967 6.54432 74.9509 5.94886 75.125 5.31586L75.251 4.8559L75.3203 4.60492L75.2441 4.56195L74.9248 4.37933C74.8343 4.32743 74.7157 4.25379 74.6104 4.16644L74.6064 4.16742L74.1904 4.16937C73.7126 4.17076 73.2815 4.03818 72.917 3.78851L72.5908 3.56488L72.2627 3.34027C72.112 3.2371 71.9574 3.16309 71.7988 3.11371L71.4277 2.9975L71.0557 2.88226C70.8406 2.81529 70.6203 2.76009 70.3955 2.71625L70.0068 2.64105L69.6201 2.56488C69.3484 2.51188 69.0778 2.45307 68.8096 2.3891L68.0439 2.20648ZM50.332 2.2514L49.9111 2.26703C49.6221 2.2778 49.3386 2.26847 49.0605 2.24066C49.0599 2.71529 48.8999 3.17419 48.6064 3.58832L48.3398 3.96527L48.0996 4.30316L48.21 4.67816L48.3301 5.08344C48.474 5.57067 48.4271 6.09677 48.1582 6.6059L47.9531 6.99457L47.8008 7.27972L47.9775 7.57562L48.1943 7.93695C48.4765 8.40831 48.5153 8.97096 48.2715 9.5434L48.0957 9.95453L47.9209 10.3657C47.8881 10.4426 47.8901 10.4817 47.9004 10.519L48.1113 11.27C48.2537 11.7784 48.1588 12.3072 47.877 12.7944L47.6484 13.1889L47.4219 13.5786C47.4228 13.5825 47.4236 13.5886 47.4258 13.5952L47.6953 14.4096C47.8379 14.8403 47.8544 15.3116 47.6924 15.7953L47.5625 16.183L47.4326 16.5698C47.3441 16.834 47.2527 17.0989 47.1592 17.3627L47.0225 17.7495L47.0059 17.7963L47.2627 17.937C47.5032 18.068 47.7382 18.2231 47.9678 18.3989L48.5674 18.8578C48.755 19.0015 48.9467 19.1399 49.1416 19.2729L49.7646 19.6977C49.9376 19.8157 50.1379 19.9336 50.3672 20.0493L50.7549 20.2446L50.8857 20.311L50.9912 20.2114L51.3359 19.8842C51.7348 19.5054 52.2231 19.2525 52.7695 19.184L53.6113 19.0776C53.7555 19.0595 53.8846 19.0173 54.0068 18.9516L54.7656 18.5453C55.2137 18.3045 55.6875 18.2014 56.1582 18.2182L56.5986 18.2338L56.7275 18.2377L56.7979 18.0932L57.001 17.6733C57.0696 17.5313 57.0962 17.4093 57.0947 17.2953L57.0889 16.8823L57.084 16.4682C57.0765 15.8845 57.3392 15.3505 57.7793 14.9282L58.1318 14.5912L58.4727 14.2621L58.4619 13.8891L58.4482 13.4741C58.4366 13.1074 58.4791 12.74 58.5889 12.3793L58.7002 12.0151L58.8105 11.6498C58.8218 11.6126 58.8276 11.5702 58.8037 11.4995L58.5615 10.7866C58.5104 10.636 58.4344 10.4907 58.3291 10.351L58.0967 10.0424L57.8633 9.73285C57.6097 9.39643 57.4656 9.00131 57.4424 8.56293L57.4229 8.16547L57.4014 7.76801C57.3961 7.66781 57.3671 7.58428 57.3096 7.50336L56.8633 6.8764C56.6212 6.53636 56.4885 6.1408 56.4707 5.70648L56.4541 5.30707L56.4385 4.90765C56.4285 4.66432 56.4094 4.46467 56.3857 4.30511L56.3545 4.09222L56.1338 4.06781L55.7354 4.02289C55.4886 3.99491 55.2376 3.97311 54.9834 3.95844L54.166 3.91156C53.8195 3.89154 53.4849 3.83396 53.165 3.73871L52.793 3.62836L52.4229 3.51801C52.0113 3.39541 51.666 3.1705 51.3818 2.87933L50.7832 2.26605C50.7657 2.24819 50.7524 2.23976 50.7461 2.23578L50.332 2.2514ZM85.1572 2.51019C85.096 2.6444 85.0961 2.72233 85.1064 2.77582L85.1855 3.18011L85.2637 3.58246C85.3528 4.03898 85.2945 4.51577 85.0732 4.97894L84.8906 5.36176L84.707 5.74554C84.6872 5.78715 84.6824 5.81411 84.6943 5.86273L84.7891 6.24554L84.8828 6.62738C84.9821 7.03116 84.9734 7.45478 84.8574 7.88226L84.748 8.28461L84.6396 8.68793C84.602 8.82668 84.5941 8.95286 84.6133 9.07465L84.7344 9.83636C84.7913 10.1965 84.783 10.5665 84.71 10.9409L84.5537 11.7387C84.5064 11.9808 84.4693 12.2165 84.4424 12.4448L84.3975 12.8266L84.3535 13.2075C84.3252 13.4477 84.3011 13.6943 84.2822 13.9448L84.2529 14.3393L84.2236 14.7348C84.2057 14.974 84.1962 15.2151 84.1963 15.4565V16.2504C84.1965 16.6116 84.1416 16.9734 84.0293 17.3315L83.9102 17.7094L84.0723 17.7748C84.3569 17.8896 84.6223 18.0501 84.8701 18.2416L85.4668 18.7036C85.7199 18.8992 85.9478 19.124 86.1494 19.3764L86.3945 19.683L86.5869 19.9243L86.8193 19.8998L87.1963 19.8608C87.4779 19.8306 87.7754 19.8101 88.0859 19.8002L88.5176 19.7875L88.9492 19.7729C89.1364 19.7669 89.3045 19.7359 89.458 19.684L89.8564 19.5493L90.2539 19.4145C90.5132 19.327 90.7723 19.2369 91.0303 19.145L91.8232 18.8627C92.12 18.757 92.4211 18.6642 92.7246 18.5854L93.1299 18.4799L93.1484 18.475L93.1611 18.3569L93.207 17.9106C93.2682 17.3172 93.5797 16.7967 94.0596 16.3989L94.4561 16.0698L94.8525 15.7416C94.9753 15.6398 94.9886 15.5859 94.9902 15.5805L95.1045 15.1928L95.2197 14.8051C95.3052 14.5155 95.4036 14.2277 95.5166 13.9438L95.8193 13.183C95.8251 13.1686 95.826 13.162 95.8262 13.1596C95.8262 13.1575 95.8264 13.1422 95.8154 13.1127L95.54 12.3784C95.433 12.0928 95.3492 11.8013 95.29 11.5043L95.2148 11.1293L95.1406 10.7543C95.0911 10.5054 95.0407 10.2558 94.9902 10.0073L94.915 9.63324L94.8379 9.25824C94.772 8.93406 94.7485 8.59752 94.7637 8.2514L94.7812 7.83734L94.7998 7.42328C94.8032 7.3448 94.7867 7.29458 94.75 7.24457L94.292 6.6225C94.0449 6.28683 93.9045 5.89454 93.8799 5.46136L93.8574 5.06488L93.8359 4.66742C93.8282 4.53298 93.7979 4.48896 93.7949 4.4848L93.6152 4.24164L93.498 4.08539C93.4916 4.08301 93.4855 4.08051 93.4805 4.07855C93.4073 4.05018 93.3422 4.01696 93.2998 3.99359C93.2084 3.9432 93.1013 3.87417 92.9863 3.79828L92.6553 3.58051L92.3525 3.37933C92.3478 3.38042 92.3423 3.38245 92.3359 3.38422L91.8652 3.51508L91.3955 3.64594C90.7732 3.81891 90.169 3.72489 89.7168 3.32465L89.4092 3.05219L89.1006 2.77972C89.0254 2.71329 88.968 2.6977 88.918 2.69379L88.1074 2.63129C87.8456 2.61128 87.5836 2.59415 87.3223 2.58051L86.918 2.56L86.5127 2.53851C86.1129 2.5176 85.7384 2.42233 85.3936 2.25922L85.293 2.21234L85.1572 2.51019ZM38.3779 18.3588C38.3412 18.3982 38.2903 18.4568 38.2451 18.5356C38.2339 18.5552 38.2223 18.5838 38.207 18.6176C38.1658 18.7092 38.1175 18.8484 38.1152 19.018H38.7881L38.3779 18.3588ZM15.8457 10.392C16.0094 10.3921 16.2445 10.4032 16.4717 10.4819C16.6896 10.5575 17.2439 10.8431 17.2441 11.5307V11.8442L17.1846 12.0092L17.085 12.2856L16.2441 11.9809V12.9457H14.7197L14.9102 12.4174C14.868 12.4321 14.8184 12.4551 14.7607 12.4897L14.3604 12.7289L13.9609 12.9692C13.5763 13.1999 13.15 13.3477 12.6934 13.3696L12.2939 13.3891L11.8936 13.4077C11.523 13.4253 11.155 13.3854 10.7939 13.2914L10.3945 13.1879L9.99414 13.0834C9.7696 13.025 9.54643 12.9826 9.3252 12.9555L8.52441 12.8578C8.34682 12.8362 8.16966 12.8386 7.99121 12.8647L7.59082 12.9233L7.19141 12.9819C6.76419 13.0445 6.33962 13.0026 5.93164 12.8676L5.53223 12.7348L5.13184 12.603C5.00512 12.561 4.89352 12.5527 4.78613 12.5678L4.38574 12.6245L3.98633 12.6811C3.8276 12.7035 3.65622 12.7535 3.47168 12.8403L3.07129 13.0287L2.67188 13.2162C2.02871 13.5188 1.31563 13.3694 0.75 13.1606L0 12.8842L0.246094 12.2153V10.9457H0.524414L0.692383 11.0073L1.44238 11.2846C1.63631 11.3562 1.76421 11.3806 1.83594 11.3862C1.84674 11.387 1.85572 11.3871 1.8623 11.3871L2.2207 11.2182L2.62012 11.0307C2.9686 10.8668 3.33176 10.7535 3.70605 10.7006L4.10645 10.644L4.50586 10.5873C4.93151 10.5273 5.35446 10.5691 5.76074 10.7036L6.16016 10.8364L6.56055 10.9692C6.68554 11.0105 6.79554 11.0179 6.90137 11.0024L7.30078 10.9438L7.70117 10.8852C8.05558 10.8333 8.41231 10.8291 8.76758 10.8725L9.16699 10.9213L9.56738 10.9702C9.87908 11.0082 10.1897 11.0676 10.498 11.1479L10.8984 11.2524L11.2979 11.3559C11.4698 11.4006 11.6364 11.4183 11.7988 11.4106L12.1982 11.3911L12.5986 11.3715C12.6751 11.3677 12.7836 11.3431 12.9316 11.2543L13.332 11.0141L13.7314 10.7739C14.1271 10.5366 14.5699 10.3919 15.0459 10.392H15.8457Z" fill="#FB6107"/>
</svg>
