<svg width="267" height="61" viewBox="0 0 267 61" fill="none" xmlns="http://www.w3.org/2000/svg">
<path d="M213.611 1.08206C214.162 0.441397 215.001 -0.115057 216.051 0.0205383L216.265 0.0576477L217.519 0.325226C218.166 0.463545 218.756 0.744258 219.278 1.14749L220.337 1.96487C220.5 2.09112 220.645 2.14663 220.785 2.16702L222.021 2.34769C222.52 2.42055 223.011 2.53612 223.494 2.69437L224.703 3.09085C225.734 3.42908 226.279 4.2728 226.478 5.15628L226.721 6.23538L228.062 6.16312C228.317 6.14923 228.523 6.1364 228.682 6.12698L229.243 5.08011L229.342 4.91116C229.587 4.52415 229.942 4.19602 230.408 3.99612C230.918 3.77771 231.439 3.76504 231.888 3.83206L233.462 4.06644C233.862 4.12614 234.1 4.10316 234.22 4.07327L235.267 3.81253C235.288 3.79068 235.327 3.74769 235.375 3.66995L236.186 2.35257C236.64 1.61593 237.369 1.01082 238.385 0.941437L239.621 0.856476C240.044 0.827653 240.411 0.808475 240.715 0.799835L241.547 0.776398C241.708 0.77184 241.93 0.771464 242.147 0.807648C242.242 0.823435 242.468 0.865892 242.709 1.00003C242.852 1.0797 243.093 1.25306 243.273 1.53616L244.354 2.06155C244.473 2.11925 244.572 2.13259 244.684 2.11819L245.908 1.96097C246.276 1.91354 246.683 1.8454 247.131 1.75589L248.557 1.47073L248.772 1.43655C249.283 1.37942 249.859 1.47546 250.363 1.86722C250.886 2.27362 251.125 2.84132 251.242 3.29593L251.61 4.72659L252.609 4.67972C253.289 4.64719 253.955 4.74033 254.586 4.98636L255.825 5.47073C256.621 5.78168 257.216 6.36824 257.54 7.15823L258.046 8.39163C258.204 8.77792 258.365 9.14302 258.53 9.48636L259.065 10.6016C259.094 10.6617 259.152 10.7466 259.324 10.8438L260.538 11.5293C261.312 11.9663 261.819 12.6801 261.931 13.5703L261.949 13.75L262.037 15.0918C262.066 15.5402 262.094 15.9761 262.121 16.3975L262.198 17.6299C262.207 17.6396 262.221 17.6554 262.245 17.6748L263.343 18.5782C263.901 19.0374 264.335 19.6236 264.554 20.3399L264.917 21.5215C265.055 21.9727 265.165 22.431 265.248 22.8955L265.466 24.1114C265.585 24.7815 265.523 25.4485 265.312 26.0879L264.917 27.2862L265.721 28.459C266.057 28.9492 266.246 29.5985 266.051 30.2998C265.878 30.9261 265.457 31.367 265.089 31.6592L264.167 32.3897L264.911 33.1787C265.229 33.5161 265.555 33.9815 265.662 34.5752C265.779 35.2279 265.595 35.8312 265.249 36.3057L264.44 37.4121C264.193 37.7505 263.973 38.0785 263.779 38.3955L263.127 39.4619C263.122 39.4699 263.12 39.4752 263.12 39.4766C263.12 39.4772 263.118 39.4783 263.118 39.4805C263.117 39.4842 263.113 39.516 263.128 39.586L263.4 40.9287C263.56 41.7146 263.451 42.5193 262.992 43.2315L262.321 44.2705C261.965 44.8221 261.49 45.2673 260.935 45.6143L260.084 46.1465L260.4 47.5342C260.593 48.3835 260.52 49.3802 259.78 50.1612L258.922 51.0664C258.719 51.2806 258.539 51.52 258.385 51.7871L257.75 52.8907C257.423 53.4588 256.98 53.9323 256.433 54.295L255.377 54.9961C254.842 55.3511 254.248 55.5799 253.615 55.6914L252.378 55.9082L251.728 57.2461C251.53 57.655 251.231 58.0562 250.789 58.3477C250.338 58.6451 249.835 58.764 249.346 58.7559L247.987 58.7334C247.385 58.7234 246.794 58.6242 246.219 58.4395L245.21 58.1143L244.243 59.2539C243.645 59.9582 242.724 60.4951 241.593 60.2305L240.338 59.9366C239.603 59.7645 238.977 59.3763 238.467 58.8477L237.551 57.8985L236.355 58.2041C235.862 58.3297 235.267 58.3341 234.695 58.0313C234.142 57.7381 233.815 57.264 233.625 56.835L233.227 55.9405L231.844 56.3457C231.4 56.4757 230.83 56.5573 230.247 56.377C229.599 56.1766 229.148 55.7205 228.894 55.1817L228.399 54.128L227.343 54.6621C226.936 54.8673 226.528 55.0556 226.121 55.2276L224.995 55.7032C224.522 55.9026 224.033 56.0501 223.531 56.1446L222.342 56.3682C222.253 56.3848 222.176 56.4202 222.084 56.5117L221.193 57.3994C220.628 57.9622 219.9 58.281 219.081 58.2774L217.88 58.2715C217.841 58.2714 217.756 58.2788 217.6 58.3907L216.478 59.1953C216.096 59.4693 215.617 59.6732 215.063 59.6826C214.51 59.6919 214.026 59.5046 213.636 59.2471L212.476 58.4805C212.472 58.478 212.469 58.4756 212.466 58.4737L211.219 58.8213C210.53 59.0132 209.816 59.0131 209.123 58.7793L207.964 58.3887C207.529 58.2421 207.101 58.0731 206.683 57.8828L205.568 57.375C205.156 57.1873 204.751 56.9814 204.355 56.7569L203.283 56.1485C202.801 55.8748 202.365 55.5366 201.98 55.1377L201.124 54.251C201.036 54.1605 200.941 54.0712 200.84 53.9815C200.738 54.7959 200.368 55.624 199.515 56.1221L198.42 56.7617C197.73 57.1645 196.966 57.28 196.21 57.1934L194.742 57.0244C194.726 57.0227 194.713 57.023 194.702 57.0225L193.823 57.8604C193.276 58.3813 192.596 58.6996 191.826 58.7559L190.611 58.8448C190.389 58.861 190.158 58.9168 189.917 59.0244L188.742 59.5479C188.293 59.7477 187.788 59.8265 187.266 59.7266C186.76 59.6295 186.339 59.3841 186.005 59.0996L185.062 58.2989L183.947 58.8731C183.215 59.2495 182.363 59.3938 181.502 59.0879L180.327 58.67C179.927 58.5278 179.526 58.3818 179.126 58.2315L177.947 57.7891C177.012 57.4385 176.473 56.6777 176.224 55.8506L175.775 54.3604C175.667 54.0007 175.551 53.8231 175.483 53.7461L174.935 53.126L173.989 53.3428L173.5 54.5303C173.117 55.4581 172.34 56.04 171.36 56.1719L169.976 56.3584C169.45 56.4292 168.929 56.4633 168.415 56.46L167.093 56.4512C166.917 56.4501 166.847 56.4893 166.814 56.5117L165.857 57.17C165.621 57.3326 165.359 57.5484 165.075 57.8252L164.075 58.7998C163.707 59.1585 163.192 59.4556 162.549 59.4785C161.929 59.5005 161.411 59.2599 161.03 58.9893L160.081 58.3155L159.109 59.127C158.454 59.6738 157.593 60.0356 156.616 59.8399L155.381 59.5918C154.626 59.4406 153.989 59.052 153.485 58.501L152.553 57.4825C152.255 57.1557 151.972 56.8573 151.704 56.5869L150.853 55.7276C150.718 55.5907 150.575 55.5011 150.419 55.4424L149.32 55.0313C148.965 54.8983 148.591 54.7627 148.201 54.626L147.002 54.2061C146.518 54.0369 146.051 53.8249 145.6 53.5723L144.884 53.1709L144.455 53.5909C144.413 53.6318 144.31 53.7606 144.214 54.0811L143.775 55.542C143.549 56.2939 143.12 56.9767 142.423 57.4424L141.364 58.1485C140.743 58.5627 140.04 58.7548 139.305 58.7422L137.964 58.7188C137.453 58.7099 136.953 58.6694 136.465 58.5948L135.362 58.4248C135.354 58.4326 135.344 58.4412 135.335 58.4512L134.208 59.6436C133.864 60.0067 133.318 60.4013 132.579 60.416C131.837 60.4307 131.276 60.0561 130.919 59.7032L129.757 58.5557C129.597 58.3985 129.509 58.3599 129.491 58.3535L128.355 58.253C127.622 58.1872 126.974 57.884 126.443 57.4004L125.531 56.5694C125.329 56.3858 125.137 56.2607 124.956 56.1778L123.944 55.7149C123.714 55.6094 123.447 55.52 123.138 55.4522L121.934 55.1866C121.296 55.0462 120.714 54.7602 120.219 54.3223L119.374 53.5733L118.981 53.6026L118.583 54.6748C118.287 55.4717 117.719 56.1098 116.892 56.4434L115.691 56.9278C115.206 57.1234 114.708 57.2737 114.198 57.376L112.945 57.627C112.554 57.7054 112.179 57.7915 111.822 57.8848L110.661 58.1885C110.296 58.2838 109.934 58.3876 109.575 58.4991L108.431 58.8535C108.016 58.9825 107.592 59.0986 107.16 59.2002L105.964 59.4815C105.55 59.5787 105.124 59.6725 104.686 59.7627L103.41 60.0254C102.823 60.1462 102.23 60.1689 101.636 60.0918L100.356 59.9258C99.6237 59.8305 98.9689 59.5239 98.4177 59.044L97.4031 58.1612C96.9325 57.7513 96.5421 57.268 96.2322 56.7217L95.6052 55.6162L94.3503 55.5498C93.9086 55.5264 93.4424 55.4074 93.0183 55.128C92.5892 54.8451 92.2907 54.4553 92.1013 54.0332L91.7126 53.168L90.6189 53.208C90.3327 53.2184 90.1578 53.2762 90.0525 53.3321L89.2156 53.7764C89.2078 53.8133 89.1969 53.8598 89.1902 53.918L88.9783 55.7559C88.8763 56.6369 88.486 57.6336 87.4548 58.1328L86.2937 58.6944C85.4893 59.0834 84.6385 59.0644 83.8581 58.8086L82.3874 58.3272C82.0129 58.2044 81.7522 58.1734 81.5857 58.1787L80.4206 58.2168C80.0805 58.228 79.7457 58.2557 79.4167 58.2989L78.281 58.4483C77.9181 58.4959 77.5451 58.5505 77.1628 58.6123L75.9734 58.8047C75.6168 58.8624 75.2305 58.9393 74.8152 59.0371L73.4792 59.3526C73.0173 59.4614 72.5062 59.4616 72.0017 59.2744C71.5021 59.0889 71.1208 58.7613 70.8406 58.3975L69.9656 57.2617C69.914 57.1948 69.8806 57.172 69.8728 57.167C69.8694 57.1649 69.8676 57.1635 69.8669 57.1631C69.8666 57.163 69.8631 57.1615 69.8552 57.1602L68.6003 56.9619C67.922 56.8547 67.3001 56.5789 66.7712 56.1309L65.8386 55.3409C65.5272 55.0771 65.2174 54.8139 64.9089 54.5518L64.612 54.2989C64.3768 54.484 64.1195 54.644 63.8806 54.7793L62.781 55.4024C62.4363 55.5976 62.1016 55.7981 61.7781 56.0039L60.74 56.6641C60.3461 56.9147 59.9379 57.1425 59.5183 57.3467L58.4128 57.8848C57.879 58.1445 57.3112 58.3016 56.7195 58.3555L55.4783 58.4688C55.0735 58.5057 54.679 58.545 54.2956 58.5869L53.116 58.7159C52.9646 58.7324 52.7717 58.7892 52.531 58.9307L51.3464 59.627C50.6401 60.0422 49.8305 60.1897 49.0017 59.9737L47.7761 59.6543C47.2706 59.5225 46.7835 59.3419 46.3181 59.1123L45.1999 58.5606C44.9812 58.4527 44.7515 58.3849 44.5046 58.3555L43.2585 58.2071C42.7626 58.1482 42.2709 58.0493 41.7849 57.9112L40.5505 57.5606C39.6915 57.3164 39.0627 56.7379 38.6892 55.9756L38.0759 54.7227C37.903 54.3697 37.7253 54.0732 37.5476 53.8272L37.4216 53.6524L37.3288 53.7285C36.8193 54.1433 36.2226 54.3985 35.5935 54.5342L34.4831 54.7735L34.0652 56.2295C33.9412 56.6614 33.7246 57.1126 33.3513 57.4844C32.9634 57.8704 32.4829 58.0944 31.9743 58.1729L30.6618 58.375C29.9182 58.4896 29.1879 58.3733 28.5017 58.0987L27.1863 57.5723L26.3689 58.2647C25.7199 58.8144 24.8968 59.0753 24.0085 58.8965L22.824 58.6582C22.8299 58.6593 22.8295 58.6577 22.8122 58.6612C22.7895 58.6658 22.7298 58.6819 22.6316 58.7383L21.3464 59.4776C20.5742 59.9214 19.6513 60.0575 18.7478 59.6416L17.5867 59.1075C16.8922 58.7877 16.359 58.2676 15.9704 57.6377L15.2585 56.4844L14.1062 56.5049C13.3572 56.5178 12.6296 56.3095 12.0124 55.8252L11.0671 55.083C10.8576 54.9187 10.6133 54.7725 10.3288 54.6475L9.15306 54.1309C8.68589 53.9257 8.28469 53.5877 8.01341 53.1201C7.75284 52.671 7.66074 52.1876 7.65111 51.7471L7.62572 50.6104L6.42845 50.3877C5.95294 50.299 5.37861 50.0792 4.95677 49.5586C4.52015 49.0197 4.43367 48.3911 4.48314 47.8731L4.62572 46.376C4.62865 46.345 4.62789 46.3211 4.62767 46.3037L3.82884 45.4678C3.39766 45.0157 3.0752 44.4872 2.87767 43.8926L2.50169 42.7598C2.33756 42.2657 2.23427 41.7566 2.1931 41.2354L2.09837 40.0284C2.08325 39.8372 2.03103 39.6601 1.93626 39.4854L1.35423 38.4121C1.0519 37.855 0.883537 37.2504 0.861069 36.6153L0.819077 35.42C0.800763 34.9013 0.844088 34.3843 0.947983 33.8721L1.19115 32.6739C1.19463 32.6565 1.19417 32.6495 1.1931 32.6436C1.19154 32.6351 1.18411 32.6018 1.14915 32.541L0.480209 31.3809C0.0409897 30.618 -0.0488603 29.7419 0.302475 28.8936L0.78685 27.7256C0.895561 27.4631 0.954478 27.2186 0.976303 26.9903L1.08763 25.8242C1.09452 25.7506 1.08783 25.5987 0.97142 25.3409L0.374741 24.0196C0.0838453 23.3751 -0.0580774 22.6789 0.0222015 21.958L0.159897 20.7207C0.250225 19.9115 0.635351 19.229 1.20287 18.6992L2.21751 17.753C2.39201 17.59 2.45784 17.4596 2.48607 17.3662L2.83372 16.2159C2.8938 16.017 2.93066 15.76 2.91771 15.4287L2.86205 14.0186C2.82534 13.0741 3.20977 12.2143 4.01244 11.6446L5.10619 10.8682C5.24748 10.7678 5.32031 10.6666 5.36595 10.5528L5.84056 9.36624C6.03938 8.86987 6.29016 8.39997 6.59154 7.95901L7.31126 6.90726C7.68178 6.36535 8.16023 5.92735 8.73119 5.60452L9.85326 4.97073C10.2315 4.75688 10.6058 4.54743 10.9753 4.34378L12.0701 3.74124C12.7638 3.35906 13.5238 3.26377 14.2702 3.36722L15.4314 3.52737L16.0808 2.38675L16.1745 2.23245C16.4079 1.8724 16.7496 1.51382 17.2419 1.29984C17.7522 1.0783 18.2665 1.0798 18.7146 1.19046L18.9031 1.24417L20.241 1.68069C20.2745 1.69162 20.2979 1.69543 20.3113 1.6973C20.3174 1.69817 20.3222 1.69913 20.3249 1.69925H20.3269C20.3289 1.69844 20.3329 1.69679 20.3376 1.69437L21.49 1.10355C22.1025 0.789867 22.7692 0.641343 23.4636 0.687531L24.6911 0.769562C25.0624 0.794249 25.4436 0.80544 25.8337 0.802765L27.1101 0.793976C28.1505 0.786964 28.9383 1.35047 29.4304 2.11136L30.0945 3.1387L31.3777 2.84573C32.1415 2.67124 32.9689 2.71559 33.7077 3.16312L33.8542 3.25784L34.8962 3.97855C35.5778 4.44961 35.9977 5.1268 36.2058 5.88089L36.3855 6.53323C36.461 6.49591 36.5637 6.4367 36.6911 6.34085L37.6648 5.60843C38.0801 5.29625 38.5268 5.03418 39.0017 4.82327L40.116 4.32816C40.3244 4.23552 40.517 4.10697 40.697 3.9346L41.6023 3.06839C42.2057 2.49088 42.9685 2.21332 43.7888 2.24124L45.0788 2.28519C45.4022 2.29618 45.6867 2.2716 45.9353 2.21976L47.0701 1.98245C47.4765 1.8977 47.8868 1.82458 48.2995 1.76273L49.4548 1.58987C49.7314 1.54837 50.036 1.4719 50.3689 1.35257L51.6091 0.907257C52.3629 0.637134 53.152 0.665394 53.8767 1.01859L54.0212 1.09378L55.1365 1.71194C55.1953 1.74448 55.2789 1.77423 55.4509 1.75003L56.8357 1.55472C57.756 1.42538 58.6138 1.72747 59.2253 2.42581L59.3435 2.57034L60.1785 3.6553C60.3705 3.90478 60.5604 4.07869 60.741 4.19925L61.7419 4.86722C61.9422 5.00089 62.1901 5.11981 62.4968 5.21487L63.7829 5.61331C63.9696 5.67116 64.1518 5.74212 64.3279 5.82327C64.4127 5.41199 64.6063 4.95199 65.0251 4.58694C65.5426 4.13617 66.151 4.04692 66.6355 4.07816L66.8347 4.09866L68.2654 4.29202L68.8161 3.31644C69.1667 2.6949 69.6521 2.17413 70.282 1.81253L71.3923 1.17484C72.239 0.688992 73.1562 0.723036 73.9656 1.06546L75.24 1.6055L76.2888 0.839874C76.7318 0.516429 77.3453 0.284679 78.0456 0.428741C78.6926 0.561963 79.1511 0.964128 79.449 1.32132L80.2283 2.25589L81.2146 1.61331C81.6017 1.36072 82.1353 1.12212 82.7644 1.16019C83.3573 1.1962 83.8346 1.46432 84.1843 1.8096L84.3269 1.96194L85.2331 3.01663C85.3356 3.13585 85.3936 3.14694 85.4245 3.15237L86.657 3.36917C87.5799 3.53135 88.2668 4.10306 88.6579 4.89651L89.2341 6.06546L90.3347 6.3096C90.5769 6.07527 90.852 5.93094 91.0398 5.84476C91.2634 5.74217 91.5119 5.65487 91.7654 5.57913L93.0574 5.19339C93.5583 5.04374 94.0635 4.93281 94.571 4.86234L95.8601 4.68362C96.075 4.65368 96.2033 4.59129 96.2878 4.52933L97.2175 3.84769C97.6073 3.56192 98.0233 3.3164 98.4626 3.11234L99.5134 2.62405C100.07 2.36548 100.665 2.24063 101.278 2.25003L102.446 2.26761C102.59 2.26976 102.746 2.24001 102.928 2.15335L104.056 1.61819C104.582 1.36895 105.137 1.21054 105.714 1.14749L106.937 1.0137L107.109 1.00003C107.962 0.958252 108.705 1.30781 109.267 1.87894L110.241 2.86722C110.439 3.06868 110.588 3.14742 110.679 3.17874L111.745 3.54495C111.76 3.54847 111.896 3.57638 112.223 3.49612L113.804 3.10843C114.265 2.99557 114.853 2.95814 115.434 3.2178C116.044 3.49019 116.414 3.98353 116.614 4.47366L117.16 5.81155C117.17 5.83552 117.179 5.85163 117.185 5.86234L118.391 6.29495C118.8 6.44137 119.174 6.57584 119.513 6.6973L120.296 6.97659L120.955 6.49319C120.974 6.44724 121.006 6.35527 121.032 6.19827L121.318 4.44437C121.393 3.98657 121.569 3.44214 121.987 2.99808C122.445 2.51283 123.039 2.30796 123.616 2.30179L124.996 2.28714C125.527 2.28154 126.049 2.3143 126.559 2.38675L127.853 2.57034C127.965 2.58608 128.007 2.5674 128.046 2.54398L129.103 1.91019L129.253 1.8262C129.953 1.46093 130.72 1.43049 131.441 1.70316L131.594 1.76663L132.695 2.25198L133.898 1.63675C134.444 1.35736 135.022 1.16692 135.625 1.06937L136.963 0.85257L137.143 0.829132C137.984 0.745429 138.753 1.03615 139.336 1.62698L139.458 1.75784L140.377 2.80472C140.518 2.96518 140.633 3.02465 140.726 3.05179L141.922 3.40042C142.667 3.61793 143.273 4.0727 143.701 4.70804L144.418 5.77054C144.657 6.12592 144.873 6.49076 145.069 6.86234L145.218 6.72073C145.658 6.29616 146.136 5.93653 146.654 5.66702L147.76 5.09085C148.274 4.82352 148.822 4.6434 149.396 4.54886L150.662 4.33987C150.914 4.29826 151.103 4.22451 151.248 4.13577L152.231 3.53421C152.78 3.19824 153.388 3.01639 154.029 2.98929L155.203 2.93948C155.42 2.93023 155.617 2.88542 155.802 2.80765L156.862 2.36331C157.265 2.19413 157.683 2.04411 158.113 1.91409L159.261 1.56741C159.683 1.44009 160.12 1.32688 160.57 1.22757L161.816 0.952179L161.994 0.918976C162.411 0.856095 162.847 0.893208 163.269 1.05862C163.74 1.24304 164.107 1.55213 164.385 1.88773L165.318 3.01566C165.397 3.11142 165.456 3.15834 165.486 3.17874C165.499 3.1873 165.507 3.19159 165.511 3.19339L166.635 3.43948C167.01 3.52181 167.398 3.60749 167.798 3.69632L168.992 3.96194C169.891 4.16214 170.543 4.75099 170.903 5.53812L171.293 6.3887L172.4 6.29593C172.583 5.83712 172.945 5.54935 173.158 5.41995C173.482 5.2226 173.846 5.12291 174.126 5.06253L175.49 4.76761C175.702 4.72181 175.813 4.64794 175.885 4.57816L176.775 3.70511C177.204 3.28438 177.699 2.95231 178.252 2.71683L179.389 2.23148C180.158 1.90399 180.958 1.92659 181.7 2.16702L183.083 2.61526C183.378 2.71101 183.537 2.70232 183.598 2.69144L184.695 2.49808C184.703 2.49641 184.831 2.46701 185.077 2.24612L186.227 1.21194C186.832 0.668334 187.601 0.302047 188.495 0.336945L189.759 0.385773C190.21 0.403451 190.666 0.435959 191.124 0.481476L192.411 0.609406C193.606 0.728252 194.293 1.59231 194.623 2.4473L195.073 3.61722L196.229 3.27347C196.669 3.14244 197.211 3.06914 197.77 3.22562C198.297 3.37319 198.71 3.6883 199.001 4.08792L199.118 4.2637L199.813 5.41605C200.013 5.74624 200.217 6.03687 200.425 6.29105L200.604 6.51175C201.21 6.01295 201.954 5.85856 202.612 5.83987L203.728 5.80862L204.074 4.59573C204.285 3.85461 204.676 3.17239 205.312 2.67093L206.328 1.86917C206.771 1.51986 207.308 1.34005 207.879 1.35843C208.414 1.3758 208.891 1.56339 209.282 1.78812L210.821 2.67191C210.998 2.77335 211.116 2.81771 211.179 2.83499C211.187 2.83701 211.194 2.83774 211.199 2.8389L212.182 2.68362C212.184 2.68275 212.186 2.68172 212.187 2.68069C212.236 2.64805 212.328 2.57279 212.458 2.42191L213.611 1.08206Z" fill="#FB6107"/>
</svg>
