<svg width="115" height="36" viewBox="0 0 115 36" fill="none" xmlns="http://www.w3.org/2000/svg">
<path d="M12.7823 0.931519C17.8312 4.56117 23.0031 8.20754 31.3614 10.6014C39.8187 13.0236 52.2693 14.3408 71.6007 11.6952C78.5816 10.7397 79.323 9.53675 85.6935 7.54382C92.0535 5.55431 99.2979 4.9043 112.859 6.43542L111.699 16.7098L110.54 26.9833C98.4625 25.6197 94.4158 26.482 91.8673 27.2792C89.3292 28.0732 83.5407 30.932 74.4044 32.1825C52.992 35.1129 37.5396 33.8804 25.6681 30.4803C13.6979 27.052 6.11389 21.604 0.712015 17.7206L12.7823 0.931519Z" fill="#FF70A6"/>
<path d="M13.3995 1.44394L14.0383 0.674568L13.3995 1.44394ZM13.7081 1.70015L13.0692 2.46951L13.7081 1.70015ZM14.3813 2.13303L14.8173 1.23309L14.3813 2.13303ZM14.7459 2.3097L14.3099 3.20964L14.7459 2.3097ZM15.7416 2.98305L16.5102 2.34331L15.7416 2.98305ZM16.0079 3.30305L16.7765 2.66331L16.0079 3.30305ZM16.2743 3.62306L15.5057 4.2628L16.2743 3.62306ZM16.8888 4.14414L17.3889 3.27819L16.8888 4.14414ZM17.2369 4.34522L16.7368 5.21116L17.2369 4.34522ZM17.5851 4.54629L18.0852 3.68035L17.5851 4.54629ZM18.2769 4.95466L17.7604 5.81094L18.2769 4.95466ZM18.6205 5.16194L19.137 4.30566L18.6205 5.16194ZM18.9642 5.36923L19.4807 4.51294L18.9642 5.36923ZM19.7389 5.62903L19.618 6.62169L19.7389 5.62903ZM20.17 5.68154L20.049 6.6742L20.17 5.68154ZM20.601 5.73405L20.7219 4.74139L20.601 5.73405ZM21.3627 6.00872L20.8051 6.83878L21.3627 6.00872ZM22.0241 6.45302L22.5817 5.62296L22.0241 6.45302ZM22.6495 6.97932L23.3676 6.28335L22.6495 6.97932ZM23.2391 7.58761L22.521 8.28358L23.2391 7.58761ZM23.8789 8.10554L24.4056 7.25544L23.8789 8.10554ZM24.5691 8.53311L25.0958 7.68301L24.5691 8.53311ZM25.3636 8.70878L25.4481 9.7052L25.3636 8.70878ZM25.813 8.67067L25.7285 7.67425L25.813 8.67067ZM26.2623 8.63256L26.1778 7.63614L26.2623 8.63256ZM27.0091 8.93881L26.2522 9.59238L27.0091 8.93881ZM27.6038 9.62755L26.8469 10.2811L27.6038 9.62755ZM28.304 10.0382L28.1416 11.0249L28.304 10.0382ZM28.7069 10.1045L28.8693 9.11779L28.7069 10.1045ZM29.1097 10.1708L28.9473 11.1575L29.1097 10.1708ZM29.8787 10.4155L29.4407 11.3145L29.8787 10.4155ZM30.2447 10.5938L30.6827 9.69479L30.2447 10.5938ZM30.6108 10.7721L30.1729 11.6711L30.6108 10.7721ZM31.3993 10.9273L31.3447 9.92884L31.3993 10.9273ZM32.2441 10.8811L32.2987 11.8796L32.2441 10.8811ZM33.0419 11.0068L33.4104 10.0772L33.0419 11.0068ZM33.7927 11.3044L33.4242 12.2341L33.7927 11.3044ZM34.5947 11.3682L34.3991 10.3875L34.5947 11.3682ZM35.0212 11.2831L34.8257 10.3025L35.0212 11.2831ZM35.4478 11.1981L35.6433 12.1788L35.4478 11.1981ZM36.2188 11.4404L36.9077 10.7156L36.2188 11.4404ZM36.9077 12.0952L36.2188 12.8201L36.9077 12.0952ZM37.6561 12.4429L37.606 13.4416L37.6561 12.4429ZM38.0601 12.4632L38.1102 11.4644L38.0601 12.4632ZM38.464 12.4834L38.5142 11.4847L38.464 12.4834ZM39.2886 12.3873L39.5553 13.3511L39.2886 12.3873ZM40.13 12.1546L39.8633 11.1908L40.13 12.1546ZM40.9321 12.2029L41.3284 11.2847L40.9321 12.2029ZM41.6951 12.5322L41.2989 13.4503L41.6951 12.5322ZM42.4777 12.7102L42.4444 13.7097L42.4777 12.7102ZM43.2798 12.737L43.3131 11.7375L43.2798 12.737ZM44.0727 12.874L43.7718 13.8277L44.0727 12.874ZM44.8565 13.1213L45.1574 12.1677L44.8565 13.1213ZM45.6484 13.2764L45.57 14.2733L45.6484 13.2764ZM46.0485 13.3079L45.9701 14.3048L46.0485 13.3079ZM46.4485 13.3393L46.5269 12.3424L46.4485 13.3393ZM47.2503 13.3812L47.2244 14.3809L47.2503 13.3812ZM48.8606 13.2269L49.2773 14.1359L48.8606 13.2269ZM49.6704 12.8557L49.2537 11.9466L49.6704 12.8557ZM50.4722 12.9181L51.0022 12.0701L50.4722 12.9181ZM50.8691 13.1661L50.3391 14.0141L50.8691 13.1661ZM51.2659 13.4142L50.7359 14.2622L51.2659 13.4142ZM52.463 13.3746L52.1247 12.4335L52.463 13.3746ZM52.8631 13.2307L52.5248 12.2897L52.8631 13.2307ZM53.6614 13.0162L53.8362 14.0008L53.6614 13.0162ZM54.0596 12.9455L53.8847 11.9609L54.0596 12.9455ZM54.4578 12.8748L54.6326 13.8594L54.4578 12.8748ZM55.2539 12.7646L55.3525 13.7597L55.2539 12.7646ZM56.0497 12.6858L55.9511 11.6906L56.0497 12.6858ZM56.8548 12.8017L57.2112 11.8674L56.8548 12.8017ZM57.6692 13.1123L57.3128 14.0467L57.6692 13.1123ZM58.4641 13.0434L58.9648 13.909L58.4641 13.0434ZM59.2397 12.5948L58.739 11.7291L59.2397 12.5948ZM60.0383 12.5225L60.3853 11.5846L60.0383 12.5225ZM60.4491 12.6745L60.7961 11.7366L60.4491 12.6745ZM60.8599 12.8264L60.5129 13.7643L60.8599 12.8264ZM61.6639 12.8749L61.4091 11.9079L61.6639 12.8749ZM62.057 12.7713L62.3118 13.7383L62.057 12.7713ZM62.4502 12.6677L62.7049 13.6347L62.4502 12.6677ZM63.2416 12.5313L63.1595 11.5347L63.2416 12.5313ZM63.6399 12.4985L63.7221 13.4951L63.6399 12.4985ZM64.0382 12.4657L63.9561 11.469L64.0382 12.4657ZM64.8386 12.4358L64.8312 13.4358L64.8386 12.4358ZM65.2407 12.4388L65.2481 11.4388L65.2407 12.4388ZM65.6428 12.4417L65.6502 11.4418L65.6428 12.4417ZM66.452 12.4844L66.3549 13.4797L66.452 12.4844ZM66.8591 12.5241L66.9562 11.5288L66.8591 12.5241ZM67.2662 12.5638L67.1692 13.5591L67.2662 12.5638ZM68.0758 12.5932L68.0502 11.5935L68.0758 12.5932ZM68.8808 12.5725L68.9065 13.5721L68.8808 12.5725ZM69.6797 12.5003L69.834 13.4883L69.6797 12.5003ZM70.4725 12.3765L70.6267 13.3645L70.4725 12.3765ZM71.245 12.0969L70.7442 11.2314L71.245 12.0969ZM71.6212 11.8793L72.122 12.7448L71.6212 11.8793ZM71.9973 11.6616L71.4965 10.7961L71.9973 11.6616ZM72.7471 11.2743L72.3337 10.3638L72.7471 11.2743ZM73.4944 10.935L73.9079 11.8456L73.4944 10.935ZM74.2968 10.8716L74.5373 9.90095L74.2968 10.8716ZM74.7255 10.9778L74.4849 11.9485L74.7255 10.9778ZM75.1541 11.084L74.9136 12.0547L75.1541 11.084ZM75.9511 11.0168L75.525 10.1121L75.9511 11.0168ZM76.6878 10.6697L77.1139 11.5744L76.6878 10.6697ZM77.4498 10.4149L77.2476 9.43559L77.4498 10.4149ZM77.8436 10.3337L77.6414 9.3543L77.8436 10.3337ZM78.2373 10.2524L78.4395 11.2317L78.2373 10.2524ZM79.0476 10.1389L79.1246 11.1359L79.0476 10.1389ZM79.4641 10.1067L79.5411 11.1037L79.4641 10.1067ZM79.8806 10.0745L79.8036 9.07751L79.8806 10.0745ZM80.6579 9.86766L80.222 8.96765L80.6579 9.86766ZM81.0186 9.69295L81.4545 10.593L81.0186 9.69295ZM81.3794 9.51824L81.8152 10.4182L81.3794 9.51824ZM82.0965 9.15751L82.5592 10.044L82.0965 9.15751ZM82.4528 8.97148L81.99 8.085L82.4528 8.97148ZM82.8092 8.78545L82.3464 7.89897L82.8092 8.78545ZM83.5616 8.52745L83.7404 9.51134L83.5616 8.52745ZM84.3536 8.38351L84.5324 9.36739L84.3536 8.38351ZM85.101 8.10081L84.5866 7.24324L85.101 8.10081ZM85.8036 7.67936L86.318 8.53693L85.8036 7.67936ZM86.5169 7.27382L86.043 6.39327L86.5169 7.27382ZM87.9791 6.52384L87.5765 5.60847V5.60847L87.9791 6.52384ZM88.7318 6.19278L89.1344 7.10815V7.10815L88.7318 6.19278ZM89.5257 6.0593L89.4492 7.05637L89.5257 6.0593ZM90.3609 6.12341L90.4374 5.12634L90.3609 6.12341ZM91.1787 6.12192L91.0951 5.12542L91.1787 6.12192ZM91.5788 6.08838L91.6624 7.08489L91.5788 6.08838ZM91.979 6.05484L91.8955 5.05833L91.979 6.05484ZM92.7645 5.85409L92.3663 4.93676L92.7645 5.85409ZM93.535 5.51968L93.9331 6.43701L93.535 5.51968ZM94.3289 5.40393L94.4538 4.41177L94.3289 5.40393ZM95.146 5.50685L95.0211 6.49901L95.146 5.50685ZM95.9621 5.70664L95.6201 6.64634L95.9621 5.70664ZM96.3697 5.85496L96.7117 4.91526L96.3697 5.85496ZM96.7772 6.00328L97.1192 5.06359L96.7772 6.00328ZM97.5809 6.11928L97.4995 5.12259L97.5809 6.11928ZM98.3731 6.05463L98.2918 5.05794L98.3731 6.05463ZM99.1684 5.77022L99.7024 6.61573L99.1684 5.77022ZM99.5676 5.51814L99.0336 4.67264L99.5676 5.51814ZM99.9667 5.26606L100.501 6.11157L99.9667 5.26606ZM100.767 5.09363L100.962 4.11277L100.767 5.09363ZM101.168 5.17327L100.974 6.15414L101.168 5.17327ZM101.57 5.25292L101.764 4.27206L101.57 5.25292ZM102.372 5.33963L102.389 4.33978L102.372 5.33963ZM102.773 5.34669L102.755 6.34653L102.773 5.34669ZM103.969 5.4887L103.661 6.43987V6.43987L103.969 5.4887ZM104.363 5.61658L104.672 4.6654L104.363 5.61658ZM104.757 5.74446L104.449 6.69564L104.757 5.74446ZM105.552 5.88027L105.532 6.88008L105.552 5.88027ZM107.153 5.91112L107.136 6.91096L107.153 5.91112ZM107.554 5.91818L107.536 6.91803L107.554 5.91818ZM107.954 5.92524L107.972 4.9254L107.954 5.92524ZM108.75 6.00402L108.571 6.98793L108.75 6.00402ZM109.145 6.07574L109.323 5.09183L109.145 6.07574ZM109.539 6.14745L109.361 7.13136L109.539 6.14745ZM111.153 6.12103L111.233 7.1178L111.153 6.12103ZM111.759 6.22929L111.183 7.04672L111.759 6.22929ZM112.159 6.51125L112.735 5.69382L112.159 6.51125ZM112.544 7.07564L111.628 7.47577L112.544 7.07564ZM112.914 7.92247L111.998 8.32261L112.914 7.92247ZM112.998 8.73703L112.03 8.48694L112.998 8.73703ZM112.897 9.12816L113.865 9.37825V9.37825L112.897 9.12816ZM112.796 9.51929L111.828 9.26921V9.26921L112.796 9.51929ZM112.458 10.2862L113.304 10.8197L112.458 10.2862ZM111.984 11.0378L111.138 10.5043L111.984 11.0378ZM111.749 11.8164L110.749 11.8228L111.749 11.8164ZM111.755 12.6221L112.755 12.6156L111.755 12.6221ZM111.726 13.4239L112.723 13.5019L111.726 13.4239ZM111.664 14.2219L110.667 14.1439L111.664 14.2219ZM111.77 15.039L112.72 14.7266L111.77 15.039ZM111.907 15.4571L112.857 15.1447L111.907 15.4571ZM112.045 15.8752L111.095 16.1875L112.045 15.8752ZM111.898 16.6637L112.692 17.2718L111.898 16.6637ZM111.615 17.0342L112.408 17.6423L111.615 17.0342ZM111.331 17.4047L110.537 16.7966L111.331 17.4047ZM111.179 18.1927L112.133 17.8905L111.179 18.1927ZM111.444 19.0276L110.491 19.3298L111.444 19.0276ZM111.353 19.8224L110.492 19.3128L111.353 19.8224ZM111.129 20.1998L111.99 20.7094L111.129 20.1998ZM110.906 20.5771L111.766 21.0867L110.906 20.5771ZM110.913 21.3829L111.793 20.9094L110.913 21.3829ZM111.373 22.24L110.493 22.7135L111.373 22.24ZM111.38 23.0458L112.239 23.5565L111.38 23.0458ZM111.156 23.423L112.015 23.9338L111.156 23.423ZM110.931 23.8003L110.072 23.2895L110.931 23.8003ZM110.691 24.5782L109.692 24.5374L110.691 24.5782ZM110.658 25.3796L111.657 25.4204L110.658 25.3796ZM110.528 25.9742L111.39 26.4806L110.528 25.9742ZM110.3 26.3622L109.438 25.8558L110.3 26.3622ZM109.788 26.5165L109.689 27.5115L109.788 26.5165ZM108.991 26.4372L109.09 25.4421L108.991 26.4372ZM108.197 26.3113L107.984 27.2883L108.197 26.3113ZM107.406 26.1388L107.619 25.1618L107.406 26.1388ZM106.6 26.1649L106.864 27.1294L106.6 26.1649ZM106.189 26.2772L105.925 25.3127L106.189 26.2772ZM104.976 26.3639L104.644 27.3074L104.976 26.3639ZM104.583 26.2259L104.251 27.1694L104.583 26.2259ZM104.19 26.088L104.522 25.1445L104.19 26.088ZM103.388 26.1233L103.779 27.044L103.388 26.1233ZM102.98 26.2966L102.589 25.3759L102.98 26.2966ZM102.571 26.4699L102.961 27.3906L102.571 26.4699ZM101.765 26.5406L101.515 27.5088L101.765 26.5406ZM100.972 26.3354L101.222 25.3673L100.972 26.3354ZM100.172 26.1295L100.421 25.1609L100.172 26.1295ZM99.367 25.9229L99.6156 24.9543L99.367 25.9229ZM98.5748 26.0851L99.138 26.9114L98.5748 26.0851ZM97.7956 26.6161L97.2324 25.7898L97.7956 26.6161ZM97.0134 26.8994L97.0585 27.8984L97.0134 26.8994ZM96.2282 26.9349L96.2734 27.9339L96.2282 26.9349ZM95.4247 26.879L95.6011 25.8947L95.4247 26.879ZM95.0138 26.8054L94.8375 27.7897L95.0138 26.8054ZM94.6029 26.7318L94.7793 25.7474L94.6029 26.7318ZM93.8269 26.8403L93.3805 25.9454L93.8269 26.8403ZM90.7582 27.7256L90.6511 28.7198L90.7582 27.7256ZM90.3128 27.6776L90.4199 26.6834L90.3128 27.6776ZM89.8674 27.6296L89.7603 28.6239L89.8674 27.6296ZM89.1099 27.8871L89.8095 28.6017L89.1099 27.8871ZM88.4859 28.4981L87.7863 27.7835L88.4859 28.4981ZM87.0013 29.0919L87.2401 30.0629L87.0013 29.0919ZM86.2344 29.3241L85.894 28.3839L86.2344 29.3241ZM85.8582 29.4603L86.1986 30.4006L85.8582 29.4603ZM85.4821 29.5965L85.8225 30.5367L85.4821 29.5965ZM84.7596 29.9696L84.195 29.1442L84.7596 29.9696ZM84.4131 30.2065L83.8486 29.3812L84.4131 30.2065ZM84.0668 30.4435L84.6313 31.2689L84.0668 30.4435ZM83.2979 30.664L83.259 31.6633L83.2979 30.664ZM82.4529 30.6312L82.4918 29.6319L82.4529 30.6312ZM81.6193 30.6146L81.6197 29.6146L81.6193 30.6146ZM81.2082 30.6144L81.2078 31.6144L81.2082 30.6144ZM80.7971 30.6142L80.7967 31.6142L80.7971 30.6142ZM80.0343 30.8679L80.6197 31.6787L80.0343 30.8679ZM79.3311 31.3756L78.7458 30.5648L79.3311 31.3756ZM78.5956 31.761L78.9199 32.707L78.5956 31.761ZM77.8278 32.0242L77.5035 31.0783L77.8278 32.0242ZM77.0376 32.1668L77.0644 33.1664L77.0376 32.1668ZM76.6312 32.1777L76.6581 33.1773L76.6312 32.1777ZM76.2249 32.1886L76.198 31.189L76.2249 32.1886ZM75.4074 32.1609L75.3138 33.1565L75.4074 32.1609ZM74.9962 32.1222L75.0897 31.1266L74.9962 32.1222ZM74.585 32.0836L74.4914 33.0792L74.585 32.0836ZM73.7711 32.0469L73.7663 31.0469L73.7711 32.0469ZM73.3685 32.0489L73.3636 31.0489L73.3685 32.0489ZM72.9658 32.0508L72.9707 33.0508L72.9658 32.0508ZM72.1669 32.1065L72.0327 31.1155L72.1669 32.1065ZM71.3745 32.2138L71.5087 33.2047L71.3745 32.2138ZM70.5827 32.3245L70.7255 33.3142L70.5827 32.3245ZM69.7916 32.4386L69.9344 33.4284L69.7916 32.4386ZM69.0199 32.7412L68.4733 31.9038L69.0199 32.7412ZM68.6438 32.9867L69.1904 33.8241L68.6438 32.9867ZM68.2677 33.2322L68.8143 34.0696L68.2677 33.2322ZM67.483 33.413L67.3265 34.4007L67.483 33.413ZM66.6656 33.2835L66.822 32.2958L66.6656 33.2835ZM65.8692 33.3771L66.2472 34.3029L65.8692 33.3771ZM65.0936 33.6938L64.7156 32.768L65.0936 33.6938ZM64.2926 33.7074L64.623 32.7636L64.2926 33.7074ZM63.4659 33.418L63.1355 34.3619L63.4659 33.418ZM62.65 33.2465L62.7166 32.2487L62.65 33.2465ZM61.8447 33.1927L61.7781 34.1905L61.8447 33.1927ZM61.0469 33.2531L61.2626 34.2296L61.0469 33.2531ZM60.2566 33.4277L60.4724 34.4042L60.2566 33.4277ZM59.4634 33.5641L59.5857 34.5566L59.4634 33.5641ZM59.0654 33.6131L58.9431 32.6207L59.0654 33.6131ZM58.6673 33.6622L58.7896 34.6547L58.6673 33.6622ZM57.8647 33.5891L57.5757 34.5465L57.8647 33.5891ZM57.4603 33.467L57.7493 32.5097L57.4603 33.467ZM57.0558 33.3449L57.3448 32.3876L57.0558 33.3449ZM56.2526 33.217L56.2381 34.2169L56.2526 33.217ZM55.8538 33.2113L55.8394 34.2112L55.8538 33.2113ZM55.4551 33.2055L55.4695 32.2056L55.4551 33.2055ZM54.6612 33.4887L54.071 32.6814L54.6612 33.4887ZM53.871 34.0665L54.4612 34.8737L53.871 34.0665ZM53.0743 34.2925L52.9194 35.2804L53.0743 34.2925ZM52.2713 34.1665L52.1164 35.1544L52.2713 34.1665ZM49.8693 33.8244L49.6704 32.8444L49.8693 33.8244ZM49.0652 33.9875L49.264 34.9676L49.0652 33.9875ZM48.2661 33.963L48.5243 32.9969L48.2661 33.963ZM47.8692 33.857L47.6111 34.8231L47.8692 33.857ZM47.4722 33.7509L47.2141 34.717L47.4722 33.7509ZM46.6818 33.5219L46.3836 34.4764L46.6818 33.5219ZM46.2883 33.399L46.5865 32.4445L46.2883 33.399ZM45.8948 33.276L45.5966 34.2305L45.8948 33.276ZM45.0976 33.2205L45.2623 34.2068L45.0976 33.2205ZM44.2904 33.3552L44.1257 32.3689L44.2904 33.3552ZM43.4963 33.301L43.199 34.2558L43.4963 33.301ZM42.7155 33.0578L43.0128 32.1031L42.7155 33.0578ZM41.9027 33.1629L42.3756 34.044L41.9027 33.1629ZM41.4803 33.3896L41.9533 34.2707L41.4803 33.3896ZM41.058 33.6163L40.5851 32.7352L41.058 33.6163ZM40.2639 33.5555L40.8756 32.7644L40.2639 33.5555ZM39.8921 33.268L39.2804 34.0591L39.8921 33.268ZM39.5204 32.9806L40.1321 32.1895L39.5204 32.9806ZM38.7442 32.7109L38.7004 31.7118L38.7442 32.7109ZM38.3399 32.7286L38.3838 33.7277L38.3399 32.7286ZM37.9355 32.7464L37.8916 31.7474L37.9355 32.7464ZM37.1317 32.7347L37.0581 33.732L37.1317 32.7347ZM36.3327 32.6757L36.4063 31.6784L36.3327 32.6757ZM35.5423 32.5612L35.3298 33.5384L35.5423 32.5612ZM34.7605 32.3912L34.9731 31.414L34.7605 32.3912ZM33.9882 32.1763L34.3106 31.2297L33.9882 32.1763ZM33.2254 31.9165L32.903 32.8631L33.2254 31.9165ZM32.4116 31.9076L32.1423 30.9445L32.4116 31.9076ZM31.5468 32.1494L31.8161 33.1125L31.5468 32.1494ZM30.77 31.9725L31.4242 31.2162L30.77 31.9725ZM30.4257 31.6747L29.7715 32.4311L30.4257 31.6747ZM28.8973 31.1592L28.9922 32.1547L28.8973 31.1592ZM28.4775 31.1992L28.3826 30.2037L28.4775 31.1992ZM27.6912 31.0603L27.2524 31.9588V31.9588L27.6912 31.0603ZM26.9583 30.7023L27.3972 29.8038L26.9583 30.7023ZM26.2074 30.4159L25.9383 31.379L26.2074 30.4159ZM25.823 30.3085L26.0921 29.3454L25.823 30.3085ZM25.4385 30.2011L25.7076 29.238L25.4385 30.2011ZM24.698 29.9L25.1757 29.0215L24.698 29.9ZM24.3419 29.7064L24.8195 28.8279L24.3419 29.7064ZM23.9857 29.5128L23.508 30.3913L23.9857 29.5128ZM23.2265 29.268L23.3524 28.2759L23.2265 29.268ZM22.8235 29.2168L22.9493 28.2248L22.8235 29.2168ZM22.4204 29.1657L22.2945 30.1578L22.4204 29.1657ZM21.6702 28.905L21.1534 29.7612L21.6702 28.905ZM20.9759 28.486L21.4926 27.6299L20.9759 28.486ZM20.2228 28.2221L20.3555 27.2309L20.2228 28.2221ZM19.8167 28.1677L19.6839 29.1588L19.8167 28.1677ZM19.4107 28.1133L19.2779 29.1044L19.4107 28.1133ZM18.5658 28.0726L18.597 29.0721L18.5658 28.0726ZM18.1269 28.0863L18.0956 27.0868L18.1269 28.0863ZM16.9738 27.7427L16.1706 28.3385L16.9738 27.7427ZM16.6985 27.3717L15.8954 27.9675L16.6985 27.3717ZM16.4232 27.0006L17.2264 26.4048L16.4232 27.0006ZM15.7165 26.6085L15.6677 27.6073L15.7165 26.6085ZM14.8537 26.5664L14.9025 25.5676L14.8537 26.5664ZM14.0906 26.312L13.5154 27.13L14.0906 26.312ZM13.4274 25.8456L14.0026 25.0276L13.4274 25.8456ZM12.6882 25.5239L12.4761 26.5011L12.6882 25.5239ZM12.2806 25.4354L12.4927 24.4582L12.2806 25.4354ZM11.8731 25.347L11.661 26.3243L11.8731 25.347ZM11.1285 25.0363L11.679 24.2015L11.1285 25.0363ZM10.7914 24.814L10.2409 25.6488L10.7914 24.814ZM10.4543 24.5917L9.90378 25.4266L10.4543 24.5917ZM9.85202 24.0293L9.06337 24.6441L9.85202 24.0293ZM9.32169 23.3491L10.1103 22.7342L9.32169 23.3491ZM8.69522 22.8349L9.12922 21.934L8.69522 22.8349ZM7.1796 22.2434L7.33816 21.256L7.1796 22.2434ZM6.31627 22.1047L6.15771 23.0921L6.31627 22.1047ZM5.61268 21.7189L4.85417 22.3706L5.61268 21.7189ZM5.34076 21.4024L6.09927 20.7507L5.34076 21.4024ZM5.06884 21.0859L4.31033 21.7375L5.06884 21.0859ZM4.46471 20.5458L3.90639 21.3754L4.46471 20.5458ZM2.71885 18.8573L3.52419 18.2645L2.71885 18.8573ZM2.06583 18.3939L2.35994 17.4382L2.06583 18.3939ZM1.08552 17.7353L0.305288 17.1098L1.08552 17.7353ZM1.54458 17.1627L2.32482 17.7882L1.54458 17.1627ZM1.92701 16.4937L0.998369 16.1227L1.92701 16.4937ZM2.0799 16.1109L3.00854 16.4819V16.4819L2.0799 16.1109ZM2.2328 15.7282L1.30416 15.3572L2.2328 15.7282ZM2.64613 15.0401L3.40703 15.6889L2.64613 15.0401ZM3.167 14.4293L2.4061 13.7804L3.167 14.4293ZM3.70699 13.8322L2.98506 13.1402L3.70699 13.8322ZM4.2661 13.2489L4.98804 13.9408L4.2661 13.2489ZM4.99422 11.8018L4.062 11.4399L4.99422 11.8018ZM5.39901 11.1075L4.62792 10.4708L5.39901 11.1075ZM5.90953 10.4892L6.68062 11.126L5.90953 10.4892ZM6.46818 9.90557L5.7972 9.16409L6.46818 9.90557ZM6.77156 9.63104L6.10058 8.88956L6.77156 9.63104ZM7.07494 9.35651L7.74592 10.098L7.07494 9.35651ZM7.44602 8.638L6.45744 8.48726L7.44602 8.638ZM8.66992 6.56204L8.08092 5.75391L8.66992 6.56204ZM9.14636 5.91927L8.20101 5.5932L9.14636 5.91927ZM9.41868 5.12976L10.364 5.45584L9.41868 5.12976ZM9.95396 4.52931L10.4121 5.41819L9.95396 4.52931ZM10.7522 4.1179L10.2941 3.22901L10.7522 4.1179ZM11.3412 3.55603L12.2236 4.0264L11.3412 3.55603ZM11.531 3.19987L10.6485 2.7295L11.531 3.19987ZM11.7208 2.8437L10.8384 2.37334L11.7208 2.8437ZM12.1847 2.19188L12.9181 2.87161L12.1847 2.19188ZM12.7327 1.60056L11.9992 0.920836L12.7327 1.60056ZM12.9506 1.21156L12.0934 1.72655L12.9506 1.21156ZM12.8384 1.02487L13.6956 0.50987L12.8384 1.02487ZM13.3995 1.44394L12.7607 2.21331L13.0692 2.46951L13.7081 1.70015L14.3469 0.930777L14.0383 0.674568L13.3995 1.44394ZM13.7081 1.70015L13.0692 2.46951C13.3377 2.6924 13.6303 2.88036 13.9453 3.03296L14.3813 2.13303L14.8173 1.23309C14.6461 1.15013 14.4899 1.04951 14.3469 0.930777L13.7081 1.70015ZM14.3813 2.13303L13.9453 3.03296L14.3099 3.20964L14.7459 2.3097L15.1819 1.40976L14.8173 1.23309L14.3813 2.13303ZM14.7459 2.3097L14.3099 3.20964L14.6745 3.38631L15.1106 2.48637L15.5466 1.58644L15.1819 1.40976L14.7459 2.3097ZM15.1106 2.48637L14.6745 3.38631C14.786 3.44029 14.8839 3.51577 14.973 3.62279L15.7416 2.98305L16.5102 2.34331C16.2441 2.02365 15.9214 1.76802 15.5466 1.58644L15.1106 2.48637ZM15.7416 2.98305L14.973 3.62279L15.2393 3.9428L16.0079 3.30305L16.7765 2.66331L16.5102 2.34331L15.7416 2.98305ZM16.0079 3.30305L15.2393 3.9428L15.5057 4.2628L16.2743 3.62306L17.0429 2.98332L16.7765 2.66331L16.0079 3.30305ZM16.2743 3.62306L15.5057 4.2628C15.756 4.5635 16.0508 4.81496 16.3887 5.01008L16.8888 4.14414L17.3889 3.27819C17.2626 3.20522 17.1477 3.10929 17.0429 2.98332L16.2743 3.62306ZM16.8888 4.14414L16.3887 5.01008L16.7368 5.21116L17.2369 4.34522L17.7371 3.47927L17.3889 3.27819L16.8888 4.14414ZM17.2369 4.34522L16.7368 5.21116L17.0849 5.41224L17.5851 4.54629L18.0852 3.68035L17.7371 3.47927L17.2369 4.34522ZM17.5851 4.54629L17.0849 5.41224C17.3116 5.54313 17.5367 5.67603 17.7604 5.81094L18.2769 4.95466L18.7934 4.09837C18.5588 3.9569 18.3228 3.81756 18.0852 3.68035L17.5851 4.54629ZM18.2769 4.95466L17.7604 5.81094L18.104 6.01823L18.6205 5.16194L19.137 4.30566L18.7934 4.09837L18.2769 4.95466ZM18.6205 5.16194L18.104 6.01823L18.4477 6.22552L18.9642 5.36923L19.4807 4.51294L19.137 4.30566L18.6205 5.16194ZM18.9642 5.36923L18.4477 6.22552C18.8072 6.44237 19.2022 6.57105 19.618 6.62169L19.7389 5.62903L19.8598 4.63637C19.7008 4.617 19.5794 4.57247 19.4807 4.51294L18.9642 5.36923ZM19.7389 5.62903L19.618 6.62169L20.049 6.6742L20.17 5.68154L20.2909 4.68888L19.8598 4.63637L19.7389 5.62903ZM20.17 5.68154L20.049 6.6742L20.4801 6.72671L20.601 5.73405L20.7219 4.74139L20.2909 4.68888L20.17 5.68154ZM20.601 5.73405L20.4801 6.72671C20.6255 6.74442 20.7269 6.78624 20.8051 6.83878L21.3627 6.00872L21.9204 5.17866C21.5577 4.93499 21.1513 4.7937 20.7219 4.74139L20.601 5.73405ZM21.3627 6.00872L20.8051 6.83878L21.1357 7.06093L21.6934 6.23087L22.2511 5.40081L21.9204 5.17866L21.3627 6.00872ZM21.6934 6.23087L21.1357 7.06093L21.4664 7.28308L22.0241 6.45302L22.5817 5.62296L22.2511 5.40081L21.6934 6.23087ZM22.0241 6.45302L21.4664 7.28308C21.6253 7.38984 21.7805 7.51955 21.9314 7.67528L22.6495 6.97932L23.3676 6.28335C23.1255 6.03356 22.8637 5.8124 22.5817 5.62296L22.0241 6.45302ZM22.6495 6.97932L21.9314 7.67528L22.2262 7.97943L22.9443 7.28346L23.6624 6.5875L23.3676 6.28335L22.6495 6.97932ZM22.9443 7.28346L22.2262 7.97943L22.521 8.28358L23.2391 7.58761L23.9571 6.89164L23.6624 6.5875L22.9443 7.28346ZM23.2391 7.58761L22.521 8.28358C22.7723 8.54283 23.0494 8.76796 23.3523 8.95564L23.8789 8.10554L24.4056 7.25544C24.2484 7.15807 24.0989 7.03791 23.9571 6.89164L23.2391 7.58761ZM23.8789 8.10554L23.3523 8.95564L23.6974 9.16942L24.224 8.31932L24.7507 7.46922L24.4056 7.25544L23.8789 8.10554ZM24.224 8.31932L23.6974 9.16942L24.0425 9.3832L24.5691 8.53311L25.0958 7.68301L24.7507 7.46922L24.224 8.31932ZM24.5691 8.53311L24.0425 9.3832C24.4755 9.65143 24.9594 9.74665 25.4481 9.7052L25.3636 8.70878L25.2791 7.71236C25.1687 7.72172 25.1229 7.69983 25.0958 7.68301L24.5691 8.53311ZM25.3636 8.70878L25.4481 9.7052L25.8975 9.66709L25.813 8.67067L25.7285 7.67425L25.2791 7.71236L25.3636 8.70878ZM25.813 8.67067L25.8975 9.66709L26.3468 9.62898L26.2623 8.63256L26.1778 7.63614L25.7285 7.67425L25.813 8.67067ZM26.2623 8.63256L26.3468 9.62898C26.3537 9.6284 26.3504 9.62936 26.3391 9.62778C26.3273 9.62613 26.3116 9.62238 26.2943 9.61528C26.277 9.60819 26.2637 9.60004 26.2552 9.59372C26.247 9.58767 26.2464 9.58571 26.2522 9.59238L27.0091 8.93881L27.7659 8.28525C27.3606 7.81578 26.8 7.58337 26.1778 7.63614L26.2623 8.63256ZM27.0091 8.93881L26.2522 9.59238L26.5496 9.93675L27.3064 9.28318L28.0633 8.62961L27.7659 8.28525L27.0091 8.93881ZM27.3064 9.28318L26.5496 9.93675L26.8469 10.2811L27.6038 9.62755L28.3607 8.97398L28.0633 8.62961L27.3064 9.28318ZM27.6038 9.62755L26.8469 10.2811C27.1796 10.6663 27.6153 10.9383 28.1416 11.0249L28.304 10.0382L28.4664 9.05149C28.4556 9.04971 28.4245 9.04795 28.3607 8.97398L27.6038 9.62755ZM28.304 10.0382L28.1416 11.0249L28.5445 11.0912L28.7069 10.1045L28.8693 9.11779L28.4664 9.05149L28.304 10.0382ZM28.7069 10.1045L28.5445 11.0912L28.9473 11.1575L29.1097 10.1708L29.2721 9.18409L28.8693 9.11779L28.7069 10.1045ZM29.1097 10.1708L28.9473 11.1575C29.1206 11.1861 29.284 11.2381 29.4407 11.3145L29.8787 10.4155L30.3166 9.51646C29.9852 9.35501 29.6361 9.24399 29.2721 9.18409L29.1097 10.1708ZM29.8787 10.4155L29.4407 11.3145L29.8068 11.4928L30.2447 10.5938L30.6827 9.69479L30.3166 9.51646L29.8787 10.4155ZM30.2447 10.5938L29.8068 11.4928L30.1729 11.6711L30.6108 10.7721L31.0488 9.87313L30.6827 9.69479L30.2447 10.5938ZM30.6108 10.7721L30.1729 11.6711C30.576 11.8675 31.0092 11.9502 31.4539 11.9259L31.3993 10.9273L31.3447 9.92884C31.2262 9.93533 31.1337 9.9145 31.0488 9.87313L30.6108 10.7721ZM31.3993 10.9273L31.4539 11.9259L31.8763 11.9027L31.8217 10.9042L31.7671 9.90573L31.3447 9.92884L31.3993 10.9273ZM31.8217 10.9042L31.8763 11.9027L32.2987 11.8796L32.2441 10.8811L32.1895 9.88262L31.7671 9.90573L31.8217 10.9042ZM32.2441 10.8811L32.2987 11.8796C32.443 11.8717 32.5639 11.8931 32.6734 11.9365L33.0419 11.0068L33.4104 10.0772C33.0193 9.92218 32.6084 9.8597 32.1895 9.88262L32.2441 10.8811ZM33.0419 11.0068L32.6734 11.9365L33.0488 12.0853L33.4173 11.1556L33.7858 10.226L33.4104 10.0772L33.0419 11.0068ZM33.4173 11.1556L33.0488 12.0853L33.4242 12.2341L33.7927 11.3044L34.1612 10.3748L33.7858 10.226L33.4173 11.1556ZM33.7927 11.3044L33.4242 12.2341C33.8676 12.4098 34.3321 12.4403 34.7902 12.3489L34.5947 11.3682L34.3991 10.3875C34.2886 10.4096 34.2184 10.3975 34.1612 10.3748L33.7927 11.3044ZM34.5947 11.3682L34.7902 12.3489L35.2168 12.2638L35.0212 11.2831L34.8257 10.3025L34.3991 10.3875L34.5947 11.3682ZM35.0212 11.2831L35.2168 12.2638L35.6433 12.1788L35.4478 11.1981L35.2522 10.2174L34.8257 10.3025L35.0212 11.2831ZM35.4478 11.1981L35.6433 12.1788C35.641 12.1792 35.6297 12.1812 35.6115 12.1803C35.5929 12.1795 35.573 12.1761 35.554 12.1701C35.5135 12.1574 35.5062 12.1428 35.5299 12.1653L36.2188 11.4404L36.9077 10.7156C36.4679 10.2976 35.8885 10.0905 35.2522 10.2174L35.4478 11.1981ZM36.2188 11.4404L35.5299 12.1653L35.8743 12.4927L36.5633 11.7678L37.2522 11.043L36.9077 10.7156L36.2188 11.4404ZM36.5633 11.7678L35.8743 12.4927L36.2188 12.8201L36.9077 12.0952L37.5967 11.3704L37.2522 11.043L36.5633 11.7678ZM36.9077 12.0952L36.2188 12.8201C36.5898 13.1727 37.0573 13.4141 37.606 13.4416L37.6561 12.4429L37.7063 11.4441C37.7027 11.444 37.6988 11.4438 37.6884 11.4389C37.6758 11.4331 37.6445 11.4158 37.5967 11.3704L36.9077 12.0952ZM37.6561 12.4429L37.606 13.4416L38.01 13.4619L38.0601 12.4632L38.1102 11.4644L37.7063 11.4441L37.6561 12.4429ZM38.0601 12.4632L38.01 13.4619L38.4139 13.4822L38.464 12.4834L38.5142 11.4847L38.1102 11.4644L38.0601 12.4632ZM38.464 12.4834L38.4139 13.4822C38.7981 13.5015 39.1799 13.455 39.5553 13.3511L39.2886 12.3873L39.022 11.4235C38.8365 11.4749 38.6686 11.4924 38.5142 11.4847L38.464 12.4834ZM39.2886 12.3873L39.5553 13.3511L39.9759 13.2348L39.7093 12.271L39.4427 11.3072L39.022 11.4235L39.2886 12.3873ZM39.7093 12.271L39.9759 13.2348L40.3966 13.1184L40.13 12.1546L39.8633 11.1908L39.4427 11.3072L39.7093 12.271ZM40.13 12.1546L40.3966 13.1184C40.4692 13.0983 40.5019 13.1064 40.5359 13.121L40.9321 12.2029L41.3284 11.2847C40.8537 11.0799 40.3515 11.0557 39.8633 11.1908L40.13 12.1546ZM40.9321 12.2029L40.5359 13.121L40.9174 13.2857L41.3136 12.3675L41.7099 11.4494L41.3284 11.2847L40.9321 12.2029ZM41.3136 12.3675L40.9174 13.2857L41.2989 13.4503L41.6951 12.5322L42.0914 11.6141L41.7099 11.4494L41.3136 12.3675ZM41.6951 12.5322L41.2989 13.4503C41.6639 13.6079 42.0476 13.6964 42.4444 13.7097L42.4777 12.7102L42.511 11.7108C42.3731 11.7062 42.2351 11.6761 42.0914 11.6141L41.6951 12.5322ZM42.4777 12.7102L42.4444 13.7097L42.8454 13.7231L42.8787 12.7236L42.9121 11.7242L42.511 11.7108L42.4777 12.7102ZM42.8787 12.7236L42.8454 13.7231L43.2465 13.7364L43.2798 12.737L43.3131 11.7375L42.9121 11.7242L42.8787 12.7236ZM43.2798 12.737L43.2465 13.7364C43.4208 13.7422 43.5951 13.7719 43.7718 13.8277L44.0727 12.874L44.3736 11.9204C44.0278 11.8112 43.6735 11.7496 43.3131 11.7375L43.2798 12.737ZM44.0727 12.874L43.7718 13.8277L44.1637 13.9513L44.4646 12.9977L44.7655 12.044L44.3736 11.9204L44.0727 12.874ZM44.4646 12.9977L44.1637 13.9513L44.5556 14.075L44.8565 13.1213L45.1574 12.1677L44.7655 12.044L44.4646 12.9977ZM44.8565 13.1213L44.5556 14.075C44.8874 14.1797 45.226 14.2463 45.57 14.2733L45.6484 13.2764L45.7268 12.2795C45.5375 12.2646 45.3481 12.2278 45.1574 12.1677L44.8565 13.1213ZM45.6484 13.2764L45.57 14.2733L45.9701 14.3048L46.0485 13.3079L46.1268 12.3109L45.7268 12.2795L45.6484 13.2764ZM46.0485 13.3079L45.9701 14.3048L46.3701 14.3362L46.4485 13.3393L46.5269 12.3424L46.1268 12.3109L46.0485 13.3079ZM46.4485 13.3393L46.3701 14.3362C46.6543 14.3586 46.939 14.3735 47.2244 14.3809L47.2503 13.3812L47.2763 12.3815C47.0259 12.375 46.7761 12.362 46.5269 12.3424L46.4485 13.3393ZM47.2503 13.3812L47.2244 14.3809L47.6261 14.3913L47.6521 13.3916L47.6781 12.392L47.2763 12.3815L47.2503 13.3812ZM47.6521 13.3916L47.6261 14.3913L48.0279 14.4017L48.0539 13.4021L48.0799 12.4024L47.6781 12.392L47.6521 13.3916ZM48.0539 13.4021L48.0279 14.4017C48.4642 14.4131 48.8838 14.3163 49.2773 14.1359L48.8606 13.2269L48.4439 12.3178C48.2975 12.385 48.1793 12.405 48.0799 12.4024L48.0539 13.4021ZM48.8606 13.2269L49.2773 14.1359L49.6822 13.9503L49.2655 13.0413L48.8488 12.1322L48.4439 12.3178L48.8606 13.2269ZM49.2655 13.0413L49.6822 13.9503L50.0871 13.7647L49.6704 12.8557L49.2537 11.9466L48.8488 12.1322L49.2655 13.0413ZM49.6704 12.8557L50.0871 13.7647C50.0879 13.7644 50.0787 13.7686 50.0606 13.7721C50.042 13.7757 50.0196 13.7773 49.9957 13.7754C49.9443 13.7714 49.9241 13.7548 49.9422 13.7661L50.4722 12.9181L51.0022 12.0701C50.4697 11.7373 49.8475 11.6744 49.2537 11.9466L49.6704 12.8557ZM50.4722 12.9181L49.9422 13.7661L50.3391 14.0141L50.8691 13.1661L51.3991 12.3181L51.0022 12.0701L50.4722 12.9181ZM50.8691 13.1661L50.3391 14.0141L50.7359 14.2622L51.2659 13.4142L51.7959 12.5662L51.3991 12.3181L50.8691 13.1661ZM51.2659 13.4142L50.7359 14.2622C51.2304 14.5712 51.8144 14.6704 52.4012 14.4594L52.0629 13.5184L51.7246 12.5773C51.7262 12.5768 51.7347 12.574 51.749 12.5723C51.7634 12.5707 51.7788 12.5708 51.7933 12.5727C51.8242 12.5767 51.8265 12.5853 51.7959 12.5662L51.2659 13.4142ZM52.0629 13.5184L52.4012 14.4594L52.8013 14.3156L52.463 13.3746L52.1247 12.4335L51.7246 12.5773L52.0629 13.5184ZM52.463 13.3746L52.8013 14.3156L53.2014 14.1718L52.8631 13.2307L52.5248 12.2897L52.1247 12.4335L52.463 13.3746ZM52.8631 13.2307L53.2014 14.1718C53.4176 14.094 53.6291 14.0376 53.8362 14.0008L53.6614 13.0162L53.4865 12.0316C53.1627 12.0891 52.842 12.1757 52.5248 12.2897L52.8631 13.2307ZM53.6614 13.0162L53.8362 14.0008L54.2344 13.9301L54.0596 12.9455L53.8847 11.9609L53.4865 12.0316L53.6614 13.0162ZM54.0596 12.9455L54.2344 13.9301L54.6326 13.8594L54.4578 12.8748L54.2829 11.8902L53.8847 11.9609L54.0596 12.9455ZM54.4578 12.8748L54.6326 13.8594C54.8731 13.8166 55.113 13.7835 55.3525 13.7597L55.2539 12.7646L55.1553 11.7695C54.8642 11.7983 54.5734 11.8386 54.2829 11.8902L54.4578 12.8748ZM55.2539 12.7646L55.3525 13.7597L55.7504 13.7203L55.6518 12.7252L55.5532 11.7301L55.1553 11.7695L55.2539 12.7646ZM55.6518 12.7252L55.7504 13.7203L56.1483 13.6809L56.0497 12.6858L55.9511 11.6906L55.5532 11.7301L55.6518 12.7252ZM56.0497 12.6858L56.1483 13.6809C56.2457 13.6713 56.3586 13.6827 56.4984 13.736L56.8548 12.8017L57.2112 11.8674C56.8081 11.7136 56.3843 11.6477 55.9511 11.6906L56.0497 12.6858ZM56.8548 12.8017L56.4984 13.736L56.9056 13.8913L57.262 12.957L57.6184 12.0227L57.2112 11.8674L56.8548 12.8017ZM57.262 12.957L56.9056 13.8913L57.3128 14.0467L57.6692 13.1123L58.0256 12.178L57.6184 12.0227L57.262 12.957ZM57.6692 13.1123L57.3128 14.0467C57.8747 14.261 58.454 14.2045 58.9648 13.909L58.4641 13.0434L57.9634 12.1777C57.9534 12.1835 57.951 12.1837 57.956 12.182C57.9614 12.1803 57.9715 12.1777 57.9851 12.1765C57.9987 12.1753 58.0109 12.176 58.0201 12.1774C58.0289 12.1787 58.031 12.1801 58.0256 12.178L57.6692 13.1123ZM58.4641 13.0434L58.9648 13.909L59.3526 13.6847L58.8519 12.8191L58.3512 11.9534L57.9634 12.1777L58.4641 13.0434ZM58.8519 12.8191L59.3526 13.6847L59.7404 13.4604L59.2397 12.5948L58.739 11.7291L58.3512 11.9534L58.8519 12.8191ZM59.2397 12.5948L59.7404 13.4604C59.7506 13.4545 59.7534 13.4541 59.7492 13.4555C59.7446 13.457 59.7356 13.4594 59.7234 13.4605C59.7112 13.4616 59.7004 13.461 59.6928 13.4599C59.6854 13.4589 59.6846 13.4579 59.6913 13.4603L60.0383 12.5225L60.3853 11.5846C59.8249 11.3773 59.2485 11.4345 58.739 11.7291L59.2397 12.5948ZM60.0383 12.5225L59.6913 13.4603L60.1021 13.6123L60.4491 12.6745L60.7961 11.7366L60.3853 11.5846L60.0383 12.5225ZM60.4491 12.6745L60.1021 13.6123L60.5129 13.7643L60.8599 12.8264L61.2069 11.8886L60.7961 11.7366L60.4491 12.6745ZM60.8599 12.8264L60.5129 13.7643C60.9639 13.9312 61.4421 13.9674 61.9186 13.8419L61.6639 12.8749L61.4091 11.9079C61.3614 11.9204 61.3037 11.9244 61.2069 11.8886L60.8599 12.8264ZM61.6639 12.8749L61.9186 13.8419L62.3118 13.7383L62.057 12.7713L61.8023 11.8043L61.4091 11.9079L61.6639 12.8749ZM62.057 12.7713L62.3118 13.7383L62.7049 13.6347L62.4502 12.6677L62.1954 11.7007L61.8023 11.8043L62.057 12.7713ZM62.4502 12.6677L62.7049 13.6347C62.9115 13.5803 63.1176 13.5449 63.3238 13.5279L63.2416 12.5313L63.1595 11.5347C62.8347 11.5615 62.5131 11.617 62.1954 11.7007L62.4502 12.6677ZM63.2416 12.5313L63.3238 13.5279L63.7221 13.4951L63.6399 12.4985L63.5578 11.5019L63.1595 11.5347L63.2416 12.5313ZM63.6399 12.4985L63.7221 13.4951L64.1204 13.4623L64.0382 12.4657L63.9561 11.469L63.5578 11.5019L63.6399 12.4985ZM64.0382 12.4657L64.1204 13.4623C64.356 13.4429 64.5929 13.434 64.8312 13.4358L64.8386 12.4358L64.846 11.4358C64.5483 11.4336 64.2516 11.4447 63.9561 11.469L64.0382 12.4657ZM64.8386 12.4358L64.8312 13.4358L65.2333 13.4387L65.2407 12.4388L65.2481 11.4388L64.846 11.4358L64.8386 12.4358ZM65.2407 12.4388L65.2333 13.4387L65.6354 13.4417L65.6428 12.4417L65.6502 11.4418L65.2481 11.4388L65.2407 12.4388ZM65.6428 12.4417L65.6354 13.4417C65.873 13.4435 66.1128 13.4561 66.3549 13.4797L66.452 12.4844L66.5491 11.4891C66.2484 11.4598 65.9487 11.444 65.6502 11.4418L65.6428 12.4417ZM66.452 12.4844L66.3549 13.4797L66.7621 13.5194L66.8591 12.5241L66.9562 11.5288L66.5491 11.4891L66.452 12.4844ZM66.8591 12.5241L66.7621 13.5194L67.1692 13.5591L67.2662 12.5638L67.3633 11.5685L66.9562 11.5288L66.8591 12.5241ZM67.2662 12.5638L67.1692 13.5591C67.4807 13.5895 67.7916 13.6008 68.1015 13.5928L68.0758 12.5932L68.0502 11.5935C67.8234 11.5993 67.5946 11.5911 67.3633 11.5685L67.2662 12.5638ZM68.0758 12.5932L68.1015 13.5928L68.504 13.5825L68.4783 12.5828L68.4526 11.5832L68.0502 11.5935L68.0758 12.5932ZM68.4783 12.5828L68.504 13.5825L68.9065 13.5721L68.8808 12.5725L68.8551 11.5728L68.4526 11.5832L68.4783 12.5828ZM68.8808 12.5725L68.9065 13.5721C69.2178 13.5641 69.527 13.5362 69.834 13.4883L69.6797 12.5003L69.5255 11.5122C69.3039 11.5468 69.0806 11.567 68.8551 11.5728L68.8808 12.5725ZM69.6797 12.5003L69.834 13.4883L70.2303 13.4264L70.0761 12.4384L69.9218 11.4503L69.5255 11.5122L69.6797 12.5003ZM70.0761 12.4384L70.2303 13.4264L70.6267 13.3645L70.4725 12.3765L70.3182 11.3885L69.9218 11.4503L70.0761 12.4384ZM70.4725 12.3765L70.6267 13.3645C71.0229 13.3027 71.3971 13.1643 71.7458 12.9625L71.245 12.0969L70.7442 11.2314C70.5914 11.3198 70.4505 11.3678 70.3182 11.3885L70.4725 12.3765ZM71.245 12.0969L71.7458 12.9625L72.122 12.7448L71.6212 11.8793L71.1203 11.0137L70.7442 11.2314L71.245 12.0969ZM71.6212 11.8793L72.122 12.7448L72.4982 12.5272L71.9973 11.6616L71.4965 10.7961L71.1203 11.0137L71.6212 11.8793ZM71.9973 11.6616L72.4982 12.5272C72.7222 12.3975 72.943 12.2836 73.1606 12.1849L72.7471 11.2743L72.3337 10.3638C72.0531 10.4912 71.774 10.6355 71.4965 10.7961L71.9973 11.6616ZM72.7471 11.2743L73.1606 12.1849L73.5342 12.0152L73.1208 11.1047L72.7074 10.1941L72.3337 10.3638L72.7471 11.2743ZM73.1208 11.1047L73.5342 12.0152L73.9079 11.8456L73.4944 10.935L73.081 10.0245L72.7074 10.1941L73.1208 11.1047ZM73.4944 10.935L73.9079 11.8456C73.9358 11.8328 73.9712 11.8212 74.0563 11.8422L74.2968 10.8716L74.5373 9.90095C74.0508 9.7804 73.5512 9.81099 73.081 10.0245L73.4944 10.935ZM74.2968 10.8716L74.0563 11.8422L74.4849 11.9485L74.7255 10.9778L74.966 10.0072L74.5373 9.90095L74.2968 10.8716ZM74.7255 10.9778L74.4849 11.9485L74.9136 12.0547L75.1541 11.084L75.3947 10.1134L74.966 10.0072L74.7255 10.9778ZM75.1541 11.084L74.9136 12.0547C75.4024 12.1758 75.9056 12.1436 76.3773 11.9214L75.9511 11.0168L75.525 10.1121C75.5056 10.1212 75.4775 10.1339 75.3947 10.1134L75.1541 11.084ZM75.9511 11.0168L76.3773 11.9214L76.7456 11.7479L76.3195 10.8432L75.8933 9.9386L75.525 10.1121L75.9511 11.0168ZM76.3195 10.8432L76.7456 11.7479L77.1139 11.5744L76.6878 10.6697L76.2616 9.76509L75.8933 9.9386L76.3195 10.8432ZM76.6878 10.6697L77.1139 11.5744C77.289 11.4919 77.4679 11.4323 77.652 11.3943L77.4498 10.4149L77.2476 9.43559C76.9068 9.50595 76.5777 9.61619 76.2616 9.76509L76.6878 10.6697ZM77.4498 10.4149L77.652 11.3943L78.0457 11.313L77.8436 10.3337L77.6414 9.3543L77.2476 9.43559L77.4498 10.4149ZM77.8436 10.3337L78.0457 11.313L78.4395 11.2317L78.2373 10.2524L78.0351 9.27302L77.6414 9.3543L77.8436 10.3337ZM78.2373 10.2524L78.4395 11.2317C78.6591 11.1864 78.8873 11.1543 79.1246 11.1359L79.0476 10.1389L78.9705 9.14187C78.6524 9.16645 78.3405 9.20997 78.0351 9.27302L78.2373 10.2524ZM79.0476 10.1389L79.1246 11.1359L79.5411 11.1037L79.4641 10.1067L79.3871 9.10969L78.9705 9.14187L79.0476 10.1389ZM79.4641 10.1067L79.5411 11.1037L79.9577 11.0716L79.8806 10.0745L79.8036 9.07751L79.3871 9.10969L79.4641 10.1067ZM79.8806 10.0745L79.9577 11.0716C80.3546 11.0409 80.736 10.9409 81.0938 10.7677L80.6579 9.86766L80.222 8.96765C80.0988 9.02734 79.962 9.06527 79.8036 9.07751L79.8806 10.0745ZM80.6579 9.86766L81.0938 10.7677L81.4545 10.593L81.0186 9.69295L80.5828 8.79294L80.222 8.96765L80.6579 9.86766ZM81.0186 9.69295L81.4545 10.593L81.8152 10.4182L81.3794 9.51824L80.9435 8.61824L80.5828 8.79294L81.0186 9.69295ZM81.3794 9.51824L81.8152 10.4182C82.0648 10.2974 82.3128 10.1726 82.5592 10.044L82.0965 9.15751L81.6337 8.27103C81.405 8.39042 81.1749 8.50616 80.9435 8.61824L81.3794 9.51824ZM82.0965 9.15751L82.5592 10.044L82.9156 9.85796L82.4528 8.97148L81.99 8.085L81.6337 8.27103L82.0965 9.15751ZM82.4528 8.97148L82.9156 9.85796L83.2719 9.67193L82.8092 8.78545L82.3464 7.89897L81.99 8.085L82.4528 8.97148ZM82.8092 8.78545L83.2719 9.67193C83.4202 9.59455 83.5752 9.54135 83.7404 9.51134L83.5616 8.52745L83.3828 7.54356C83.0198 7.60952 82.6733 7.72832 82.3464 7.89897L82.8092 8.78545ZM83.5616 8.52745L83.7404 9.51134L84.1364 9.43936L83.9576 8.45548L83.7788 7.47159L83.3828 7.54356L83.5616 8.52745ZM83.9576 8.45548L84.1364 9.43936L84.5324 9.36739L84.3536 8.38351L84.1748 7.39962L83.7788 7.47159L83.9576 8.45548ZM84.3536 8.38351L84.5324 9.36739C84.9171 9.29748 85.2797 9.15972 85.6154 8.95838L85.101 8.10081L84.5866 7.24324C84.4539 7.32287 84.3182 7.37357 84.1748 7.39962L84.3536 8.38351ZM85.101 8.10081L85.6154 8.95838L85.9667 8.74766L85.4523 7.89009L84.938 7.03252L84.5866 7.24324L85.101 8.10081ZM85.4523 7.89009L85.9667 8.74766L86.318 8.53693L85.8036 7.67936L85.2893 6.82179L84.938 7.03252L85.4523 7.89009ZM85.8036 7.67936L86.318 8.53693C86.5389 8.40445 86.7632 8.27692 86.9909 8.15437L86.5169 7.27382L86.043 6.39327C85.7881 6.53047 85.5368 6.67331 85.2893 6.82179L85.8036 7.67936ZM86.5169 7.27382L86.9909 8.15437L87.3528 7.95955L86.8789 7.079L86.4049 6.19845L86.043 6.39327L86.5169 7.27382ZM86.8789 7.079L87.3528 7.95955L87.7148 7.76473L87.2408 6.88418L86.7668 6.00364L86.4049 6.19845L86.8789 7.079ZM87.2408 6.88418L87.7148 7.76473C87.9327 7.6474 88.155 7.5389 88.3817 7.43921L87.9791 6.52384L87.5765 5.60847C87.3013 5.72948 87.0315 5.86121 86.7668 6.00364L87.2408 6.88418ZM87.9791 6.52384L88.3817 7.43921L88.758 7.27368L88.3554 6.35831L87.9528 5.44294L87.5765 5.60847L87.9791 6.52384ZM88.3554 6.35831L88.758 7.27368L89.1344 7.10815L88.7318 6.19278L88.3292 5.27741L87.9528 5.44294L88.3554 6.35831ZM88.7318 6.19278L89.1344 7.10815C89.2318 7.0653 89.3316 7.04734 89.4492 7.05637L89.5257 6.0593L89.6022 5.06223C89.163 5.02852 88.7335 5.09955 88.3292 5.27741L88.7318 6.19278ZM89.5257 6.0593L89.4492 7.05637L89.8668 7.08842L89.9433 6.09135L90.0198 5.09429L89.6022 5.06223L89.5257 6.0593ZM89.9433 6.09135L89.8668 7.08842L90.2844 7.12048L90.3609 6.12341L90.4374 5.12634L90.0198 5.09429L89.9433 6.09135ZM90.3609 6.12341L90.2844 7.12048C90.6138 7.14576 90.9399 7.14544 91.2622 7.11843L91.1787 6.12192L91.0951 5.12542C90.8838 5.14313 90.6648 5.1438 90.4374 5.12634L90.3609 6.12341ZM91.1787 6.12192L91.2622 7.11843L91.6624 7.08489L91.5788 6.08838L91.4953 5.09187L91.0951 5.12542L91.1787 6.12192ZM91.5788 6.08838L91.6624 7.08489L92.0625 7.05134L91.979 6.05484L91.8955 5.05833L91.4953 5.09187L91.5788 6.08838ZM91.979 6.05484L92.0625 7.05134C92.4427 7.01948 92.8105 6.92423 93.1626 6.77142L92.7645 5.85409L92.3663 4.93676C92.2047 5.0069 92.0489 5.04548 91.8955 5.05833L91.979 6.05484ZM92.7645 5.85409L93.1626 6.77142L93.5479 6.60422L93.1497 5.68688L92.7516 4.76955L92.3663 4.93676L92.7645 5.85409ZM93.1497 5.68688L93.5479 6.60422L93.9331 6.43701L93.535 5.51968L93.1369 4.60234L92.7516 4.76955L93.1497 5.68688ZM93.535 5.51968L93.9331 6.43701C94.0289 6.39544 94.1131 6.38466 94.2039 6.39609L94.3289 5.40393L94.4538 4.41177C93.9998 4.35459 93.5548 4.42097 93.1369 4.60234L93.535 5.51968ZM94.3289 5.40393L94.2039 6.39609L94.6125 6.44755L94.7374 5.45539L94.8624 4.46323L94.4538 4.41177L94.3289 5.40393ZM94.7374 5.45539L94.6125 6.44755L95.0211 6.49901L95.146 5.50685L95.271 4.51469L94.8624 4.46323L94.7374 5.45539ZM95.146 5.50685L95.0211 6.49901C95.2155 6.52351 95.4149 6.57164 95.6201 6.64634L95.9621 5.70664L96.3041 4.76694C95.966 4.64387 95.6213 4.55881 95.271 4.51469L95.146 5.50685ZM95.9621 5.70664L95.6201 6.64634L96.0277 6.79466L96.3697 5.85496L96.7117 4.91526L96.3041 4.76694L95.9621 5.70664ZM96.3697 5.85496L96.0277 6.79466L96.4352 6.94298L96.7772 6.00328L97.1192 5.06359L96.7117 4.91526L96.3697 5.85496ZM96.7772 6.00328L96.4352 6.94298C96.8298 7.08658 97.2419 7.15027 97.6622 7.11597L97.5809 6.11928L97.4995 5.12259C97.3917 5.13139 97.268 5.11775 97.1192 5.06359L96.7772 6.00328ZM97.5809 6.11928L97.6622 7.11597L98.0583 7.08364L97.977 6.08695L97.8957 5.09027L97.4995 5.12259L97.5809 6.11928ZM97.977 6.08695L98.0583 7.08364L98.4545 7.05131L98.3731 6.05463L98.2918 5.05794L97.8957 5.09027L97.977 6.08695ZM98.3731 6.05463L98.4545 7.05131C98.907 7.01438 99.3253 6.85384 99.7024 6.61573L99.1684 5.77022L98.6344 4.92472C98.4793 5.02271 98.3674 5.05177 98.2918 5.05794L98.3731 6.05463ZM99.1684 5.77022L99.7024 6.61573L100.102 6.36365L99.5676 5.51814L99.0336 4.67264L98.6344 4.92472L99.1684 5.77022ZM99.5676 5.51814L100.102 6.36365L100.501 6.11157L99.9667 5.26606L99.4327 4.42056L99.0336 4.67264L99.5676 5.51814ZM99.9667 5.26606L100.501 6.11157C100.549 6.08074 100.574 6.07504 100.577 6.07449C100.579 6.07414 100.578 6.07448 100.575 6.0745C100.572 6.07453 100.571 6.0742 100.572 6.07449L100.767 5.09363L100.962 4.11277C100.404 4.00211 99.8796 4.13837 99.4327 4.42056L99.9667 5.26606ZM100.767 5.09363L100.572 6.07449L100.974 6.15414L101.168 5.17327L101.363 4.19241L100.962 4.11277L100.767 5.09363ZM101.168 5.17327L100.974 6.15414L101.375 6.23378L101.57 5.25292L101.764 4.27206L101.363 4.19241L101.168 5.17327ZM101.57 5.25292L101.375 6.23378C101.7 6.29823 102.026 6.33369 102.354 6.33947L102.372 5.33963L102.389 4.33978C102.183 4.33614 101.975 4.3138 101.764 4.27206L101.57 5.25292ZM102.372 5.33963L102.354 6.33947L102.755 6.34653L102.773 5.34669L102.791 4.34684L102.389 4.33978L102.372 5.33963ZM102.773 5.34669L102.755 6.34653L103.156 6.3536L103.174 5.35375L103.192 4.35391L102.791 4.34684L102.773 5.34669ZM103.174 5.35375L103.156 6.3536C103.322 6.35651 103.489 6.38413 103.661 6.43987L103.969 5.4887L104.278 4.53752C103.924 4.42275 103.561 4.36041 103.192 4.35391L103.174 5.35375ZM103.969 5.4887L103.661 6.43987L104.055 6.56776L104.363 5.61658L104.672 4.6654L104.278 4.53752L103.969 5.4887ZM104.363 5.61658L104.055 6.56776L104.449 6.69564L104.757 5.74446L105.066 4.79329L104.672 4.6654L104.363 5.61658ZM104.757 5.74446L104.449 6.69564C104.802 6.81014 105.164 6.87278 105.532 6.88008L105.552 5.88027L105.572 4.88047C105.406 4.87719 105.239 4.8493 105.066 4.79329L104.757 5.74446ZM105.552 5.88027L105.532 6.88008L105.932 6.888L105.952 5.8882L105.972 4.8884L105.572 4.88047L105.552 5.88027ZM105.952 5.8882L105.932 6.888L106.333 6.89593L106.353 5.89613L106.372 4.89632L105.972 4.8884L105.952 5.8882ZM106.353 5.89613L106.333 6.89593C106.6 6.90123 106.868 6.90624 107.136 6.91096L107.153 5.91112L107.171 4.91127C106.905 4.90658 106.639 4.90159 106.372 4.89632L106.353 5.89613ZM107.153 5.91112L107.136 6.91096L107.536 6.91803L107.554 5.91818L107.571 4.91834L107.171 4.91127L107.153 5.91112ZM107.554 5.91818L107.536 6.91803L107.937 6.92509L107.954 5.92524L107.972 4.9254L107.571 4.91834L107.554 5.91818ZM107.954 5.92524L107.937 6.92509C108.149 6.92884 108.361 6.94975 108.571 6.98793L108.75 6.00402L108.928 5.02012C108.612 4.96267 108.293 4.93106 107.972 4.9254L107.954 5.92524ZM108.75 6.00402L108.571 6.98793L108.966 7.05964L109.145 6.07574L109.323 5.09183L108.928 5.02012L108.75 6.00402ZM109.145 6.07574L108.966 7.05964L109.361 7.13136L109.539 6.14745L109.718 5.16354L109.323 5.09183L109.145 6.07574ZM109.539 6.14745L109.361 7.13136C109.711 7.19491 110.065 7.21189 110.421 7.18323L110.341 6.18645L110.26 5.18968C110.075 5.20463 109.895 5.1956 109.718 5.16354L109.539 6.14745ZM110.341 6.18645L110.421 7.18323L110.827 7.15051L110.747 6.15374L110.667 5.15697L110.26 5.18968L110.341 6.18645ZM110.747 6.15374L110.827 7.15051L111.233 7.1178L111.153 6.12103L111.073 5.12425L110.667 5.15697L110.747 6.15374ZM111.153 6.12103L111.233 7.1178C111.27 7.11488 111.296 7.11455 111.313 7.11507C111.331 7.1156 111.336 7.11691 111.332 7.11617C111.325 7.11494 111.263 7.10284 111.183 7.04672L111.759 6.22929L112.335 5.41187C111.92 5.11892 111.434 5.0952 111.073 5.12425L111.153 6.12103ZM111.759 6.22929L111.183 7.04672L111.383 7.1877L111.959 6.37027L112.535 5.55284L112.335 5.41187L111.759 6.22929ZM111.959 6.37027L111.383 7.1877L111.583 7.32867L112.159 6.51125L112.735 5.69382L112.535 5.55284L111.959 6.37027ZM112.159 6.51125L111.583 7.32867C111.551 7.3056 111.532 7.28649 111.525 7.27944C111.519 7.2723 111.521 7.27314 111.53 7.28628C111.549 7.31447 111.583 7.37324 111.628 7.47577L112.544 7.07564L113.461 6.67551C113.319 6.35095 113.1 5.95098 112.735 5.69382L112.159 6.51125ZM112.544 7.07564L111.628 7.47577L111.813 7.89919L112.729 7.49906L113.646 7.09893L113.461 6.67551L112.544 7.07564ZM112.729 7.49906L111.813 7.89919L111.998 8.32261L112.914 7.92247L113.831 7.52234L113.646 7.09893L112.729 7.49906ZM112.914 7.92247L111.998 8.32261C112.045 8.43091 112.033 8.47313 112.03 8.48694L112.998 8.73703L113.966 8.98711C114.097 8.47941 114.03 7.9786 113.831 7.52234L112.914 7.92247ZM112.998 8.73703L112.03 8.48694L111.929 8.87807L112.897 9.12816L113.865 9.37825L113.966 8.98711L112.998 8.73703ZM112.897 9.12816L111.929 8.87807L111.828 9.26921L112.796 9.51929L113.764 9.76938L113.865 9.37825L112.897 9.12816ZM112.796 9.51929L111.828 9.26921C111.789 9.42027 111.72 9.5811 111.612 9.75274L112.458 10.2862L113.304 10.8197C113.511 10.4903 113.668 10.1398 113.764 9.76938L112.796 9.51929ZM112.458 10.2862L111.612 9.75274L111.375 10.1285L112.221 10.662L113.067 11.1955L113.304 10.8197L112.458 10.2862ZM112.221 10.662L111.375 10.1285L111.138 10.5043L111.984 11.0378L112.83 11.5712L113.067 11.1955L112.221 10.662ZM111.984 11.0378L111.138 10.5043C110.889 10.8992 110.746 11.3439 110.749 11.8228L111.749 11.8164L112.749 11.8099C112.749 11.7518 112.763 11.6774 112.83 11.5712L111.984 11.0378ZM111.749 11.8164L110.749 11.8228L110.752 12.2257L111.752 12.2192L112.752 12.2128L112.749 11.8099L111.749 11.8164ZM111.752 12.2192L110.752 12.2257L110.755 12.6285L111.755 12.6221L112.755 12.6156L112.752 12.2128L111.752 12.2192ZM111.755 12.6221L110.755 12.6285C110.756 12.8691 110.748 13.1082 110.729 13.3459L111.726 13.4239L112.723 13.5019C112.746 13.2076 112.757 12.9122 112.755 12.6156L111.755 12.6221ZM111.726 13.4239L110.729 13.3459L110.698 13.7449L111.695 13.8229L112.692 13.9009L112.723 13.5019L111.726 13.4239ZM111.695 13.8229L110.698 13.7449L110.667 14.1439L111.664 14.2219L112.661 14.2999L112.692 13.9009L111.695 13.8229ZM111.664 14.2219L110.667 14.1439C110.635 14.5545 110.691 14.9595 110.82 15.3514L111.77 15.039L112.72 14.7266C112.665 14.5611 112.651 14.4214 112.661 14.2999L111.664 14.2219ZM111.77 15.039L110.82 15.3514L110.957 15.7695L111.907 15.4571L112.857 15.1447L112.72 14.7266L111.77 15.039ZM111.907 15.4571L110.957 15.7695L111.095 16.1875L112.045 15.8752L112.995 15.5628L112.857 15.1447L111.907 15.4571ZM112.045 15.8752L111.095 16.1875C111.095 16.1875 111.092 16.1779 111.09 16.1601C111.089 16.1419 111.09 16.1207 111.094 16.0989C111.102 16.052 111.119 16.0366 111.105 16.0556L111.898 16.6637L112.692 17.2718C113.068 16.7814 113.197 16.1771 112.995 15.5628L112.045 15.8752ZM111.898 16.6637L111.105 16.0556L110.821 16.4261L111.615 17.0342L112.408 17.6423L112.692 17.2718L111.898 16.6637ZM111.615 17.0342L110.821 16.4261L110.537 16.7966L111.331 17.4047L112.125 18.0128L112.408 17.6423L111.615 17.0342ZM111.331 17.4047L110.537 16.7966C110.165 17.2827 110.032 17.8819 110.226 18.4949L111.179 18.1927L112.133 17.8905C112.133 17.8905 112.133 17.8929 112.134 17.8976C112.135 17.9023 112.136 17.909 112.137 17.9173C112.138 17.935 112.137 17.9552 112.133 17.9758C112.125 18.02 112.109 18.0332 112.125 18.0128L111.331 17.4047ZM111.179 18.1927L110.226 18.4949L110.358 18.9123L111.312 18.6102L112.265 18.308L112.133 17.8905L111.179 18.1927ZM111.312 18.6102L110.358 18.9123L110.491 19.3298L111.444 19.0276L112.397 18.7255L112.265 18.308L111.312 18.6102ZM111.444 19.0276L110.491 19.3298C110.494 19.3398 110.494 19.3429 110.494 19.3397C110.493 19.3363 110.493 19.3296 110.494 19.3211C110.495 19.3125 110.497 19.3062 110.498 19.3031C110.499 19.3003 110.498 19.3035 110.492 19.3128L111.353 19.8224L112.213 20.3321C112.507 19.8359 112.572 19.2757 112.397 18.7255L111.444 19.0276ZM111.353 19.8224L110.492 19.3128L110.269 19.6901L111.129 20.1998L111.99 20.7094L112.213 20.3321L111.353 19.8224ZM111.129 20.1998L110.269 19.6901L110.045 20.0674L110.906 20.5771L111.766 21.0867L111.99 20.7094L111.129 20.1998ZM110.906 20.5771L110.045 20.0674C109.696 20.658 109.734 21.3026 110.032 21.8565L110.913 21.3829L111.793 20.9094C111.778 20.8801 111.795 20.9002 111.796 20.9587C111.796 20.9867 111.792 21.0149 111.785 21.0404C111.778 21.0654 111.77 21.0811 111.766 21.0867L110.906 20.5771ZM110.913 21.3829L110.032 21.8565L110.262 22.285L111.143 21.8115L112.024 21.3379L111.793 20.9094L110.913 21.3829ZM111.143 21.8115L110.262 22.285L110.493 22.7135L111.373 22.24L112.254 21.7665L112.024 21.3379L111.143 21.8115ZM111.373 22.24L110.493 22.7135C110.508 22.7426 110.491 22.7223 110.49 22.6635C110.49 22.6353 110.494 22.607 110.501 22.5814C110.508 22.5563 110.517 22.5407 110.52 22.535L111.38 23.0458L112.239 23.5565C112.59 22.9659 112.552 22.3209 112.254 21.7665L111.373 22.24ZM111.38 23.0458L110.52 22.535L110.296 22.9123L111.156 23.423L112.015 23.9338L112.239 23.5565L111.38 23.0458ZM111.156 23.423L110.296 22.9123L110.072 23.2895L110.931 23.8003L111.791 24.311L112.015 23.9338L111.156 23.423ZM110.931 23.8003L110.072 23.2895C109.846 23.6699 109.71 24.0892 109.692 24.5374L110.691 24.5782L111.69 24.619C111.694 24.533 111.718 24.4336 111.791 24.311L110.931 23.8003ZM110.691 24.5782L109.692 24.5374L109.675 24.9381L110.675 24.9789L111.674 25.0197L111.69 24.619L110.691 24.5782ZM110.675 24.9789L109.675 24.9381L109.659 25.3388L110.658 25.3796L111.657 25.4204L111.674 25.0197L110.675 24.9789ZM110.658 25.3796L109.659 25.3388C109.655 25.4312 109.647 25.4871 109.641 25.5146C109.638 25.5275 109.637 25.5291 109.639 25.522C109.642 25.5149 109.65 25.4953 109.666 25.4679L110.528 25.9742L111.39 26.4806C111.591 26.1382 111.644 25.7417 111.657 25.4204L110.658 25.3796ZM110.528 25.9742L109.666 25.4679L109.552 25.6618L110.414 26.1682L111.276 26.6746L111.39 26.4806L110.528 25.9742ZM110.414 26.1682L109.552 25.6618L109.438 25.8558L110.3 26.3622L111.162 26.8685L111.276 26.6746L110.414 26.1682ZM110.3 26.3622L109.438 25.8558C109.551 25.663 109.719 25.5725 109.827 25.5402C109.913 25.5142 109.948 25.5275 109.887 25.5214L109.788 26.5165L109.689 27.5115C110.025 27.545 110.767 27.5422 111.162 26.8685L110.3 26.3622ZM109.788 26.5165L109.887 25.5214L109.488 25.4817L109.389 26.4768L109.29 27.4719L109.689 27.5115L109.788 26.5165ZM109.389 26.4768L109.488 25.4817L109.09 25.4421L108.991 26.4372L108.892 27.4323L109.29 27.4719L109.389 26.4768ZM108.991 26.4372L109.09 25.4421C108.863 25.4195 108.636 25.3836 108.41 25.3342L108.197 26.3113L107.984 27.2883C108.285 27.3539 108.587 27.402 108.892 27.4323L108.991 26.4372ZM108.197 26.3113L108.41 25.3342L108.014 25.248L107.801 26.225L107.588 27.2021L107.984 27.2883L108.197 26.3113ZM107.801 26.225L108.014 25.248L107.619 25.1618L107.406 26.1388L107.193 27.1158L107.588 27.2021L107.801 26.225ZM107.406 26.1388L107.619 25.1618C107.189 25.0681 106.757 25.0851 106.336 25.2004L106.6 26.1649L106.864 27.1294C106.99 27.0949 107.095 27.0945 107.193 27.1158L107.406 26.1388ZM106.6 26.1649L106.336 25.2004L105.925 25.3127L106.189 26.2772L106.453 27.2418L106.864 27.1294L106.6 26.1649ZM106.189 26.2772L105.925 25.3127L105.515 25.425L105.779 26.3896L106.043 27.3541L106.453 27.2418L106.189 26.2772ZM105.779 26.3896L105.515 25.425C105.432 25.4476 105.373 25.4435 105.307 25.4205L104.976 26.3639L104.644 27.3074C105.102 27.4683 105.578 27.4814 106.043 27.3541L105.779 26.3896ZM104.976 26.3639L105.307 25.4205L104.914 25.2825L104.583 26.2259L104.251 27.1694L104.644 27.3074L104.976 26.3639ZM104.583 26.2259L104.914 25.2825L104.522 25.1445L104.19 26.088L103.859 27.0314L104.251 27.1694L104.583 26.2259ZM104.19 26.088L104.522 25.1445C104.008 24.9641 103.483 24.9969 102.998 25.2026L103.388 26.1233L103.779 27.044C103.817 27.0278 103.835 27.0269 103.837 27.0268C103.839 27.0267 103.841 27.0268 103.843 27.0271C103.845 27.0274 103.85 27.0284 103.859 27.0314L104.19 26.088ZM103.388 26.1233L102.998 25.2026L102.589 25.3759L102.98 26.2966L103.37 27.2173L103.779 27.044L103.388 26.1233ZM102.98 26.2966L102.589 25.3759L102.181 25.5492L102.571 26.4699L102.961 27.3906L103.37 27.2173L102.98 26.2966ZM102.571 26.4699L102.181 25.5492C102.093 25.5865 102.049 25.5811 102.016 25.5725L101.765 26.5406L101.515 27.5088C102.01 27.637 102.504 27.5844 102.961 27.3906L102.571 26.4699ZM101.765 26.5406L102.016 25.5725L101.619 25.4699L101.368 26.438L101.118 27.4062L101.515 27.5088L101.765 26.5406ZM101.368 26.438L101.619 25.4699L101.222 25.3673L100.972 26.3354L100.721 27.3036L101.118 27.4062L101.368 26.438ZM100.972 26.3354L101.222 25.3673C100.957 25.2987 100.69 25.2299 100.421 25.1609L100.172 26.1295L99.9236 27.0981C100.191 27.1669 100.457 27.2353 100.721 27.3036L100.972 26.3354ZM100.172 26.1295L100.421 25.1609L100.018 25.0576L99.7696 26.0262L99.521 26.9948L99.9236 27.0981L100.172 26.1295ZM99.7696 26.0262L100.018 25.0576L99.6156 24.9543L99.367 25.9229L99.1184 26.8915L99.521 26.9948L99.7696 26.0262ZM99.367 25.9229L99.6156 24.9543C99.0297 24.8039 98.4735 24.944 98.0117 25.2587L98.5748 26.0851L99.138 26.9114C99.1574 26.8982 99.1695 26.8923 99.1741 26.8903C99.1784 26.8884 99.1762 26.8898 99.1683 26.8914C99.1601 26.8931 99.1497 26.8942 99.1387 26.8939C99.1278 26.8936 99.1206 26.8921 99.1184 26.8915L99.367 25.9229ZM98.5748 26.0851L98.0117 25.2587L97.622 25.5242L98.1852 26.3506L98.7483 27.177L99.138 26.9114L98.5748 26.0851ZM98.1852 26.3506L97.622 25.5242L97.2324 25.7898L97.7956 26.6161L98.3587 27.4425L98.7483 27.177L98.1852 26.3506ZM97.7956 26.6161L97.2324 25.7898C97.0951 25.8833 97.0105 25.8985 96.9682 25.9004L97.0134 26.8994L97.0585 27.8984C97.5396 27.8766 97.9765 27.7029 98.3587 27.4425L97.7956 26.6161ZM97.0134 26.8994L96.9682 25.9004L96.5756 25.9181L96.6208 26.9171L96.666 27.9161L97.0585 27.8984L97.0134 26.8994ZM96.6208 26.9171L96.5756 25.9181L96.1831 25.9359L96.2282 26.9349L96.2734 27.9339L96.666 27.9161L96.6208 26.9171ZM96.2282 26.9349L96.1831 25.9359C95.9999 25.9442 95.8065 25.9315 95.6011 25.8947L95.4247 26.879L95.2484 27.8633C95.5909 27.9247 95.9331 27.9492 96.2734 27.9339L96.2282 26.9349ZM95.4247 26.879L95.6011 25.8947L95.1902 25.8211L95.0138 26.8054L94.8375 27.7897L95.2484 27.8633L95.4247 26.879ZM95.0138 26.8054L95.1902 25.8211L94.7793 25.7474L94.6029 26.7318L94.4266 27.7161L94.8375 27.7897L95.0138 26.8054ZM94.6029 26.7318L94.7793 25.7474C94.2988 25.6613 93.8212 25.7256 93.3805 25.9454L93.8269 26.8403L94.2732 27.7351C94.3194 27.7121 94.3592 27.704 94.4266 27.7161L94.6029 26.7318ZM93.8269 26.8403L93.3805 25.9454L93.0154 26.1275L93.4617 27.0224L93.908 27.9173L94.2732 27.7351L93.8269 26.8403ZM93.4617 27.0224L93.0154 26.1275L92.6502 26.3097L93.0966 27.2045L93.5429 28.0994L93.908 27.9173L93.4617 27.0224ZM93.0966 27.2045L92.6502 26.3097C92.4686 26.4003 92.2867 26.4677 92.104 26.514L92.3495 27.4834L92.595 28.4528C92.9214 28.3701 93.2376 28.2516 93.5429 28.0994L93.0966 27.2045ZM92.3495 27.4834L92.104 26.514L91.722 26.6107L91.9675 27.5801L92.213 28.5495L92.595 28.4528L92.3495 27.4834ZM91.9675 27.5801L91.722 26.6107L91.3401 26.7074L91.5856 27.6768L91.8311 28.6462L92.213 28.5495L91.9675 27.5801ZM91.5856 27.6768L91.3401 26.7074C91.2153 26.7391 91.0602 26.7523 90.8653 26.7313L90.7582 27.7256L90.6511 28.7198C91.0502 28.7628 91.4467 28.7436 91.8311 28.6462L91.5856 27.6768ZM90.7582 27.7256L90.8653 26.7313L90.4199 26.6834L90.3128 27.6776L90.2057 28.6719L90.6511 28.7198L90.7582 27.7256ZM90.3128 27.6776L90.4199 26.6834L89.9745 26.6354L89.8674 27.6296L89.7603 28.6239L90.2057 28.6719L90.3128 27.6776ZM89.8674 27.6296L89.9745 26.6354C89.3893 26.5723 88.8383 26.7536 88.4103 27.1726L89.1099 27.8871L89.8095 28.6017C89.8141 28.5971 89.8133 28.5988 89.8065 28.6031C89.7994 28.6075 89.7893 28.6127 89.7771 28.6168C89.7651 28.6209 89.7555 28.6225 89.7505 28.623C89.7458 28.6234 89.7485 28.6226 89.7603 28.6239L89.8674 27.6296ZM89.1099 27.8871L88.4103 27.1726L88.0983 27.4781L88.7979 28.1926L89.4975 28.9071L89.8095 28.6017L89.1099 27.8871ZM88.7979 28.1926L88.0983 27.4781L87.7863 27.7835L88.4859 28.4981L89.1855 29.2126L89.4975 28.9071L88.7979 28.1926ZM88.4859 28.4981L87.7863 27.7835C87.695 27.873 87.6164 27.9109 87.5443 27.9286L87.783 28.8997L88.0218 29.8707C88.4708 29.7603 88.8608 29.5305 89.1855 29.2126L88.4859 28.4981ZM87.783 28.8997L87.5443 27.9286L87.1534 28.0247L87.3922 28.9958L87.631 29.9668L88.0218 29.8707L87.783 28.8997ZM87.3922 28.9958L87.1534 28.0247L86.7626 28.1208L87.0013 29.0919L87.2401 30.0629L87.631 29.9668L87.3922 28.9958ZM87.0013 29.0919L86.7626 28.1208C86.4678 28.1933 86.1782 28.2809 85.894 28.3839L86.2344 29.3241L86.5747 30.2644C86.792 30.1858 87.0137 30.1186 87.2401 30.0629L87.0013 29.0919ZM86.2344 29.3241L85.894 28.3839L85.5178 28.52L85.8582 29.4603L86.1986 30.4006L86.5747 30.2644L86.2344 29.3241ZM85.8582 29.4603L85.5178 28.52L85.1417 28.6562L85.4821 29.5965L85.8225 30.5367L86.1986 30.4006L85.8582 29.4603ZM85.4821 29.5965L85.1417 28.6562C84.8079 28.777 84.4921 28.941 84.195 29.1442L84.7596 29.9696L85.3241 30.795C85.4889 30.6823 85.6548 30.5975 85.8225 30.5367L85.4821 29.5965ZM84.7596 29.9696L84.195 29.1442L83.8486 29.3812L84.4131 30.2065L84.9777 31.0319L85.3241 30.795L84.7596 29.9696ZM84.4131 30.2065L83.8486 29.3812L83.5022 29.6181L84.0668 30.4435L84.6313 31.2689L84.9777 31.0319L84.4131 30.2065ZM84.0668 30.4435L83.5022 29.6181C83.4499 29.6539 83.4055 29.6674 83.3367 29.6648L83.2979 30.664L83.259 31.6633C83.7535 31.6825 84.2217 31.549 84.6313 31.2689L84.0668 30.4435ZM83.2979 30.664L83.3367 29.6648L82.9143 29.6483L82.8754 30.6476L82.8365 31.6468L83.259 31.6633L83.2979 30.664ZM82.8754 30.6476L82.9143 29.6483L82.4918 29.6319L82.4529 30.6312L82.4141 31.6304L82.8365 31.6468L82.8754 30.6476ZM82.4529 30.6312L82.4918 29.6319C82.1977 29.6205 81.907 29.6147 81.6197 29.6146L81.6193 30.6146L81.6189 31.6146C81.8798 31.6147 82.1449 31.6199 82.4141 31.6304L82.4529 30.6312ZM81.6193 30.6146L81.6197 29.6146L81.2086 29.6144L81.2082 30.6144L81.2078 31.6144L81.6189 31.6146L81.6193 30.6146ZM81.2082 30.6144L81.2086 29.6144L80.7975 29.6142L80.7971 30.6142L80.7967 31.6142L81.2078 31.6144L81.2082 30.6144ZM80.7971 30.6142L80.7975 29.6142C80.3012 29.614 79.844 29.772 79.449 30.0571L80.0343 30.8679L80.6197 31.6787C80.6935 31.6254 80.7448 31.6142 80.7967 31.6142L80.7971 30.6142ZM80.0343 30.8679L79.449 30.0571L79.0974 30.311L79.6827 31.1217L80.2681 31.9325L80.6197 31.6787L80.0343 30.8679ZM79.6827 31.1217L79.0974 30.311L78.7458 30.5648L79.3311 31.3756L79.9165 32.1864L80.2681 31.9325L79.6827 31.1217ZM79.3311 31.3756L78.7458 30.5648C78.5858 30.6803 78.4279 30.7614 78.2713 30.8151L78.5956 31.761L78.9199 32.707C79.2752 32.5852 79.6076 32.4093 79.9165 32.1864L79.3311 31.3756ZM78.5956 31.761L78.2713 30.8151L77.8874 30.9467L78.2117 31.8926L78.536 32.8386L78.9199 32.707L78.5956 31.761ZM78.2117 31.8926L77.8874 30.9467L77.5035 31.0783L77.8278 32.0242L78.1521 32.9702L78.536 32.8386L78.2117 31.8926ZM77.8278 32.0242L77.5035 31.0783C77.3436 31.1331 77.1805 31.1626 77.0107 31.1671L77.0376 32.1668L77.0644 33.1664C77.4364 33.1564 77.8002 33.0908 78.1521 32.9702L77.8278 32.0242ZM77.0376 32.1668L77.0107 31.1671L76.6044 31.178L76.6312 32.1777L76.6581 33.1773L77.0644 33.1664L77.0376 32.1668ZM76.6312 32.1777L76.6044 31.178L76.198 31.189L76.2249 32.1886L76.2517 33.1882L76.6581 33.1773L76.6312 32.1777ZM76.2249 32.1886L76.198 31.189C75.968 31.1951 75.7357 31.1873 75.5009 31.1652L75.4074 32.1609L75.3138 33.1565C75.6273 33.1859 75.94 33.1966 76.2517 33.1882L76.2249 32.1886ZM75.4074 32.1609L75.5009 31.1652L75.0897 31.1266L74.9962 32.1222L74.9026 33.1178L75.3138 33.1565L75.4074 32.1609ZM74.9962 32.1222L75.0897 31.1266L74.6786 31.088L74.585 32.0836L74.4914 33.0792L74.9026 33.1178L74.9962 32.1222ZM74.585 32.0836L74.6786 31.088C74.3725 31.0592 74.0684 31.0454 73.7663 31.0469L73.7711 32.0469L73.776 33.0469C74.0108 33.0457 74.2492 33.0564 74.4914 33.0792L74.585 32.0836ZM73.7711 32.0469L73.7663 31.0469L73.3636 31.0489L73.3685 32.0489L73.3734 33.0489L73.776 33.0469L73.7711 32.0469ZM73.3685 32.0489L73.3636 31.0489L72.9609 31.0508L72.9658 32.0508L72.9707 33.0508L73.3734 33.0489L73.3685 32.0489ZM72.9658 32.0508L72.9609 31.0508C72.6495 31.0524 72.34 31.0739 72.0327 31.1155L72.1669 32.1065L72.3011 33.0974C72.5221 33.0675 72.7452 33.0519 72.9707 33.0508L72.9658 32.0508ZM72.1669 32.1065L72.0327 31.1155L71.6365 31.1692L71.7707 32.1601L71.9049 33.1511L72.3011 33.0974L72.1669 32.1065ZM71.7707 32.1601L71.6365 31.1692L71.2403 31.2228L71.3745 32.2138L71.5087 33.2047L71.9049 33.1511L71.7707 32.1601ZM71.3745 32.2138L71.2403 31.2228C70.9733 31.259 70.7065 31.2963 70.4399 31.3347L70.5827 32.3245L70.7255 33.3142C70.9863 33.2766 71.2474 33.2401 71.5087 33.2047L71.3745 32.2138ZM70.5827 32.3245L70.4399 31.3347L70.0444 31.3918L70.1872 32.3815L70.3299 33.3713L70.7255 33.3142L70.5827 32.3245ZM70.1872 32.3815L70.0444 31.3918L69.6488 31.4489L69.7916 32.4386L69.9344 33.4284L70.3299 33.3713L70.1872 32.3815ZM69.7916 32.4386L69.6488 31.4489C69.2241 31.5101 68.8308 31.6704 68.4733 31.9038L69.0199 32.7412L69.5665 33.5786C69.7105 33.4846 69.8317 33.4432 69.9344 33.4284L69.7916 32.4386ZM69.0199 32.7412L68.4733 31.9038L68.0972 32.1493L68.6438 32.9867L69.1904 33.8241L69.5665 33.5786L69.0199 32.7412ZM68.6438 32.9867L68.0972 32.1493L67.7211 32.3948L68.2677 33.2322L68.8143 34.0696L69.1904 33.8241L68.6438 32.9867ZM68.2677 33.2322L67.7211 32.3948C67.6829 32.4197 67.6627 32.4248 67.659 32.4257C67.6565 32.4262 67.6549 32.4264 67.6532 32.4265C67.6515 32.4265 67.6472 32.4265 67.6394 32.4253L67.483 33.413L67.3265 34.4007C67.8657 34.486 68.3753 34.3562 68.8143 34.0696L68.2677 33.2322ZM67.483 33.413L67.6394 32.4253L67.2307 32.3606L67.0743 33.3483L66.9179 34.3359L67.3265 34.4007L67.483 33.413ZM67.0743 33.3483L67.2307 32.3606L66.822 32.2958L66.6656 33.2835L66.5092 34.2712L66.9179 34.3359L67.0743 33.3483ZM66.6656 33.2835L66.822 32.2958C66.3668 32.2237 65.9166 32.2776 65.4912 32.4513L65.8692 33.3771L66.2472 34.3029C66.3388 34.2656 66.4195 34.257 66.5092 34.2712L66.6656 33.2835ZM65.8692 33.3771L65.4912 32.4513L65.1034 32.6097L65.4814 33.5355L65.8594 34.4613L66.2472 34.3029L65.8692 33.3771ZM65.4814 33.5355L65.1034 32.6097L64.7156 32.768L65.0936 33.6938L65.4717 34.6196L65.8594 34.4613L65.4814 33.5355ZM65.0936 33.6938L64.7156 32.768C64.6958 32.7761 64.6865 32.7765 64.6825 32.7765C64.6777 32.7766 64.6596 32.7764 64.623 32.7636L64.2926 33.7074L63.9621 34.6513C64.4566 34.8244 64.9761 34.822 65.4717 34.6196L65.0936 33.6938ZM64.2926 33.7074L64.623 32.7636L64.2097 32.6189L63.8792 33.5627L63.5488 34.5066L63.9621 34.6513L64.2926 33.7074ZM63.8792 33.5627L64.2097 32.6189L63.7964 32.4742L63.4659 33.418L63.1355 34.3619L63.5488 34.5066L63.8792 33.5627ZM63.4659 33.418L63.7964 32.4742C63.4429 32.3505 63.0823 32.2731 62.7166 32.2487L62.65 33.2465L62.5834 34.2442C62.7545 34.2557 62.9379 34.2927 63.1355 34.3619L63.4659 33.418ZM62.65 33.2465L62.7166 32.2487L62.3139 32.2218L62.2473 33.2196L62.1807 34.2174L62.5834 34.2442L62.65 33.2465ZM62.2473 33.2196L62.3139 32.2218L61.9113 32.1949L61.8447 33.1927L61.7781 34.1905L62.1807 34.2174L62.2473 33.2196ZM61.8447 33.1927L61.9113 32.1949C61.5479 32.1707 61.1869 32.1981 60.8311 32.2767L61.0469 33.2531L61.2626 34.2296C61.4337 34.1918 61.6045 34.1789 61.7781 34.1905L61.8447 33.1927ZM61.0469 33.2531L60.8311 32.2767L60.436 32.364L60.6518 33.3404L60.8675 34.3169L61.2626 34.2296L61.0469 33.2531ZM60.6518 33.3404L60.436 32.364L60.0409 32.4513L60.2566 33.4277L60.4724 34.4042L60.8675 34.3169L60.6518 33.3404ZM60.2566 33.4277L60.0409 32.4513C59.8081 32.5027 59.5749 32.5428 59.3411 32.5716L59.4634 33.5641L59.5857 34.5566C59.8828 34.52 60.1784 34.4691 60.4724 34.4042L60.2566 33.4277ZM59.4634 33.5641L59.3411 32.5716L58.9431 32.6207L59.0654 33.6131L59.1877 34.6056L59.5857 34.5566L59.4634 33.5641ZM59.0654 33.6131L58.9431 32.6207L58.545 32.6697L58.6673 33.6622L58.7896 34.6547L59.1877 34.6056L59.0654 33.6131ZM58.6673 33.6622L58.545 32.6697C58.425 32.6845 58.2975 32.6752 58.1538 32.6318L57.8647 33.5891L57.5757 34.5465C57.9713 34.6659 58.3788 34.7053 58.7896 34.6547L58.6673 33.6622ZM57.8647 33.5891L58.1538 32.6318L57.7493 32.5097L57.4603 33.467L57.1712 34.4243L57.5757 34.5465L57.8647 33.5891ZM57.4603 33.467L57.7493 32.5097L57.3448 32.3876L57.0558 33.3449L56.7668 34.3022L57.1712 34.4243L57.4603 33.467ZM57.0558 33.3449L57.3448 32.3876C56.9914 32.2809 56.6313 32.2224 56.267 32.2171L56.2526 33.217L56.2381 34.2169C56.4055 34.2193 56.5809 34.2461 56.7668 34.3022L57.0558 33.3449ZM56.2526 33.217L56.267 32.2171L55.8683 32.2114L55.8538 33.2113L55.8394 34.2112L56.2381 34.2169L56.2526 33.217ZM55.8538 33.2113L55.8683 32.2114L55.4695 32.2056L55.4551 33.2055L55.4406 34.2054L55.8394 34.2112L55.8538 33.2113ZM55.4551 33.2055L55.4695 32.2056C54.941 32.198 54.4689 32.3904 54.071 32.6814L54.6612 33.4887L55.2515 34.2959C55.3803 34.2017 55.4375 34.2053 55.4406 34.2054L55.4551 33.2055ZM54.6612 33.4887L54.071 32.6814L53.6758 32.9704L54.2661 33.7776L54.8563 34.5848L55.2515 34.2959L54.6612 33.4887ZM54.2661 33.7776L53.6758 32.9704L53.2807 33.2593L53.871 34.0665L54.4612 34.8737L54.8563 34.5848L54.2661 33.7776ZM53.871 34.0665L53.2807 33.2593C53.2543 33.2786 53.2344 33.2902 53.2211 33.2969C53.2081 33.3035 53.2016 33.3053 53.2014 33.3054C53.2012 33.3055 53.2022 33.3052 53.2042 33.3048C53.2063 33.3045 53.2091 33.3041 53.2123 33.3039C53.2193 33.3035 53.2254 33.3039 53.2293 33.3045L53.0743 34.2925L52.9194 35.2804C53.5019 35.3717 54.0302 35.1889 54.4612 34.8737L53.871 34.0665ZM53.0743 34.2925L53.2293 33.3045L52.8278 33.2416L52.6728 34.2295L52.5179 35.2174L52.9194 35.2804L53.0743 34.2925ZM52.6728 34.2295L52.8278 33.2416L52.4263 33.1786L52.2713 34.1665L52.1164 35.1544L52.5179 35.2174L52.6728 34.2295ZM52.2713 34.1665L52.4263 33.1786C52.1806 33.1401 51.9353 33.0932 51.6903 33.0379L51.4702 34.0134L51.2501 34.9888C51.5379 35.0538 51.8267 35.109 52.1164 35.1544L52.2713 34.1665ZM51.4702 34.0134L51.6903 33.0379L51.2907 32.9477L51.0706 33.9232L50.8504 34.8987L51.2501 34.9888L51.4702 34.0134ZM51.0706 33.9232L51.2907 32.9477L50.8911 32.8575L50.6709 33.833L50.4508 34.8085L50.8504 34.8987L51.0706 33.9232ZM50.6709 33.833L50.8911 32.8575C50.4867 32.7663 50.0767 32.7619 49.6704 32.8444L49.8693 33.8244L50.0681 34.8044C50.1979 34.7781 50.3224 34.7795 50.4508 34.8085L50.6709 33.833ZM49.8693 33.8244L49.6704 32.8444L49.2684 32.9259L49.4672 33.906L49.666 34.886L50.0681 34.8044L49.8693 33.8244ZM49.4672 33.906L49.2684 32.9259L48.8663 33.0075L49.0652 33.9875L49.264 34.9676L49.666 34.886L49.4672 33.906ZM49.0652 33.9875L48.8663 33.0075C48.7499 33.0311 48.64 33.0278 48.5243 32.9969L48.2661 33.963L48.008 34.9291C48.4216 35.0397 48.8444 35.0527 49.264 34.9676L49.0652 33.9875ZM48.2661 33.963L48.5243 32.9969L48.1273 32.8909L47.8692 33.857L47.6111 34.8231L48.008 34.9291L48.2661 33.963ZM47.8692 33.857L48.1273 32.8909L47.7304 32.7848L47.4722 33.7509L47.2141 34.717L47.6111 34.8231L47.8692 33.857ZM47.4722 33.7509L47.7304 32.7848C47.4792 32.7177 47.2291 32.6452 46.98 32.5674L46.6818 33.5219L46.3836 34.4764C46.6591 34.5625 46.936 34.6427 47.2141 34.717L47.4722 33.7509ZM46.6818 33.5219L46.98 32.5674L46.5865 32.4445L46.2883 33.399L45.9901 34.3534L46.3836 34.4764L46.6818 33.5219ZM46.2883 33.399L46.5865 32.4445L46.193 32.3215L45.8948 33.276L45.5966 34.2305L45.9901 34.3534L46.2883 33.399ZM45.8948 33.276L46.193 32.3215C45.7822 32.1931 45.3579 32.1632 44.933 32.2341L45.0976 33.2205L45.2623 34.2068C45.3756 34.1879 45.4827 34.1949 45.5966 34.2305L45.8948 33.276ZM45.0976 33.2205L44.933 32.2341L44.5293 32.3015L44.694 33.2878L44.8587 34.2742L45.2623 34.2068L45.0976 33.2205ZM44.694 33.2878L44.5293 32.3015L44.1257 32.3689L44.2904 33.3552L44.4551 34.3416L44.8587 34.2742L44.694 33.2878ZM44.2904 33.3552L44.1257 32.3689C44.0109 32.3881 43.9044 32.3808 43.7937 32.3463L43.4963 33.301L43.199 34.2558C43.6088 34.3834 44.0317 34.4123 44.4551 34.3416L44.2904 33.3552ZM43.4963 33.301L43.7937 32.3463L43.4032 32.2247L43.1059 33.1794L42.8085 34.1342L43.199 34.2558L43.4963 33.301ZM43.1059 33.1794L43.4032 32.2247L43.0128 32.1031L42.7155 33.0578L42.4181 34.0126L42.8085 34.1342L43.1059 33.1794ZM42.7155 33.0578L43.0128 32.1031C42.4522 31.9285 41.9038 32.0274 41.4298 32.2818L41.9027 33.1629L42.3756 34.044C42.427 34.0164 42.4491 34.0146 42.4453 34.0151C42.4436 34.0153 42.4387 34.0157 42.4319 34.0151C42.4251 34.0145 42.4201 34.0132 42.4181 34.0126L42.7155 33.0578ZM41.9027 33.1629L41.4298 32.2818L41.0074 32.5085L41.4803 33.3896L41.9533 34.2707L42.3756 34.044L41.9027 33.1629ZM41.4803 33.3896L41.0074 32.5085L40.5851 32.7352L41.058 33.6163L41.5309 34.4974L41.9533 34.2707L41.4803 33.3896ZM41.058 33.6163L40.5851 32.7352C40.5779 32.739 40.6309 32.7102 40.7246 32.7174C40.7682 32.7207 40.806 32.731 40.835 32.743C40.8629 32.7545 40.8762 32.7649 40.8756 32.7644L40.2639 33.5555L39.6522 34.3466C39.9023 34.54 40.212 34.684 40.572 34.7115C40.9304 34.739 41.2565 34.6447 41.5309 34.4974L41.058 33.6163ZM40.2639 33.5555L40.8756 32.7644L40.5038 32.477L39.8921 33.268L39.2804 34.0591L39.6522 34.3466L40.2639 33.5555ZM39.8921 33.268L40.5038 32.477L40.1321 32.1895L39.5204 32.9806L38.9087 33.7717L39.2804 34.0591L39.8921 33.268ZM39.5204 32.9806L40.1321 32.1895C39.729 31.8778 39.2434 31.688 38.7004 31.7118L38.7442 32.7109L38.7881 33.7099C38.7946 33.7096 38.8005 33.7099 38.8122 33.714C38.8259 33.7188 38.8582 33.7326 38.9087 33.7717L39.5204 32.9806ZM38.7442 32.7109L38.7004 31.7118L38.296 31.7296L38.3399 32.7286L38.3838 33.7277L38.7881 33.7099L38.7442 32.7109ZM38.3399 32.7286L38.296 31.7296L37.8916 31.7474L37.9355 32.7464L37.9794 33.7454L38.3838 33.7277L38.3399 32.7286ZM37.9355 32.7464L37.8916 31.7474C37.6608 31.7575 37.4321 31.7541 37.2052 31.7374L37.1317 32.7347L37.0581 33.732C37.3639 33.7545 37.6711 33.759 37.9794 33.7454L37.9355 32.7464ZM37.1317 32.7347L37.2052 31.7374L36.8058 31.7079L36.7322 32.7052L36.6586 33.7025L37.0581 33.732L37.1317 32.7347ZM36.7322 32.7052L36.8058 31.7079L36.4063 31.6784L36.3327 32.6757L36.2591 33.673L36.6586 33.7025L36.7322 32.7052ZM36.3327 32.6757L36.4063 31.6784C36.1866 31.6622 35.9696 31.6308 35.7549 31.5841L35.5423 32.5612L35.3298 33.5384C35.6362 33.605 35.9461 33.6499 36.2591 33.673L36.3327 32.6757ZM35.5423 32.5612L35.7549 31.5841L35.364 31.4991L35.1514 32.4762L34.9389 33.4534L35.3298 33.5384L35.5423 32.5612ZM35.1514 32.4762L35.364 31.4991L34.9731 31.414L34.7605 32.3912L34.548 33.3683L34.9389 33.4534L35.1514 32.4762ZM34.7605 32.3912L34.9731 31.414C34.7499 31.3655 34.5291 31.3041 34.3106 31.2297L33.9882 32.1763L33.6659 33.1229C33.9559 33.2217 34.25 33.3035 34.548 33.3683L34.7605 32.3912ZM33.9882 32.1763L34.3106 31.2297L33.9292 31.0998L33.6068 32.0464L33.2845 32.993L33.6659 33.1229L33.9882 32.1763ZM33.6068 32.0464L33.9292 31.0998L33.5477 30.9699L33.2254 31.9165L32.903 32.8631L33.2845 32.993L33.6068 32.0464ZM33.2254 31.9165L33.5477 30.9699C33.0809 30.8109 32.6018 30.816 32.1423 30.9445L32.4116 31.9076L32.6809 32.8706C32.7979 32.8379 32.8613 32.849 32.903 32.8631L33.2254 31.9165ZM32.4116 31.9076L32.1423 30.9445L31.7099 31.0654L31.9792 32.0285L32.2485 32.9915L32.6809 32.8706L32.4116 31.9076ZM31.9792 32.0285L31.7099 31.0654L31.2775 31.1864L31.5468 32.1494L31.8161 33.1125L32.2485 32.9915L31.9792 32.0285ZM31.5468 32.1494L31.2775 31.1864C31.2734 31.1875 31.2804 31.1851 31.2965 31.1845C31.3133 31.1838 31.3348 31.1852 31.3584 31.1906C31.4103 31.2024 31.4329 31.2237 31.4242 31.2162L30.77 31.9725L30.1159 32.7289C30.5949 33.1431 31.1994 33.2849 31.8161 33.1125L31.5468 32.1494ZM30.77 31.9725L31.4242 31.2162L31.0798 30.9184L30.4257 31.6747L29.7715 32.4311L30.1159 32.7289L30.77 31.9725ZM30.4257 31.6747L31.0798 30.9184L30.7355 30.6206L30.0813 31.3769L29.4272 32.1333L29.7715 32.4311L30.4257 31.6747ZM30.0813 31.3769L30.7355 30.6206C30.3176 30.2592 29.7971 30.0689 29.2222 30.1237L29.3172 31.1192L29.4121 32.1146C29.4169 32.1142 29.4165 32.1147 29.4122 32.1142C29.4078 32.1137 29.4028 32.1126 29.3985 32.1111C29.3943 32.1097 29.394 32.1091 29.398 32.1114C29.4022 32.1139 29.4121 32.1202 29.4272 32.1333L30.0813 31.3769ZM29.3172 31.1192L29.2222 30.1237L28.8024 30.1637L28.8973 31.1592L28.9922 32.1547L29.4121 32.1146L29.3172 31.1192ZM28.8973 31.1592L28.8024 30.1637L28.3826 30.2037L28.4775 31.1992L28.5724 32.1947L28.9922 32.1547L28.8973 31.1592ZM28.4775 31.1992L28.3826 30.2037C28.2796 30.2136 28.203 30.1973 28.1301 30.1617L27.6912 31.0603L27.2524 31.9588C27.6681 32.1619 28.1157 32.2383 28.5724 32.1947L28.4775 31.1992ZM27.6912 31.0603L28.1301 30.1617L27.7636 29.9827L27.3248 30.8813L26.8859 31.7798L27.2524 31.9588L27.6912 31.0603ZM27.3248 30.8813L27.7636 29.9827L27.3972 29.8038L26.9583 30.7023L26.5195 31.6009L26.8859 31.7798L27.3248 30.8813ZM26.9583 30.7023L27.3972 29.8038C27.0995 29.6584 26.7925 29.5411 26.4765 29.4528L26.2074 30.4159L25.9383 31.379C26.1349 31.434 26.3285 31.5076 26.5195 31.6009L26.9583 30.7023ZM26.2074 30.4159L26.4765 29.4528L26.0921 29.3454L25.823 30.3085L25.5539 31.2716L25.9383 31.379L26.2074 30.4159ZM25.823 30.3085L26.0921 29.3454L25.7076 29.238L25.4385 30.2011L25.1694 31.1642L25.5539 31.2716L25.823 30.3085ZM25.4385 30.2011L25.7076 29.238C25.5249 29.1869 25.348 29.1152 25.1757 29.0215L24.698 29.9L24.2203 30.7786C24.5228 30.943 24.8395 31.072 25.1694 31.1642L25.4385 30.2011ZM24.698 29.9L25.1757 29.0215L24.8195 28.8279L24.3419 29.7064L23.8642 30.5849L24.2203 30.7786L24.698 29.9ZM24.3419 29.7064L24.8195 28.8279L24.4634 28.6342L23.9857 29.5128L23.508 30.3913L23.8642 30.5849L24.3419 29.7064ZM23.9857 29.5128L24.4634 28.6342C24.1165 28.4456 23.7441 28.3256 23.3524 28.2759L23.2265 29.268L23.1007 30.26C23.2464 30.2785 23.3801 30.3217 23.508 30.3913L23.9857 29.5128ZM23.2265 29.268L23.3524 28.2759L22.9493 28.2248L22.8235 29.2168L22.6976 30.2089L23.1007 30.26L23.2265 29.268ZM22.8235 29.2168L22.9493 28.2248L22.5462 28.1737L22.4204 29.1657L22.2945 30.1578L22.6976 30.2089L22.8235 29.2168ZM22.4204 29.1657L22.5462 28.1737C22.4156 28.1571 22.2987 28.1164 22.1869 28.0489L21.6702 28.905L21.1534 29.7612C21.5045 29.9731 21.8878 30.1061 22.2945 30.1578L22.4204 29.1657ZM21.6702 28.905L22.1869 28.0489L21.8398 27.8394L21.323 28.6955L20.8063 29.5517L21.1534 29.7612L21.6702 28.905ZM21.323 28.6955L21.8398 27.8394L21.4926 27.6299L20.9759 28.486L20.4592 29.3421L20.8063 29.5517L21.323 28.6955ZM20.9759 28.486L21.4926 27.6299C21.1426 27.4186 20.7607 27.2852 20.3555 27.2309L20.2228 28.2221L20.09 29.2132C20.2262 29.2315 20.3464 29.2741 20.4592 29.3421L20.9759 28.486ZM20.2228 28.2221L20.3555 27.2309L19.9495 27.1766L19.8167 28.1677L19.6839 29.1588L20.09 29.2132L20.2228 28.2221ZM19.8167 28.1677L19.9495 27.1766L19.5435 27.1222L19.4107 28.1133L19.2779 29.1044L19.6839 29.1588L19.8167 28.1677ZM19.4107 28.1133L19.5435 27.1222C19.2147 27.0781 18.8781 27.0624 18.5345 27.0731L18.5658 28.0726L18.597 29.0721C18.8387 29.0646 19.0653 29.076 19.2779 29.1044L19.4107 28.1133ZM18.5658 28.0726L18.5345 27.0731L18.0956 27.0868L18.1269 28.0863L18.1581 29.0858L18.597 29.0721L18.5658 28.0726ZM18.1269 28.0863L18.0956 27.0868L17.6567 27.1005L17.6879 28.1001L17.7192 29.0996L18.1581 29.0858L18.1269 28.0863ZM17.6879 28.1001L17.6567 27.1005C17.6559 27.1006 17.6651 27.1002 17.6816 27.1037C17.6986 27.1072 17.718 27.1136 17.7374 27.1233C17.7792 27.1442 17.7898 27.1644 17.7769 27.1469L16.9738 27.7427L16.1706 28.3385C16.5373 28.8328 17.0794 29.1196 17.7192 29.0996L17.6879 28.1001ZM16.9738 27.7427L17.7769 27.1469L17.5016 26.7759L16.6985 27.3717L15.8954 27.9675L16.1706 28.3385L16.9738 27.7427ZM16.6985 27.3717L17.5016 26.7759L17.2264 26.4048L16.4232 27.0006L15.6201 27.5965L15.8954 27.9675L16.6985 27.3717ZM16.4232 27.0006L17.2264 26.4048C16.8786 25.9361 16.3751 25.6395 15.7653 25.6097L15.7165 26.6085L15.6677 27.6073C15.6704 27.6075 15.6657 27.6075 15.6558 27.6047C15.6457 27.6019 15.6344 27.5974 15.6237 27.5915C15.6132 27.5857 15.6073 27.5807 15.606 27.5795C15.605 27.5786 15.6101 27.583 15.6201 27.5965L16.4232 27.0006ZM15.7165 26.6085L15.7653 25.6097L15.3339 25.5886L15.2851 26.5874L15.2363 27.5863L15.6677 27.6073L15.7165 26.6085ZM15.2851 26.5874L15.3339 25.5886L14.9025 25.5676L14.8537 26.5664L14.8049 27.5652L15.2363 27.5863L15.2851 26.5874ZM14.8537 26.5664L14.9025 25.5676C14.791 25.5621 14.7219 25.5335 14.6659 25.4941L14.0906 26.312L13.5154 27.13C13.9015 27.4016 14.3411 27.5425 14.8049 27.5652L14.8537 26.5664ZM14.0906 26.312L14.6659 25.4941L14.3343 25.2608L13.759 26.0788L13.1837 26.8968L13.5154 27.13L14.0906 26.312ZM13.759 26.0788L14.3343 25.2608L14.0026 25.0276L13.4274 25.8456L12.8521 26.6635L13.1837 26.8968L13.759 26.0788ZM13.4274 25.8456L14.0026 25.0276C13.6692 24.7931 13.2986 24.6331 12.9003 24.5466L12.6882 25.5239L12.4761 26.5011C12.6211 26.5326 12.7434 26.5871 12.8521 26.6635L13.4274 25.8456ZM12.6882 25.5239L12.9003 24.5466L12.4927 24.4582L12.2806 25.4354L12.0686 26.4127L12.4761 26.5011L12.6882 25.5239ZM12.2806 25.4354L12.4927 24.4582L12.0852 24.3698L11.8731 25.347L11.661 26.3243L12.0686 26.4127L12.2806 25.4354ZM11.8731 25.347L12.0852 24.3698C11.9301 24.3361 11.7973 24.2795 11.679 24.2015L11.1285 25.0363L10.578 25.8711C10.9091 26.0895 11.2727 26.24 11.661 26.3243L11.8731 25.347ZM11.1285 25.0363L11.679 24.2015L11.3419 23.9792L10.7914 24.814L10.2409 25.6488L10.578 25.8711L11.1285 25.0363ZM10.7914 24.814L11.3419 23.9792L11.0048 23.7569L10.4543 24.5917L9.90378 25.4266L10.2409 25.6488L10.7914 24.814ZM10.4543 24.5917L11.0048 23.7569C10.8769 23.6725 10.7551 23.5613 10.6407 23.4145L9.85202 24.0293L9.06337 24.6441C9.30247 24.9508 9.58223 25.2145 9.90378 25.4266L10.4543 24.5917ZM9.85202 24.0293L10.6407 23.4145L10.3755 23.0743L9.58686 23.6892L8.7982 24.304L9.06337 24.6441L9.85202 24.0293ZM9.58686 23.6892L10.3755 23.0743L10.1103 22.7342L9.32169 23.3491L8.53304 23.9639L8.7982 24.304L9.58686 23.6892ZM9.32169 23.3491L10.1103 22.7342C9.84623 22.3954 9.51904 22.1218 9.12922 21.934L8.69522 22.8349L8.26121 23.7358C8.35314 23.7801 8.44361 23.8492 8.53304 23.9639L9.32169 23.3491ZM8.69522 22.8349L9.12922 21.934L8.76791 21.7599L8.3339 22.6608L7.89989 23.5617L8.26121 23.7358L8.69522 22.8349ZM8.3339 22.6608L8.76791 21.7599L8.40659 21.5858L7.97258 22.4867L7.53858 23.3877L7.89989 23.5617L8.3339 22.6608ZM7.97258 22.4867L8.40659 21.5858C8.07109 21.4242 7.7129 21.3162 7.33816 21.256L7.1796 22.2434L7.02104 23.2307C7.22185 23.263 7.39232 23.3172 7.53858 23.3877L7.97258 22.4867ZM7.1796 22.2434L7.33816 21.256L6.90649 21.1867L6.74793 22.174L6.58937 23.1614L7.02104 23.2307L7.1796 22.2434ZM6.74793 22.174L6.90649 21.1867L6.47483 21.1174L6.31627 22.1047L6.15771 23.0921L6.58937 23.1614L6.74793 22.174ZM6.31627 22.1047L6.47483 21.1174C6.40831 21.1067 6.39063 21.0899 6.37119 21.0672L5.61268 21.7189L4.85417 22.3706C5.19728 22.7699 5.64866 23.0103 6.15771 23.0921L6.31627 22.1047ZM5.61268 21.7189L6.37119 21.0672L6.09927 20.7507L5.34076 21.4024L4.58225 22.054L4.85417 22.3706L5.61268 21.7189ZM5.34076 21.4024L6.09927 20.7507L5.82734 20.4342L5.06884 21.0859L4.31033 21.7375L4.58225 22.054L5.34076 21.4024ZM5.06884 21.0859L5.82734 20.4342C5.59008 20.1581 5.32198 19.9174 5.02302 19.7162L4.46471 20.5458L3.90639 21.3754C4.05038 21.4723 4.18503 21.5917 4.31033 21.7375L5.06884 21.0859ZM4.46471 20.5458L5.02302 19.7162L4.69081 19.4926L4.1325 20.3222L3.57418 21.1519L3.90639 21.3754L4.46471 20.5458ZM4.1325 20.3222L4.69081 19.4926L4.3586 19.269L3.80029 20.0987L3.24197 20.9283L3.57418 21.1519L4.1325 20.3222ZM3.80029 20.0987L4.3586 19.269C4.23735 19.1874 4.12562 19.0815 4.02367 18.943L3.21834 19.5358L2.41301 20.1287C2.64404 20.4425 2.92028 20.7118 3.24197 20.9283L3.80029 20.0987ZM3.21834 19.5358L4.02367 18.943L3.77393 18.6038L2.9686 19.1966L2.16326 19.7894L2.41301 20.1287L3.21834 19.5358ZM2.9686 19.1966L3.77393 18.6038L3.52419 18.2645L2.71885 18.8573L1.91352 19.4501L2.16326 19.7894L2.9686 19.1966ZM2.71885 18.8573L3.52419 18.2645C3.23038 17.8654 2.83335 17.5839 2.35994 17.4382L2.06583 18.3939L1.77172 19.3497C1.83602 19.3695 1.87434 19.3969 1.91352 19.4501L2.71885 18.8573ZM2.06583 18.3939L2.35994 17.4382L1.95666 17.3141L1.66255 18.2698L1.36844 19.2256L1.77172 19.3497L2.06583 18.3939ZM1.66255 18.2698L1.95666 17.3141L1.55338 17.19L1.25927 18.1458L0.965162 19.1015L1.36844 19.2256L1.66255 18.2698ZM1.25927 18.1458L1.55338 17.19C1.54316 17.1868 1.58789 17.1985 1.65485 17.2435C1.7239 17.2899 1.85284 17.397 1.93507 17.5912C2.02328 17.7996 2.01285 18.0018 1.97068 18.1471C1.93365 18.2747 1.87689 18.3469 1.86576 18.3608L1.08552 17.7353L0.305288 17.1098C0.156023 17.296 -0.155722 17.7827 0.093318 18.371C0.306492 18.8745 0.779386 19.0444 0.965162 19.1015L1.25927 18.1458ZM1.08552 17.7353L1.86576 18.3608L2.09529 18.0745L1.31505 17.449L0.534819 16.8235L0.305288 17.1098L1.08552 17.7353ZM1.31505 17.449L2.09529 18.0745L2.32482 17.7882L1.54458 17.1627L0.764349 16.5372L0.534819 16.8235L1.31505 17.449ZM1.54458 17.1627L2.32482 17.7882C2.54667 17.5114 2.72153 17.2004 2.85565 16.8646L1.92701 16.4937L0.998369 16.1227C0.928628 16.2973 0.848538 16.4322 0.764349 16.5372L1.54458 17.1627ZM1.92701 16.4937L2.85565 16.8646L3.00854 16.4819L2.0799 16.1109L1.15126 15.74L0.998369 16.1227L1.92701 16.4937ZM2.0799 16.1109L3.00854 16.4819L3.16144 16.0992L2.2328 15.7282L1.30416 15.3572L1.15126 15.74L2.0799 16.1109ZM2.2328 15.7282L3.16144 16.0992C3.22406 15.9424 3.30597 15.8075 3.40703 15.6889L2.64613 15.0401L1.88522 14.3912C1.63903 14.6799 1.44539 15.0037 1.30416 15.3572L2.2328 15.7282ZM2.64613 15.0401L3.40703 15.6889L3.66747 15.3835L2.90657 14.7347L2.14566 14.0858L1.88522 14.3912L2.64613 15.0401ZM2.90657 14.7347L3.66747 15.3835L3.92791 15.0781L3.167 14.4293L2.4061 13.7804L2.14566 14.0858L2.90657 14.7347ZM3.167 14.4293L3.92791 15.0781C4.08888 14.8894 4.25588 14.7047 4.42893 14.5242L3.70699 13.8322L2.98506 13.1402C2.78537 13.3486 2.59237 13.562 2.4061 13.7804L3.167 14.4293ZM3.70699 13.8322L4.42893 14.5242L4.70848 14.2325L3.98655 13.5405L3.26461 12.8486L2.98506 13.1402L3.70699 13.8322ZM3.98655 13.5405L4.70848 14.2325L4.98804 13.9408L4.2661 13.2489L3.54417 12.5569L3.26461 12.8486L3.98655 13.5405ZM4.2661 13.2489L4.98804 13.9408C5.26764 13.6491 5.48114 13.3107 5.62739 12.934L4.69518 12.5721L3.76296 12.2102C3.70984 12.347 3.6373 12.4597 3.54417 12.5569L4.2661 13.2489ZM4.69518 12.5721L5.62739 12.934L5.77691 12.5488L4.8447 12.1869L3.91248 11.825L3.76296 12.2102L4.69518 12.5721ZM4.8447 12.1869L5.77691 12.5488L5.92644 12.1637L4.99422 11.8018L4.062 11.4399L3.91248 11.825L4.8447 12.1869ZM4.99422 11.8018L5.92644 12.1637C5.98863 12.0034 6.07004 11.8654 6.17009 11.7442L5.39901 11.1075L4.62792 10.4708C4.38762 10.7618 4.19917 11.0865 4.062 11.4399L4.99422 11.8018ZM5.39901 11.1075L6.17009 11.7442L6.42536 11.4351L5.65427 10.7984L4.88318 10.1616L4.62792 10.4708L5.39901 11.1075ZM5.65427 10.7984L6.42536 11.4351L6.68062 11.126L5.90953 10.4892L5.13845 9.8525L4.88318 10.1616L5.65427 10.7984ZM5.90953 10.4892L6.68062 11.126C6.81938 10.9579 6.97202 10.7983 7.13915 10.6471L6.46818 9.90557L5.7972 9.16409C5.55983 9.3789 5.34004 9.60837 5.13845 9.8525L5.90953 10.4892ZM6.46818 9.90557L7.13915 10.6471L7.44253 10.3725L6.77156 9.63104L6.10058 8.88956L5.7972 9.16409L6.46818 9.90557ZM6.77156 9.63104L7.44253 10.3725L7.74592 10.098L7.07494 9.35651L6.40397 8.61503L6.10058 8.88956L6.77156 9.63104ZM7.07494 9.35651L7.74592 10.098C8.13587 9.74511 8.35837 9.2886 8.43459 8.78873L7.44602 8.638L6.45744 8.48726C6.4434 8.57936 6.41852 8.60185 6.40397 8.61503L7.07494 9.35651ZM7.44602 8.638L8.43459 8.78873L8.50229 8.34475L7.51371 8.19402L6.52514 8.04329L6.45744 8.48726L7.44602 8.638ZM7.51371 8.19402L8.50229 8.34475L8.56998 7.90077L7.58141 7.75004L6.59283 7.59931L6.52514 8.04329L7.51371 8.19402ZM7.58141 7.75004L8.56998 7.90077C8.57289 7.8817 8.57621 7.87053 8.57793 7.86552C8.57958 7.86071 8.58015 7.86043 8.57868 7.86293C8.57716 7.86551 8.5752 7.8681 8.57358 7.86987C8.57205 7.87154 8.57296 7.87013 8.57838 7.86618L7.98937 7.05806L7.40037 6.24993C6.94257 6.58359 6.67519 7.05916 6.59283 7.59931L7.58141 7.75004ZM7.98937 7.05806L8.57838 7.86618L8.91866 7.61817L8.32965 6.81005L7.74064 6.00192L7.40037 6.24993L7.98937 7.05806ZM8.32965 6.81005L8.91866 7.61817L9.25893 7.37016L8.66992 6.56204L8.08092 5.75391L7.74064 6.00192L8.32965 6.81005ZM8.66992 6.56204L9.25893 7.37016C9.64958 7.08544 9.93364 6.70358 10.0917 6.24534L9.14636 5.91927L8.20101 5.5932C8.17752 5.6613 8.14396 5.70796 8.08092 5.75391L8.66992 6.56204ZM9.14636 5.91927L10.0917 6.24534L10.2279 5.85059L9.28252 5.52452L8.33717 5.19844L8.20101 5.5932L9.14636 5.91927ZM9.28252 5.52452L10.2279 5.85059L10.364 5.45584L9.41868 5.12976L8.47333 4.80369L8.33717 5.19844L9.28252 5.52452ZM9.41868 5.12976L10.364 5.45584C10.3653 5.45224 10.3663 5.44987 10.3669 5.44852C10.3675 5.44718 10.3678 5.44659 10.3678 5.44658C10.3678 5.44657 10.3677 5.44683 10.3674 5.4472C10.3671 5.44758 10.367 5.44777 10.367 5.4477C10.3671 5.44763 10.3676 5.44704 10.3688 5.44594C10.37 5.44483 10.3721 5.44303 10.3753 5.4406C10.3816 5.43579 10.3932 5.42791 10.4121 5.41819L9.95396 4.52931L9.49583 3.64042C9.01988 3.88572 8.65472 4.27781 8.47333 4.80369L9.41868 5.12976ZM9.95396 4.52931L10.4121 5.41819L10.8112 5.21249L10.3531 4.3236L9.89495 3.43471L9.49583 3.64042L9.95396 4.52931ZM10.3531 4.3236L10.8112 5.21249L11.2103 5.00679L10.7522 4.1179L10.2941 3.22901L9.89495 3.43471L10.3531 4.3236ZM10.7522 4.1179L11.2103 5.00679C11.6359 4.78744 11.9908 4.46318 12.2236 4.0264L11.3412 3.55603L10.4587 3.08567C10.4384 3.12376 10.4006 3.17409 10.2941 3.22901L10.7522 4.1179ZM11.3412 3.55603L12.2236 4.0264L12.4135 3.67023L11.531 3.19987L10.6485 2.7295L10.4587 3.08567L11.3412 3.55603ZM11.531 3.19987L12.4135 3.67023L12.6033 3.31407L11.7208 2.8437L10.8384 2.37334L10.6485 2.7295L11.531 3.19987ZM11.7208 2.8437L12.6033 3.31407C12.6895 3.15244 12.794 3.00555 12.9181 2.87161L12.1847 2.19188L11.4512 1.51215C11.21 1.77243 11.0053 2.06009 10.8384 2.37334L11.7208 2.8437ZM12.1847 2.19188L12.9181 2.87161L13.1921 2.57595L12.4587 1.89622L11.7252 1.21649L11.4512 1.51215L12.1847 2.19188ZM12.4587 1.89622L13.1921 2.57595L13.4661 2.28029L12.7327 1.60056L11.9992 0.920836L11.7252 1.21649L12.4587 1.89622ZM12.7327 1.60056L13.4661 2.28029C13.5755 2.16232 13.7024 2.01229 13.7966 1.84421C13.8434 1.7607 13.9097 1.62463 13.9415 1.45155C13.9746 1.2713 13.9802 0.983553 13.8078 0.696563L12.9506 1.21156L12.0934 1.72655C11.9397 1.47068 11.9501 1.22248 11.9744 1.09021C11.9974 0.965097 12.0412 0.885434 12.0517 0.866756C12.0732 0.82835 12.0725 0.841702 11.9992 0.920836L12.7327 1.60056ZM12.9506 1.21156L13.8078 0.696563L13.7517 0.603216L12.8945 1.11821L12.0373 1.63321L12.0934 1.72655L12.9506 1.21156ZM12.8945 1.11821L13.7517 0.603216L13.6956 0.50987L12.8384 1.02487L11.9812 1.53986L12.0373 1.63321L12.8945 1.11821ZM12.8384 1.02487L13.6956 0.50987C13.6979 0.51376 13.7724 0.629485 13.8085 0.800098C13.8251 0.87893 13.8692 1.12515 13.7448 1.40646C13.5848 1.76838 13.2646 1.94109 13.0006 1.98592C12.7917 2.02139 12.6286 1.9799 12.5742 1.96497C12.5028 1.94536 12.4497 1.92189 12.4239 1.90979C12.3715 1.88527 12.3369 1.86278 12.3315 1.85926C12.3162 1.84941 12.3456 1.86863 12.4521 1.9571L13.0909 1.18773L13.7297 0.418359C13.6305 0.336014 13.515 0.242694 13.4155 0.178555C13.389 0.161464 13.3372 0.129045 13.2714 0.0982302C13.2388 0.0829888 13.18 0.0572813 13.1037 0.0363452C13.0445 0.0200908 12.8775 -0.0218104 12.6657 0.0141541C12.3988 0.0594802 12.0766 0.233602 11.9156 0.597838C11.7902 0.881464 11.8342 1.13091 11.8517 1.21388C11.8896 1.39277 11.9695 1.52041 11.9812 1.53986L12.8384 1.02487ZM13.0909 1.18773L12.4521 1.9571L12.7607 2.21331L13.3995 1.44394L14.0383 0.674568L13.7297 0.418359L13.0909 1.18773Z" fill="#FF70A6"/>
</svg>
