<svg width="211" height="211" viewBox="0 0 211 211" fill="none" xmlns="http://www.w3.org/2000/svg">
<path d="M105.388 105.612C133.339 105.612 160.145 116.715 179.909 136.479C199.673 156.244 210.776 183.049 210.776 211H0.000396729C0.000412899 183.049 11.1035 156.244 30.8676 136.479C50.6317 116.715 77.4375 105.612 105.388 105.612ZM105.611 0C131.809 7.18171e-05 153.046 21.1375 153.046 47.2119C153.046 73.2863 131.809 94.4238 105.611 94.4238C79.4127 94.4238 58.1753 73.2863 58.1752 47.2119C58.1752 21.1374 79.4127 0 105.611 0Z" fill="#FF9D64"/>
<mask id="mask0_6_1225" style="mask-type:alpha" maskUnits="userSpaceOnUse" x="0" y="0" width="211" height="211">
<path d="M105.388 105.612C133.338 105.612 160.144 116.716 179.908 136.479C199.672 156.244 210.776 183.049 210.776 211H0C1.61709e-05 183.049 11.1032 156.244 30.8672 136.479C50.6312 116.715 77.4371 105.612 105.388 105.612ZM105.61 0C131.808 0 153.047 21.1374 153.047 47.2119C153.047 73.2863 131.808 94.4238 105.61 94.4238C79.4125 94.4237 58.1749 73.2862 58.1748 47.2119C58.1748 21.1375 79.4124 0.0001416 105.61 0Z" fill="#FF9D64"/>
</mask>
<g mask="url(#mask0_6_1225)">
<path d="M-31.0114 241.936H-55.9089V217.039H-31.0114V241.936ZM18.7816 241.936H-6.11591V217.039H18.7816V241.936ZM68.5745 241.936H43.678V217.039H68.5745V241.936ZM118.368 241.936H93.471V217.039H118.368V241.936ZM168.162 241.936H143.266V217.039H168.162V241.936ZM217.955 241.936H193.059V217.039H217.955V241.936ZM18.7816 143.096H-6.11493V167.247H18.7816V143.096H43.678V167.247H68.5745V143.096H93.471V118.199H118.368V142.35H142.767V167.247H118.368V192.142H143.265V217.038H118.368V192.144H93.472V217.038H68.5745V192.144H43.678V217.038H18.7816V192.144H-6.11493V217.038H-31.0114V192.144H-55.9089V167.247H-31.0114V143.096H-6.11591V118.199H18.7816V143.096ZM192.561 167.247H168.162V192.142H193.058V217.038H168.161V192.144H143.266V167.247H167.664V142.35H192.561V167.247ZM242.354 167.247H217.955V192.142H242.852V217.038H217.955V192.144H193.059V167.247H217.457V142.35H242.354V167.247ZM-31.0114 192.142H-6.11591V167.993H-31.0114V192.142ZM18.7816 192.142H43.678V167.993H18.7816V192.142ZM68.5745 192.142H93.471V167.993H68.5745V192.142ZM93.472 167.247H117.87V143.096H93.472V167.247ZM68.5745 143.096H43.678V118.199H68.5745V143.096ZM142.767 117.45H167.663V142.348H142.767V117.452H117.87V92.5557H142.767V117.45ZM192.561 117.45H217.457V92.5557H242.354V117.45H267.251V142.348H242.354V117.452H217.457V142.348H192.561V117.452H167.664V92.5557H192.561V117.45ZM-6.11493 118.198H-31.0114V93.3018H-6.11493V118.198ZM43.678 118.198H18.7816V93.3018H43.678V118.198ZM93.472 118.198H68.5745V93.3018H93.472V118.198ZM-31.5095 92.5557H-56.4069V67.6582H-31.5095V92.5557ZM18.2835 92.5557H-6.61298V67.6582H18.2835V92.5557ZM43.181 -31.1816H68.0765V-6.28418H43.181V17.8652H68.0765V42.7617H43.181V67.6582H68.0765V92.5557H43.18V67.6582H18.2845V42.7617H43.18V18.6123H18.2845V-6.28418H43.18V-31.1816H18.2845V-56.0781H43.181V-31.1816ZM117.87 92.5557H92.9739V67.6582H117.87V92.5557ZM167.663 92.5557H142.767V67.6582H167.663V92.5557ZM217.457 92.5557H192.561V67.6582H217.457V92.5557ZM-6.61298 67.6582H-31.5095V42.7617H-6.61298V67.6582ZM92.9739 67.6582H68.0775V42.7617H92.9739V67.6582ZM142.767 67.6582H117.87V42.7617H142.767V67.6582ZM192.561 67.6582H167.664V42.7617H192.561V67.6582ZM242.354 67.6582H217.457V42.7617H242.354V67.6582ZM-6.61298 17.8652H18.2835V42.7617H-6.61298V18.6123H-31.5095V42.7617H-56.4069V17.8652H-31.5095V-6.28418H-6.61298V17.8652ZM92.9739 17.8652H117.87V42.7617H92.9739V18.6123H68.0775V-6.28418H92.9739V17.8652ZM167.663 42.7617H142.767V17.8652H167.663V42.7617ZM217.457 42.7617H192.561V17.8652H217.457V42.7617ZM167.165 -7.03027H142.269V17.8643H117.372V-6.28418H92.9739V-31.1816H117.87V-7.03223H142.269V-31.9277H167.165V-7.03027ZM241.856 -31.9277H216.96V-7.03223H241.856V-31.9277H266.752V-7.03027H241.856V17.8643H216.959V-7.03027H192.063V17.8643H167.166V-7.03223H192.063V-31.9277H216.959V-56.8242H241.856V-31.9277ZM18.2835 -6.28418H-6.61298V-31.1816H18.2835V-6.28418ZM-6.61298 -31.1816H-31.5095V-56.0781H-6.61298V-31.1816ZM92.9739 -31.1816H68.0775V-56.0781H92.9739V-31.1816ZM142.269 -31.9277H117.372V-56.8242H142.269V-31.9277ZM192.063 -31.9277H167.166V-56.8242H192.063V-31.9277Z" fill="#FB6107"/>
</g>
</svg>
