<svg width="88" height="24" viewBox="0 0 88 24" fill="none" xmlns="http://www.w3.org/2000/svg">
<path d="M6.60687 2.93348L5.39629 6.9136C6.67723 5.74488 8.03894 4.98181 9.48141 4.62437C10.9239 4.26693 12.4268 4.32597 13.9902 4.80149C15.0366 5.11976 15.9546 5.52485 16.744 6.01675C17.5416 6.50431 18.1899 7.06895 18.6888 7.71065C19.1685 8.32609 19.4834 8.97987 19.6336 9.672C19.7899 10.366 19.7687 11.04 19.5697 11.6941C19.4542 12.074 19.2804 12.4328 19.0484 12.7706C18.8164 13.1083 18.5299 13.4125 18.189 13.683C17.8563 13.9493 17.471 14.1758 17.0331 14.3624C16.5972 14.5428 16.1165 14.6688 15.5912 14.7404C15.0658 14.812 14.4977 14.8229 13.8868 14.7732C13.284 14.7192 12.6431 14.5889 11.9642 14.3824C10.7309 14.0073 9.65467 13.4962 8.73546 12.8492C8.90562 13.3637 9.11503 13.8833 9.36372 14.408C9.6143 14.9266 9.91863 15.4138 10.2767 15.8698C10.641 16.3276 11.0607 16.7377 11.5357 17.0999C12.0189 17.4578 12.5719 17.7315 13.1948 17.921C13.4003 17.9835 13.629 18.0258 13.8809 18.048C14.1389 18.072 14.4058 18.0784 14.6815 18.0669C14.9653 18.0512 15.2516 18.0158 15.5406 17.9608C15.8357 17.9076 16.1222 17.8383 16.4 17.7526L17.0719 19.9066C16.6798 20.0323 16.2828 20.1293 15.8809 20.1976C15.4791 20.2659 15.0817 20.3084 14.6888 20.325C14.304 20.3372 13.9277 20.3215 13.56 20.2776C13.1965 20.242 12.856 20.1758 12.5383 20.0792C11.766 19.8443 11.0757 19.5186 10.4674 19.1023C9.86342 18.694 9.33109 18.2293 8.87037 17.7081C8.40965 17.1869 8.01391 16.631 7.68317 16.0404C7.35242 15.4499 7.07001 14.857 6.83593 14.2618C6.60998 13.6623 6.42668 13.0792 6.28604 12.5125C6.1454 11.9457 6.03699 11.4296 5.96081 10.9641C5.95593 10.9354 5.9505 10.8861 5.94454 10.8162L8.74143 9.80919C9.63525 10.8976 10.9293 11.6995 12.6235 12.2148C13.2899 12.4175 13.8932 12.5261 14.4331 12.5407C14.9793 12.5571 15.4578 12.5053 15.8686 12.3852C16.2813 12.259 16.6153 12.0782 16.8706 11.8428C17.134 11.6031 17.3112 11.3338 17.4022 11.0348C17.4931 10.7358 17.494 10.4196 17.4048 10.0863C17.3238 9.74864 17.1564 9.41532 16.9026 9.08634C16.7791 8.9331 16.6192 8.76536 16.4228 8.58315C16.2327 8.40283 15.993 8.21765 15.7037 8.0276C15.4207 7.83945 15.0822 7.65482 14.6881 7.47373C14.3022 7.2883 13.8508 7.11697 13.3338 6.95972C11.9261 6.53157 10.5912 6.55767 9.32911 7.03802C8.0689 7.51213 6.87431 8.44172 5.74532 9.82678C5.38822 10.2626 5.06632 10.7056 4.77962 11.156C4.49293 11.6064 4.24062 12.0332 4.0227 12.4365C3.81101 12.8416 3.63126 13.2089 3.48347 13.5382C3.33756 13.8613 3.2259 14.1165 3.14849 14.3039L2.43806 16.6397L0.102303 15.9293L4.27111 2.22304L6.60687 2.93348ZM27.2607 18.8033C26.9575 19.3108 26.6381 19.7481 26.3025 20.1152C25.9739 20.4764 25.6412 20.7784 25.3043 21.0211C24.968 21.2573 24.6298 21.4443 24.2897 21.5821C23.9497 21.7199 23.6166 21.8191 23.2904 21.8797C22.97 21.9474 22.656 21.983 22.3483 21.9865C22.0471 21.9907 21.7636 21.9801 21.4979 21.9549C21.135 21.9205 20.7652 21.82 20.3886 21.6535C20.0114 21.4935 19.6633 21.2676 19.3444 20.9757C19.0326 20.6781 18.7658 20.3192 18.544 19.8993C18.3288 19.4799 18.2045 19.066 18.1714 18.6574C18.1382 18.2488 18.1357 17.8954 18.164 17.5973C18.1935 17.2861 18.2682 16.878 18.388 16.3727C18.515 15.8616 18.8061 15.2058 19.2613 14.4053C19.45 14.0701 19.6503 13.7163 19.8622 13.3441C20.0812 12.9659 20.3008 12.5813 20.521 12.1902C20.7477 11.7997 20.9708 11.4121 21.1904 11.0275C21.4171 10.637 21.6322 10.265 21.8357 9.91155C22.307 9.07993 22.7847 8.24893 23.2689 7.41854L26.2147 7.69792L22.8227 13.4679C22.2762 14.4035 21.8371 15.2415 21.5053 15.9817C21.1741 16.7154 20.9847 17.2304 20.9369 17.5267C20.8898 17.8165 20.8632 17.9939 20.8571 18.0587C20.8165 18.4864 20.8814 18.8359 21.0519 19.1071C21.2295 19.3725 21.5581 19.5279 22.0377 19.5734C22.4655 19.614 22.847 19.5553 23.1825 19.3975C23.5243 19.2403 23.8249 19.0366 24.084 18.7865C24.3432 18.5364 24.5646 18.2697 24.7485 17.9863C24.9323 17.7029 25.0865 17.456 25.2111 17.2454L30.5702 8.111L33.4284 8.38208L29.7973 14.7081L27.2607 18.8033ZM34.9313 11.6425C34.9385 12.0331 35.0456 12.3665 35.2525 12.6426C35.4594 12.9188 35.7309 13.1645 36.067 13.3797C36.4029 13.5884 36.784 13.7768 37.2104 13.9447C37.6432 14.1126 38.0795 14.2869 38.5191 14.4676C38.965 14.6417 39.4016 14.8323 39.8286 15.0393C40.2622 15.2462 40.6477 15.4931 40.985 15.7799C41.3224 16.0667 41.5956 16.4068 41.8047 16.8001C42.0137 17.187 42.1232 17.6505 42.1331 18.1908C42.1439 18.7766 42.0437 19.3482 41.8326 19.9056C41.6213 20.4565 41.3113 20.9505 40.9027 21.3878C40.5005 21.825 40.0089 22.1791 39.4278 22.4503C38.8468 22.7214 38.1885 22.8638 37.4529 22.8773C36.8606 22.8882 36.3058 22.8203 35.7887 22.6735C35.2781 22.5267 34.8154 22.3268 34.4005 22.074C33.9856 21.8212 33.6189 21.5316 33.3004 21.2054C32.9883 20.8791 32.7314 20.5419 32.5297 20.194L34.2556 18.4432C34.3699 18.643 34.5433 18.8644 34.7757 19.1076C35.0079 19.3442 35.266 19.5674 35.5498 19.7771C35.8402 19.9866 36.1397 20.1634 36.4484 20.3075C36.757 20.4451 37.0415 20.5115 37.3018 20.5067C37.6794 20.4997 38.0135 20.4317 38.3041 20.3026C38.5948 20.1736 38.8358 20.0031 39.0273 19.7912C39.2251 19.5727 39.3703 19.3258 39.4629 19.0506C39.562 18.7753 39.6089 18.4912 39.6035 18.1983C39.5982 17.9119 39.4928 17.6664 39.2872 17.4618C39.0881 17.2571 38.8242 17.0731 38.4956 16.9099C38.1671 16.7466 37.793 16.5907 37.3736 16.4422C36.9541 16.2936 36.5246 16.1322 36.0851 15.958C35.6522 15.7836 35.2252 15.5831 34.8043 15.3564C34.3833 15.1233 34.007 14.8437 33.6754 14.5177C33.3437 14.1852 33.0728 13.7962 32.8628 13.3508C32.6591 12.8987 32.5517 12.3668 32.5404 11.7549C32.5296 11.1691 32.6567 10.6458 32.9217 10.1851C33.1932 9.72432 33.5539 9.33024 34.0037 9.0029C34.4535 8.67556 34.973 8.42507 35.5624 8.25144C36.1516 8.07129 36.7619 7.97541 37.3933 7.96379C37.8229 7.95588 38.2571 8.01952 38.6959 8.1547C39.141 8.28325 39.5644 8.46429 39.9659 8.69783C40.3672 8.92486 40.7336 9.19485 41.0649 9.50782C41.4027 9.81416 41.6724 10.1413 41.8742 10.4892L40.0358 11.9686C39.9149 11.7689 39.7452 11.567 39.5265 11.3626C39.3143 11.1516 39.0732 10.964 38.8032 10.7997C38.5396 10.6287 38.2635 10.4905 37.9751 10.3851C37.6866 10.2797 37.409 10.2295 37.1421 10.2344C36.374 10.2486 35.8096 10.3631 35.4489 10.5781C35.0947 10.793 34.9222 11.1478 34.9313 11.6425ZM45.2744 11.2802C45.3121 11.669 45.445 11.993 45.6729 12.2521C45.9008 12.5113 46.1907 12.735 46.5426 12.9232C46.8938 13.105 47.2885 13.2629 47.7267 13.3969C48.1714 13.5304 48.6199 13.67 49.0723 13.8158C49.5305 13.9544 49.9806 14.1103 50.4226 14.2832C50.871 14.4555 51.2746 14.6715 51.6334 14.931C51.9922 15.1905 52.2912 15.5081 52.5305 15.8839C52.7691 16.2532 52.9145 16.7068 52.9667 17.2446C53.0233 17.8278 52.9682 18.4055 52.8013 18.9777C52.6339 19.5434 52.3635 20.0602 51.9903 20.5281C51.6236 20.9955 51.1612 21.387 50.6032 21.7028C50.0451 22.0186 49.4 22.2121 48.6678 22.2831C48.0781 22.3404 47.5197 22.3161 46.9927 22.2103C46.4722 22.1038 45.9952 21.9408 45.5618 21.7212C45.1284 21.5016 44.7402 21.2417 44.3971 20.9414C44.0604 20.6405 43.7779 20.3245 43.5496 19.9935L45.1331 18.1129C45.2628 18.3031 45.4529 18.5103 45.7036 18.7346C45.9537 18.9523 46.2284 19.1546 46.5278 19.3414C46.8337 19.5275 47.1462 19.6803 47.4652 19.7998C47.7836 19.9128 48.0724 19.9567 48.3316 19.9316C48.7074 19.8951 49.0352 19.8011 49.3148 19.6497C49.5945 19.4983 49.8214 19.3095 49.9957 19.0832C50.1758 18.8499 50.3013 18.5924 50.372 18.3108C50.4493 18.0286 50.4738 17.7417 50.4455 17.4501C50.4178 17.165 50.2935 16.9285 50.0724 16.7406C49.8579 16.5522 49.5805 16.3894 49.2401 16.2524C48.8998 16.1153 48.5147 15.9892 48.0849 15.8739C47.6551 15.7587 47.2143 15.6314 46.7625 15.4921C46.3172 15.3522 45.8759 15.1857 45.4385 14.9927C45.0005 14.7932 44.6035 14.5439 44.2474 14.2449C43.8907 13.9394 43.5902 13.5728 43.346 13.1452C43.1075 12.7105 42.9588 12.1885 42.8996 11.5794C42.843 10.9962 42.9288 10.4646 43.1569 9.9846C43.3915 9.50395 43.7202 9.08286 44.143 8.72131C44.5658 8.35976 45.0641 8.06937 45.6381 7.85013C46.2114 7.62441 46.8123 7.48105 47.4409 7.42004C47.8686 7.37852 48.3064 7.40797 48.7544 7.50839C49.2082 7.6017 49.6444 7.74905 50.063 7.95044C50.4809 8.14535 50.8673 8.38584 51.2221 8.6719C51.5828 8.95086 51.8773 9.25587 52.1057 9.58692L50.3888 11.2057C50.2526 11.0161 50.0676 10.828 49.8336 10.6414C49.6055 10.4477 49.3504 10.2795 49.0684 10.1368C48.7922 9.98703 48.5062 9.87089 48.2104 9.78841C47.9146 9.70593 47.6339 9.67758 47.3682 9.70337C46.6035 9.77759 46.0499 9.93599 45.7071 10.1786C45.3708 10.4205 45.2266 10.7877 45.2744 11.2802ZM53.9653 9.76236L53.5764 7.10511L56.1371 6.73042L56.5259 9.38767L53.9653 9.76236ZM56.6729 10.3926L58.2099 20.896L55.6492 21.2707L54.1123 10.7673L56.6729 10.3926ZM73.9294 11.5011C73.9518 11.6295 73.9781 11.7604 74.0082 11.8938C74.0642 12.1414 74.1415 12.4243 74.2401 12.7424C74.3451 13.0591 74.4783 13.3827 74.6399 13.7133C74.7999 14.0376 74.969 14.313 75.1471 14.5398C75.3237 14.7602 75.4976 14.8944 75.6687 14.9425L74.9589 17.5159C74.6854 17.4576 74.4301 17.3618 74.1931 17.2285C73.9609 17.0874 73.7428 16.9198 73.5387 16.7256C73.3347 16.5315 73.146 16.3171 72.9729 16.0826C72.806 15.8467 72.6505 15.6015 72.5062 15.3471C72.2318 15.8163 71.909 16.2631 71.5377 16.6874C71.1664 17.1118 70.7477 17.5035 70.2815 17.8625C69.8203 18.2137 69.3126 18.5221 68.7586 18.7875C68.2123 19.0579 67.6238 19.2743 66.9931 19.437C66.9105 19.4556 66.8312 19.4736 66.755 19.4908C66.2215 19.6114 65.6808 19.6702 65.1329 19.6673C64.5863 19.6707 64.0522 19.6113 63.5306 19.4889C63.0139 19.3587 62.5331 19.1804 62.0881 18.954C61.648 18.7197 61.2569 18.4511 60.9147 18.148C60.5725 17.8449 60.2878 17.5155 60.0605 17.1597C59.8381 16.7961 59.6846 16.427 59.5999 16.0524C59.4592 15.43 59.4416 14.88 59.5472 14.4023C59.6577 13.9167 59.8418 13.4913 60.0997 13.126C60.3624 12.7528 60.6769 12.4314 61.0431 12.1618C61.4156 11.8906 61.7943 11.6615 62.1792 11.4744C62.5704 11.2858 62.9427 11.1315 63.2961 11.0116C63.6558 10.8902 63.9541 10.7928 64.1911 10.7192L64.3223 10.6795C64.7025 10.5602 65.1413 10.4343 65.6386 10.3018C66.1409 10.1615 66.6707 10.0251 67.2281 9.89237C67.784 9.75333 68.3509 9.61849 68.9288 9.48784C69.513 9.35576 70.0757 9.23188 70.6169 9.11619C70.5351 8.75424 70.3265 8.40757 69.9913 8.0762C69.6546 7.73849 69.2338 7.45651 68.7288 7.23028C68.2223 6.9977 67.6469 6.84411 67.0026 6.7695C66.3633 6.68712 65.7007 6.72345 65.0148 6.8785C64.6338 6.96464 64.2487 7.09176 63.8596 7.25984C63.4767 7.42649 63.0951 7.64292 62.7148 7.90913C62.3408 8.1739 61.9719 8.49091 61.6082 8.86016C61.2431 9.22305 60.8947 9.64556 60.5632 10.1277L58.5443 8.99218C58.8852 8.37445 59.2871 7.81969 59.75 7.32792C60.2192 6.83471 60.7161 6.4053 61.2409 6.0397C61.772 5.67266 62.3142 5.36984 62.8677 5.13124C63.4261 4.88486 63.9688 4.70209 64.4959 4.58292C65.4357 4.37044 66.2961 4.27936 67.0773 4.30968C67.8584 4.34 68.5618 4.45463 69.1875 4.65359C69.8181 4.84475 70.3698 5.10047 70.8427 5.42074C71.322 5.73957 71.7296 6.08127 72.0657 6.44582C72.4017 6.81038 72.6682 7.17731 72.8652 7.54661C73.0622 7.91591 73.1944 8.24979 73.2619 8.54825C73.2633 8.5546 73.2577 8.55921 73.245 8.56208C73.2386 8.56352 73.2362 8.56741 73.2376 8.57376L73.2662 8.5673L73.9294 11.5011ZM63.0573 16.6423C63.6156 16.9566 64.1964 17.1491 64.7997 17.2196C65.403 17.2901 66.0032 17.2579 66.6001 17.1229C67.2478 16.9765 67.8647 16.7235 68.4509 16.3641C69.0372 16.0046 69.5493 15.5684 69.9873 15.0555C70.4303 14.5349 70.7767 13.956 71.0264 13.3188C71.2747 12.6753 71.3817 11.997 71.3473 11.2839C70.8061 11.3996 70.2402 11.5242 69.6496 11.6577C69.0654 11.7898 68.4922 11.926 67.9299 12.0665C67.3662 12.2006 66.8324 12.3347 66.3287 12.4686C65.825 12.6025 65.3863 12.7284 65.0124 12.8463L64.8717 12.8881C64.2433 13.0902 63.7327 13.2824 63.3401 13.4646C62.9474 13.6469 62.6469 13.8383 62.4386 14.0389C62.2304 14.2395 62.103 14.4585 62.0565 14.696C62.0087 14.9271 62.0185 15.1918 62.086 15.4903C62.1405 15.7316 62.2525 15.9466 62.422 16.1352C62.5964 16.316 62.8081 16.4851 63.0573 16.6423ZM76.8491 2.04279L83.4904 10.2073L81.0437 0.944897L83.4608 0.306433L87.1171 14.1481L84.6811 14.7915L78.0517 6.63399L80.4984 15.8964L78.0718 16.5373L74.4156 2.69568L76.8491 2.04279Z" fill="#1F1F1F"/>
</svg>
