<svg width="107" height="46" viewBox="0 0 107 46" fill="none" xmlns="http://www.w3.org/2000/svg">
<path d="M84.7237 0.0646362C85.2017 -0.0624911 85.6822 0.00329419 86.1172 0.215027L86.9395 0.615417C86.9426 0.616915 86.9457 0.618203 86.9483 0.619324L87.7227 0.300964C88.2502 0.0842291 88.8063 0.101981 89.3184 0.34198L90.0967 0.708191C90.0979 0.70769 90.0993 0.706806 90.1006 0.706238L90.9229 0.364441L91.1455 0.286316C91.6676 0.139423 92.197 0.233219 92.6543 0.543152L93.3389 1.00604L94.1202 0.690613C94.6057 0.493639 95.1248 0.487075 95.6055 0.706238L95.8096 0.81366L96.5469 1.2619V1.26288C96.6272 1.3116 96.6863 1.32123 96.7461 1.31757L97.5684 1.26678C97.9865 1.24089 98.3962 1.30465 98.7862 1.45917L99.5401 1.758C99.7665 1.84769 99.9942 1.92733 100.223 1.99725L100.986 2.23065C101.264 2.31564 101.539 2.41074 101.811 2.51581L102.558 2.80585C102.723 2.86996 102.896 2.9109 103.077 2.92987L103.881 3.01483C104.17 3.04513 104.458 3.08466 104.743 3.133L105.538 3.26678C105.826 3.31549 106.139 3.4398 106.395 3.69843C106.62 3.9261 106.741 4.19761 106.796 4.45819L106.815 4.56854L106.93 5.3537C107.003 5.85342 106.898 6.33479 106.642 6.75995L106.217 7.46405C106.069 7.70916 105.917 7.95288 105.759 8.19452L105.305 8.88983C105.227 9.00843 105.183 9.12723 105.162 9.25214L105.031 10.05C104.988 10.3117 104.947 10.5744 104.907 10.8371L104.785 11.6369C104.743 11.9187 104.694 12.1996 104.639 12.4777L104.482 13.2668C104.428 13.5401 104.369 13.8124 104.307 14.0832L104.126 14.8654C104.063 15.1372 103.996 15.408 103.924 15.6769L103.717 16.4504C103.584 16.9446 103.291 17.3438 102.917 17.6525L102.182 18.259C102.129 18.3026 102.105 18.3339 102.096 18.3488C102.088 18.3616 102.086 18.3683 102.085 18.3732L101.935 19.1652C101.909 19.3008 101.906 19.4613 101.938 19.6535L102.085 20.5392C102.165 21.0218 102.109 21.5104 101.878 21.9621L101.509 22.6838C101.346 23.002 101.142 23.2994 100.902 23.5754L100.348 24.2131L100.481 25.0773C100.556 25.5624 100.491 26.0509 100.253 26.4992L99.8721 27.217C99.8177 27.3193 99.7868 27.4287 99.7823 27.5568L99.7539 28.3869C99.746 28.6156 99.7023 28.9013 99.5508 29.1721C99.3832 29.4714 99.1117 29.6997 98.7676 29.8039L98.2432 29.9621C97.8645 30.0767 97.4721 30.0616 97.1202 30.0002L96.3203 29.8605C96.1812 29.8362 96.0231 29.8354 95.8399 29.8693L94.9698 30.0305C94.3673 30.142 93.7998 29.9726 93.3496 29.5764L92.7237 29.0246L91.9541 29.2297C91.5646 29.333 91.167 29.3707 90.7696 29.3283L89.9834 29.2443C89.6909 29.2131 89.3987 29.1687 89.1075 29.1105L88.3213 28.9533C88.09 28.9071 87.853 28.8715 87.6114 28.8459L86.8262 28.7619L86.1719 29.341C85.8912 29.589 85.5856 29.7958 85.2549 29.9474L84.5694 30.2619C84.2665 30.4007 83.9433 30.5045 83.6045 30.5764L82.7784 30.7512C82.7767 30.7515 82.7748 30.7518 82.7735 30.7521C82.7724 30.7537 82.7719 30.7559 82.7705 30.758L82.3116 31.4738C82.0804 31.8344 81.7793 32.1347 81.4102 32.3566L80.7207 32.7717C80.4225 32.951 80.1028 33.0945 79.7657 33.2043L78.9571 33.467C78.8701 33.4953 78.8164 33.536 78.7705 33.5939L78.2569 34.2433C77.9476 34.6344 77.5366 34.8973 77.0596 35.0236L76.2608 35.2346C76.2591 35.2376 76.2569 35.2413 76.2549 35.2453L75.8409 36.0646C75.6337 36.4748 75.3377 36.8287 74.9414 37.0832L74.2627 37.5197C73.8809 37.7649 73.4535 37.8936 73.0078 37.926L72.1143 37.9904C71.9647 38.0013 71.8722 38.0397 71.8086 38.0812L71.1407 38.5178C70.8811 38.6875 70.611 38.8398 70.3311 38.9738L69.6104 39.3185C69.4893 39.3766 69.3693 39.4629 69.25 39.5891L68.6582 40.2141C68.3508 40.5393 67.978 40.781 67.5459 40.9152L66.7715 41.1564C66.5846 41.2145 66.4055 41.2927 66.2334 41.3918L65.5264 41.799C65.211 41.9807 64.875 42.1161 64.5225 42.2043L63.7364 42.4006C63.3582 42.4951 62.9697 42.5212 62.5782 42.4855L61.7149 42.4064C61.6016 42.3961 61.5257 42.4152 61.4619 42.4474L60.7354 42.8166C60.3286 43.0227 59.8882 43.1086 59.4356 43.0773L58.6045 43.0197C58.5854 43.0184 58.5761 43.0209 58.5703 43.0226C58.5637 43.0247 58.5432 43.0318 58.5088 43.0578L57.8028 43.5939C57.4671 43.8483 57.092 44.033 56.6817 44.1301L55.8946 44.3166C55.4487 44.422 54.9993 44.3988 54.5664 44.2717L53.7217 44.0236C53.5732 43.98 53.4576 43.9776 53.3633 43.9943L52.5782 44.134C52.455 44.1559 52.3163 44.2067 52.1602 44.3039L51.4053 44.7736C51.0433 44.9989 50.6467 45.1498 50.2217 45.2023L49.4219 45.301C49.0837 45.3427 48.7431 45.3479 48.4024 45.3166L47.5909 45.2414C47.3053 45.2151 47.0198 45.1822 46.7354 45.1428L45.9268 45.0305C45.7226 45.0022 45.5215 44.9955 45.3233 45.008L44.5235 45.0578C44.1824 45.0792 43.8416 45.0625 43.503 45.008L42.7041 44.8791C42.4048 44.8308 42.107 44.7679 41.8125 44.6896L41.0254 44.4797C40.9031 44.4472 40.7831 44.4421 40.6563 44.4641L39.8496 44.6037C39.4611 44.6711 39.0698 44.6667 38.6836 44.5881L37.8994 44.4289C37.8025 44.4092 37.6896 44.4093 37.5479 44.4474L36.711 44.673C36.1514 44.8237 35.594 44.7293 35.1143 44.4113L34.3838 43.9269C34.2182 43.8171 34.0625 43.7463 33.917 43.7053L33.1524 43.4894C32.9053 43.4197 32.6575 43.3535 32.4102 43.2902L31.6436 43.0939C31.4402 43.0419 31.2302 43.0059 31.0137 42.9855L30.21 42.9094C29.9843 42.8882 29.7483 42.8812 29.503 42.8879L28.6524 42.9103C28.0422 42.9268 27.52 42.6656 27.1426 42.2248L26.5713 41.5568L25.7412 41.6027C25.3396 41.6248 24.9438 41.5824 24.5625 41.465L23.7852 41.2248C23.4987 41.1366 23.2159 41.0366 22.9385 40.924L22.1856 40.6183C21.8381 40.4773 21.5184 40.2847 21.2295 40.0441L20.5967 39.5168C20.3893 39.3439 20.182 39.1735 19.9756 39.006L19.3457 38.4943C19.1034 38.2977 18.8728 38.0862 18.6553 37.8596L18.0879 37.2678C17.9321 37.1054 17.769 36.9592 17.5996 36.8283L16.9698 36.342C16.758 36.1784 16.5463 36.0137 16.336 35.8488L15.711 35.3586C15.6824 35.3362 15.6143 35.2956 15.4541 35.2814L14.5088 35.1974C13.8765 35.1416 13.329 34.8093 13.0313 34.2043L12.6407 33.4103C12.5622 33.2509 12.4732 33.1395 12.3819 33.0588L11.7832 32.5305C11.596 32.3652 11.4043 32.2042 11.209 32.048L10.585 31.549C10.3427 31.3553 10.1135 31.1462 9.89847 30.9221L9.34378 30.3439C9.23698 30.2326 9.11036 30.1367 8.95902 30.0578L8.22562 29.675C7.92091 29.5162 7.63589 29.3296 7.37406 29.1135L6.75589 28.6017C6.40325 28.3106 6.152 27.9392 5.99125 27.5197L5.67386 26.6926C5.67257 26.6892 5.67104 26.6862 5.66996 26.6838L4.87601 26.3615C4.45645 26.1909 4.09376 25.924 3.81449 25.5598L3.3223 24.9182C3.2376 24.8077 3.13437 24.7162 3.00687 24.6408L2.29886 24.2219C1.93729 24.0082 1.63323 23.7243 1.39652 23.3771L0.936558 22.7023C0.770953 22.4594 0.624272 22.227 0.500034 22.007L0.177769 21.4357C0.0105898 21.1397 -0.0890295 20.7112 0.111362 20.2687C0.283266 19.8893 0.598129 19.6829 0.810581 19.5744L1.56742 19.1877C1.62263 19.1594 1.6482 19.131 1.67191 19.0803L2.02835 18.3176C2.17446 18.0048 2.34857 17.7107 2.55082 17.4387L3.03128 16.7932C3.2468 16.5033 3.4993 16.2469 3.78617 16.0266L4.42875 15.5324C4.51871 15.4633 4.59266 15.3768 4.6514 15.259L5.02445 14.5109C5.25466 14.0493 5.62122 13.7053 6.08402 13.4943L6.87015 13.1359C6.95373 13.0978 6.99168 13.057 7.01957 13.009L7.43265 12.299C7.6318 11.9563 7.88722 11.6578 8.1973 11.4113L8.83011 10.9084C8.98877 10.7822 9.13177 10.6431 9.2598 10.4904L9.77445 9.87616C10.0118 9.59319 10.2892 9.35052 10.6006 9.14862L11.291 8.70038C11.4655 8.58727 11.6222 8.46154 11.7618 8.32343L12.3301 7.76093C12.5269 7.56616 12.7269 7.37373 12.9297 7.18475L13.5166 6.63788C13.6188 6.54265 13.7059 6.42635 13.7774 6.28046L14.1465 5.5285C14.3374 5.13898 14.6092 4.80654 14.959 4.54706L15.6114 4.06366C15.7988 3.9246 15.9766 3.77652 16.1436 3.6203L16.7285 3.07245C16.8079 2.99818 16.8782 2.89972 16.9336 2.75995L17.251 1.96014L17.3418 1.76483C17.4521 1.5601 17.6258 1.33685 17.9014 1.18475C18.2542 0.990073 18.6156 0.996839 18.9053 1.07733L19.0254 1.11542L19.7041 1.36639C20.0614 1.49852 20.3817 1.70066 20.6641 1.95526L21.2598 2.49237C21.4543 2.66768 21.6498 2.8419 21.8467 3.01385L22.4502 3.5412C22.6725 3.73534 22.887 3.93844 23.0918 4.15057L23.6475 4.72577C23.8118 4.89585 23.983 5.05924 24.1621 5.21405L24.7686 5.73749C25.0654 5.99409 25.3075 6.3001 25.4961 6.64569L25.8994 7.383C25.945 7.46625 25.9985 7.51898 26.0713 7.55975L26.792 7.96307C27.2265 8.20643 27.5492 8.56961 27.753 9.01483L28.1133 9.80292C28.1681 9.92256 28.2332 9.99683 28.3047 10.05L28.9551 10.5324C29.1547 10.6805 29.359 10.8234 29.5684 10.9592L30.25 11.4006C30.3668 11.4762 30.5113 11.5378 30.6934 11.5773L31.5606 11.7658C32.041 11.8702 32.4731 12.1079 32.8047 12.4933L33.334 13.1086C33.5044 13.3067 33.6808 13.5054 33.8614 13.7043L34.42 14.3205C34.5192 14.4298 34.6276 14.5086 34.7481 14.5646L35.4834 14.9055C35.7232 15.0169 35.9644 15.1272 36.2061 15.2346L36.9463 15.5637C37.1252 15.6431 37.3107 15.7014 37.503 15.7394L38.2979 15.8976C38.5578 15.9491 38.8177 15.9981 39.0762 16.0451L39.8682 16.1896C40.0732 16.2269 40.2802 16.2451 40.4883 16.2453L41.292 16.2463C41.4861 16.2465 41.6812 16.2251 41.878 16.1818L42.6778 16.006C43.1076 15.9115 43.5414 15.9264 43.9639 16.0471L44.7588 16.2736C45.026 16.3499 45.2974 16.4283 45.5723 16.509L46.3907 16.7492C46.4022 16.7526 46.4094 16.7538 46.4121 16.7541H46.416C46.4168 16.7539 46.4183 16.7536 46.42 16.7531C46.4244 16.7518 46.4337 16.7484 46.4473 16.7414L47.2188 16.3459C47.6157 16.1422 48.0468 16.0362 48.4981 16.051L49.3067 16.0773C49.5165 16.0842 49.7239 16.0725 49.9278 16.0422L50.7198 15.924C50.8792 15.9003 51.0384 15.8518 51.1993 15.7736L51.9473 15.4103C52.3818 15.1992 52.8498 15.1308 53.3233 15.1974L54.1748 15.3176H54.1758C54.212 15.3226 54.2299 15.3197 54.2354 15.3185C54.2405 15.3174 54.2512 15.3147 54.2696 15.3029L54.9659 14.8547C55.2905 14.6458 55.6421 14.4942 56.0166 14.4035L56.8106 14.2111C56.8866 14.1927 56.9478 14.1595 57.0098 14.0949L57.585 13.4953C57.8328 13.2374 58.1073 13.0143 58.4082 12.8293L59.085 12.4133C59.3413 12.2558 59.608 12.1104 59.8838 11.9787L60.6182 11.6281C60.8623 11.5115 61.1069 11.3941 61.3516 11.2766L62.0879 10.923C62.2966 10.8228 62.495 10.712 62.6827 10.591L63.3535 10.1594C63.5082 10.0596 63.6505 9.94056 63.7813 9.80194L64.3369 9.21307C64.5617 8.97483 64.8045 8.75773 65.0655 8.56366L65.7061 8.0871C65.9829 7.88129 66.2819 7.70984 66.6006 7.57245L67.3477 7.25018C67.5028 7.1833 67.6399 7.09773 67.7618 6.99139L68.3653 6.46405C68.6331 6.23028 68.9277 6.03467 69.2471 5.88007L69.9629 5.53339C70.1209 5.45687 70.27 5.35969 70.4102 5.23846L71.0254 4.70624C71.28 4.48613 71.5534 4.29314 71.8448 4.12909L72.542 3.73651C72.796 3.59353 73.0553 3.45987 73.3194 3.33612L74.044 2.99628C74.4348 2.81316 74.8528 2.73267 75.2813 2.74237L76.0909 2.75995L76.6944 2.05585C77.033 1.66039 77.4913 1.40781 78.0264 1.38397L78.2608 1.38788L79.1104 1.45428C79.2378 1.46421 79.339 1.44512 79.4297 1.40546L80.1748 1.07928C80.4276 0.968736 80.6839 0.858981 80.9424 0.750183L81.7051 0.428894C82.0284 0.292885 82.3734 0.193538 82.7246 0.176941L83.3194 0.148621C83.4482 0.142568 83.6459 0.141685 83.8467 0.194519C83.8961 0.207547 83.9884 0.238554 84.0948 0.294128L84.5186 0.131042L84.7237 0.0646362Z" fill="#9FD4FE"/>
</svg>
