<svg width="36" height="36" viewBox="0 0 36 36" fill="none" xmlns="http://www.w3.org/2000/svg">
<path d="M21.0168 1.16625L22.6416 2.33248L22.8211 2.08231L22.9171 1.78971L21.0168 1.16625ZM20.0691 2.4866L21.6938 3.65284L20.0691 2.4866ZM19.2629 4.69537L21.238 4.38056L19.2629 4.69537ZM19.5461 6.47219L17.5711 6.78699L19.5461 6.47219ZM19.2744 8.06694L17.5482 7.05677L19.2744 8.06694ZM18.4477 9.47962L20.1738 10.4898V10.4898L18.4477 9.47962ZM17.6793 10.9114L19.4757 11.7906L17.6793 10.9114ZM17.3242 11.6369L19.1206 12.516L17.3242 11.6369ZM16.9692 12.3624L15.1728 11.4832L16.9692 12.3624ZM16.6231 13.9327L18.623 13.9116L16.6231 13.9327ZM16.6409 15.6225L14.641 15.6436L16.6409 15.6225ZM15.3105 17.7119L16.6718 19.177L15.3105 17.7119ZM14.6408 18.3341L13.2794 16.8689L14.6408 18.3341ZM14.2278 19.0952L13.2761 20.8543L14.2278 19.0952ZM14.4845 19.2341L13.5329 20.9932L13.6846 21.0753L13.8482 21.1302L14.4845 19.2341ZM15.0291 19.4169L16.9295 20.0404L17.5488 18.1528L15.6654 17.5208L15.0291 19.4169ZM14.9282 19.5836L16.0288 21.2535L16.21 21.1341L16.3613 20.9787L14.9282 19.5836ZM13.6032 20.4568L12.5026 18.7869L13.6032 20.4568ZM11.8714 22.0506L10.1299 21.0671L11.8714 22.0506ZM11.4645 22.771L13.2061 23.7544L11.4645 22.771ZM11.0577 23.4914L9.3162 22.508L11.0577 23.4914ZM8.50525 25.4725L9.5184 27.1969L8.50525 25.4725ZM7.28784 26.5203L8.84944 27.7699L7.28784 26.5203ZM6.28346 27.7755L4.72186 26.526L6.28346 27.7755ZM5.11684 28.8728L3.96242 27.2396L5.11684 28.8728ZM3.78797 29.8121L4.94238 31.4453L3.78797 29.8121ZM2.86963 31.0546L4.7697 31.6788L2.86963 31.0546ZM2.03043 33.2975L3.42552 31.8644L2.03043 33.2975ZM1.95294 33.2221L0.0852141 33.9373L0.24257 34.3482L0.557844 34.6552L1.95294 33.2221ZM1.86773 32.9996L3.73546 32.2843L2.61672 29.363L0.434654 31.6045L1.86773 32.9996ZM15.0805 19.5684L13.9504 21.2186L14.1459 21.3524L14.3673 21.4369L15.0805 19.5684ZM18.7658 21.0893L19.7206 19.3319L18.7658 21.0893ZM20.1792 21.8571L19.2245 23.6145L20.1792 21.8571ZM22.0493 24.7898L23.8687 23.9593L22.0493 24.7898ZM23.0818 26.1138L21.8962 27.7246L23.0818 26.1138ZM23.7264 26.5883L24.912 24.9776L23.7264 26.5883ZM25.897 27.6664L25.6071 29.6453L25.897 27.6664ZM26.7782 27.7955L27.0681 25.8166L26.7782 27.7955ZM27.6594 27.9246L27.3695 29.9035L27.6594 27.9246ZM29.2787 28.3917L28.446 30.2101L29.2787 28.3917ZM30.755 29.0678L31.5877 27.2494L30.755 29.0678ZM31.9611 30.1383L30.2758 31.2152L31.9611 30.1383ZM32.8971 31.6032L34.5825 30.5263L32.8971 31.6032ZM33.7234 32.5195L32.8099 34.2987L33.7234 32.5195ZM34.0816 32.7034L33.1681 34.4826L33.184 34.4908L33.2 34.4986L34.0816 32.7034ZM34.7155 33.0147L35.8455 31.3646L35.7265 31.2831L35.5971 31.2195L34.7155 33.0147ZM21.048 1.07123L19.1476 0.447766L19.1165 0.542783L21.0168 1.16625L22.9171 1.78971L22.9483 1.69469L21.048 1.07123ZM21.0168 1.16625L19.392 8.22544e-06L18.4443 1.32036L20.0691 2.4866L21.6938 3.65284L22.6416 2.33248L21.0168 1.16625ZM20.0691 2.4866L18.4443 1.32036C17.7308 2.31437 17.0648 3.61085 17.2879 5.01017L19.2629 4.69537L21.238 4.38056C21.2584 4.50833 21.2201 4.52817 21.2725 4.38467C21.3257 4.23872 21.4468 3.99708 21.6938 3.65284L20.0691 2.4866ZM19.2629 4.69537L17.2879 5.01017L17.4295 5.89858L19.4045 5.58378L21.3796 5.26898L21.238 4.38056L19.2629 4.69537ZM19.4045 5.58378L17.4295 5.89858L17.5711 6.78699L19.5461 6.47219L21.5212 6.15739L21.3796 5.26898L19.4045 5.58378ZM19.5461 6.47219L17.5711 6.78699C17.6003 6.97056 17.5664 7.02581 17.5482 7.05677L19.2744 8.06694L21.0005 9.07711C21.5336 8.16629 21.6808 7.15837 21.5212 6.15739L19.5461 6.47219ZM19.2744 8.06694L17.5482 7.05677L17.1349 7.76311L18.861 8.77328L20.5872 9.78345L21.0005 9.07711L19.2744 8.06694ZM18.861 8.77328L17.1349 7.76311L16.7215 8.46945L18.4477 9.47962L20.1738 10.4898L20.5872 9.78345L18.861 8.77328ZM18.4477 9.47962L16.7215 8.46945C16.4212 8.98257 16.1416 9.50352 15.8829 10.0323L17.6793 10.9114L19.4757 11.7906C19.6903 11.352 19.9229 10.9185 20.1738 10.4898L18.4477 9.47962ZM17.6793 10.9114L15.8829 10.0323L15.5278 10.7578L17.3242 11.6369L19.1206 12.516L19.4757 11.7906L17.6793 10.9114ZM17.3242 11.6369L15.5278 10.7578L15.1728 11.4832L16.9692 12.3624L18.7656 13.2415L19.1206 12.516L17.3242 11.6369ZM16.9692 12.3624L15.1728 11.4832C14.7926 12.26 14.6141 13.0936 14.6232 13.9538L16.6231 13.9327L18.623 13.9116C18.6201 13.6454 18.6724 13.432 18.7656 13.2415L16.9692 12.3624ZM16.6231 13.9327L14.6232 13.9538L14.6321 14.7987L16.632 14.7776L18.6319 14.7565L18.623 13.9116L16.6231 13.9327ZM16.632 14.7776L14.6321 14.7987L14.641 15.6436L16.6409 15.6225L18.6408 15.6014L18.6319 14.7565L16.632 14.7776ZM16.6409 15.6225L14.641 15.6436C14.6411 15.6502 14.6405 15.6452 14.6432 15.6319C14.6445 15.6256 14.6463 15.6185 14.6487 15.611C14.6511 15.6034 14.6538 15.5965 14.6566 15.5904C14.6624 15.5775 14.6662 15.5731 14.6631 15.5774C14.6596 15.5821 14.6469 15.5984 14.6188 15.6245L15.9801 17.0896L17.3415 18.5548C18.1627 17.7918 18.6532 16.7776 18.6408 15.6014L16.6409 15.6225ZM15.9801 17.0896L14.6188 15.6245L13.9491 16.2467L15.3105 17.7119L16.6718 19.177L17.3415 18.5548L15.9801 17.0896ZM15.3105 17.7119L13.9491 16.2467L13.2794 16.8689L14.6408 18.3341L16.0021 19.7993L16.6718 19.177L15.3105 17.7119ZM14.6408 18.3341L13.2794 16.8689C13.0335 17.0975 12.679 17.4499 12.4448 17.8817C12.3332 18.0873 12.1063 18.5642 12.1666 19.1881C12.2433 19.981 12.7293 20.5585 13.2761 20.8543L14.2278 19.0952L15.1795 17.3362C15.3762 17.4426 15.6138 17.6192 15.8111 17.8983C16.0141 18.1854 16.119 18.503 16.1481 18.803C16.2 19.3404 16.0033 19.7106 15.9606 19.7893C15.864 19.9674 15.8016 19.9856 16.0021 19.7993L14.6408 18.3341ZM14.2278 19.0952L13.2761 20.8543L13.5329 20.9932L14.4845 19.2341L15.4362 17.4751L15.1795 17.3362L14.2278 19.0952ZM14.4845 19.2341L13.8482 21.1302L14.3929 21.313L15.0291 19.4169L15.6654 17.5208L15.1208 17.338L14.4845 19.2341ZM15.0291 19.4169L13.1288 18.7934L13.0976 18.8884L14.998 19.5119L16.8983 20.1354L16.9295 20.0404L15.0291 19.4169ZM14.998 19.5119L13.5649 18.1168L13.4951 18.1885L14.9282 19.5836L16.3613 20.9787L16.431 20.907L14.998 19.5119ZM14.9282 19.5836L13.8276 17.9136L12.5026 18.7869L13.6032 20.4568L14.7038 22.1268L16.0288 21.2535L14.9282 19.5836ZM13.6032 20.4568L12.5026 18.7869C11.555 19.4115 10.6433 20.1578 10.1299 21.0671L11.8714 22.0506L13.6129 23.034C13.6124 23.0348 13.6678 22.9423 13.8621 22.7636C14.0497 22.5909 14.3231 22.3777 14.7038 22.1268L13.6032 20.4568ZM11.8714 22.0506L10.1299 21.0671L9.72303 21.7876L11.4645 22.771L13.2061 23.7544L13.6129 23.034L11.8714 22.0506ZM11.4645 22.771L9.72303 21.7876L9.3162 22.508L11.0577 23.4914L12.7992 24.4749L13.2061 23.7544L11.4645 22.771ZM11.0577 23.4914L9.3162 22.508C9.21873 22.6806 9.09634 22.8056 8.92252 22.9077L9.93568 24.6321L10.9488 26.3565C11.7286 25.8983 12.3543 25.2628 12.7992 24.4749L11.0577 23.4914ZM9.93568 24.6321L8.92252 22.9077L8.20731 23.3279L9.22046 25.0523L10.2336 26.7767L10.9488 26.3565L9.93568 24.6321ZM9.22046 25.0523L8.20731 23.3279L7.49209 23.7481L8.50525 25.4725L9.5184 27.1969L10.2336 26.7767L9.22046 25.0523ZM8.50525 25.4725L7.49209 23.7481C6.8119 24.1478 6.21826 24.6559 5.72624 25.2708L7.28784 26.5203L8.84944 27.7699C9.02701 27.548 9.24497 27.3576 9.5184 27.1969L8.50525 25.4725ZM7.28784 26.5203L5.72624 25.2708L5.22405 25.8984L6.78565 27.1479L8.34725 28.3975L8.84944 27.7699L7.28784 26.5203ZM6.78565 27.1479L5.22405 25.8984L4.72186 26.526L6.28346 27.7755L7.84506 29.0251L8.34725 28.3975L6.78565 27.1479ZM6.28346 27.7755L4.72186 26.526C4.5056 26.7962 4.25425 27.0333 3.96242 27.2396L5.11684 28.8728L6.27125 30.506C6.86534 30.0861 7.39174 29.5916 7.84506 29.0251L6.28346 27.7755ZM5.11684 28.8728L3.96242 27.2396L3.29798 27.7093L4.4524 29.3424L5.60682 30.9756L6.27125 30.506L5.11684 28.8728ZM4.4524 29.3424L3.29798 27.7093L2.63355 28.1789L3.78797 29.8121L4.94238 31.4453L5.60682 30.9756L4.4524 29.3424ZM3.78797 29.8121L2.63355 28.1789C1.84037 28.7396 1.27277 29.5074 0.969552 30.4303L2.86963 31.0546L4.7697 31.6788C4.80502 31.5713 4.84965 31.5108 4.94238 31.4453L3.78797 29.8121ZM2.86963 31.0546L0.969552 30.4303L0.715647 31.2031L2.61572 31.8274L4.5158 32.4516L4.7697 31.6788L2.86963 31.0546ZM2.61572 31.8274L0.715647 31.2031L0.461742 31.9759L2.36182 32.6002L4.26189 33.2244L4.5158 32.4516L2.61572 31.8274ZM2.36182 32.6002L0.461742 31.9759C0.38126 32.2208 0.34351 32.3069 0.345601 32.3025C0.349053 32.2952 0.36451 32.2629 0.392287 32.216C0.414713 32.1781 0.478016 32.0741 0.586156 31.9526C0.659094 31.8707 0.948755 31.5501 1.46489 31.3914C1.76077 31.3005 2.13252 31.2637 2.53182 31.3648C2.92667 31.4648 3.22368 31.6679 3.42552 31.8644L2.03043 33.2975L0.635328 34.7306C0.84363 34.9334 1.14756 35.1406 1.54978 35.2424C1.95646 35.3454 2.33605 35.3083 2.64022 35.2148C3.17294 35.0511 3.48103 34.7166 3.57423 34.6118C3.79531 34.3634 3.91889 34.1025 3.95843 34.0193C4.07099 33.7824 4.1731 33.4947 4.26189 33.2244L2.36182 32.6002ZM2.03043 33.2975L3.42552 31.8644L3.34804 31.789L1.95294 33.2221L0.557844 34.6552L0.635328 34.7306L2.03043 33.2975ZM1.95294 33.2221L3.82067 32.5068L3.73546 32.2843L1.86773 32.9996L5.96046e-07 33.7148L0.0852141 33.9373L1.95294 33.2221ZM1.86773 32.9996L0.434654 31.6045L0.364899 31.6761L1.79797 33.0712L3.23105 34.4663L3.3008 34.3947L1.86773 32.9996ZM14.998 19.5119L13.8679 21.1621L13.9504 21.2186L15.0805 19.5684L16.2105 17.9183L16.128 17.8618L14.998 19.5119ZM15.0805 19.5684L14.3673 21.4369L15.8566 22.0054L16.5698 20.1369L17.283 18.2684L15.7937 17.6999L15.0805 19.5684ZM16.5698 20.1369L15.8566 22.0054C16.8304 22.3771 17.4609 22.6564 17.8111 22.8467L18.7658 21.0893L19.7206 19.3319C19.1285 19.0102 18.295 18.6546 17.283 18.2684L16.5698 20.1369ZM18.7658 21.0893L17.8111 22.8467L18.5178 23.2306L19.4725 21.4732L20.4273 19.7158L19.7206 19.3319L18.7658 21.0893ZM19.4725 21.4732L18.5178 23.2306L19.2245 23.6145L20.1792 21.8571L21.134 20.0997L20.4273 19.7158L19.4725 21.4732ZM20.1792 21.8571L19.2245 23.6145C19.2552 23.6312 19.3457 23.6832 19.4543 23.9211L21.2737 23.0906L23.0931 22.2601C22.6846 21.3653 22.0454 20.5949 21.134 20.0997L20.1792 21.8571ZM21.2737 23.0906L19.4543 23.9211L19.8421 24.7707L21.6615 23.9402L23.4809 23.1097L23.0931 22.2601L21.2737 23.0906ZM21.6615 23.9402L19.8421 24.7707L20.2299 25.6203L22.0493 24.7898L23.8687 23.9593L23.4809 23.1097L21.6615 23.9402ZM22.0493 24.7898L20.2299 25.6203C20.6061 26.4445 21.1496 27.175 21.8962 27.7246L23.0818 26.1138L24.2673 24.5031C24.1544 24.42 24.0096 24.2678 23.8687 23.9593L22.0493 24.7898ZM23.0818 26.1138L21.8962 27.7246L22.5409 28.1991L23.7264 26.5883L24.912 24.9776L24.2673 24.5031L23.0818 26.1138ZM23.7264 26.5883L22.5409 28.1991L23.1856 28.6736L24.3711 27.0628L25.5567 25.4521L24.912 24.9776L23.7264 26.5883ZM24.3711 27.0628L23.1856 28.6736C23.9079 29.2052 24.7326 29.5172 25.6071 29.6453L25.897 27.6664L26.1869 25.6875C25.8865 25.6435 25.6939 25.5531 25.5567 25.4521L24.3711 27.0628ZM25.897 27.6664L25.6071 29.6453L26.4883 29.7744L26.7782 27.7955L27.0681 25.8166L26.1869 25.6875L25.897 27.6664ZM26.7782 27.7955L26.4883 29.7744L27.3695 29.9035L27.6594 27.9246L27.9493 25.9457L27.0681 25.8166L26.7782 27.7955ZM27.6594 27.9246L27.3695 29.9035C27.7874 29.9647 28.1422 30.071 28.446 30.2101L29.2787 28.3917L30.1115 26.5733C29.4311 26.2618 28.7064 26.0566 27.9493 25.9457L27.6594 27.9246ZM29.2787 28.3917L28.446 30.2101L29.1841 30.5481L30.0169 28.7298L30.8496 26.9114L30.1115 26.5733L29.2787 28.3917ZM30.0169 28.7298L29.1841 30.5481L29.9222 30.8862L30.755 29.0678L31.5877 27.2494L30.8496 26.9114L30.0169 28.7298ZM30.755 29.0678L29.9222 30.8862C30.0398 30.94 30.1555 31.0269 30.2758 31.2152L31.9611 30.1383L33.6464 29.0614C33.1427 28.2731 32.4543 27.6463 31.5877 27.2494L30.755 29.0678ZM31.9611 30.1383L30.2758 31.2152L30.7438 31.9476L32.4291 30.8707L34.1144 29.7938L33.6464 29.0614L31.9611 30.1383ZM32.4291 30.8707L30.7438 31.9476L31.2118 32.6801L32.8971 31.6032L34.5825 30.5263L34.1144 29.7938L32.4291 30.8707ZM32.8971 31.6032L31.2118 32.6801C31.5408 33.195 32.0581 33.9128 32.8099 34.2987L33.7234 32.5195L34.6368 30.7403C34.735 30.7907 34.7948 30.8377 34.817 30.8562C34.8403 30.8756 34.842 30.8802 34.8231 30.8592C34.8049 30.839 34.7743 30.8027 34.7319 30.7454C34.6898 30.6885 34.64 30.6163 34.5825 30.5263L32.8971 31.6032ZM33.7234 32.5195L32.8099 34.2987L33.1681 34.4826L34.0816 32.7034L34.995 30.9242L34.6368 30.7403L33.7234 32.5195ZM34.0816 32.7034L33.2 34.4986L33.8339 34.8099L34.7155 33.0147L35.5971 31.2195L34.9632 30.9082L34.0816 32.7034ZM34.7155 33.0147L33.5854 34.6649L33.6679 34.7214L34.798 33.0712L35.928 31.4211L35.8455 31.3646L34.7155 33.0147Z" fill="#F7F2EF"/>
</svg>
