<svg width="28" height="8" viewBox="0 0 28 8" fill="none" xmlns="http://www.w3.org/2000/svg">
<path d="M26.8376 4.46007L26.9306 2.46224L26.7477 2.45372L26.5663 2.47855L26.8376 4.46007ZM23.0447 4.70417L22.631 6.6609L23.0447 4.70417ZM19.9144 4.59132L20.8237 6.37264L19.9144 4.59132ZM19.1538 4.97956L18.2445 3.19824L19.1538 4.97956ZM18.3933 5.36781L19.3026 7.14913L18.3933 5.36781ZM16.8779 5.30106L15.8454 7.01395L16.8779 5.30106ZM16.1231 4.84607L17.1556 3.13318L16.1231 4.84607ZM15.3683 4.39108L16.4007 2.67819L15.3683 4.39108ZM10.6992 3.63696L10.1519 5.56061L10.6992 3.63696ZM2.91667 2.80132L2.37564 0.875884L2.91667 2.80132ZM2.00714 2.50102L0.0101849 2.39069L-1.19209e-05 2.57526L0.023791 2.75856L2.00714 2.50102ZM2.03574 1.98342L4.03269 2.09375L4.12924 0.346086L2.4098 0.0187174L2.03574 1.98342ZM26.9375 4.46472L27.0305 2.46689L26.9306 2.46224L26.8376 4.46007L26.7446 6.45791L26.8445 6.46256L26.9375 4.46472ZM26.8376 4.46007L26.5663 2.47855L25.0648 2.68412L25.3361 4.66563L25.6074 6.64715L27.1089 6.44159L26.8376 4.46007ZM25.3361 4.66563L25.0648 2.68412C24.1283 2.81234 23.641 2.78603 23.4585 2.74743L23.0447 4.70417L22.631 6.6609C23.5017 6.84501 24.542 6.79302 25.6074 6.64715L25.3361 4.66563ZM23.0447 4.70417L23.4585 2.74743L22.6685 2.5804L22.2548 4.53714L21.841 6.49387L22.631 6.6609L23.0447 4.70417ZM22.2548 4.53714L22.6685 2.5804L21.8786 2.41337L21.4648 4.37011L21.0511 6.32684L21.841 6.49387L22.2548 4.53714ZM21.4648 4.37011L21.8786 2.41337C20.8768 2.20155 19.8947 2.35584 19.005 2.81L19.9144 4.59132L20.8237 6.37264C20.9481 6.30913 20.9996 6.31595 21.0511 6.32684L21.4648 4.37011ZM19.9144 4.59132L19.005 2.81L18.2445 3.19824L19.1538 4.97956L20.0632 6.76088L20.8237 6.37264L19.9144 4.59132ZM19.1538 4.97956L18.2445 3.19824L17.484 3.58649L18.3933 5.36781L19.3026 7.14913L20.0632 6.76088L19.1538 4.97956ZM18.3933 5.36781L17.484 3.58649C17.499 3.57879 17.5874 3.54124 17.7222 3.54718C17.8538 3.55298 17.9226 3.59552 17.9104 3.58817L16.8779 5.30106L15.8454 7.01395C16.9175 7.66014 18.1563 7.73432 19.3026 7.14913L18.3933 5.36781ZM16.8779 5.30106L17.9104 3.58817L17.1556 3.13318L16.1231 4.84607L15.0906 6.55896L15.8454 7.01395L16.8779 5.30106ZM16.1231 4.84607L17.1556 3.13318L16.4007 2.67819L15.3683 4.39108L14.3358 6.10397L15.0906 6.55896L16.1231 4.84607ZM15.3683 4.39108L16.4007 2.67819C15.6362 2.21736 14.7876 1.94004 13.8768 1.91559L13.8231 3.91487L13.7695 5.91415C13.9124 5.91799 14.0939 5.95815 14.3358 6.10397L15.3683 4.39108ZM13.8231 3.91487L13.8768 1.91559L13.0865 1.89437L13.0329 3.89365L12.9792 5.89293L13.7695 5.91415L13.8231 3.91487ZM13.0329 3.89365L13.0865 1.89437L12.2962 1.87316L12.2426 3.87244L12.1889 5.87172L12.9792 5.89293L13.0329 3.89365ZM12.2426 3.87244L12.2962 1.87316C11.9348 1.86345 11.5863 1.80996 11.2466 1.71331L10.6992 3.63696L10.1519 5.56061C10.8163 5.74963 11.4966 5.85313 12.1889 5.87172L12.2426 3.87244ZM10.6992 3.63696L11.2466 1.71331L10.4935 1.49905L9.94619 3.4227L9.39886 5.34635L10.1519 5.56061L10.6992 3.63696ZM9.94619 3.4227L10.4935 1.49905L9.74046 1.28479L9.19314 3.20844L8.64581 5.13209L9.39886 5.34635L9.94619 3.4227ZM9.19314 3.20844L9.74046 1.28479C9.24753 1.14453 8.75527 1.00069 8.26368 0.853262L7.68915 2.76896L7.11461 4.68466C7.62428 4.83752 8.13468 4.98666 8.64581 5.13209L9.19314 3.20844ZM7.68915 2.76896L8.26368 0.853262L7.51274 0.628049L6.93821 2.54375L6.36367 4.45945L7.11461 4.68466L7.68915 2.76896ZM6.93821 2.54375L7.51274 0.628049L6.7618 0.402836L6.18727 2.31854L5.61273 4.23424L6.36367 4.45945L6.93821 2.54375ZM6.18727 2.31854L6.7618 0.402836C5.85764 0.13167 4.93804 0.155882 4.05542 0.403888L4.59644 2.32932L5.13746 4.25476C5.37469 4.1881 5.51564 4.20512 5.61273 4.23424L6.18727 2.31854ZM4.59644 2.32932L4.05542 0.403888L3.21553 0.639886L3.75655 2.56532L4.29758 4.49075L5.13746 4.25476L4.59644 2.32932ZM3.75655 2.56532L3.21553 0.639886L2.37564 0.875884L2.91667 2.80132L3.45769 4.72675L4.29758 4.49075L3.75655 2.56532ZM2.91667 2.80132L2.37564 0.875884C2.13825 0.942589 2.17313 0.906072 2.35151 0.912629C2.43749 0.915789 2.76797 0.933594 3.14113 1.15822C3.34576 1.2814 3.56032 1.46594 3.73221 1.72626C3.90481 1.98764 3.993 2.26281 4.02531 2.51162L2.04196 2.76917L0.0586107 3.02671C0.144723 3.68986 0.52773 4.25386 1.07824 4.58524C1.5301 4.85724 1.97281 4.90141 2.20458 4.90993C2.67453 4.9272 3.13516 4.81738 3.45769 4.72675L2.91667 2.80132ZM2.04196 2.76917L4.02531 2.51162L3.99049 2.24348L2.00714 2.50102L0.023791 2.75856L0.0586107 3.02671L2.04196 2.76917ZM2.00714 2.50102L4.00409 2.61135L4.03269 2.09375L2.03574 1.98342L0.0387807 1.8731L0.0101849 2.39069L2.00714 2.50102ZM2.03574 1.98342L2.4098 0.0187174L2.31156 1.41859e-05L1.9375 1.96472L1.56344 3.92943L1.66167 3.94813L2.03574 1.98342Z" fill="#F7F2EF"/>
</svg>
