<svg width="23" height="18" viewBox="0 0 23 18" fill="none" xmlns="http://www.w3.org/2000/svg">
<path d="M0.840998 2.1698L0.593279 4.1544L0.334541 4.1221L0.0927315 4.02455L0.840998 2.1698ZM2.34562 2.35761L2.59334 0.373006L2.34562 2.35761ZM4.64053 2.38005L4.23091 0.422446L4.64053 2.38005ZM6.2211 2.04932L6.63072 4.00693L6.2211 2.04932ZM7.7711 2.27381L6.85801 4.05321V4.05321L7.7711 2.27381ZM9.29054 3.05351L10.2036 1.27411L9.29054 3.05351ZM12.9039 5.3378L14.621 4.31233L12.9039 5.3378ZM13.7147 6.69528L11.9976 7.72075L13.7147 6.69528ZM14.6755 7.92579L16.085 6.50687L14.6755 7.92579ZM15.7864 9.02934L17.1959 7.61042L15.7864 9.02934ZM16.9058 10.1257L18.2951 8.68693L16.9058 10.1257ZM18.0338 11.2148L19.423 9.77607L18.0338 11.2148ZM19.2138 14.3031L21.1576 13.8323L19.2138 14.3031ZM19.7514 15.1463L19.7234 13.1465L19.7514 15.1463ZM20.0837 15.1417L20.3664 17.1216L20.2397 17.1397L20.1117 17.1415L20.0837 15.1417ZM20.6837 15.056L20.401 13.0761L21.4963 12.9197L22.2107 13.7645L20.6837 15.056ZM0.74826 2.13239L1.49652 0.277635L1.58926 0.315048L0.840998 2.1698L0.0927315 4.02455L-5.72205e-06 3.98714L0.74826 2.13239ZM0.840998 2.1698L1.08871 0.185199L2.59334 0.373006L2.34562 2.35761L2.0979 4.34221L0.593279 4.1544L0.840998 2.1698ZM2.34562 2.35761L2.59334 0.373006C3.53438 0.490468 4.03411 0.463625 4.23091 0.422446L4.64053 2.38005L5.05015 4.33765C4.19323 4.51696 3.16302 4.47515 2.0979 4.34221L2.34562 2.35761ZM4.64053 2.38005L4.23091 0.422446L5.0212 0.257084L5.43082 2.21469L5.84043 4.17229L5.05015 4.33765L4.64053 2.38005ZM5.43082 2.21469L5.0212 0.257084L5.81148 0.0917206L6.2211 2.04932L6.63072 4.00693L5.84043 4.17229L5.43082 2.21469ZM6.2211 2.04932L5.81148 0.0917206C6.81369 -0.117986 7.79552 0.038384 8.6842 0.494415L7.7711 2.27381L6.85801 4.05321C6.73374 3.98944 6.68223 3.99615 6.63072 4.00693L6.2211 2.04932ZM7.7711 2.27381L8.6842 0.494415L9.44392 0.884265L8.53082 2.66366L7.61772 4.44306L6.85801 4.05321L7.7711 2.27381ZM8.53082 2.66366L9.44392 0.884265L10.2036 1.27411L9.29054 3.05351L8.37744 4.83291L7.61772 4.44306L8.53082 2.66366ZM9.29054 3.05351L10.2036 1.27411C10.7041 1.53093 11.1533 1.75809 11.5518 1.95596L10.6623 3.74729L9.77287 5.53861C9.35526 5.33125 8.88993 5.09589 8.37744 4.83291L9.29054 3.05351ZM10.6623 3.74729L11.5518 1.95596L12.1639 2.25989L11.2744 4.05121L10.385 5.84254L9.77287 5.53861L10.6623 3.74729ZM11.2744 4.05121L12.1639 2.25989L12.776 2.56382L11.8865 4.35514L10.997 6.14646L10.385 5.84254L11.2744 4.05121ZM11.8865 4.35514L12.776 2.56382C13.5789 2.9625 14.1856 3.58328 14.621 4.31233L12.9039 5.3378L11.1869 6.36328C11.0818 6.18735 11.0102 6.15302 10.997 6.14646L11.8865 4.35514ZM12.9039 5.3378L14.621 4.31233L15.0264 4.99106L13.3093 6.01654L11.5922 7.04202L11.1869 6.36328L12.9039 5.3378ZM13.3093 6.01654L15.0264 4.99106L15.4317 5.6698L13.7147 6.69528L11.9976 7.72075L11.5922 7.04202L13.3093 6.01654ZM13.7147 6.69528L15.4317 5.6698C15.6171 5.98022 15.8344 6.25795 16.085 6.50687L14.6755 7.92579L13.266 9.3447C12.7759 8.85792 12.3527 8.31532 11.9976 7.72075L13.7147 6.69528ZM14.6755 7.92579L16.085 6.50687L16.6404 7.05864L15.2309 8.47756L13.8214 9.89648L13.266 9.3447L14.6755 7.92579ZM15.2309 8.47756L16.6404 7.05864L17.1959 7.61042L15.7864 9.02934L14.3769 10.4483L13.8214 9.89648L15.2309 8.47756ZM15.7864 9.02934L17.1959 7.61042C17.5595 7.9716 17.9259 8.33044 18.2951 8.68693L16.9058 10.1257L15.5166 11.5644C15.1338 11.1948 14.7539 10.8228 14.3769 10.4483L15.7864 9.02934ZM16.9058 10.1257L18.2951 8.68693L18.8591 9.2315L17.4698 10.6703L16.0806 12.109L15.5166 11.5644L16.9058 10.1257ZM17.4698 10.6703L18.8591 9.2315L19.423 9.77607L18.0338 11.2148L16.6446 12.6536L16.0806 12.109L17.4698 10.6703ZM18.0338 11.2148L19.423 9.77607C20.1021 10.4318 20.5311 11.2455 20.7469 12.1365L18.8031 12.6073L16.8593 13.0781C16.8013 12.8386 16.7175 12.724 16.6446 12.6536L18.0338 11.2148ZM18.8031 12.6073L20.7469 12.1365L20.9523 12.9844L19.0085 13.4552L17.0647 13.926L16.8593 13.0781L18.8031 12.6073ZM19.0085 13.4552L20.9523 12.9844L21.1576 13.8323L19.2138 14.3031L17.27 14.7739L17.0647 13.926L19.0085 13.4552ZM19.2138 14.3031L21.1576 13.8323C21.2068 14.0353 21.2229 13.997 21.1373 13.8627C21.0885 13.7862 20.9654 13.6131 20.7332 13.4521C20.4769 13.2743 20.127 13.1409 19.7234 13.1465L19.7514 15.1463L19.7795 17.1462C18.669 17.1617 18.0251 16.4218 17.7645 16.013C17.4997 15.5977 17.3577 15.1361 17.27 14.7739L19.2138 14.3031ZM19.7514 15.1463L19.7234 13.1465L20.0557 13.1419L20.0837 15.1417L20.1117 17.1415L19.7795 17.1462L19.7514 15.1463ZM20.0837 15.1417L19.801 13.1618L20.401 13.0761L20.6837 15.056L20.9664 17.036L20.3664 17.1216L20.0837 15.1417ZM20.6837 15.056L22.2107 13.7645L22.2753 13.8408L20.7483 15.1324L19.2212 16.424L19.1566 16.3476L20.6837 15.056Z" fill="#F7F2EF"/>
</svg>
